<svg width="52" height="26" viewBox="0 0 52 26" fill="none" xmlns="http://www.w3.org/2000/svg">
<path d="M6 12.0626C8.77868 12.0626 11.0313 9.80993 11.0313 7.03125H6V12.0626Z" fill="black"/>
<path d="M6 19.6104V24.6417H11.0313C11.0313 21.863 8.77868 19.6104 6 19.6104Z" fill="black"/>
<path d="M36.1878 19.6104C33.4091 19.6104 31.1565 21.863 31.1565 24.6417H36.1878V19.6104Z" fill="black"/>
<path d="M36.188 14.704V24.6409H6V7.03125H36.188L30.6803 12.5389C29.6383 13.5809 29.6383 15.2704 30.6803 16.3124C31.7223 17.3544 33.4118 17.3544 34.4538 16.3124L39.9615 10.8047" stroke="black" stroke-width="1.80099" stroke-miterlimit="10" stroke-linecap="round" stroke-linejoin="round"/>
<path d="M36.188 19.6096C37.7988 19.6096 39.3435 18.9698 40.4825 17.8308L46.2506 12.0627V2H28.2094C26.875 2 25.5953 2.53005 24.6518 3.47368L21.094 7.03133" stroke="black" stroke-width="1.80099" stroke-miterlimit="10" stroke-linecap="round" stroke-linejoin="round"/>
<path d="M21.0941 19.6105C23.1781 19.6105 24.8675 17.921 24.8675 15.837C24.8675 13.7529 23.1781 12.0635 21.0941 12.0635C19.01 12.0635 17.3206 13.7529 17.3206 15.837C17.3206 17.921 19.01 19.6105 21.0941 19.6105Z" fill="black"/>
</svg>
