<svg width="120" height="40" viewBox="0 0 120 40" fill="none" xmlns="http://www.w3.org/2000/svg">
<rect width="120" height="40" fill="white"/>
<g clip-path="url(#clip0_3931_17004)">
<path d="M69.0909 27.3764C68.3449 27.5142 67.4835 27.5831 66.4759 27.5831C64.9069 27.5831 64.1224 26.8176 64.1224 25.2561V18.3825H68.3833C70.0677 18.3825 70.4753 17.9998 70.4753 16.4383V16.0556C70.4753 14.4941 70.0677 14.1113 68.3833 14.1113H64.1224V11.417C64.1224 9.9244 63.784 9.61057 62.1766 9.61057H61.9535C60.3461 9.61057 59.9 9.95502 59.7077 11.3787L59.2617 14.119L57.7311 14.4328C56.2698 14.7084 55.9006 15.1294 55.9006 16.5148V16.6526C55.9006 18.038 56.2775 18.3901 57.7696 18.3901H59.2693V25.2255C59.2693 29.6344 61.6613 31.8542 66.4836 31.8542C67.5681 31.8542 68.4679 31.7853 69.0986 31.6475C70.706 31.3337 71.1521 30.7443 71.1521 29.1828V28.8001C71.1444 27.2769 70.7753 27.1008 69.0909 27.3764ZM107.893 14.0807H107.185C105.501 14.0807 105.093 14.4634 105.093 16.0249V24.8428C105.093 26.787 104.416 27.5831 101.54 27.5831C98.6633 27.5831 97.9096 26.787 97.9096 24.8428V16.0249C97.9096 14.4634 97.5019 14.0807 95.8176 14.0807H95.11C93.4256 14.0807 93.018 14.4634 93.018 16.0249V24.8428C93.018 29.4278 95.8945 31.8542 101.547 31.8542C107.385 31.8542 110 29.5655 110 24.8428V16.0249C109.985 14.4634 109.577 14.0807 107.893 14.0807ZM51.6321 14.0884H50.9552C49.2709 14.0884 48.8633 14.4711 48.8633 16.0326V29.9176C48.8633 31.4791 49.2709 31.8619 50.9552 31.8619H51.6321C53.3164 31.8619 53.724 31.4791 53.724 29.9176V16.0326C53.724 14.4711 53.3087 14.0884 51.6321 14.0884ZM49.2324 8.20216C48.0711 9.27378 48.0711 10.9424 49.2324 12.0217C50.3938 13.101 52.1858 13.101 53.3472 12.0217C54.5085 10.9424 54.5085 9.28143 53.3472 8.20216C52.1935 7.13055 50.3938 7.13055 49.2324 8.20216ZM44.387 14.0884H43.6794C41.9951 14.0884 41.5874 14.4711 41.5874 16.0326V24.8504C41.5874 26.7947 40.9183 27.5907 38.0342 27.5907C35.1577 27.5907 34.4039 26.7947 34.4039 24.8504V16.0326C34.4039 14.4711 33.9963 14.0884 32.312 14.0884H31.6044C29.92 14.0884 29.5124 14.4711 29.5124 16.0326V24.8504C29.5124 29.4354 32.3889 31.8619 38.0418 31.8619C43.8717 31.8619 46.4944 29.5732 46.4944 24.8504V16.0326C46.4867 14.4711 46.0714 14.0884 44.387 14.0884ZM76.1052 7.37549H75.4284C73.7363 7.37549 73.321 7.75821 73.321 9.33501V29.9023C73.321 31.4791 73.7363 31.8619 75.4284 31.8619H76.1052C77.7973 31.8619 78.2126 31.4791 78.2126 29.9023V9.33501C78.2126 7.75821 77.7973 7.37549 76.1052 7.37549ZM90.2261 15.5427C91.226 14.3792 91.0798 14.0884 89.4801 14.0884H87.6957C86.0883 14.0884 85.4499 14.3869 84.4501 15.5427L80.8429 19.7144C79.9123 20.7707 79.4509 21.8652 79.4509 22.9598V22.9751C79.4509 24.0697 79.9123 25.1643 80.8429 26.2206L84.4501 30.3922C85.4499 31.548 86.0883 31.8466 87.6957 31.8466H89.4801C91.0875 31.8466 91.226 31.548 90.2261 30.3922L84.7654 24.1616C84.3347 23.6946 84.1271 23.1894 84.1271 22.9598C84.1271 22.7302 84.3424 22.225 84.7654 21.7581L90.2261 15.5427ZM25.0592 7.37549H24.3824C22.6904 7.37549 22.275 7.75821 22.275 9.33501V13.1699C23.9594 14.0501 25.3976 15.2978 26.459 16.7904C24.7208 15.1217 22.2827 14.0807 19.5831 14.0807C14.2916 14.0884 10 18.0687 10 22.9751C10 27.8892 14.2916 31.8695 19.5831 31.8695C22.2673 31.8695 24.69 30.8438 26.4282 29.1905C25.7053 30.1932 24.8285 31.0888 23.8056 31.8312C23.9825 31.8466 24.1747 31.8542 24.3824 31.8542H25.0592C26.7513 31.8542 27.1666 31.4715 27.1666 29.8947V9.33501C27.1666 7.75821 26.7513 7.37549 25.0592 7.37549Z" fill="#1F448C"/>
</g>
<defs>
<clipPath id="clip0_3931_17004">
<rect width="100" height="25" fill="white" transform="translate(10 7)"/>
</clipPath>
</defs>
</svg>
