<svg width="120" height="40" viewBox="0 0 120 40" fill="none" xmlns="http://www.w3.org/2000/svg">
<rect width="120" height="40" fill="white"/>
<path d="M41.7731 13.8389H41.8109C42.0377 13.8389 42.17 14.009 42.17 14.2357V24.4223C42.17 24.5924 42.0377 24.7814 41.8109 24.7814C41.6408 24.7814 41.4518 24.6491 41.4518 24.4223V14.198C41.4518 14.009 41.5841 13.8389 41.7731 13.8389ZM32.0779 14.368H38.7492C38.976 14.368 39.1083 14.5948 39.1083 14.7649C39.1083 14.935 38.976 15.124 38.7492 15.124H32.437V19.3763H38.1445C38.3146 19.3763 38.5036 19.5086 38.5036 19.7354C38.5036 19.9055 38.3713 20.0944 38.1445 20.0944H32.4937V24.479C32.4559 24.7058 32.2669 24.8759 32.059 24.8759C31.8322 24.8759 31.6621 24.7058 31.6621 24.479V14.7838H31.6999C31.681 14.5381 31.87 14.368 32.0779 14.368ZM51.4494 17.5242C51.4494 17.2974 51.2793 17.1651 51.0903 17.1651C50.8635 17.1651 50.7312 17.3352 50.7312 17.5242V21.7765C50.7312 23.2317 49.5406 24.3656 48.0854 24.3278C46.5356 24.3278 45.6474 23.3262 45.6474 21.7387V17.5242C45.6474 17.2974 45.4773 17.1651 45.2883 17.1651C45.1182 17.1651 44.9292 17.3352 44.9292 17.5242V21.871C44.9292 23.6664 46.0821 24.9893 47.972 24.9893C49.1248 25.0271 50.221 24.4223 50.7501 23.4018V24.4979C50.7501 24.7247 50.9202 24.857 51.1092 24.857C51.336 24.857 51.4683 24.6869 51.4683 24.4979H51.4305V17.5242H51.4494ZM58.1586 17.5809C58.1586 17.751 57.9885 17.8833 57.7995 17.8833H55.3615V22.7592C55.3615 23.8554 55.9852 24.2522 56.9112 24.2522C57.2136 24.2522 57.5349 24.2144 57.7995 24.1199C57.9696 24.1199 58.1019 24.2522 58.1019 24.4223C58.1019 24.5546 58.0074 24.6869 57.8751 24.7247C57.516 24.857 57.1191 24.8948 56.7789 24.8948C55.6261 24.8948 54.6622 24.2333 54.6622 22.8348V17.8833H53.8307C53.6606 17.8833 53.4716 17.7132 53.4716 17.5242C53.4716 17.3541 53.6417 17.2218 53.8307 17.2218H54.6622V15.124C54.6622 14.9539 54.7945 14.7649 54.9646 14.7649H55.0024C55.1725 14.7649 55.3615 14.935 55.3615 15.124V17.2218H57.7995C57.9885 17.2218 58.1586 17.3919 58.1586 17.5809ZM63.8283 17.8833C63.9984 17.8833 64.1873 17.751 64.1873 17.5809C64.1873 17.4108 64.0173 17.2218 63.8283 17.2218H61.3903V15.124C61.3903 14.9539 61.2202 14.7649 61.0312 14.7649H60.9934C60.8233 14.7649 60.691 14.935 60.691 15.124V17.2218H59.8595C59.6894 17.2218 59.5004 17.3541 59.5004 17.5242C59.5004 17.6943 59.6705 17.8833 59.8595 17.8833H60.691V22.8348C60.691 24.2333 61.6549 24.8948 62.8077 24.8948C63.1668 24.8948 63.5637 24.857 63.9039 24.7247C64.0362 24.6869 64.1306 24.5546 64.1306 24.4223C64.1306 24.2522 63.9984 24.1199 63.8283 24.1199C63.5637 24.2144 63.2613 24.2522 62.94 24.2522C62.014 24.2522 61.3903 23.8554 61.3903 22.7592V17.8833H63.8283ZM65.5103 21.0016C65.5103 18.7715 67.06 17.0139 69.1389 17.0139C71.3123 17.0139 72.673 18.7715 72.673 21.0016C72.673 21.1717 72.5029 21.3607 72.3139 21.3607H66.304C66.4363 23.2506 67.816 24.3467 69.309 24.3467C70.235 24.3467 71.1611 23.9498 71.7848 23.2884C71.8226 23.2506 71.917 23.1939 72.0115 23.1939C72.1816 23.1939 72.3706 23.364 72.3706 23.553C72.3706 23.6475 72.3328 23.7231 72.2383 23.8176C71.4824 24.6491 70.3862 25.0838 69.2712 25.046C67.2301 25.046 65.5103 23.4585 65.5103 21.0583V21.0016ZM75.5457 19.4141C76.037 18.1478 77.2277 17.2218 78.5884 17.1273C78.8152 17.1273 78.9853 17.2974 78.9853 17.562C78.9853 17.7321 78.853 17.9589 78.6262 17.9589H78.5884C76.9442 18.129 75.5457 19.3196 75.5457 21.7765V24.5924C75.5079 24.8192 75.3756 24.9515 75.1488 24.9515C74.9787 24.9515 74.7897 24.7814 74.7897 24.5924V17.562C74.8275 17.3352 74.9598 17.2029 75.1866 17.2029C75.3567 17.2029 75.5457 17.373 75.5457 17.562V19.4141ZM90.646 16.7304C90.1168 16.7304 89.6821 17.0895 89.5498 17.5998L88.2647 21.682L86.9796 17.5998C86.8473 17.0706 86.3559 16.6737 85.7889 16.6737H85.6566C85.0897 16.6737 84.5983 17.0328 84.466 17.5998L83.1809 21.6442L81.9524 17.562C81.8201 17.0706 81.3855 16.6926 80.8563 16.6926H80.8185C80.2515 16.6926 79.7979 17.184 79.7979 17.751C79.7979 17.9211 79.8357 18.11 79.8924 18.2801L81.8768 23.9498C82.0091 24.5168 82.5005 24.9137 83.1053 24.9515H83.1998C83.7667 24.9515 84.2581 24.5546 84.4282 23.9876L85.7133 19.9433L86.9985 23.9876C87.1308 24.5546 87.6599 24.9515 88.2269 24.9515H88.3214C88.9451 24.9515 89.4742 24.5546 89.6065 23.9498L91.5909 18.2423C91.6287 18.1101 91.6854 17.94 91.6854 17.8077V17.7699C91.6665 17.184 91.2319 16.7304 90.646 16.7304ZM93.7454 17.1273C94.577 16.8627 95.4274 16.6926 96.3157 16.7304C97.5441 16.7304 98.4324 17.0895 99.0939 17.6565C99.7175 18.3557 100.02 19.2818 99.9821 20.2078V23.7987C99.9821 24.4223 99.4907 24.8948 98.886 24.8948C98.319 24.8948 97.8276 24.4979 97.7898 23.9309C97.1662 24.5924 96.2779 24.9893 95.3518 24.9326C93.8966 24.9326 92.6115 24.0632 92.6115 22.4757C92.6115 20.7181 93.9344 19.8866 95.8432 19.8866C96.5047 19.8866 97.1662 19.9811 97.7898 20.1889V20.0566C97.7898 19.0928 97.2229 18.6014 96.07 18.6014C95.5408 18.6014 95.0117 18.6392 94.4825 18.8282C94.388 18.866 94.2557 18.866 94.1801 18.866C93.6509 18.9038 93.2163 18.5069 93.2163 17.9967C93.1785 17.6187 93.3863 17.2596 93.7454 17.1273ZM106.786 17.4864C106.918 16.995 107.353 16.6926 107.844 16.6926C108.468 16.6926 108.94 17.184 108.94 17.751V17.7888C108.94 17.9589 108.902 18.1478 108.808 18.3179L106.427 23.9876C106.2 24.5546 105.671 24.9137 105.104 24.9515H104.971C104.348 24.9137 103.875 24.5168 103.686 23.9498L101.211 18.2801C101.116 18.11 101.078 17.9211 101.078 17.751C101.116 17.1273 101.607 16.6926 102.174 16.6926C102.704 16.6926 103.138 17.0517 103.271 17.5242L104.99 22.1355L106.786 17.4864ZM109.847 21.1717C109.942 23.364 111.832 25.0838 114.043 24.9515C115.064 24.9515 116.027 24.6491 116.821 23.9876C117.048 23.8176 117.124 23.5908 117.124 23.3262V23.2884C117.124 22.797 116.727 22.419 116.235 22.419C116.065 22.419 115.838 22.4568 115.706 22.5891C115.215 22.9482 114.648 23.1561 114.062 23.1183C113.098 23.1561 112.248 22.4946 112.115 21.5308H116.67C117.237 21.493 117.691 21.0016 117.634 20.4346V20.2645C117.634 18.2801 115.914 16.617 113.797 16.6737C111.454 16.6737 109.81 18.5636 109.81 20.8504V21.1717H109.847Z" fill="#10112B"/>
<path d="M66.2471 20.6431C66.3794 18.98 67.57 17.6948 69.0819 17.6948C70.8017 17.6948 71.7278 19.0934 71.8223 20.6431H66.2471ZM97.8085 21.966C97.8085 22.8354 97.0525 23.3645 95.9941 23.3267C95.2949 23.3267 94.7657 22.9677 94.7657 22.3629V22.3251C94.7657 21.6636 95.3894 21.2289 96.3532 21.2289C96.8446 21.2289 97.3738 21.3612 97.8085 21.5313V21.966ZM113.816 18.4886C112.89 18.4886 112.266 19.1501 112.096 20.2084H115.498C115.366 19.1879 114.742 18.4886 113.816 18.4886Z" fill="white"/>
<path d="M20.2467 8.79348C30.1876 7.30045 23.8186 15.7672 20.7381 18.1485C22.8547 19.7738 25.0281 22.0606 25.9542 24.6498C27.674 29.3934 23.4406 30.0927 20.2467 28.902C16.7504 27.6736 13.6698 25.0466 11.6287 21.9661C11.0618 21.9661 10.4381 21.8716 9.85222 21.7015C11.0051 24.9521 11.4964 28.2784 11.1751 30.9998C11.1751 25.5191 8.56708 20.0762 4.80618 15.5404C3.48324 13.9529 4.84397 12.7812 6.03461 14.312C6.84727 15.427 7.58433 16.5799 8.2458 17.7705C9.54983 13.3103 15.8999 9.41715 20.2467 8.79348ZM18.8293 16.8634C20.7759 15.6727 26.6913 9.32265 21.1727 9.88962C17.9977 10.2487 14.1423 13.1781 12.5548 15.068C14.766 14.8034 17.0149 15.7672 18.8293 16.8634ZM13.3485 21.796C15.125 23.7804 17.5441 25.7081 20.1522 26.4074C21.6641 26.8043 23.3272 26.6342 22.7225 24.4797C22.0988 22.4953 20.5113 20.7566 18.9615 19.4336C18.5269 19.736 18.0355 20.0573 17.5441 20.2652C16.2212 21.0023 14.8038 21.5314 13.3485 21.796Z" fill="#EBA12A"/>
<path d="M12.4982 16.4667C14.0102 16.3344 15.6355 17.1281 16.8828 17.9219C15.6922 18.4889 14.3692 18.848 12.9896 18.9236C10.9674 18.9425 10.5516 16.6557 12.4982 16.4667Z" fill="white"/>
</svg>
