<svg width="120" height="40" viewBox="0 0 120 40" fill="none" xmlns="http://www.w3.org/2000/svg">
<rect width="120" height="40" fill="white"/>
<path d="M24.9016 10.3292H19.3443V14.1555H23.8994V15.4309H19.3443V20.5327H17.8867V9.05371H24.9016V10.3292ZM33.374 20.5327L30.641 15.7953H28.4545V20.5327H26.9969V9.05371H31.2787C32.2262 9.05371 33.0397 9.38802 33.7202 10.0558C34.4007 10.7237 34.7406 11.5135 34.7406 12.4245C34.7406 12.9228 34.6495 13.3783 34.4673 13.7911C34.2969 14.1919 34.091 14.508 33.8478 14.7385C33.6161 14.9487 33.3661 15.1377 33.1007 15.3034C32.8575 15.4618 32.6452 15.5648 32.463 15.6131L32.2079 15.7042L35.0139 20.5327H33.374ZM28.4545 10.3292V14.5199H31.2787C31.8253 14.5199 32.2927 14.3195 32.6817 13.9186C32.8767 13.7225 33.0305 13.4892 33.1337 13.2325C33.237 12.9759 33.2878 12.7011 33.2829 12.4245C33.2829 11.8415 33.0825 11.3495 32.6817 10.9487C32.2935 10.5359 31.8253 10.3292 31.2787 10.3292H28.4545ZM38.5613 19.2572H44.574V20.5327H37.1037V9.05371H44.3918V10.3292H38.5613V13.9733H43.9363V15.2487H38.5613V19.2572ZM48.4003 19.2572H54.413V20.5327H46.9427V9.05371H54.2308V10.3292H48.4003V13.9733H53.7761V15.2487H48.4011L48.4003 19.2572Z" fill="#FA5745"/>
<path d="M58.2418 9.05399V20.533H56.7842V9.05399H58.2418ZM63.0702 20.533L58.2418 14.7024L62.7058 9.05399H64.4367L59.8816 14.7024L64.8011 20.533H63.0702ZM73.1762 20.533L72.083 17.7088H67.3457L66.2524 20.533H64.7029L69.0758 9.05399H70.3512L74.7249 20.533H73.1762ZM69.7143 11.4227L67.8012 16.4333H71.6274L69.7127 11.4227H69.7143ZM75.5409 12.0604C75.5409 11.2587 75.8989 10.5417 76.6159 9.91036C77.3328 9.27898 78.2193 8.96289 79.276 8.96289C80.2718 8.96289 81.11 9.30354 81.7905 9.98324C82.4828 10.6511 82.829 11.4647 82.829 12.4248H81.3714C81.3714 11.7934 81.171 11.2706 80.7701 10.8578C80.3693 10.4451 79.871 10.2383 79.276 10.2383C78.6201 10.2383 78.0735 10.4269 77.6362 10.8032C77.2108 11.1676 76.9985 11.5867 76.9985 12.0604C76.9985 12.5706 77.2045 12.9833 77.618 13.2994C78.0434 13.6155 78.5528 13.8642 79.1485 14.0464C79.7434 14.2168 80.3392 14.4109 80.9341 14.6295C81.5417 14.8481 82.0511 15.1999 82.4646 15.6863C82.89 16.16 83.1023 16.7732 83.1023 17.5266C83.1023 18.3766 82.7498 19.1054 82.0455 19.713C81.3405 20.3207 80.4176 20.6241 79.276 20.6241C78.1099 20.6241 77.1807 20.3024 76.4883 19.6584C75.796 19.0143 75.4498 18.1825 75.4498 17.1622H76.9074C76.9074 17.8545 77.1078 18.3948 77.5087 18.7838C77.9214 19.1601 78.5108 19.3486 79.276 19.3486C80.0167 19.3486 80.5942 19.1783 81.007 18.8385C81.4324 18.4859 81.6447 18.0486 81.6447 17.5266C81.6447 17.0164 81.4324 16.6037 81.007 16.2876C80.5942 15.9715 80.0896 15.7291 79.4947 15.5587C78.8998 15.3765 78.2985 15.1761 77.6909 14.9575C77.1025 14.7434 76.5766 14.3866 76.1604 13.9189C75.7476 13.4333 75.5409 12.8138 75.5409 12.0604ZM84.5623 12.0604C84.5623 11.2587 84.9204 10.5417 85.6373 9.91036C86.3535 9.27898 87.2407 8.96289 88.2975 8.96289C89.2933 8.96289 90.1314 9.30354 90.8119 9.98324C91.5043 10.6511 91.8497 11.4647 91.8497 12.4248H90.3921C90.3921 11.7934 90.1924 11.2706 89.7916 10.8578C89.3907 10.4451 88.8924 10.2383 88.2975 10.2383C87.6416 10.2383 87.095 10.4269 86.6577 10.8032C86.2323 11.1676 86.02 11.5867 86.02 12.0604C86.02 12.5706 86.2259 12.9833 86.6394 13.2994C87.0641 13.6155 87.5742 13.8642 88.17 14.0464C88.7649 14.2168 89.3598 14.4109 89.9556 14.6295C90.5624 14.8481 91.0725 15.1999 91.4861 15.6863C91.9107 16.16 92.1238 16.7732 92.1238 17.5266C92.1238 18.3766 91.7713 19.1054 91.067 19.713C90.362 20.3207 89.439 20.6241 88.2975 20.6241C87.1314 20.6241 86.2022 20.3024 85.509 19.6584C84.8174 19.0143 84.4712 18.1825 84.4712 17.1622H85.9289C85.9289 17.8545 86.1293 18.3948 86.5301 18.7838C86.9429 19.1601 87.5322 19.3486 88.2967 19.3486C89.0382 19.3486 89.6149 19.1783 90.0284 18.8385C90.4531 18.4859 90.6661 18.0486 90.6661 17.5266C90.6661 17.0164 90.4531 16.6037 90.0284 16.2876C89.6149 15.9715 89.1111 15.7291 88.5154 15.5587C87.9212 15.3765 87.3191 15.1761 86.7123 14.9575C86.124 14.7434 85.5981 14.3866 85.1818 13.9189C84.7683 13.4333 84.5623 12.8138 84.5623 12.0604ZM101.236 20.533L100.142 17.7088H95.405L94.3118 20.533H92.7631L97.136 9.05399H98.4114L102.784 20.533H101.236ZM97.7737 11.4227L95.8605 16.4333H99.6868L97.7737 11.4227Z" fill="#232323"/>
<path d="M18.326 26.2687C18.0226 26.6014 17.8713 27.0268 17.8713 27.5441C17.8713 28.0614 18.0226 28.4868 18.326 28.8195C18.6294 29.1523 18.9954 29.3186 19.424 29.3186C19.8526 29.3186 20.2185 29.1523 20.522 28.8195C20.8254 28.4868 20.9767 28.0614 20.9767 27.5441C20.9767 27.0268 20.8254 26.6014 20.522 26.2687C20.2185 25.9359 19.8526 25.7696 19.424 25.7696C18.9954 25.7696 18.6294 25.9359 18.326 26.2687ZM17.7604 25.0487L17.9822 25.6032C18.0194 25.5588 18.0749 25.5034 18.1486 25.4368C18.2222 25.3703 18.3886 25.2816 18.6476 25.1707C18.9067 25.0518 19.1839 24.9932 19.4794 24.9932C20.1298 24.9932 20.6812 25.2333 21.1319 25.7141C21.5835 26.195 21.8085 26.805 21.8085 27.5441C21.8085 28.2832 21.5827 28.8932 21.1319 29.3741C20.6804 29.8549 20.1298 30.095 19.4794 30.095C19.1839 30.095 18.9098 30.0395 18.6587 29.9286C18.4147 29.8177 18.2412 29.7068 18.1375 29.5959L17.9822 29.4295V31.8141H17.1504V25.0487H17.7604ZM24.7974 24.9932C25.3448 24.9932 25.7956 25.1596 26.1505 25.4923C26.5054 25.825 26.6828 26.2314 26.6828 26.7123V30.0395H26.0728L25.851 29.485C25.7994 29.5442 25.7438 29.5998 25.6847 29.6514C25.611 29.7179 25.4446 29.8098 25.1856 29.9286C24.9273 30.0395 24.6501 30.095 24.3538 30.095C23.8658 30.095 23.4665 29.9508 23.156 29.6624C23.0064 29.5288 22.8874 29.3646 22.807 29.1809C22.7266 28.9971 22.6868 28.7982 22.6902 28.5977C22.6902 28.0804 22.9231 27.6843 23.3889 27.411C23.8547 27.1298 24.6754 26.9896 25.851 26.9896V26.7123C25.851 26.4612 25.748 26.2425 25.5405 26.0579C25.442 25.9629 25.3256 25.8885 25.198 25.8389C25.0704 25.7894 24.9342 25.7659 24.7974 25.7696C24.2508 25.7696 23.9181 26.0096 23.7992 26.4905H22.912C22.9714 26.0548 23.1671 25.6959 23.4998 25.4147C23.8325 25.1334 24.265 24.9932 24.7974 24.9932ZM24.3538 29.3186C24.7752 29.3186 25.1301 29.1998 25.4185 28.9637C25.7068 28.7197 25.851 28.4496 25.851 28.1541V27.7659C24.9194 27.7659 24.2983 27.8364 23.9878 27.9766C23.6772 28.1169 23.522 28.3426 23.522 28.6532C23.522 28.8306 23.5996 28.9859 23.7549 29.119C23.9101 29.2521 24.1098 29.3186 24.3538 29.3186ZM29.3984 29.9286L27.4576 25.0487H28.3448L29.8421 28.875L31.3393 25.0487H32.2266L30.0639 30.4832C29.8642 30.9862 29.6535 31.3411 29.4317 31.5479C29.2178 31.7618 28.9477 31.8695 28.6221 31.8695L28.2894 31.8141V31.1486C28.5262 31.1486 28.7077 31.0971 28.8328 30.9933C28.9659 30.8904 29.0808 30.72 29.1766 30.4832L29.3984 29.9286ZM37.9961 24.9932C38.4548 24.9932 38.8461 25.1818 39.1717 25.5588C39.4965 25.9359 39.6597 26.4311 39.6597 27.045V30.0395H38.8279V27.045C38.8279 26.6457 38.732 26.3352 38.5395 26.1134C38.4566 26.0043 38.3491 25.9163 38.2257 25.8566C38.1024 25.7968 37.9667 25.767 37.8297 25.7696C37.5414 25.7696 37.2934 25.8884 37.0866 26.1245C36.8799 26.3613 36.7761 26.6679 36.7761 27.045V30.0395H35.9443V27.045C35.9443 26.6457 35.8485 26.3352 35.656 26.1134C35.573 26.0043 35.4655 25.9163 35.3422 25.8566C35.2188 25.7968 35.0832 25.767 34.9461 25.7696C34.6649 25.7696 34.4178 25.8916 34.2031 26.1356C33.9963 26.3796 33.8925 26.6822 33.8925 27.045V30.0395H33.0607V25.0487H33.6707L33.8925 25.6032C33.9055 25.5799 33.9203 25.5576 33.9369 25.5367C33.9591 25.5074 34.0074 25.459 34.0811 25.3925C34.1539 25.3194 34.2359 25.256 34.3251 25.2039C34.4138 25.1524 34.5287 25.1041 34.6689 25.0598C34.8091 25.0154 34.9572 24.9932 35.1125 24.9932C35.408 24.9932 35.671 25.0669 35.8999 25.215C36.1297 25.3632 36.2881 25.5105 36.3768 25.6587L36.4988 25.8805C36.5139 25.8583 36.5321 25.829 36.5543 25.7918C36.5765 25.7474 36.6319 25.6729 36.7207 25.5699C36.8094 25.467 36.9052 25.3774 37.009 25.3038C37.1383 25.2131 37.2803 25.1421 37.4305 25.093C37.6079 25.0265 37.7964 24.9932 37.9961 24.9932ZM44.2037 28.7086H45.0909C44.9064 29.1079 44.6394 29.4406 44.2924 29.7068C43.9454 29.9659 43.5272 30.095 43.0392 30.095C42.3888 30.095 41.8374 29.8549 41.3867 29.3741C40.9351 28.8932 40.7101 28.2832 40.7101 27.5441C40.7101 26.8121 40.9319 26.2053 41.3756 25.7252C41.8271 25.2372 42.3626 24.9932 42.9837 24.9932C43.6048 24.9932 44.13 25.2261 44.5586 25.6919C44.9872 26.1577 45.2018 26.7567 45.2018 27.4886L45.1464 27.9323H41.5974C41.6275 28.2943 41.7859 28.6159 42.0743 28.8972C42.3626 29.1784 42.6843 29.3186 43.0392 29.3186C43.5121 29.3186 43.9003 29.115 44.2037 28.7086ZM42.9837 25.7696C42.651 25.7696 42.3476 25.9066 42.0743 26.1799C41.8081 26.4532 41.6489 26.7978 41.5974 27.2114H44.3146C44.2631 26.7757 44.111 26.4271 43.8599 26.1688C43.6159 25.9027 43.3244 25.7696 42.9837 25.7696ZM48.5805 24.9932C49.12 24.9932 49.5787 25.1968 49.9558 25.6032C50.3329 26.0096 50.5214 26.5277 50.5214 27.1559V30.0395H49.6896V27.1559C49.6896 26.7495 49.5708 26.4168 49.3347 26.1577C49.2273 26.0341 49.0943 25.9354 48.9449 25.8684C48.7955 25.8013 48.6333 25.7676 48.4696 25.7696C48.0775 25.7696 47.7559 25.8987 47.5047 26.1577C47.2607 26.4089 47.1387 26.7416 47.1387 27.1559V30.0395H46.3069V25.0487H46.9169L47.1387 25.6032C47.1752 25.5588 47.2306 25.5034 47.3051 25.4368C47.3788 25.3703 47.538 25.2816 47.782 25.1707C48.0331 25.0518 48.2993 24.9932 48.5805 24.9932ZM52.4052 24.4387V23.7178H53.1261V25.0487H54.2352V25.825H53.1261V28.4314C53.1261 28.7047 53.1998 28.9225 53.3479 29.0857C53.5032 29.241 53.7068 29.3186 53.9579 29.3186L54.2352 29.2632V29.9841C54.1243 30.0577 53.9579 30.095 53.7361 30.095C53.3368 30.095 52.997 29.9397 52.7158 29.6292C52.4345 29.3186 52.2943 28.9194 52.2943 28.4314V25.825H51.4071V25.0487H51.7952C52.2016 25.0487 52.4052 24.8451 52.4052 24.4387ZM61.113 28.5977C61.113 29.0263 60.9545 29.3852 60.6361 29.6735C60.3255 29.9548 59.912 30.095 59.3939 30.095C58.8544 30.095 58.4219 29.9508 58.0963 29.6624C57.7715 29.3741 57.5941 29.001 57.564 28.5423H58.3958C58.4259 28.772 58.5257 28.9598 58.6952 29.1079C58.8655 29.2481 59.0984 29.3186 59.3939 29.3186C59.6601 29.3186 59.8748 29.2481 60.0372 29.1079C60.1136 29.0467 60.1753 28.9691 60.2175 28.8807C60.2598 28.7924 60.2815 28.6956 60.2812 28.5977C60.2839 28.5046 60.2604 28.4126 60.2134 28.3322C60.1663 28.2518 60.0976 28.1862 60.015 28.143C59.8376 28.0321 59.6189 27.9505 59.3607 27.899C59.1095 27.8396 58.8537 27.773 58.5954 27.6994C58.34 27.6276 58.112 27.4808 57.9411 27.2779C57.7636 27.064 57.6749 26.7828 57.6749 26.435C57.6749 26.0358 57.8301 25.6959 58.1407 25.4147C58.4512 25.1334 58.8505 24.9932 59.3385 24.9932C59.8566 24.9932 60.263 25.1303 60.5584 25.4036C60.8619 25.6769 61.0282 26.0397 61.0575 26.4905H60.2257C60.1671 26.0096 59.8708 25.7696 59.3385 25.7696C59.1024 25.7696 58.9028 25.8361 58.7396 25.9692C58.5843 26.1023 58.5067 26.2576 58.5067 26.435C58.5067 26.6347 58.5954 26.7899 58.7728 26.9008C58.9503 27.0038 59.165 27.0854 59.4161 27.1448C59.6752 27.1963 59.9342 27.2597 60.1925 27.3334C60.4515 27.407 60.6694 27.5512 60.8468 27.7659C61.0243 27.9727 61.113 28.2499 61.113 28.5977ZM63.5482 29.9286L61.6073 25.0487H62.4946L63.9918 28.875L65.489 25.0487H66.3763L64.2136 30.4832C64.014 30.9862 63.8033 31.3411 63.5814 31.5479C63.3668 31.7618 63.0966 31.8695 62.7718 31.8695L62.4391 31.8141V31.1486C62.6752 31.1486 62.8566 31.0971 62.9825 30.9933C63.1156 30.8904 63.2297 30.72 63.3264 30.4832L63.5482 29.9286ZM70.4814 28.5977C70.4814 29.0263 70.323 29.3852 70.0045 29.6735C69.694 29.9548 69.2805 30.095 68.7624 30.095C68.2237 30.095 67.7903 29.9508 67.4648 29.6624C67.14 29.3741 66.9625 29.001 66.9324 28.5423H67.7642C67.7887 28.762 67.8957 28.9642 68.0637 29.1079C68.234 29.2481 68.4677 29.3186 68.7624 29.3186C69.0285 29.3186 69.2432 29.2481 69.4056 29.1079C69.482 29.0467 69.5436 28.969 69.5859 28.8807C69.6281 28.7924 69.6499 28.6956 69.6496 28.5977C69.6524 28.5046 69.6289 28.4126 69.5818 28.3322C69.5347 28.2518 69.466 28.1862 69.3834 28.143C69.206 28.0321 68.9881 27.9505 68.7291 27.899C68.478 27.8396 68.2229 27.773 67.9638 27.6994C67.7084 27.6276 67.4804 27.4808 67.3095 27.2779C67.132 27.064 67.0433 26.7828 67.0433 26.435C67.0433 26.0358 67.1986 25.6959 67.5091 25.4147C67.8197 25.1334 68.2189 24.9932 68.7069 24.9932C69.225 24.9932 69.6314 25.1303 69.9269 25.4036C70.2303 25.6769 70.3967 26.0397 70.426 26.4905H69.5942C69.5355 26.0096 69.2393 25.7696 68.7069 25.7696C68.4708 25.7696 68.2712 25.8361 68.108 25.9692C67.9527 26.1023 67.8751 26.2576 67.8751 26.435C67.8751 26.6347 67.9638 26.7899 68.1413 26.9008C68.3187 27.0038 68.5334 27.0854 68.7845 27.1448C69.0436 27.1963 69.3026 27.2597 69.5609 27.3334C69.8199 27.407 70.0378 27.5512 70.2152 27.7659C70.3927 27.9727 70.4814 28.2499 70.4814 28.5977ZM72.0848 24.4387V23.7178H72.8057V25.0487H73.9148V25.825H72.8057V28.4314C72.8057 28.7047 72.8794 28.9225 73.0275 29.0857C73.1828 29.241 73.3864 29.3186 73.6375 29.3186L73.9148 29.2632V29.9841C73.8039 30.0577 73.6375 30.095 73.4157 30.095C73.0164 30.095 72.6758 29.9397 72.3953 29.6292C72.1141 29.3186 71.9739 28.9194 71.9739 28.4314V25.825H71.0867V25.0487H71.4748C71.8812 25.0487 72.0848 24.8451 72.0848 24.4387ZM78.191 28.7086H79.0783C78.8982 29.102 78.6239 29.4448 78.2797 29.7068C77.9312 29.9659 77.5145 30.095 77.0265 30.095C76.3753 30.095 75.8247 29.8549 75.3732 29.3741C74.9224 28.8932 74.6967 28.2832 74.6967 27.5441C74.6967 26.8121 74.9185 26.2053 75.3621 25.7252C75.8136 25.2372 76.3492 24.9932 76.9702 24.9932C77.5921 24.9932 78.1165 25.2261 78.5459 25.6919C78.9737 26.1577 79.1884 26.7567 79.1884 27.4886L79.1329 27.9323H75.5839C75.614 28.2943 75.7732 28.6159 76.0616 28.8972C76.3492 29.1784 76.6716 29.3186 77.0265 29.3186C77.4994 29.3186 77.8876 29.115 78.191 28.7086ZM76.971 25.7696C76.6383 25.7696 76.3349 25.9066 76.0616 26.1799C75.7946 26.4532 75.6362 26.7978 75.5839 27.2114H78.3011C78.2496 26.7757 78.0983 26.4271 77.8464 26.1688C77.6024 25.9027 77.3117 25.7696 76.971 25.7696ZM85.2288 24.9932C85.6875 24.9932 86.0788 25.1818 86.4044 25.5588C86.7292 25.9359 86.8924 26.4311 86.8924 27.045V30.0395H86.0606V27.045C86.0606 26.6457 85.9648 26.3352 85.7723 26.1134C85.6893 26.0043 85.5818 25.9163 85.4585 25.8566C85.3352 25.7968 85.1995 25.767 85.0625 25.7696C84.7741 25.7696 84.5262 25.8884 84.3194 26.1245C84.1126 26.3613 84.0089 26.6679 84.0089 27.045V30.0395H83.1771V27.045C83.1771 26.6457 83.0812 26.3352 82.8887 26.1134C82.8057 26.0043 82.6982 25.9163 82.5749 25.8566C82.4516 25.7968 82.3159 25.767 82.1789 25.7696C81.8977 25.7696 81.6505 25.8916 81.4358 26.1356C81.2291 26.3796 81.1253 26.6822 81.1253 27.045V30.0395H80.2935V25.0487H80.9035L81.1253 25.6032C81.1383 25.5799 81.1531 25.5576 81.1696 25.5367C81.1918 25.5074 81.2401 25.459 81.3138 25.3925C81.3875 25.3188 81.4691 25.2554 81.5578 25.2039C81.6465 25.1524 81.7614 25.1041 81.9016 25.0598C82.0418 25.0154 82.19 24.9932 82.3453 24.9932C82.6407 24.9932 82.9037 25.0669 83.1327 25.215C83.3624 25.3632 83.5209 25.5105 83.6096 25.6587L83.7316 25.8805C83.7466 25.8583 83.7649 25.829 83.787 25.7918C83.8092 25.7474 83.8647 25.6729 83.9534 25.5699C84.0421 25.467 84.138 25.3774 84.2418 25.3038C84.3711 25.2131 84.5131 25.1421 84.6632 25.093C84.8407 25.0265 85.0292 24.9932 85.2288 24.9932Z" fill="#888888"/>
</svg>
