<svg width="120" height="40" viewBox="0 0 120 40" fill="none" xmlns="http://www.w3.org/2000/svg">
<rect width="120" height="40" fill="white"/>
<g clip-path="url(#clip0_3931_17009)">
<path fill-rule="evenodd" clip-rule="evenodd" d="M42.3555 35.9934C41.779 35.9934 41.1047 35.5513 41.1047 34.6054C41.1047 33.6703 41.779 33.2155 42.3555 33.2155C42.9126 33.2155 43.5699 33.6266 43.5699 34.6054C43.5699 35.5659 42.9126 35.9934 42.3555 35.9934ZM43.8342 32.7243C43.6772 32.7243 43.541 32.8585 43.541 33.0245V33.4556C43.3191 32.9749 42.8129 32.702 42.2716 32.702C41.4764 32.702 40.5146 33.3333 40.5146 34.6054C40.5146 35.8911 41.4764 36.5182 42.2716 36.5182C42.9054 36.5182 43.398 36.1289 43.541 35.6937V36.2085C43.541 36.365 43.6772 36.5082 43.8342 36.5082C43.9961 36.5082 44.1337 36.365 44.1337 36.2081V33.0245C44.1337 32.8585 44.0061 32.7243 43.8342 32.7243ZM49.4367 33.8704H48.609V32.2795H49.4367C49.9744 32.2795 50.3722 32.4942 50.3722 33.0818C50.3722 33.6753 49.9744 33.8704 49.4367 33.8704ZM49.4809 31.4577H48.1737C47.8656 31.4577 47.6445 31.6788 47.6445 31.9862V36.0307C47.6445 36.2958 47.8597 36.5182 48.1299 36.5182C48.3956 36.5182 48.609 36.2954 48.609 36.0307V34.6904H49.4809C50.5928 34.6904 51.3069 33.9991 51.3069 33.0818C51.3069 32.1799 50.5928 31.4577 49.4809 31.4577ZM53.5673 35.7046C53.0959 35.7046 52.6042 35.3426 52.6042 34.6049C52.6042 33.8754 53.0959 33.5043 53.5673 33.5043C53.967 33.5043 54.4965 33.7967 54.4965 34.6049C54.4965 35.4126 53.967 35.7046 53.5673 35.7046ZM54.9237 32.7243C54.6684 32.7243 54.4514 32.9381 54.4514 33.1869V33.3119C54.3102 32.9745 53.9038 32.7025 53.395 32.7025C52.6155 32.7025 51.6678 33.3333 51.6678 34.6049C51.6678 35.907 52.6105 36.5182 53.3954 36.5182C54.017 36.5182 54.3968 36.1285 54.4514 35.907V36.0434C54.4514 36.3022 54.6684 36.5082 54.9237 36.5082C55.1741 36.5082 55.4014 36.3022 55.4014 36.0439V33.1869C55.4014 32.9381 55.1745 32.7243 54.9237 32.7243ZM59.3047 32.7243C59.126 32.7243 58.96 32.8235 58.8626 33.0536L57.8828 35.2698L56.9274 33.0536C56.8255 32.8235 56.6554 32.7243 56.4773 32.7243C56.2332 32.7243 56.0483 32.9181 56.0483 33.1427C56.0483 33.231 56.0771 33.3042 56.0983 33.362L57.4259 36.2954L57.019 37.2254C57.0001 37.2818 56.9712 37.3519 56.9712 37.4415C56.9712 37.6666 57.1422 37.8599 57.3826 37.8599C57.5635 37.8599 57.7353 37.7616 57.8337 37.5329L59.6849 33.362C59.7111 33.3042 59.7422 33.231 59.7422 33.1432C59.7422 32.9181 59.5541 32.7243 59.3047 32.7243ZM64.1182 31.4341C63.8449 31.4341 63.6166 31.6474 63.6166 31.9034V34.6563C63.6166 35.4072 63.1475 35.7046 62.589 35.7046C62.0414 35.7046 61.5606 35.4072 61.5606 34.6563V31.9034C61.5606 31.6474 61.3332 31.4341 61.0675 31.4341C60.8032 31.4341 60.5975 31.6474 60.5975 31.9034V34.6713C60.5975 35.8288 61.4771 36.5182 62.589 36.5182C63.6965 36.5182 64.5819 35.8288 64.5819 34.6713V31.9034C64.5819 31.6474 64.3803 31.4341 64.1182 31.4341ZM69.354 33.2255C69.6697 33.2255 70.0248 33.3547 70.2381 33.6394C70.2968 33.7117 70.3825 33.7767 70.4885 33.7767C70.6247 33.7767 70.7393 33.6758 70.7393 33.5316C70.7393 33.4184 70.6603 33.3392 70.6035 33.2692C70.2891 32.8871 69.8412 32.702 69.3251 32.702C68.482 32.702 67.4675 33.3269 67.4675 34.6049C67.4675 35.8783 68.4825 36.5032 69.3251 36.5032C69.8412 36.5032 70.2891 36.3086 70.6035 35.9311C70.6603 35.8633 70.7393 35.7874 70.7393 35.6737C70.7393 35.53 70.6247 35.4281 70.4885 35.4281C70.3829 35.4281 70.2968 35.4908 70.2381 35.5659C70.0248 35.851 69.6697 35.9798 69.354 35.9798C68.7189 35.9798 68.0558 35.5222 68.0558 34.6049C68.0558 33.683 68.7189 33.2255 69.354 33.2255ZM73.0813 35.9934C72.4886 35.9934 71.8115 35.5295 71.8115 34.6131C71.8115 33.6903 72.4886 33.226 73.0813 33.226C73.6808 33.226 74.3534 33.6903 74.3534 34.6131C74.3534 35.53 73.6808 35.9934 73.0813 35.9934ZM73.0813 32.702C72.2603 32.702 71.2228 33.3392 71.2228 34.6131C71.2228 35.8911 72.2603 36.5187 73.0813 36.5187C73.9113 36.5187 74.9443 35.8911 74.9443 34.6131C74.9443 33.3397 73.9113 32.702 73.0813 32.702ZM80.31 32.707C79.5603 32.707 79.0866 33.2046 78.8886 33.6394C78.6712 32.9595 78.1154 32.707 77.5877 32.707C76.7387 32.707 76.2958 33.362 76.2538 33.6044V33.024C76.2538 32.8585 76.1185 32.7243 75.9593 32.7243C75.7955 32.7243 75.6602 32.8585 75.6602 33.0245V36.2035C75.6602 36.3568 75.7955 36.5032 75.9593 36.5032C76.1189 36.5032 76.2538 36.3568 76.2538 36.2031V34.2556C76.317 33.8468 76.6887 33.2305 77.4158 33.2305C77.9156 33.2305 78.3865 33.5252 78.3865 34.3038V36.2035C78.3865 36.3568 78.5147 36.5032 78.6798 36.5032C78.8449 36.5032 78.9793 36.3568 78.9793 36.2031V34.2556C79.0456 33.8468 79.4159 33.2305 80.1453 33.2305C80.6451 33.2305 81.1084 33.5252 81.1084 34.3038V36.2035C81.1084 36.3568 81.2437 36.5032 81.4102 36.5032C81.5717 36.5032 81.7007 36.3568 81.7007 36.2031V34.3038C81.7007 33.1155 80.9866 32.707 80.31 32.707ZM84.358 35.9934C83.8005 35.9934 83.1446 35.5659 83.1446 34.6054C83.1446 33.6266 83.8005 33.2155 84.358 33.2155C84.9377 33.2155 85.6062 33.6703 85.6062 34.6054C85.6062 35.5513 84.9377 35.9934 84.358 35.9934ZM84.4424 32.702C83.8984 32.702 83.3936 32.9749 83.1717 33.4556V33.0245C83.1717 32.8585 83.0373 32.7243 82.8803 32.7243C82.708 32.7243 82.5821 32.8585 82.5821 33.0245V37.5615C82.5821 37.7243 82.7165 37.8603 82.8798 37.8603C83.0377 37.8603 83.1775 37.7239 83.1775 37.5615V35.7146C83.33 36.1407 83.814 36.5182 84.4424 36.5182C85.2354 36.5182 86.2003 35.8906 86.2003 34.6054C86.2003 33.3333 85.2354 32.702 84.4424 32.702ZM88.5581 35.9934C87.9776 35.9934 87.3068 35.5513 87.3068 34.6054C87.3068 33.6703 87.9776 33.2155 88.5586 33.2155C89.1125 33.2155 89.7711 33.6266 89.7711 34.6054C89.7711 35.5659 89.1125 35.9934 88.5586 35.9934M90.0341 32.7243C89.8793 32.7243 89.7409 32.8585 89.7409 33.0245V33.4556C89.5203 32.9749 89.0123 32.702 88.4715 32.702C87.6798 32.702 86.7159 33.3333 86.7159 34.6054C86.7159 35.8911 87.6798 36.5182 88.4715 36.5182C89.1062 36.5182 89.5992 36.1289 89.7413 35.6937V36.2085C89.7413 36.365 89.8793 36.5082 90.0345 36.5082C90.2001 36.5082 90.3322 36.365 90.3322 36.2081V33.0245C90.3322 32.8585 90.2055 32.7243 90.0341 32.7243ZM93.119 32.707C92.2688 32.707 91.8244 33.362 91.7838 33.6044V33.024C91.7838 32.8585 91.6485 32.7243 91.4915 32.7243C91.3282 32.7243 91.1911 32.8585 91.1911 33.0245V36.2035C91.1911 36.3568 91.3282 36.5032 91.4915 36.5032C91.6485 36.5032 91.7834 36.3568 91.7834 36.2031V34.2556C91.8483 33.8468 92.2209 33.2305 92.9485 33.2305C93.4465 33.2305 93.9206 33.5252 93.9206 34.3038V36.2035C93.9206 36.3568 94.0483 36.5032 94.2138 36.5032C94.3762 36.5032 94.5115 36.3568 94.5115 36.2031V34.3038C94.5115 33.1155 93.7912 32.707 93.119 32.707ZM98.113 32.7243C97.9976 32.7243 97.8897 32.7871 97.8315 32.9244L96.6632 35.6582L95.4981 32.9249C95.4421 32.7871 95.3325 32.7248 95.2184 32.7248C95.0632 32.7248 94.9396 32.8535 94.9396 32.9968C94.9396 33.0536 94.9545 33.0895 94.9694 33.1305L96.37 36.3368L95.8914 37.4542C95.8752 37.4979 95.8598 37.5329 95.8598 37.5906C95.8598 37.7316 95.9681 37.8599 96.126 37.8599C96.2406 37.8599 96.3479 37.7967 96.4048 37.6616L98.3625 33.1305C98.376 33.0895 98.3895 33.0531 98.3895 32.9968C98.3895 32.8535 98.2687 32.7243 98.113 32.7243Z" fill="#060809"/>
<path fill-rule="evenodd" clip-rule="evenodd" d="M20.294 8.95703C19.1464 8.95703 18.2158 9.88936 18.2158 11.0364V23.2126C18.2158 24.3637 19.146 25.2937 20.2935 25.2937C21.4402 25.2937 22.3708 24.3637 22.3708 23.2126V11.0364C22.3708 9.88891 21.4406 8.95703 20.294 8.95703Z" fill="#1E64FF"/>
<mask id="mask0_3931_17009" style="mask-type:luminance" maskUnits="userSpaceOnUse" x="17" y="2" width="6" height="5">
<path d="M17.9912 2.32764H22.5815V6.92925H17.9912V2.32764Z" fill="#1E64FF"/>
</mask>
<g mask="url(#mask0_3931_17009)">
<path fill-rule="evenodd" clip-rule="evenodd" d="M20.2859 2.32764C19.0183 2.32764 17.9912 3.35775 17.9912 4.6289C17.9912 5.89732 19.0188 6.92925 20.2859 6.92925C21.5525 6.92925 22.5815 5.89686 22.5815 4.6289C22.5815 3.35775 21.553 2.32764 20.2859 2.32764Z" fill="#1E64FF"/>
</g>
<path fill-rule="evenodd" clip-rule="evenodd" d="M57.478 23.2136C57.478 22.0657 56.547 21.1306 55.3981 21.1306H49.6598L56.9936 12.3758C57.7293 11.4958 57.6147 10.1805 56.7365 9.44514C56.3273 9.0995 55.8262 8.94077 55.3295 8.95806C55.3065 8.95533 46.1531 8.95806 46.1531 8.95806C45.0046 8.95806 44.0754 9.89038 44.0754 11.0369C44.0754 12.188 45.0046 13.1231 46.1531 13.1231H50.9463L43.6143 21.8756C42.8759 22.7579 42.9918 24.07 43.8697 24.8072C44.2589 25.1374 44.7339 25.2947 45.2058 25.2947H55.3981C56.547 25.2947 57.478 24.3647 57.478 23.2136ZM75.7895 12.8456C76.9276 12.8456 77.9939 13.2877 78.7991 14.0954C79.6102 14.9063 80.926 14.9063 81.7384 14.0954C82.5468 13.2813 82.5468 11.9633 81.7384 11.1502C80.1488 9.55656 78.0359 8.68018 75.789 8.68018C73.5449 8.68018 71.4329 9.55656 69.845 11.1497C68.2563 12.7429 67.3808 14.8563 67.3808 17.1084C67.3808 19.3587 68.2559 21.4767 69.845 23.0653C71.4329 24.6585 73.5449 25.5371 75.789 25.5371C78.0359 25.5371 80.1488 24.6585 81.7389 23.0653C82.5468 22.2553 82.5468 20.9369 81.7389 20.1237C80.926 19.3087 79.6097 19.3087 78.7991 20.1237C77.9939 20.926 76.9276 21.3744 75.789 21.3744C74.6536 21.3744 73.5855 20.926 72.783 20.1237C71.9787 19.3174 71.5366 18.2472 71.5366 17.1084C71.5366 15.9696 71.9787 14.8972 72.783 14.0954C73.5859 13.2877 74.6541 12.8456 75.7895 12.8456ZM92.5861 21.3744C90.2418 21.3744 88.3351 19.4597 88.3351 17.1084C88.3351 14.7571 90.2418 12.8456 92.5861 12.8456C94.9327 12.8456 96.8421 14.7571 96.8421 17.1084C96.8421 19.4597 94.9327 21.3744 92.5861 21.3744ZM92.5861 8.68018C87.9512 8.68018 84.1788 12.4609 84.1788 17.1084C84.1788 21.7555 87.9512 25.5371 92.5861 25.5371C97.2233 25.5371 100.996 21.7555 100.996 17.1084C100.996 12.4604 97.2238 8.68018 92.5861 8.68018ZM62.5812 8.95806C61.4354 8.95806 60.5062 9.89038 60.5062 11.0374V23.2136C60.5062 24.3647 61.4354 25.2947 62.5812 25.2947C63.7306 25.2947 64.6589 24.3647 64.6589 23.2136V11.0374C64.6589 9.88993 63.7306 8.95806 62.5812 8.95806Z" fill="#1E64FF"/>
<mask id="mask1_3931_17009" style="mask-type:luminance" maskUnits="userSpaceOnUse" x="60" y="2" width="5" height="5">
<path d="M60.291 2.32764H64.8844V6.92925H60.291V2.32764Z" fill="#1E64FF"/>
</mask>
<g mask="url(#mask1_3931_17009)">
<path fill-rule="evenodd" clip-rule="evenodd" d="M62.587 2.32764C61.3195 2.32764 60.291 3.35775 60.291 4.6289C60.291 5.89732 61.3195 6.92925 62.587 6.92925C63.8569 6.92925 64.8844 5.89686 64.8844 4.6289C64.8844 3.35775 63.8569 2.32764 62.587 2.32764Z" fill="#1E64FF"/>
</g>
<path fill-rule="evenodd" clip-rule="evenodd" d="M40.4684 9.19236C39.4493 8.66161 38.1962 9.0591 37.6671 10.0783L33.2108 18.6876L28.7541 10.0783C28.2263 9.05956 26.9709 8.66161 25.9528 9.19236C24.9356 9.72401 24.5382 10.9811 25.0673 12.0021L30.8688 23.21L28.1902 28.3947C27.6606 29.4157 28.0553 30.6732 29.0743 31.2026C29.4086 31.38 29.769 31.4527 30.1218 31.4354C30.839 31.4054 31.5224 31.0029 31.8788 30.318L41.3516 12.0021C41.8825 10.9811 41.4869 9.72356 40.4684 9.19236Z" fill="#1E64FF"/>
</g>
<defs>
<clipPath id="clip0_3931_17009">
<rect width="83" height="36.3836" fill="white" transform="translate(18 1.80811)"/>
</clipPath>
</defs>
</svg>
