<svg width="120" height="40" viewBox="0 0 120 40" fill="none" xmlns="http://www.w3.org/2000/svg">
<rect width="120" height="40" fill="white"/>
<g clip-path="url(#clip0_3931_17002)">
<path d="M62.2041 14.6056H58.91L56.579 18.6753H55.3791L55.3409 9.86768H52.2227V25.7745H55.3409L55.3791 21.4087H56.5713L59.6667 25.7745H63.1212L59.0858 19.9888L62.2041 14.6056Z" fill="black"/>
<path d="M85.8024 19.8453C85.1689 19.438 84.4823 19.1187 83.7618 18.8963L83.0739 18.638L82.8905 18.5698C82.4625 18.4103 82.0116 18.2433 81.9963 17.8105C81.9922 17.6822 82.021 17.5551 82.0797 17.441C82.1386 17.3268 82.2256 17.2292 82.3326 17.1575C82.5583 17.0028 82.8229 16.9135 83.0968 16.8994C83.694 16.8584 84.2859 17.0337 84.763 17.3929L84.847 17.446L86.5131 15.5402L86.4291 15.4719C86.2217 15.2882 85.9964 15.1254 85.7565 14.986C85.3268 14.7417 84.8593 14.5698 84.3731 14.4772C83.6727 14.3292 82.9489 14.3292 82.2485 14.4772C81.5714 14.5663 80.9289 14.8278 80.3837 15.2365C80.035 15.5076 79.7434 15.8442 79.5258 16.2273C79.3081 16.6103 79.1684 17.0322 79.1149 17.4688C79.0194 18.2567 79.2209 19.052 79.6805 19.7011C80.2912 20.3728 81.0894 20.8486 81.9734 21.0677L82.1109 21.1133L82.4243 21.2196C83.5553 21.5993 83.8764 21.7511 84.0598 21.9789C84.1452 22.0935 84.1931 22.2313 84.1974 22.3737C84.1974 22.9128 83.5324 23.133 83.0816 23.2697C82.7663 23.3285 82.4421 23.3225 82.1293 23.2519C81.8164 23.1814 81.5214 23.0479 81.2626 22.8596C80.8436 22.5813 80.485 22.2225 80.2079 21.8043C80.0321 21.9865 78.3048 23.6796 78.3354 23.71L78.3889 23.7859C79.2213 24.8211 80.3873 25.5397 81.6905 25.8208C81.9884 25.878 82.2897 25.9161 82.5924 25.9348H82.9058C83.9353 25.9562 84.9439 25.6444 85.7794 25.0464C86.3445 24.6492 86.7782 24.0943 87.0252 23.4519C87.1755 23.0206 87.2287 22.5619 87.1812 22.108C87.1337 21.6541 86.9865 21.2161 86.7501 20.8248C86.5084 20.4346 86.1852 20.1006 85.8024 19.8453Z" fill="black"/>
<path d="M95.8807 19.844C95.2499 19.4367 94.5659 19.1174 93.8478 18.8949L93.1522 18.6367L92.9765 18.5684C92.5408 18.409 92.0976 18.2419 92.0746 17.8091C92.0766 17.6811 92.1088 17.5555 92.1686 17.4421C92.2283 17.3287 92.3139 17.2307 92.4185 17.1562C92.6443 17.0015 92.9089 16.9122 93.1828 16.898C93.7798 16.8584 94.3712 17.0336 94.8489 17.3915L94.9253 17.4447L96.5915 15.5389L96.5151 15.4706C96.3063 15.285 96.0783 15.1221 95.8348 14.9846C95.4077 14.7406 94.9428 14.5687 94.4591 14.4759C93.7562 14.3277 93.0298 14.3277 92.3268 14.4759C91.6504 14.5676 91.0086 14.8289 90.462 15.2352C90.111 15.5037 89.817 15.8385 89.5966 16.2202C89.3762 16.602 89.234 17.0233 89.178 17.4598C89.0779 18.2481 89.2799 19.0449 89.7436 19.6922C90.3542 20.3639 91.1525 20.8396 92.0364 21.0588L92.1663 21.1043L92.4797 21.2107C93.6184 21.5903 93.9395 21.7422 94.1229 21.9699C94.2109 22.0827 94.2568 22.2222 94.2528 22.3648C94.2528 22.9039 93.5955 23.1241 93.1446 23.2607C92.828 23.3197 92.5027 23.3138 92.1887 23.2433C91.8745 23.1728 91.5783 23.0392 91.318 22.8507C90.9024 22.5683 90.5445 22.2102 90.2633 21.7954C90.0951 21.9776 88.3679 23.6707 88.3909 23.7011L88.452 23.7771C89.2843 24.8122 90.4504 25.5308 91.7536 25.8119C92.0514 25.8696 92.3527 25.9076 92.6554 25.9258H92.9688C93.9983 25.9472 95.007 25.6355 95.8425 25.0374C96.4076 24.6403 96.8412 24.0853 97.0882 23.4429C97.2385 23.0117 97.2918 22.553 97.2443 22.0991C97.1967 21.6451 97.0495 21.2071 96.8131 20.8159C96.5745 20.4304 96.2568 20.0993 95.8807 19.844Z" fill="black"/>
<path d="M72.4443 14.6048V15.6982H72.3067C71.4532 14.8491 70.2969 14.3689 69.0891 14.3619C68.3487 14.3473 67.6135 14.4879 66.9314 14.7744C66.2493 15.0609 65.6355 15.4869 65.1302 16.0247C64.111 17.1586 63.5645 18.6354 63.6016 20.1552C63.5622 21.7004 64.1076 23.2041 65.1302 24.3691C65.6235 24.9072 66.2276 25.3336 66.9015 25.6192C67.5754 25.9048 68.3032 26.043 69.0356 26.0244C70.2449 26.0018 71.4079 25.5584 72.322 24.7715H72.4443V25.751H75.6848V14.6048H72.4443ZM72.6048 20.2159C72.6373 21.1141 72.3352 21.9928 71.7564 22.6835C71.479 22.9922 71.1366 23.2365 70.7537 23.3992C70.3707 23.5619 69.9564 23.639 69.5401 23.625C69.1363 23.6318 68.7362 23.5479 68.3697 23.3796C68.0031 23.2113 67.6795 22.963 67.423 22.6532C66.851 21.948 66.5575 21.0599 66.5976 20.1552C66.5716 19.2776 66.8708 18.4212 67.4383 17.7482C67.6996 17.4431 68.0255 17.1991 68.3928 17.0336C68.7602 16.8683 69.1597 16.7856 69.563 16.7916C69.9765 16.7788 70.3877 16.8572 70.767 17.0214C71.1463 17.1855 71.4842 17.4312 71.7564 17.7407C72.3351 18.4345 72.637 19.3154 72.6048 20.2159Z" fill="black"/>
<path d="M107.694 14.6057V15.699H107.558C106.706 14.8518 105.552 14.3718 104.347 14.3627C103.606 14.349 102.87 14.4899 102.186 14.7763C101.504 15.0627 100.888 15.4883 100.381 16.0255C99.3618 17.1594 98.8151 18.6362 98.8527 20.156C98.8124 21.7012 99.3582 23.205 100.381 24.37C100.874 24.9082 101.478 25.3345 102.152 25.6201C102.826 25.9057 103.554 26.0439 104.286 26.0252C105.495 26.0026 106.658 25.5593 107.573 24.7724H107.694V25.7519H110.935V14.6057H107.694ZM107.856 20.2168C107.891 21.1155 107.589 21.9954 107.007 22.6844C106.73 22.993 106.387 23.2374 106.004 23.4001C105.621 23.5627 105.207 23.6399 104.791 23.6259C104.387 23.6327 103.987 23.5488 103.621 23.3805C103.254 23.2122 102.93 22.9639 102.673 22.654C102.101 21.9489 101.808 21.0607 101.848 20.156C101.822 19.2785 102.121 18.422 102.689 17.7491C102.951 17.4439 103.276 17.1999 103.643 17.0346C104.011 16.8691 104.411 16.7865 104.813 16.7924C105.227 16.7796 105.638 16.8581 106.018 17.0222C106.397 17.1864 106.734 17.432 107.007 17.7415C107.589 18.4336 107.891 19.3157 107.856 20.2168Z" fill="black"/>
<path d="M30.9354 8C24.2079 8 18.8564 13.3924 18.8564 20C18.8564 26.6836 24.2843 32 30.9354 32C37.5864 32 43.0143 26.6076 43.0143 20C43.0143 13.3924 37.5864 8 30.9354 8ZM30.9354 24.4051C28.489 24.4051 26.4248 22.3544 26.4248 19.9241C26.4248 17.4937 28.489 15.443 30.9354 15.443C33.3817 15.443 35.4459 17.4937 35.4459 19.9241C35.3694 22.4304 33.3817 24.4051 30.9354 24.4051Z" fill="url(#paint0_linear_3931_17002)"/>
<path d="M18.7835 11.417V28.8854H14.5024L8.99805 11.417H18.7835Z" fill="url(#paint1_linear_3931_17002)"/>
</g>
<defs>
<linearGradient id="paint0_linear_3931_17002" x1="30.9354" y1="8" x2="30.9354" y2="32" gradientUnits="userSpaceOnUse">
<stop stop-color="#0160D1"/>
<stop offset="1" stop-color="#00479C"/>
</linearGradient>
<linearGradient id="paint1_linear_3931_17002" x1="13.8908" y1="11.417" x2="13.8908" y2="28.8854" gradientUnits="userSpaceOnUse">
<stop stop-color="#0160D1"/>
<stop offset="1" stop-color="#00479C"/>
</linearGradient>
<clipPath id="clip0_3931_17002">
<rect width="102" height="24" fill="white" transform="translate(9 8)"/>
</clipPath>
</defs>
</svg>
