<svg width="120" height="40" viewBox="0 0 120 40" fill="none" xmlns="http://www.w3.org/2000/svg">
<rect width="120" height="40" fill="white"/>
<g clip-path="url(#clip0_4201_500)">
<path d="M33.3256 9.63184C25.0221 9.63184 18.292 13.937 18.292 19.249C18.292 24.561 25.0221 29.2832 33.3256 29.2832C41.6287 29.2832 48.3588 24.5602 48.3588 19.249C48.3588 13.9378 41.6283 9.63184 33.3256 9.63184Z" fill="#00BCFF"/>
<path d="M28.4327 16.2759C28.4252 16.2906 28.2787 16.4423 28.3738 16.5648C28.6059 16.8616 29.3242 17.0318 30.0504 16.8691C30.4824 16.7718 31.0369 16.3311 31.5737 15.9051C32.0862 15.4396 32.6741 15.0648 33.3123 14.7965C33.7201 14.6472 34.1656 14.6356 34.5806 14.7635C35.0019 14.9199 35.393 15.1481 35.7365 15.4378C36.7445 16.1955 40.7968 19.7332 41.4974 20.3444C43.6493 19.4496 45.8772 18.7498 48.1543 18.2534C47.8579 16.4378 46.7658 14.7067 45.0904 13.3464C42.7552 14.3273 39.7107 14.9145 36.9203 13.5519C35.972 13.1227 34.9468 12.8896 33.9063 12.8667C31.6924 12.9182 30.7333 13.8761 29.7183 14.8904L28.4327 16.2759Z" fill="white"/>
<path d="M41.3343 20.7296C41.2865 20.6867 36.5693 16.5589 35.5001 15.7557C35.1278 15.4244 34.6686 15.2064 34.1766 15.1272C33.9647 15.1103 33.7514 15.1307 33.5466 15.1877C32.9155 15.4253 32.3317 15.7732 31.8223 16.2151C31.225 16.6915 30.6615 17.1393 30.1381 17.2569C29.506 17.3866 28.8483 17.2877 28.2823 16.9777C28.1498 16.8967 28.043 16.7797 27.9743 16.6404C27.9364 16.5336 27.9312 16.4179 27.9593 16.3081C27.9874 16.1983 28.0476 16.0994 28.1321 16.0239L29.4338 14.6155C29.5852 14.4649 29.7373 14.3135 29.894 14.1647C29.492 14.2252 29.0957 14.3146 28.7068 14.4322C28.2593 14.5808 27.7935 14.6676 27.3225 14.6903C26.8478 14.6422 26.376 14.5685 25.9092 14.4694C24.5176 14.1428 23.1591 13.6882 21.8512 13.1113C20.0003 14.4893 18.7951 16.1809 18.4375 18.0784C18.7035 18.1487 19.4003 18.3076 19.5803 18.3474C23.769 19.2791 25.0733 20.2382 25.31 20.4384C25.4492 20.2817 25.6221 20.1586 25.8158 20.0784C26.0094 19.9982 26.2187 19.9629 26.4279 19.9753C26.6371 19.9876 26.8408 20.0472 27.0237 20.1496C27.2066 20.252 27.3638 20.3946 27.4837 20.5665C27.7661 20.3382 28.1186 20.2141 28.4818 20.2153C28.6862 20.2171 28.8883 20.2528 29.081 20.3205C29.2676 20.3801 29.4394 20.4789 29.5847 20.6102C29.7301 20.7415 29.8458 20.9023 29.924 21.0819C30.1071 20.9989 30.306 20.9567 30.5071 20.958C30.7474 20.9611 30.9846 21.0135 31.2039 21.112C31.5088 21.255 31.7561 21.4972 31.9054 21.7991C32.0548 22.1009 32.0972 22.4445 32.0259 22.7736C32.2568 22.7507 32.4899 22.7763 32.7103 22.8489C32.9306 22.9215 33.1334 23.0394 33.3055 23.195C33.4776 23.3506 33.6152 23.5405 33.7095 23.7524C33.8038 23.9644 33.8528 24.1938 33.8532 24.4258C33.8532 24.6996 33.7848 24.969 33.654 25.2098C34.0877 25.4748 34.5886 25.6089 35.0966 25.596C35.2233 25.5961 35.3486 25.57 35.4647 25.5194C35.5808 25.4687 35.6852 25.3947 35.7713 25.3018C35.8126 25.2429 35.8566 25.1741 35.816 25.1245L34.6342 23.8119C34.6342 23.8119 34.4396 23.6279 34.5038 23.5569C34.5703 23.484 34.6905 23.5884 34.7758 23.6598C35.3769 24.1621 36.1113 24.9202 36.1113 24.9202C36.1241 24.9284 36.1725 25.0242 36.4442 25.0731C36.6065 25.1013 36.7728 25.0965 36.9333 25.0591C37.0937 25.0216 37.245 24.9523 37.3781 24.8552C37.4532 24.7921 37.5223 24.7218 37.5836 24.6448C37.5795 24.649 37.575 24.6526 37.57 24.6557C37.6529 24.5412 37.6946 24.402 37.6885 24.2608C37.6823 24.1196 37.6287 23.9846 37.5362 23.8777L36.1564 22.328C36.1564 22.328 35.9592 22.1455 36.0268 22.0726C36.0869 22.0087 36.2131 22.1049 36.2999 22.1766C36.7364 22.5422 37.3537 23.1609 37.9453 23.7409C38.1425 23.8744 38.377 23.9419 38.6149 23.9336C38.8529 23.9254 39.0821 23.8419 39.2696 23.6951C39.4231 23.6103 39.5501 23.4847 39.6365 23.3321C39.7229 23.1795 39.7653 23.0059 39.7591 22.8307C39.7293 22.6115 39.6268 22.4087 39.4679 22.2548L37.5839 20.3595C37.5839 20.3595 37.3841 20.1893 37.4547 20.1037C37.5126 20.0312 37.641 20.1352 37.7263 20.2062C38.3263 20.7085 39.9514 22.1988 39.9514 22.1988C40.1428 22.3224 40.3668 22.3861 40.5947 22.3816C40.8225 22.3771 41.0438 22.3047 41.2302 22.1736C41.3501 22.1038 41.4511 22.0057 41.5244 21.8878C41.5976 21.7699 41.6408 21.6359 41.6502 21.4974C41.6558 21.3543 41.6305 21.2116 41.5759 21.0791C41.5214 20.9465 41.439 20.8273 41.3343 20.7296Z" fill="white"/>
<path d="M32.1921 23.1316C31.9705 23.1628 31.7522 23.2113 31.5385 23.2766C31.5152 23.2616 31.5561 23.144 31.5836 23.0764C31.6117 23.0092 31.9968 21.851 31.0584 21.449C30.8484 21.3363 30.6076 21.2945 30.3719 21.3297C30.1362 21.3649 29.9182 21.4752 29.7503 21.6443C29.7112 21.6849 29.6932 21.6819 29.689 21.6301C29.6835 21.4138 29.6103 21.2048 29.4799 21.0322C29.3494 20.8597 29.1683 20.7323 28.9617 20.668C28.6692 20.5779 28.3554 20.5847 28.0671 20.6875C27.7788 20.7903 27.5314 20.9834 27.3618 21.2382C27.3315 21.01 27.2252 20.7986 27.0599 20.6382C26.8947 20.4779 26.6803 20.3779 26.4512 20.3544C26.2222 20.331 25.9919 20.3854 25.7976 20.509C25.6033 20.6326 25.4564 20.818 25.3805 21.0354C25.3046 21.2528 25.3042 21.4894 25.3793 21.707C25.4545 21.9247 25.6008 22.1106 25.7947 22.2348C25.9886 22.359 26.2187 22.4142 26.4478 22.3915C26.6769 22.3689 26.8917 22.2696 27.0575 22.1098C27.0635 22.1147 27.0657 22.1248 27.0627 22.1436C26.9933 22.461 27.0404 22.7927 27.1954 23.0782C27.3505 23.3636 27.6032 23.5837 27.9072 23.6981C28.0715 23.7615 28.2495 23.7808 28.4235 23.7539C28.5975 23.7271 28.7615 23.6552 28.899 23.5452C28.9802 23.4878 28.9933 23.5118 28.9817 23.5884C28.9471 23.8262 28.9914 24.3349 29.7044 24.6234C29.8812 24.7101 30.0811 24.7376 30.2747 24.7016C30.4683 24.6657 30.6451 24.5683 30.7789 24.4239C30.8705 24.3409 30.8953 24.3544 30.9002 24.4833C30.9116 24.7364 30.9971 24.9805 31.146 25.1855C31.295 25.3904 31.5008 25.5471 31.738 25.6361C31.9752 25.7251 32.2334 25.7424 32.4803 25.686C32.7273 25.6296 32.9523 25.5019 33.1274 25.3188C33.3024 25.1356 33.4198 24.9051 33.465 24.6558C33.5102 24.4065 33.4812 24.1495 33.3816 23.9165C33.282 23.6836 33.1162 23.485 32.9047 23.3455C32.6933 23.2059 32.4455 23.1316 32.1921 23.1316Z" fill="white"/>
<path d="M30.7826 8.22314C21.5157 8.22314 14.004 13.1522 14.004 19.1976C14.004 19.3539 14.002 19.7855 14.002 19.8402C14.002 26.2546 20.5678 31.4487 30.7806 31.4487C41.0551 31.4487 47.5613 26.2554 47.5613 19.8415V19.1976C47.5609 13.1518 40.0492 8.22314 30.7826 8.22314ZM46.8046 17.9813C44.387 18.5164 42.0267 19.2837 39.7566 20.2727C38.1643 18.8836 34.486 15.6851 33.4904 14.9379C33.1041 14.613 32.6647 14.3573 32.1914 14.1821C31.9852 14.1171 31.7703 14.0835 31.5541 14.0825C31.2788 14.086 31.0056 14.1321 30.7444 14.2191C30.0449 14.5094 29.4003 14.9175 28.8386 15.4255L28.8069 15.451C28.2288 15.9105 27.6314 16.3858 27.1792 16.4866C26.9814 16.5312 26.7793 16.5538 26.5765 16.554C26.3731 16.5709 26.1684 16.5474 25.9741 16.4849C25.7798 16.4223 25.5999 16.3219 25.4446 16.1895C25.4166 16.1537 25.4351 16.0953 25.5005 16.0122L25.5088 16.0006L26.9097 14.4919C28.0062 13.395 29.0422 12.3594 31.4266 12.3047C31.4665 12.3034 31.5064 12.3026 31.5459 12.3026C32.6284 12.347 33.6928 12.5988 34.6807 13.0453C36.0076 13.7085 37.4688 14.059 38.9523 14.0697C40.5752 14.0418 42.1724 13.6598 43.6324 12.9506C45.3333 14.3812 46.4615 16.1043 46.8046 17.9813ZM30.7859 8.87117C35.7043 8.87117 40.1059 10.2812 43.065 12.5013C41.774 13.091 40.3751 13.4081 38.956 13.4328C37.5675 13.4216 36.2 13.0926 34.9584 12.4709C33.8851 11.9809 32.7258 11.7069 31.5467 11.6645C31.5019 11.6645 31.4562 11.6653 31.4122 11.6665C29.9918 11.6456 28.6113 12.1356 27.522 13.0473C26.8625 13.0819 26.2103 13.2009 25.5812 13.4016C25.1389 13.5491 24.679 13.6372 24.2136 13.6637C24.0379 13.6637 23.7227 13.6476 23.6943 13.6464C22.0209 13.3518 20.3796 12.8975 18.7928 12.2898C21.7457 10.1915 26.0239 8.87117 30.7859 8.87117ZM18.2122 12.728C20.2584 13.5653 22.7414 14.2117 23.5264 14.2627C23.7453 14.2767 23.979 14.3014 24.2123 14.3022C24.7373 14.2767 25.2565 14.1803 25.7556 14.0154C26.0531 13.9319 26.381 13.841 26.7258 13.7752C26.6337 13.8657 26.5415 13.957 26.4493 14.0496L25.027 15.5884C24.9188 15.6843 24.8423 15.8107 24.8074 15.951C24.7726 16.0913 24.7812 16.2389 24.832 16.3742C24.9147 16.5454 25.0443 16.6894 25.2064 16.789C25.6665 17.0491 26.1879 17.1813 26.7164 17.172C26.9184 17.1737 27.1204 17.1527 27.3183 17.1091C27.9149 16.9758 28.5403 16.4771 29.2027 15.95C29.7515 15.4762 30.3784 15.1012 31.0554 14.8416C31.224 14.7969 31.3974 14.7731 31.5718 14.7708C31.6171 14.7708 31.6615 14.7733 31.7055 14.7791C32.2265 14.8645 32.7125 15.0962 33.1069 15.4473C34.2746 16.3249 39.4419 20.8454 39.4929 20.8902C39.5954 20.9876 39.6761 21.1056 39.7296 21.2365C39.783 21.3673 39.8081 21.5081 39.8031 21.6493C39.7936 21.7849 39.7509 21.916 39.6788 22.0311C39.6067 22.1463 39.5074 22.2419 39.3896 22.3097C39.1888 22.444 38.9535 22.5175 38.712 22.5212C38.4999 22.5213 38.2921 22.461 38.1129 22.3476C38.094 22.3319 36.3236 20.7084 35.6718 20.1628C35.5902 20.0765 35.4828 20.0192 35.3657 19.9995C35.3397 19.9989 35.3139 20.0044 35.2904 20.0155C35.2668 20.0265 35.2461 20.0429 35.2299 20.0632C35.1279 20.1895 35.2423 20.3644 35.3781 20.4792L37.446 22.559C37.6003 22.7092 37.7011 22.9063 37.7323 23.1194C37.7376 23.2937 37.6945 23.4661 37.6078 23.6173C37.5211 23.7686 37.3941 23.8929 37.2411 23.9765C37.026 24.1281 36.7709 24.2126 36.5079 24.2192C36.2978 24.2191 36.0925 24.1567 35.9179 24.0398L35.6216 23.7477C35.0789 23.2141 34.519 22.6623 34.1096 22.3204C34.0267 22.2351 33.9184 22.179 33.801 22.1604C33.7766 22.16 33.7524 22.1648 33.73 22.1745C33.7076 22.1841 33.6875 22.1984 33.671 22.2163C33.6241 22.2682 33.5916 22.3616 33.7084 22.5163C33.7401 22.5578 33.7751 22.5969 33.8129 22.6327L35.3217 24.3278C35.4088 24.4266 35.4596 24.552 35.4658 24.6835C35.472 24.815 35.4332 24.9447 35.3558 25.0512L35.3023 25.1186C35.2583 25.1666 35.2114 25.2119 35.162 25.2544C34.9484 25.4111 34.6892 25.493 34.4243 25.4877C34.3559 25.488 34.2876 25.4822 34.2203 25.4704C34.1104 25.4617 34.0062 25.4179 33.9232 25.3453L33.9043 25.326C33.822 25.2408 33.0612 24.4644 32.4321 23.939C32.354 23.8559 32.2508 23.8007 32.1384 23.7819C32.1126 23.7817 32.0872 23.787 32.0637 23.7975C32.0402 23.8081 32.0192 23.8235 32.0022 23.8427C31.8779 23.9789 32.0647 24.1826 32.1441 24.2575L33.4307 25.6774C33.4197 25.7087 33.4034 25.738 33.3826 25.7638C33.3365 25.8275 33.1805 25.9839 32.7135 26.0423C32.6568 26.0497 32.5996 26.0533 32.5424 26.053C32.0996 26.0245 31.6688 25.8967 31.2821 25.679C31.4225 25.3812 31.4839 25.0523 31.4604 24.7238C31.4369 24.3954 31.3294 24.0786 31.1481 23.8037C30.9669 23.5289 30.718 23.3053 30.4253 23.1544C30.1327 23.0035 29.8062 22.9304 29.4771 22.9421C29.5322 22.5766 29.467 22.2031 29.2914 21.878C29.1157 21.5528 28.8391 21.2935 28.5033 21.1392C28.2506 21.0258 27.9774 20.9656 27.7005 20.9622C27.4994 20.9613 27.2998 20.9976 27.1118 21.0692C26.9161 20.6894 26.5781 20.4024 26.1716 20.271C25.9502 20.1925 25.7173 20.1515 25.4824 20.1496C25.0972 20.1474 24.7212 20.2679 24.409 20.4936C24.2671 20.3152 24.0891 20.1689 23.8867 20.0641C23.6843 19.9594 23.462 19.8986 23.2345 19.8858C23.007 19.873 22.7793 19.9084 22.5664 19.9897C22.3535 20.0711 22.1602 20.1965 21.9992 20.3578C21.5984 20.0513 20.009 19.0416 15.7547 18.076C15.5514 18.0299 15.0902 17.8978 14.8002 17.8126C15.1993 15.9027 16.4122 14.159 18.2122 12.728ZM26.1037 23.8024L26.0572 23.7613H26.0107C25.963 23.7648 25.9175 23.7833 25.8807 23.8139C25.698 23.9545 25.4755 24.0338 25.245 24.0402C25.1234 24.0392 25.0031 24.0158 24.89 23.9711C24.5778 23.8545 24.3186 23.6286 24.1605 23.3353C24.0023 23.042 23.956 22.7012 24.03 22.3764C24.0351 22.3527 24.0338 22.3282 24.0262 22.3053C24.0186 22.2823 24.005 22.2618 23.9868 22.2459L23.9169 22.1892L23.8519 22.2509C23.6624 22.4351 23.4085 22.5381 23.1442 22.5381C22.9471 22.5388 22.754 22.4827 22.588 22.3764C22.4221 22.2701 22.2903 22.1182 22.2086 21.9388C22.1269 21.7595 22.0987 21.5603 22.1274 21.3654C22.1561 21.1704 22.2405 20.9878 22.3704 20.8396C22.5003 20.6914 22.6702 20.5839 22.8598 20.5299C23.0493 20.4759 23.2504 20.4778 23.4389 20.5353C23.6275 20.5928 23.7953 20.7035 23.9225 20.8542C24.0496 21.0048 24.1305 21.1889 24.1555 21.3844L24.1909 21.6592L24.3419 21.4263C24.5121 21.1623 24.7649 20.9619 25.0609 20.8566C25.3569 20.7513 25.6795 20.7469 25.9782 20.8442C26.1846 20.9089 26.3656 21.0368 26.4956 21.2097C26.6257 21.3826 26.6982 21.5919 26.7032 21.8082C26.7139 21.9415 26.8089 21.9481 26.8274 21.9481C26.8504 21.9465 26.8728 21.9402 26.8932 21.9296C26.9135 21.919 26.9315 21.9042 26.9459 21.8863C27.0433 21.7847 27.1603 21.704 27.2899 21.6493C27.4196 21.5945 27.559 21.5668 27.6997 21.5679C27.8947 21.572 28.0865 21.6152 28.2646 21.6954C29.2286 22.1089 28.7913 23.3338 28.7863 23.3465C28.7028 23.5494 28.6999 23.6391 28.7777 23.6909L28.8155 23.7086H28.8439C28.9082 23.7015 28.9711 23.6851 29.0307 23.6601C29.1953 23.5951 29.3681 23.5568 29.545 23.5465C29.7177 23.5465 29.8887 23.5806 30.0482 23.6467C30.2078 23.7128 30.3527 23.8097 30.4748 23.9318C30.5969 24.0539 30.6937 24.1989 30.7598 24.3585C30.8258 24.518 30.8598 24.689 30.8598 24.8617C30.8598 25.0344 30.8257 25.2054 30.7596 25.3649C30.6935 25.5244 30.5966 25.6694 30.4745 25.7914C30.3524 25.9135 30.2074 26.0104 30.0479 26.0764C29.8883 26.1425 29.7173 26.1765 29.5446 26.1765C29.2058 26.1785 28.8795 26.0487 28.6346 25.8145C28.3897 25.5804 28.2456 25.2601 28.2325 24.9215C28.2305 24.8615 28.2243 24.7014 28.0885 24.7014C28.0268 24.7087 27.97 24.7388 27.9293 24.7858C27.7614 24.9644 27.5295 25.069 27.2846 25.0767C27.1383 25.0737 26.9939 25.0424 26.8595 24.9845C26.1107 24.6804 26.1004 24.1661 26.1309 23.9596C26.1382 23.933 26.1395 23.9051 26.1348 23.8779C26.13 23.8507 26.1197 23.8249 26.1037 23.8024ZM30.7859 29.5133C21.8753 29.5133 14.652 24.8923 14.652 19.1922C14.6537 18.9643 14.6664 18.7367 14.6911 18.51C14.7623 18.5273 15.47 18.6964 15.6165 18.7293C19.9621 19.6946 21.3985 20.6985 21.6408 20.8882C21.5278 21.1591 21.4901 21.4556 21.5318 21.7462C21.5735 22.0368 21.693 22.3107 21.8776 22.5389C22.0623 22.7672 22.3052 22.9412 22.5807 23.0427C22.8561 23.1442 23.1539 23.1693 23.4425 23.1153C23.5066 23.4381 23.6536 23.7386 23.8689 23.9875C24.0842 24.2363 24.3605 24.4249 24.6707 24.5348C24.8558 24.6072 25.0525 24.6451 25.2508 24.6463C25.3759 24.6471 25.5005 24.6319 25.6215 24.601C25.7708 24.9151 26.0038 25.1819 26.295 25.3719C26.5862 25.562 26.9242 25.668 27.2718 25.6782C27.4414 25.6782 27.6097 25.6481 27.7688 25.5893C27.8893 25.8843 28.0814 26.1447 28.3278 26.3467C28.5742 26.5488 28.8671 26.6862 29.18 26.7466C29.4929 26.807 29.8159 26.7884 30.1198 26.6925C30.4237 26.5966 30.6989 26.4265 30.9205 26.1974C31.4159 26.4861 31.9731 26.6525 32.5457 26.6829C32.628 26.6829 32.7103 26.6772 32.7921 26.6673C33.0036 26.6608 33.2113 26.6093 33.4014 26.5163C33.5914 26.4233 33.7595 26.2909 33.8944 26.1279C33.9199 26.0929 33.9425 26.0559 33.9623 26.0172C34.131 26.0691 34.3067 26.0962 34.4832 26.0987C34.8648 26.0912 35.2336 25.9594 35.5336 25.7235C35.8502 25.5155 36.0727 25.1917 36.1532 24.8216C36.154 24.8175 36.1545 24.8134 36.1549 24.8092C36.2701 24.8327 36.3881 24.8446 36.5062 24.8446C36.8919 24.8398 37.2675 24.7207 37.5854 24.5023C37.8273 24.3621 38.0269 24.1593 38.1632 23.9152C38.2994 23.6711 38.3674 23.3948 38.3598 23.1153C38.477 23.1396 38.5964 23.1523 38.7161 23.1523C39.0761 23.1484 39.4272 23.0402 39.727 22.8409C39.926 22.719 40.0934 22.5519 40.2156 22.3532C40.3379 22.1544 40.4115 21.9296 40.4306 21.6971C40.4544 21.3733 40.3763 21.0501 40.2072 20.773C42.3749 19.8882 44.6132 19.1872 46.8984 18.6775C46.9116 18.8482 46.919 19.0198 46.919 19.1926C46.919 24.8923 39.6961 29.5133 30.7859 29.5133ZM105.085 11.6011C104.475 10.837 103.55 10.4552 102.31 10.4556C101.07 10.4556 100.145 10.8375 99.5352 11.6007C98.9236 12.3683 98.6 13.3259 98.6205 14.3071C98.5956 15.2924 98.9195 16.2547 99.5352 17.0243C100.145 17.7756 101.069 18.1517 102.31 18.1521C103.551 18.1521 104.476 17.7764 105.085 17.0243C105.7 16.2547 106.024 15.2923 105.999 14.3071C106.02 13.3259 105.696 12.3684 105.085 11.6007V11.6011ZM103.576 15.9809C103.418 16.1652 103.223 16.3133 103.003 16.415C102.784 16.5166 102.544 16.5694 102.302 16.5697C102.06 16.5695 101.821 16.5168 101.601 16.4152C101.381 16.3135 101.186 16.1654 101.029 15.9809C100.701 15.4866 100.545 14.8988 100.582 14.3071C100.544 13.7165 100.701 13.1297 101.029 12.6367C101.186 12.4529 101.381 12.3054 101.601 12.2043C101.821 12.1032 102.06 12.051 102.302 12.0512C102.544 12.0511 102.783 12.1034 103.003 12.2045C103.223 12.3055 103.418 12.453 103.576 12.6367C103.9 13.1307 104.056 13.717 104.019 14.3071C104.056 14.8983 103.9 15.4855 103.576 15.9809ZM89.5124 10.9621C88.8529 10.6391 88.126 10.4777 87.3918 10.4914C86.1678 10.4914 85.3046 10.8103 84.8018 11.4476C84.4696 11.9023 84.2831 12.447 84.2669 13.0099H86.0954C86.1239 12.7681 86.217 12.5384 86.3649 12.345C86.4912 12.2227 86.6428 12.1296 86.809 12.0723C86.9752 12.0149 87.152 11.9947 87.3268 12.0129C87.6428 11.9947 87.9586 12.053 88.2472 12.1829C88.3527 12.2444 88.4383 12.335 88.4937 12.4439C88.5492 12.5527 88.5721 12.6752 88.5599 12.7967C88.5582 12.9182 88.5177 13.0359 88.4443 13.1327C88.371 13.2295 88.2686 13.3004 88.1522 13.3349C87.9079 13.4229 87.6533 13.4787 87.3947 13.5011L86.7463 13.5805C86.1642 13.6289 85.5966 13.7869 85.0734 14.0463C84.7359 14.2382 84.4595 14.5216 84.276 14.8637C84.0925 15.2058 84.0094 15.5928 84.0361 15.9801C84.0185 16.2765 84.0672 16.5731 84.1788 16.8482C84.2903 17.1234 84.4618 17.3702 84.6808 17.5707C85.1438 17.9419 85.7214 18.1404 86.3147 18.1323C90.448 18.3175 90.4015 15.9546 90.439 15.4633V12.7437C90.439 11.8714 90.1304 11.2777 89.5124 10.9621ZM88.5525 15.0893C88.5753 15.3351 88.5378 15.5827 88.4433 15.8108C88.3488 16.0388 88.2002 16.2404 88.0102 16.3981C87.6757 16.6331 87.2765 16.7586 86.8677 16.7573C86.6275 16.7639 86.3923 16.6875 86.2019 16.5409C86.1051 16.4531 86.03 16.3439 85.9827 16.2221C85.9353 16.1003 85.917 15.9691 85.9292 15.839C85.9206 15.6766 85.958 15.515 86.037 15.3729C86.116 15.2308 86.2335 15.1138 86.376 15.0354C86.6504 14.9029 86.9446 14.816 87.247 14.7783L87.6786 14.698C87.8511 14.668 88.0209 14.6239 88.1863 14.5664C88.3147 14.5195 88.4373 14.4586 88.5525 14.3845V15.0893ZM80.0875 12.1109C80.2839 12.0952 80.4811 12.1267 80.6628 12.2029C80.8445 12.279 81.0053 12.3976 81.1317 12.5486C81.2852 12.7646 81.3839 13.0148 81.4185 13.2777H83.4572C83.3457 12.2487 82.9861 11.5307 82.378 11.1242C81.6739 10.6928 80.8574 10.4806 80.0324 10.5149C79.5438 10.4884 79.0552 10.567 78.5995 10.7452C78.1438 10.9234 77.7315 11.1971 77.3905 11.548C76.7112 12.3527 76.3681 13.3881 76.4322 14.4392C76.3898 15.4076 76.6976 16.3589 77.2991 17.1189C77.8768 17.8077 78.7783 18.1517 80.0031 18.1521C80.5317 18.1868 81.0607 18.0921 81.5445 17.8762C82.0282 17.6603 82.452 17.3298 82.7792 16.9132C83.1529 16.4462 83.3811 15.8796 83.4354 15.2839H81.4041C81.3791 15.6217 81.2548 15.9446 81.047 16.2121C80.9184 16.3419 80.7625 16.4413 80.5906 16.5031C80.4187 16.5649 80.2351 16.5875 80.0533 16.5693C79.7613 16.5881 79.4712 16.5098 79.2282 16.3467C78.9851 16.1836 78.8028 15.9448 78.7096 15.6674C78.564 15.2587 78.4972 14.8262 78.5125 14.3927C78.4972 13.9394 78.564 13.4871 78.7096 13.0576C78.8026 12.7699 78.9882 12.521 79.2374 12.3497C79.4866 12.1785 79.7855 12.0945 80.0875 12.1109ZM75.8862 10.5149C71.6978 10.5149 71.9454 14.2228 71.9454 14.2228V17.9896H73.8463V14.4569C73.8212 14.0171 73.8957 13.5773 74.0644 13.1703C74.3256 12.6762 74.8358 12.4289 75.5954 12.4281C75.6525 12.4281 75.7278 12.4318 75.8204 12.4359C75.913 12.4408 76.0179 12.4482 76.1393 12.4631V10.5297C76.0549 10.5235 75.9998 10.5215 75.9763 10.5186C75.9464 10.5161 75.9163 10.5148 75.8862 10.5149ZM70.4219 11.92C70.1154 11.4529 69.6826 11.0824 69.174 10.8514C68.6386 10.6204 68.0603 10.5054 67.4772 10.5141C67.0013 10.4953 66.5266 10.5744 66.0825 10.7463C65.6383 10.9183 65.2342 11.1795 64.895 11.5139C64.2321 12.1825 63.9001 13.1415 63.8993 14.3915C63.8993 15.727 64.2667 16.6906 65.0019 17.2823C65.7187 17.8682 66.619 18.1829 67.5447 18.171C68.0464 18.2003 68.5486 18.1213 69.0172 17.9395C69.4858 17.7577 69.9098 17.4773 70.2606 17.1173C70.57 16.814 70.7971 16.437 70.9205 16.0216H68.9045C68.832 16.1292 68.7446 16.2259 68.6449 16.3088C68.3351 16.5256 67.9594 16.6276 67.5825 16.5972C67.2288 16.6175 66.8769 16.5332 66.5708 16.3549C66.3227 16.1917 66.1212 15.9668 65.9862 15.7023C65.8512 15.4378 65.7872 15.1428 65.8005 14.8461H71.06C71.0749 14.3674 71.0538 13.8882 70.9967 13.4127C70.9209 12.8779 70.7243 12.3674 70.4219 11.92ZM65.8475 13.5999C65.8915 13.1835 66.0676 12.7921 66.3498 12.4828C66.4993 12.3403 66.6766 12.2301 66.8705 12.1592C67.0645 12.0882 67.271 12.0581 67.4772 12.0705C67.886 12.0573 68.2852 12.1961 68.5975 12.4602C68.7543 12.6062 68.8798 12.7823 68.9658 12.9786C69.0522 13.1744 69.0979 13.3859 69.0995 13.5999H65.8475ZM60.1231 10.4902C59.7112 10.4866 59.3038 10.5751 58.9305 10.7492C58.5572 10.9232 58.2275 11.1784 57.9654 11.4962C57.7078 11.1731 57.3788 10.9141 57.0042 10.7396C56.6296 10.5651 56.2197 10.4797 55.8066 10.4902C53.9506 10.4902 52.7529 11.8541 52.7529 13.6595V17.9891H54.49V13.6172C54.4734 13.3501 54.5416 13.0846 54.6848 12.8585C54.828 12.6324 55.0388 12.4573 55.2874 12.3581C55.4523 12.2923 55.6293 12.2615 55.8066 12.2676C55.9825 12.2584 56.1582 12.2876 56.3216 12.3534C56.4849 12.4192 56.632 12.5199 56.7523 12.6485C56.8727 12.777 56.9635 12.9303 57.0184 13.0976C57.0733 13.265 57.091 13.4423 57.0701 13.6172V17.9887H58.8073V13.6172C58.792 13.3505 58.8608 13.0858 59.004 12.8604C59.1472 12.6349 59.3576 12.4601 59.6055 12.3606C59.7697 12.2943 59.946 12.2628 60.1231 12.268C60.2995 12.2585 60.4759 12.2875 60.64 12.353C60.8042 12.4185 60.9521 12.519 61.0735 12.6474C61.1949 12.7758 61.287 12.929 61.3434 13.0964C61.3999 13.2638 61.4194 13.4415 61.4006 13.6172V17.9887H63.136V13.6595C63.136 11.7986 62.0186 10.4902 60.1231 10.4902ZM96.1412 9.56527L96.1391 11.6019C95.9363 11.2694 95.6515 10.9944 95.3121 10.8033C94.9551 10.6071 94.553 10.5078 94.1457 10.5153C93.7101 10.5004 93.2771 10.5886 92.8821 10.7726C92.487 10.9567 92.1409 11.2313 91.872 11.5743C91.262 12.4355 90.9618 13.478 91.0203 14.5318C90.9809 15.4835 91.2882 16.4171 91.8852 17.1593C92.4616 17.8402 93.5906 18.1393 94.5946 18.1393C98.0947 18.1393 98.0536 15.1387 98.0536 15.1387L98.0548 8.2322C98.0548 8.2322 96.1412 8.02771 96.1412 9.56527ZM95.7754 15.9961C95.64 16.1911 95.457 16.3482 95.2438 16.4526C95.0305 16.5569 94.7942 16.605 94.5571 16.5923C94.3227 16.6065 94.0888 16.5586 93.8789 16.4533C93.669 16.3481 93.4906 16.1892 93.3619 15.9928C93.078 15.4913 92.9417 14.9198 92.9685 14.3442C92.9489 13.8004 93.0828 13.2622 93.3549 12.791C93.4813 12.586 93.6612 12.4193 93.8753 12.3089C94.0894 12.1984 94.3295 12.1485 94.5699 12.1644C94.9192 12.1598 95.2583 12.282 95.5244 12.5083C95.97 12.8885 96.1934 13.5707 96.1934 14.4528C96.217 14.9981 96.071 15.5373 95.7754 15.9961ZM56.769 20.8943C55.2038 20.8203 54.413 21.1935 53.8979 21.5868C53.1857 22.1299 52.7529 22.9339 52.7529 24.218V30.8208H53.6729C53.9214 30.8238 54.1621 30.7337 54.3476 30.5682C54.4447 30.4828 54.5223 30.3775 54.5749 30.2594C54.6275 30.1413 54.654 30.0132 54.6525 29.884V27.4161C54.8571 27.7849 55.1687 28.083 55.5462 28.2711C55.9325 28.443 56.352 28.5276 56.7747 28.5188C57.1906 28.5267 57.6025 28.4359 57.9765 28.2538C58.3505 28.0717 58.6759 27.8035 58.9262 27.4713C59.5153 26.6558 59.8104 25.6647 59.7634 24.6599C59.8127 23.6629 59.4931 22.6828 58.8657 21.9065C58.6061 21.6009 58.2855 21.3529 57.9244 21.1786C57.5633 21.0043 57.1697 20.9075 56.769 20.8943ZM57.417 26.3139C57.2901 26.4988 57.1187 26.6487 56.9186 26.7499C56.7184 26.8511 56.4961 26.9002 56.2719 26.8928C56.0393 26.9046 55.8075 26.8578 55.5977 26.7567C55.3879 26.6555 55.2069 26.5033 55.0714 26.3139C54.7589 25.8521 54.6114 25.2985 54.6525 24.7426C54.608 24.1641 54.7443 23.5862 55.0426 23.0886C55.1743 22.9016 55.3508 22.7506 55.5559 22.6495C55.7611 22.5484 55.9883 22.5003 56.2168 22.5097C56.4493 22.4983 56.681 22.5453 56.8907 22.6464C57.1004 22.7476 57.2815 22.8995 57.4174 23.0886C57.7271 23.5823 57.8739 24.1609 57.8371 24.7426C57.8675 25.2977 57.7204 25.848 57.417 26.3139ZM73.0942 21.5757C72.3999 21.0377 71.528 20.782 70.6531 20.8598C69.5011 20.8915 68.663 21.2136 68.1417 21.9201C67.5894 22.7339 67.3155 23.7046 67.3607 24.687C67.3225 25.5132 67.5274 26.3328 67.9495 27.0438C68.2827 27.5885 68.777 28.0162 69.3641 28.2674C69.8888 28.4864 70.469 28.5352 71.023 28.4069C71.2981 28.3438 71.5577 28.2259 71.7863 28.0604C72.0149 27.8948 72.2078 27.685 72.3536 27.4433V27.9099C72.3544 28.3846 72.2059 28.8475 71.929 29.2331C71.722 29.4994 71.4314 29.6884 71.104 29.7696C70.8013 29.8248 70.4889 29.7874 70.2078 29.6623C69.9266 29.5371 69.6898 29.33 69.5282 29.0681H67.5257C68.0441 30.6274 68.9757 31.3145 70.6531 31.4367C73.3596 31.6318 74.222 29.34 74.2191 28.1041V24.2192C74.2191 22.9351 73.8006 22.1126 73.0942 21.5757ZM72.2985 25.3914C72.2607 25.7325 72.138 26.0587 71.9417 26.3402C71.5941 26.8171 71.0551 26.987 70.324 26.8504C69.5916 26.7117 69.2254 26.0094 69.2254 24.7434C69.2151 24.2015 69.3279 23.6644 69.5554 23.1725C69.6712 22.9435 69.8538 22.7552 70.0791 22.6323C70.3044 22.5095 70.5617 22.4579 70.8169 22.4846C71.0182 22.4734 71.2192 22.5129 71.4014 22.5995C71.5835 22.6862 71.741 22.8171 71.8595 22.9804C72.0997 23.3149 72.2552 23.7027 72.3125 24.1106C72.3761 24.5356 72.3714 24.968 72.2985 25.3914ZM65.7355 21.3831C65.0756 21.061 64.3488 20.8998 63.6146 20.9129C62.3909 20.9129 61.5281 21.2317 61.0258 21.8691C60.694 22.3236 60.5077 22.868 60.4913 23.4305H62.3202C62.3486 23.1891 62.4414 22.9597 62.5888 22.7664C62.7151 22.6441 62.8666 22.5509 63.0327 22.4934C63.1988 22.4359 63.3755 22.4155 63.5504 22.4336C63.8664 22.4152 64.1822 22.4735 64.4708 22.6035C64.5762 22.6653 64.6617 22.7561 64.7171 22.8651C64.7725 22.974 64.7955 23.0965 64.7835 23.2182C64.7817 23.3397 64.7411 23.4574 64.6677 23.5542C64.5943 23.6511 64.4918 23.7219 64.3753 23.7563C64.1311 23.8438 63.8767 23.8996 63.6183 23.9226L62.9706 24.0012C62.3888 24.0496 61.8213 24.2077 61.2981 24.4669C60.9606 24.6584 60.6841 24.9414 60.5006 25.2833C60.317 25.6251 60.2337 26.0119 60.2605 26.399C60.2423 26.6955 60.2907 26.9922 60.4022 27.2674C60.5137 27.5427 60.6855 27.7895 60.9048 27.9897C61.3677 28.3615 61.9458 28.5604 62.5395 28.5521C66.6703 28.7373 66.6238 26.3739 66.6613 25.8831V23.1635C66.6613 22.2924 66.3527 21.6987 65.7355 21.3831ZM64.7748 25.5095C64.7977 25.7552 64.7604 26.0027 64.6661 26.2307C64.5717 26.4587 64.4232 26.6603 64.2334 26.8179C63.899 27.0529 63.4999 27.1784 63.0912 27.1771C62.8511 27.1837 62.6161 27.1073 62.4259 26.9607C62.3288 26.8731 62.2535 26.7641 62.206 26.6423C62.1585 26.5205 62.1401 26.3893 62.1523 26.2591C62.1441 26.0967 62.1818 25.9353 62.2609 25.7932C62.3401 25.6512 62.4575 25.5342 62.5999 25.4556C62.874 25.3231 63.1677 25.2361 63.4697 25.198L63.9022 25.1182C64.0742 25.0888 64.2435 25.045 64.4082 24.9874C64.5366 24.9401 64.6596 24.8792 64.7748 24.8047V25.5095ZM81.4066 21.983C80.796 21.219 79.8707 20.8367 78.6306 20.8372C77.3917 20.8372 76.4672 21.2194 75.8574 21.983C75.2461 22.7502 74.9226 23.7071 74.9428 24.6878C74.918 25.6729 75.242 26.6351 75.8574 27.4046C76.4664 28.1551 77.3909 28.5307 78.6306 28.5315C79.8719 28.5315 80.7968 28.1559 81.4066 27.4046C82.0208 26.6345 82.344 25.6726 82.3192 24.6878C82.3394 23.7074 82.0166 22.7508 81.4066 21.983ZM79.8962 26.36C79.7396 26.5447 79.5447 26.6932 79.325 26.7951C79.1052 26.8969 78.866 26.9496 78.6238 26.9496C78.3816 26.9496 78.1423 26.8969 77.9226 26.7951C77.7029 26.6932 77.5079 26.5447 77.3514 26.36C77.0231 25.8667 76.8658 25.2792 76.9037 24.6878C76.8657 24.0975 77.023 23.5111 77.3514 23.019C77.5882 22.742 77.9091 22.5499 78.2651 22.4719C78.6211 22.3939 78.9929 22.4343 79.3238 22.587C79.5436 22.688 79.7388 22.8354 79.8962 23.019C80.2213 23.5124 80.3769 24.0982 80.3393 24.6878C80.3768 25.2785 80.2213 25.8654 79.8962 26.36Z" fill="#0A0080"/>
</g>
<defs>
<clipPath id="clip0_4201_500">
<rect width="84" height="21.2066" fill="white" transform="translate(18 9.23291)"/>
</clipPath>
</defs>
</svg>
