<svg width="120" height="40" viewBox="0 0 120 40" fill="none" xmlns="http://www.w3.org/2000/svg">
<rect width="120" height="40" fill="white"/>
<g clip-path="url(#clip0_4202_546)">
<path fill-rule="evenodd" clip-rule="evenodd" d="M10.1081 25.0327C9.49675 25.0327 9.00098 24.5485 9.00098 23.9515V16.0852C9.00098 15.4881 9.49675 15.0039 10.1081 15.0039C10.7194 15.0039 11.2151 15.4881 11.2151 16.0852V23.9515C11.2151 24.5485 10.7194 25.0327 10.1081 25.0327Z" fill="#89C7E8"/>
<path fill-rule="evenodd" clip-rule="evenodd" d="M23.3913 25.0329C22.78 25.0329 22.2842 24.5487 22.2842 23.9516V16.0915C22.2842 15.4945 22.78 15.0103 23.3913 15.0103C24.0026 15.0103 24.4983 15.4945 24.4983 16.0915V23.9516C24.4983 24.5487 24.0026 25.0329 23.3913 25.0329Z" fill="#0BADDC"/>
<path fill-rule="evenodd" clip-rule="evenodd" d="M16.7506 28.1876C16.1393 28.1876 15.6436 27.7034 15.6436 27.1064V12.9372C15.6436 12.3402 16.1393 11.856 16.7506 11.856C17.3619 11.856 17.8577 12.3402 17.8577 12.9372V27.1064C17.8577 27.7034 17.3619 28.1876 16.7506 28.1876Z" fill="#307FC2"/>
<path fill-rule="evenodd" clip-rule="evenodd" d="M103.293 23.7886C103.16 23.6956 103.027 23.5095 103.027 23.2674C103.027 22.933 103.313 22.654 103.674 22.654C103.807 22.654 103.941 22.6909 104.036 22.7661C105.045 23.435 106.092 23.7886 107.158 23.7886C108.339 23.7886 109.196 23.1936 109.196 22.2635V22.2265C109.196 21.2595 108.035 20.8874 106.74 20.5346C105.197 20.1064 103.484 19.586 103.484 17.8201V17.7825C103.484 16.1275 104.893 15.0298 106.835 15.0298C107.882 15.0298 109.025 15.3464 109.976 15.8484C110.167 15.9606 110.338 16.1644 110.338 16.4434C110.338 16.7785 110.052 17.0576 109.691 17.0576C109.557 17.0576 109.443 17.02 109.367 16.983C108.529 16.518 107.635 16.2389 106.797 16.2389C105.635 16.2389 104.893 16.8339 104.893 17.6341V17.671C104.893 18.582 106.111 18.9356 107.425 19.3254C108.948 19.772 110.585 20.3485 110.585 22.0781V22.1144C110.585 23.9377 109.044 24.997 107.082 24.997C105.788 24.997 104.36 24.532 103.293 23.7886Z" fill="#3E3F3D"/>
<path fill-rule="evenodd" clip-rule="evenodd" d="M100.915 19.0398C100.915 16.8766 98.9721 14.9932 96.6305 14.9932C94.2616 14.9932 92.3408 16.8691 92.3408 19.1828V24.1377C92.3408 24.5651 92.679 24.8948 93.116 24.8948C93.5543 24.8948 93.8722 24.5651 93.8722 24.1377L93.8715 21.9122V19.0392C93.8715 17.553 95.1054 16.348 96.627 16.348C98.1493 16.348 99.3831 17.553 99.3831 19.0392V21.917V24.1377C99.3831 24.5651 99.7207 24.8948 100.139 24.8948C100.576 24.8948 100.915 24.5651 100.915 24.1377C100.915 24.1377 100.929 19.5056 100.915 19.0398Z" fill="#3E3F3D"/>
<path fill-rule="evenodd" clip-rule="evenodd" d="M84.9496 23.7301C83.6163 23.7301 82.5653 23.1748 82.5653 21.9663V21.9287C82.5653 20.7202 83.5932 19.9392 85.4398 19.9392C86.6393 19.9392 88.3325 20.3147 88.3332 20.3482V20.3502C88.3332 22.1127 86.6477 23.7301 84.9496 23.7301ZM89.7231 18.9352H89.7204C89.5866 16.8719 87.7058 15.1211 85.4489 15.1211H84.7921C84.409 15.1211 84.0988 15.4241 84.0988 15.7982C84.0988 16.1723 84.409 16.4759 84.7921 16.4759H85.4454C86.9677 16.4759 88.315 17.681 88.315 19.1671V19.2881C87.439 19.0467 86.5441 18.8792 85.2878 18.8792C82.7936 18.8792 81.0801 19.9577 81.0801 21.9848V22.0217C81.0801 23.9934 82.8594 25.0159 84.687 25.0159C86.3466 25.0159 87.656 24.1849 88.3332 23.1146V24.2164C88.3332 24.5911 88.6448 24.8948 89.0285 24.8948C89.4122 24.8948 89.7239 24.5911 89.7239 24.2164L89.7231 18.9352Z" fill="#3E3F3D"/>
<path fill-rule="evenodd" clip-rule="evenodd" d="M80.8053 15.7969C80.8053 15.4228 80.4944 15.1191 80.1114 15.1191H79.638H79.6373C77.2684 15.1191 75.3477 16.9951 75.3477 19.3081V24.1378C75.3477 24.5653 75.6859 24.8949 76.1228 24.8949C76.5612 24.8949 76.8791 24.5653 76.8791 24.1378L76.8784 21.9124V19.1651C76.8784 17.679 78.1122 16.474 79.6338 16.474H79.638V16.4746H80.1114C80.4944 16.4746 80.8053 16.171 80.8053 15.7969Z" fill="#3E3F3D"/>
<path fill-rule="evenodd" clip-rule="evenodd" d="M72.9134 15.762C72.9134 15.4125 72.6235 15.1294 72.2657 15.1294H69.6958V12.6057C69.6958 12.2091 69.3646 11.8446 68.9591 11.8418C68.5369 11.8384 68.2295 12.1742 68.2295 12.5668V22.2639C68.2295 24.2157 69.4283 24.9783 71.0087 24.9783C71.5801 24.9783 72.0374 24.8853 72.4561 24.7184C72.7033 24.6254 72.8749 24.4209 72.8749 24.1604C72.8749 23.8252 72.5892 23.5469 72.2468 23.5469C72.1326 23.5469 71.8658 23.6768 71.3519 23.6768C70.3617 23.6768 69.6958 23.2487 69.6958 22.0779V16.3946H72.2657C72.6235 16.3946 72.9134 16.1115 72.9134 15.762Z" fill="#3E3F3D"/>
<path fill-rule="evenodd" clip-rule="evenodd" d="M65.2002 24.1798C65.2002 24.5887 64.8767 24.9047 64.4769 24.9047C64.0581 24.9047 63.7339 24.5887 63.7339 24.1798V23.1484C62.9343 24.3015 61.7733 25.0162 59.9645 25.0162C57.604 25.0162 55.2617 23.1943 55.2617 20.0332V19.9956C55.2617 16.8538 57.604 14.9942 59.9645 14.9942C61.7922 14.9942 62.9728 15.6904 63.7339 16.769V12.565C63.7339 12.156 64.0385 11.8394 64.458 11.8394C64.8767 11.8394 65.2002 12.156 65.2002 12.565V24.1798ZM56.7665 19.9772V20.0148C56.7665 22.2833 58.3841 23.7339 60.2313 23.7339C62.059 23.7339 63.7914 22.2272 63.7914 20.0148V19.9772C63.7914 17.7647 62.059 16.2772 60.2313 16.2772C58.3267 16.2772 56.7665 17.6532 56.7665 19.9772Z" fill="#3E3F3D"/>
<path fill-rule="evenodd" clip-rule="evenodd" d="M51.3418 15.7118C51.3418 15.3212 51.6653 14.9868 52.0651 14.9868C52.4839 14.9868 52.8081 15.3028 52.8081 15.7118V24.1792C52.8081 24.5889 52.5028 24.9041 52.0841 24.9041C51.6653 24.9041 51.3418 24.5889 51.3418 24.1792V15.7118Z" fill="#3E3F3D"/>
<path fill-rule="evenodd" clip-rule="evenodd" d="M44.2013 14.9868C42.7981 14.9868 41.56 15.6762 40.8199 16.7253C40.0839 15.681 38.8606 14.9937 37.4622 14.9937C35.1956 14.9937 33.3574 16.7889 33.3574 19.0027V24.1792C33.3574 24.5882 33.6802 24.9041 34.0997 24.9041C34.5184 24.9041 34.8237 24.5882 34.8237 24.1792L34.8223 18.8659C34.8223 17.4427 36.0029 16.2903 37.4601 16.2903C38.9159 16.2903 40.0972 17.4427 40.0972 18.8659L40.0965 23.5863V23.5883C40.0965 23.9836 40.4242 24.3044 40.8297 24.3044C41.2344 24.3044 41.5628 23.9836 41.5628 23.5883L41.5607 18.8591C41.5607 17.4366 42.742 16.2835 44.1985 16.2835C45.655 16.2835 46.8357 17.4366 46.8357 18.8591V24.1724C46.8357 24.582 47.1592 24.8973 47.559 24.8973C47.9777 24.8973 48.302 24.582 48.302 24.1724L48.3062 19.0027C48.3062 16.7192 46.3742 14.9868 44.2013 14.9868Z" fill="#3E3F3D"/>
</g>
<defs>
<clipPath id="clip0_4202_546">
<rect width="102.001" height="16.4138" fill="white" transform="translate(8.99902 11.8389)"/>
</clipPath>
</defs>
</svg>
