<svg width="120" height="40" viewBox="0 0 120 40" fill="none" xmlns="http://www.w3.org/2000/svg">
<rect width="120" height="40" fill="white"/>
<g clip-path="url(#clip0_4202_511)">
<path fill-rule="evenodd" clip-rule="evenodd" d="M53.9443 16.1846C49.9846 16.1846 46.7705 19.5111 46.7705 23.5924C46.7705 27.6735 49.9921 31.0001 53.9443 31.0001C57.8967 31.0001 61.1182 27.6735 61.1182 23.5924C61.1182 19.5111 57.9042 16.1846 53.9443 16.1846ZM53.9443 27.4964C51.8638 27.4964 50.171 25.7485 50.171 23.6001C50.171 21.4517 51.8638 19.7036 53.9443 19.7036C56.0249 19.7036 57.7178 21.4517 57.7178 23.6001C57.7178 25.7485 56.0249 27.4964 53.9443 27.4964Z" fill="black"/>
<path d="M77.8075 13.6202C79.043 13.6202 80.0446 12.586 80.0446 11.3101C80.0446 10.0343 79.043 9 77.8075 9C76.572 9 75.5703 10.0343 75.5703 11.3101C75.5703 12.586 76.572 13.6202 77.8075 13.6202Z" fill="black"/>
<path fill-rule="evenodd" clip-rule="evenodd" d="M39.2983 16.1925C39.1119 16.1771 38.9329 16.1694 38.7465 16.1694C37.0165 16.1694 35.3759 16.901 34.1976 18.1946C33.0194 16.9087 31.3863 16.1694 29.6711 16.1694C26.2408 16.1694 23.4443 19.0494 23.4443 22.5915V30.7001H26.8001V22.6916C26.8001 21.2209 27.9709 19.8656 29.3504 19.7193C29.4474 19.7116 29.5443 19.7039 29.6338 19.7039C31.1849 19.7039 32.4526 21.0129 32.4601 22.6146V30.7001H35.8904V22.6762C35.8904 21.2132 37.0537 19.8579 38.4408 19.7116C38.5377 19.7039 38.6346 19.6962 38.7241 19.6962C40.2752 19.6962 41.5504 20.9975 41.5579 22.5915V30.7001H44.9882V22.6916C44.9882 21.0669 44.4065 19.5037 43.3551 18.2947C42.3036 17.0781 40.8643 16.3311 39.2983 16.1925Z" fill="black"/>
<path d="M66.3981 9.34668H62.9678V30.7153H66.3981V9.34668Z" fill="black"/>
<path d="M72.9596 9.34668H69.5293V30.7153H72.9596V9.34668Z" fill="black"/>
<path d="M79.5231 16.5386H76.0928V30.7073H79.5231V16.5386Z" fill="black"/>
<path fill-rule="evenodd" clip-rule="evenodd" d="M95.556 23.2614C95.556 21.3826 94.8476 19.6115 93.5649 18.2639C92.2748 16.9164 90.5746 16.1694 88.7626 16.1694C88.7328 16.1694 88.7028 16.1694 88.673 16.1694C86.7938 16.1925 85.019 16.9626 83.6917 18.3409C82.3643 19.7193 81.6186 21.5443 81.5962 23.4925C81.5738 25.4791 82.3121 27.3581 83.6768 28.7827C85.0413 30.2073 86.846 30.9927 88.77 30.9927H88.7775C91.298 30.9927 93.6619 29.5989 94.952 27.3581L95.116 27.0732L92.2823 25.6333L92.1406 25.872C91.4322 27.0809 90.2018 27.7971 88.8371 27.7971C87.0921 27.7971 85.5857 26.5958 85.1234 24.8862H95.556V23.2614ZM88.6283 19.3882C90.1944 19.3882 91.5962 20.4508 92.0884 21.9601H85.1757C85.6603 20.4508 87.0623 19.3882 88.6283 19.3882Z" fill="black"/>
</g>
<defs>
<clipPath id="clip0_4202_511">
<rect width="72.1111" height="22" fill="white" transform="translate(23.4443 9)"/>
</clipPath>
</defs>
</svg>
