<svg width="120" height="40" viewBox="0 0 120 40" fill="none" xmlns="http://www.w3.org/2000/svg">
<rect width="120" height="40" fill="white"/>
<path d="M49.0249 12.6523H43.5485C43.3672 12.6522 43.1918 12.7185 43.0539 12.8392C42.9161 12.9599 42.8248 13.1272 42.7966 13.3108L40.5816 27.709C40.5715 27.7758 40.5755 27.8441 40.5935 27.9091C40.6116 27.9742 40.6431 28.0344 40.6861 28.0858C40.729 28.1371 40.7822 28.1783 40.8422 28.2065C40.9021 28.2347 40.9673 28.2493 41.0333 28.2492H43.6478C43.8292 28.2493 44.0047 28.1829 44.1425 28.062C44.2804 27.9411 44.3716 27.7737 44.3997 27.5899L44.9971 23.7065C45.0251 23.5229 45.1162 23.3556 45.2539 23.2347C45.3916 23.1138 45.5669 23.0473 45.7482 23.0472H47.4818C51.0893 23.0472 53.1713 21.2574 53.715 17.7106C53.96 16.1589 53.7254 14.9397 53.0167 14.0858C52.2384 13.1482 50.8579 12.6523 49.0249 12.6523ZM49.6567 17.911C49.3572 19.9257 47.8558 19.9257 46.404 19.9257H45.5776L46.1574 16.163C46.1743 16.0529 46.2291 15.9527 46.3117 15.8803C46.3944 15.8079 46.4995 15.7681 46.6082 15.7681H46.987C47.9759 15.7681 48.9088 15.7681 49.3909 16.3461C49.6783 16.6909 49.7664 17.2032 49.6567 17.911ZM65.3949 17.8461H62.7724C62.6637 17.8461 62.5586 17.8859 62.476 17.9583C62.3933 18.0307 62.3386 18.1309 62.3216 18.241L62.2055 18.9931L62.0221 18.7205C61.4544 17.8756 60.1884 17.5932 58.9248 17.5932C56.0268 17.5932 53.5516 19.8436 53.0696 23.0004C52.8189 24.5751 53.1753 26.0809 54.0465 27.131C54.8457 28.0965 55.9892 28.4988 57.3497 28.4988C59.6847 28.4988 60.9795 26.9594 60.9795 26.9594L60.8626 27.7065C60.8522 27.7733 60.856 27.8416 60.8738 27.9068C60.8917 27.9719 60.923 28.0323 60.9658 28.0838C61.0086 28.1353 61.0617 28.1767 61.1216 28.2051C61.1815 28.2335 61.2467 28.2483 61.3126 28.2484H63.6749C63.8563 28.2485 64.0318 28.1821 64.1697 28.0612C64.3075 27.9403 64.3987 27.7729 64.4268 27.5891L65.8442 18.3863C65.8546 18.3197 65.8508 18.2515 65.833 18.1865C65.8152 18.1215 65.7839 18.0612 65.7412 18.0099C65.6985 17.9585 65.6454 17.9173 65.5856 17.889C65.5258 17.8607 65.4608 17.8461 65.3949 17.8461ZM61.7394 23.0793C61.4864 24.6154 60.2973 25.6466 58.7806 25.6466C58.0191 25.6466 57.4105 25.3962 57.0197 24.9216C56.6322 24.4503 56.4848 23.7796 56.6081 23.0325C56.8444 21.5095 58.0535 20.4446 59.547 20.4446C60.2917 20.4446 60.897 20.6983 61.2958 21.177C61.6954 21.6605 61.854 22.3354 61.7394 23.0793ZM79.3619 17.8461H76.7266C76.6023 17.8463 76.4799 17.8776 76.3701 17.9372C76.2603 17.9969 76.1663 18.0831 76.0964 18.1885L72.4617 23.6778L70.921 18.4027C70.8737 18.2419 70.7772 18.1009 70.6456 18.0006C70.5141 17.9003 70.3546 17.8462 70.1907 17.8461H67.601C67.5283 17.8459 67.4567 17.8635 67.3919 17.8974C67.3272 17.9314 67.2714 17.9807 67.229 18.0413C67.1866 18.1018 67.1589 18.1719 67.1483 18.2456C67.1377 18.3193 67.1444 18.3946 67.1678 18.4651L70.0706 27.1991L67.3416 31.149C67.2931 31.2191 67.2643 31.3014 67.2584 31.3871C67.2526 31.4728 67.2698 31.5585 67.3082 31.6348C67.3467 31.7111 67.4049 31.7751 67.4765 31.8197C67.548 31.8644 67.6302 31.888 67.714 31.8879H70.3461C70.469 31.8881 70.5901 31.8577 70.699 31.7994C70.8079 31.741 70.9014 31.6565 70.9715 31.553L79.7366 18.5809C79.7841 18.5107 79.812 18.4285 79.8172 18.3433C79.8224 18.258 79.8047 18.1729 79.7661 18.0972C79.7275 18.0215 79.6694 17.9581 79.5982 17.9138C79.5269 17.8696 79.4452 17.8461 79.3619 17.8461Z" fill="#253B80"/>
<path d="M88.0875 12.6527H82.6103C82.4292 12.6528 82.254 12.7191 82.1163 12.8398C81.9786 12.9605 81.8874 13.1277 81.8592 13.3111L79.6443 27.7093C79.634 27.776 79.6379 27.8442 79.6558 27.9092C79.6737 27.9742 79.7051 28.0344 79.7478 28.0858C79.7906 28.1371 79.8437 28.1783 79.9036 28.2066C79.9634 28.2349 80.0284 28.2495 80.0943 28.2495H82.905C83.0318 28.2493 83.1544 28.2028 83.2507 28.1182C83.347 28.0336 83.4107 27.9166 83.4303 27.7881L84.0589 23.7068C84.0869 23.5232 84.178 23.3559 84.3157 23.235C84.4535 23.1142 84.6287 23.0477 84.81 23.0476H86.5429C90.1511 23.0476 92.2323 21.2577 92.7768 17.711C93.0227 16.1592 92.7864 14.94 92.0778 14.0862C91.3002 13.1486 89.9205 12.6527 88.0875 12.6527ZM88.7193 17.9113C88.4207 19.9261 86.9192 19.9261 85.4666 19.9261H84.6411L85.2216 16.1633C85.2383 16.0533 85.2928 15.9529 85.3753 15.8805C85.4579 15.808 85.563 15.7683 85.6716 15.7684H86.0504C87.0385 15.7684 87.9722 15.7684 88.4543 16.3464C88.7418 16.6913 88.829 17.2036 88.7193 17.9113ZM104.457 17.8464H101.836C101.727 17.8461 101.622 17.8858 101.539 17.9583C101.457 18.0307 101.402 18.1312 101.386 18.2413L101.27 18.9934L101.086 18.7208C100.518 17.876 99.2526 17.5936 97.989 17.5936C95.091 17.5936 92.6167 19.844 92.1346 23.0008C91.8848 24.5755 92.2395 26.0812 93.1107 27.1313C93.9115 28.0968 95.0534 28.4991 96.4139 28.4991C98.7489 28.4991 100.044 26.9597 100.044 26.9597L99.9268 27.7068C99.9164 27.7738 99.9203 27.8422 99.9382 27.9075C99.9561 27.9727 99.9876 28.0332 100.031 28.0847C100.074 28.1363 100.127 28.1776 100.187 28.2059C100.247 28.2342 100.312 28.2488 100.378 28.2487H102.74C102.921 28.2486 103.096 28.1821 103.234 28.0612C103.372 27.9404 103.463 27.7731 103.491 27.5894L104.909 18.3867C104.919 18.3198 104.915 18.2515 104.897 18.1864C104.879 18.1214 104.847 18.0611 104.804 18.0098C104.761 17.9585 104.708 17.9173 104.648 17.8891C104.588 17.8609 104.523 17.8463 104.457 17.8464ZM100.801 23.0796C100.55 24.6157 99.3591 25.6469 97.8425 25.6469C97.0825 25.6469 96.4723 25.3965 96.0816 24.9219C95.694 24.4507 95.5483 23.7799 95.67 23.0328C95.9078 21.5098 97.1154 20.4449 98.6088 20.4449C99.3535 20.4449 99.9589 20.6986 100.358 21.1773C100.759 21.6609 100.917 22.3357 100.801 23.0796ZM107.549 13.0476L105.301 27.7093C105.29 27.776 105.294 27.8442 105.312 27.9092C105.33 27.9742 105.362 28.0344 105.404 28.0858C105.447 28.1371 105.5 28.1783 105.56 28.2066C105.62 28.2349 105.685 28.2495 105.751 28.2495H108.011C108.386 28.2495 108.705 27.9704 108.762 27.5902L110.979 13.1929C110.989 13.1262 110.985 13.0579 110.967 12.9929C110.95 12.9279 110.918 12.8676 110.875 12.8162C110.833 12.7648 110.78 12.7235 110.72 12.6951C110.66 12.6667 110.595 12.652 110.529 12.6519H107.999C107.89 12.6522 107.785 12.6923 107.703 12.7648C107.62 12.8373 107.565 12.9376 107.549 13.0476Z" fill="#179BD7"/>
<path d="M17.8398 31.0473L18.2586 28.3199L17.3257 28.2978H12.8711L15.9668 8.17218C15.9761 8.11069 16.0065 8.05464 16.0527 8.01425C16.0988 7.97386 16.1576 7.95182 16.2183 7.95215H23.7295C26.223 7.95215 27.9439 8.48417 28.8423 9.53425C29.2635 10.0269 29.5318 10.5416 29.6615 11.1081C29.7977 11.7026 29.8001 12.4127 29.6671 13.2789L29.6575 13.3421V13.8971L30.0787 14.1418C30.4003 14.3088 30.6893 14.5348 30.9315 14.8085C31.2919 15.2296 31.5249 15.7649 31.6234 16.3996C31.7251 17.0523 31.6915 17.829 31.5249 18.7083C31.3327 19.7198 31.022 20.6007 30.6024 21.3216C30.2322 21.9674 29.7344 22.5267 29.141 22.9636C28.5837 23.3692 27.9215 23.6771 27.1727 23.8741C26.4473 24.0679 25.6201 24.1656 24.7128 24.1656H24.1282C23.7102 24.1656 23.3043 24.3199 22.9856 24.5966C22.6673 24.8763 22.4562 25.2626 22.3898 25.6869L22.3457 25.9324L21.6058 30.7395L21.5722 30.916C21.5634 30.9718 21.5482 30.9997 21.5258 31.0186C21.504 31.0368 21.4769 31.0469 21.4489 31.0473H17.8398Z" fill="#253B80"/>
<path d="M30.4781 13.4058C30.4557 13.5527 30.4301 13.703 30.4013 13.8573C29.4107 19.0716 26.0219 20.8729 21.6938 20.8729H19.4901C18.9608 20.8729 18.5147 21.267 18.4322 21.8023L17.304 29.1389L16.9845 31.2185C16.9717 31.301 16.9766 31.3854 16.9987 31.4657C17.0208 31.5461 17.0597 31.6206 17.1125 31.6842C17.1654 31.7477 17.2311 31.7987 17.3051 31.8337C17.3791 31.8687 17.4595 31.8868 17.541 31.8868H21.4495C21.9124 31.8868 22.3055 31.542 22.3784 31.074L22.4168 30.8704L23.1528 26.0823L23.2 25.8195C23.2721 25.3499 23.666 25.0051 24.1289 25.0051H24.7134C28.5003 25.0051 31.4647 23.4287 32.3311 18.8672C32.6931 16.9616 32.5057 15.3705 31.548 14.2514C31.2444 13.9052 30.8819 13.6187 30.4781 13.4058Z" fill="#179BD7"/>
<path d="M29.4404 12.9825C29.1241 12.8887 28.8023 12.8155 28.4771 12.7633C27.8343 12.662 27.1847 12.6134 26.5344 12.618H20.6472C20.4231 12.6178 20.2064 12.6998 20.0362 12.8492C19.866 12.9985 19.7535 13.2054 19.7191 13.4324L18.4667 21.5654L18.4307 21.8027C18.4697 21.5438 18.5978 21.3077 18.7918 21.1373C18.9858 20.9668 19.233 20.8732 19.4885 20.8733H21.6922C26.0203 20.8733 29.4091 19.0712 30.3997 13.8577C30.4293 13.7034 30.4541 13.5531 30.4766 13.4061C30.2152 13.2656 29.9428 13.1478 29.6622 13.0539C29.5886 13.0289 29.5147 13.0051 29.4404 12.9825Z" fill="#222D65"/>
<path d="M19.72 13.4323C19.7541 13.2053 19.8665 12.9983 20.0368 12.849C20.2071 12.6997 20.424 12.618 20.648 12.6187H26.5353C27.2327 12.6187 27.8838 12.6655 28.4779 12.764C28.88 12.8288 29.2765 12.9257 29.6639 13.0538C29.9561 13.1532 30.2276 13.2706 30.4782 13.4061C30.7729 11.4791 30.4758 10.1672 29.4597 8.97914C28.3394 7.67126 26.3175 7.11133 23.7302 7.11133H16.219C15.6905 7.11133 15.2397 7.50542 15.158 8.04154L12.0294 28.374C12.0148 28.4684 12.0204 28.5649 12.0457 28.6569C12.071 28.7489 12.1154 28.8342 12.1759 28.9069C12.2364 28.9796 12.3115 29.038 12.3961 29.0781C12.4807 29.1182 12.5728 29.1391 12.666 29.1392H17.3033L18.4676 21.5653L19.72 13.4323Z" fill="#253B80"/>
</svg>
