<svg width="120" height="40" viewBox="0 0 120 40" fill="none" xmlns="http://www.w3.org/2000/svg">
<rect width="120" height="40" fill="white"/>
<path d="M19.752 11.9087H4.70987C4.20472 11.9087 3.77441 12.339 3.77441 12.8629V14.5654C3.77441 15.0892 4.20472 15.5195 4.70987 15.5195H19.752C20.2758 15.5195 20.6874 15.0892 20.7061 14.5654V12.8816C20.7061 12.339 20.2758 11.9087 19.752 11.9087ZM19.752 21.3568H4.70987C4.46665 21.3568 4.22343 21.4503 4.05505 21.6374C3.86796 21.8245 3.77441 22.049 3.77441 22.3109V24.0135C3.77441 24.5373 4.20472 24.9676 4.70987 24.9676H19.752C20.2758 24.9676 20.6874 24.556 20.7061 24.0135V22.3109C20.6874 21.7684 20.2758 21.3568 19.752 21.3568ZM13.1851 26.0715H4.70987C4.46665 26.0715 4.22343 26.165 4.05505 26.3521C3.88667 26.5392 3.77441 26.7637 3.77441 27.0256V28.7282C3.77441 29.252 4.20472 29.6823 4.70987 29.6823H13.1664C13.6902 29.6823 14.1018 29.252 14.1018 28.7469V27.0443C14.1205 26.4831 13.7089 26.0528 13.1851 26.0715ZM20.7061 16.6234H4.70987C4.46665 16.6234 4.22343 16.7169 4.05505 16.904C3.88667 17.0911 3.77441 17.3156 3.77441 17.5775V19.2801C3.77441 19.8039 4.20472 20.2342 4.70987 20.2342H20.6874C21.2113 20.2342 21.6229 19.8039 21.6229 19.2801V17.5775C21.6416 17.0537 21.2113 16.6421 20.7061 16.6234Z" fill="#00C3F7"/>
<path d="M38.1978 15.725C37.7301 15.2385 37.1875 14.8644 36.5701 14.6024C35.9527 14.3405 35.2979 14.2095 34.6244 14.2095C33.9695 14.1908 33.3334 14.3405 32.7347 14.6211C32.3418 14.8082 31.9864 15.0702 31.687 15.3882V15.0889C31.687 14.9392 31.6309 14.7895 31.5373 14.6773C31.4438 14.565 31.2941 14.4902 31.1257 14.4902H29.049C28.8994 14.4902 28.7497 14.5463 28.6561 14.6773C28.5439 14.7895 28.4878 14.9392 28.5065 15.0889V29.0833C28.5065 29.2329 28.5626 29.3826 28.6561 29.4949C28.7684 29.6071 28.8994 29.6632 29.049 29.6632H31.1819C31.3315 29.6632 31.4625 29.6071 31.5748 29.4949C31.687 29.4013 31.7619 29.2516 31.7431 29.0833V24.2937C32.0425 24.6305 32.4354 24.8737 32.8657 25.0234C33.427 25.2292 34.0069 25.3414 34.6056 25.3414C35.2792 25.3414 35.9527 25.2105 36.5701 24.9486C37.1875 24.6866 37.7488 24.3124 38.2165 23.826C38.7029 23.3209 39.0771 22.7222 39.339 22.0674C39.6384 21.3377 39.7694 20.5519 39.7506 19.7661C39.7694 18.9804 39.6197 18.1946 39.339 17.4462C39.0584 16.8288 38.6842 16.2301 38.1978 15.725ZM36.2895 20.7951C36.1772 21.0945 36.0088 21.3564 35.7843 21.5996C35.354 22.0674 34.7366 22.3293 34.1005 22.3293C33.7824 22.3293 33.4644 22.2732 33.165 22.1235C32.8844 21.9925 32.6225 21.8241 32.398 21.5996C32.1735 21.3751 32.0051 21.0945 31.8928 20.7951C31.6496 20.159 31.6496 19.4668 31.8928 18.8307C32.0051 18.5313 32.1922 18.2694 32.398 18.0449C32.6225 17.8204 32.8844 17.6333 33.165 17.5023C33.4644 17.3714 33.7824 17.2965 34.1005 17.2965C34.4373 17.2965 34.7366 17.3527 35.0547 17.5023C35.3353 17.6333 35.5972 17.8017 35.803 18.0262C36.0275 18.2507 36.1772 18.5126 36.3082 18.812C36.5327 19.4668 36.514 20.159 36.2895 20.7951ZM51.1819 14.5089H49.0678C48.9181 14.5089 48.7684 14.565 48.6749 14.6773C48.5626 14.7895 48.5065 14.9392 48.5065 15.1076V15.3695C48.2446 15.0514 47.9078 14.8082 47.5523 14.6399C46.9724 14.3592 46.3362 14.2283 45.7001 14.2283C44.3344 14.2283 43.0434 14.7708 42.0706 15.725C41.5654 16.2301 41.1725 16.8288 40.9106 17.4836C40.6113 18.2133 40.4616 18.9991 40.4803 19.8036C40.4616 20.5893 40.6113 21.3751 40.9106 22.1235C41.1912 22.7783 41.5654 23.377 42.0706 23.8821C43.0247 24.855 44.3344 25.3976 45.6814 25.3976C46.3175 25.4163 46.9536 25.2666 47.5336 24.986C47.8891 24.7989 48.2446 24.5557 48.5065 24.2563V24.537C48.5065 24.6866 48.5626 24.8363 48.6749 24.9486C48.7871 25.0421 48.9181 25.1169 49.0678 25.1169H51.1819C51.3316 25.1169 51.4812 25.0608 51.5748 24.9486C51.687 24.8363 51.7432 24.6866 51.7432 24.537V15.1263C51.7432 14.9766 51.687 14.8269 51.5935 14.7147C51.4812 14.5837 51.3316 14.5089 51.1819 14.5089ZM48.3194 20.7951C48.2072 21.0945 48.0388 21.3564 47.8143 21.5996C47.5898 21.8241 47.3465 22.0112 47.0659 22.1422C46.4672 22.4228 45.775 22.4228 45.1763 22.1422C44.8956 22.0112 44.6337 21.8241 44.4092 21.5996C44.1847 21.3751 44.0163 21.0945 43.9041 20.7951C43.6796 20.159 43.6796 19.4668 43.9041 18.8307C44.0163 18.5313 44.1847 18.2881 44.4092 18.0449C44.6337 17.8204 44.8769 17.6333 45.1763 17.5023C45.775 17.2217 46.4672 17.2217 47.0472 17.5023C47.3278 17.6333 47.5898 17.8017 47.7956 18.0262C48.0014 18.2507 48.1697 18.5126 48.3007 18.812C48.5626 19.4668 48.5626 20.159 48.3194 20.7951ZM72.2483 19.5229C71.949 19.261 71.5935 19.0365 71.2193 18.8868C70.8265 18.7184 70.3961 18.6062 69.9845 18.5126L68.3756 18.1946C67.964 18.1197 67.6646 18.0075 67.5149 17.8765C67.384 17.783 67.2904 17.6333 67.2904 17.4649C67.2904 17.2965 67.384 17.1469 67.5898 17.0159C67.8704 16.8662 68.1698 16.7914 68.4878 16.8101C68.8994 16.8101 69.311 16.9037 69.6852 17.0533C70.0594 17.2217 70.4149 17.3901 70.7516 17.6146C71.2193 17.9139 71.6309 17.8578 71.9116 17.5211L72.6787 16.6417C72.8283 16.492 72.9032 16.305 72.9219 16.0992C72.9032 15.8747 72.7909 15.6876 72.6225 15.5379C72.3045 15.2573 71.7806 14.9579 71.0884 14.6586C70.3961 14.3592 69.5168 14.2095 68.4878 14.2095C67.8517 14.1908 67.2343 14.2844 66.6356 14.4715C66.1305 14.6398 65.644 14.8831 65.2137 15.2011C64.8208 15.5005 64.5215 15.8747 64.297 16.3237C64.0912 16.754 63.9789 17.2217 63.9789 17.6894C63.9789 18.5688 64.2409 19.2797 64.7647 19.8036C65.2886 20.3274 65.9808 20.6829 66.8414 20.8513L68.5252 21.2254C68.8807 21.2816 69.2549 21.3938 69.5917 21.5622C69.7787 21.637 69.891 21.8241 69.891 22.0299C69.891 22.217 69.7975 22.3854 69.5917 22.5351C69.3859 22.6848 69.0491 22.7783 68.6001 22.7783C68.1511 22.7783 67.6833 22.6848 67.2717 22.479C66.8788 22.2919 66.5234 22.0486 66.1866 21.768C66.0369 21.6558 65.8873 21.5622 65.7002 21.4874C65.5131 21.4312 65.2699 21.4874 65.0266 21.6932L64.1099 22.3854C63.848 22.5725 63.717 22.8906 63.7918 23.1899C63.848 23.508 64.0912 23.8073 64.5589 24.1628C65.7189 24.9486 67.1033 25.3601 68.5065 25.3227C69.1613 25.3227 69.8162 25.2479 70.4336 25.0608C70.9761 24.8924 71.4813 24.6492 71.9303 24.3124C72.3419 24.0131 72.6787 23.6202 72.9032 23.1525C73.1277 22.7035 73.2399 22.217 73.2399 21.7119C73.2586 21.2629 73.1651 20.8138 72.978 20.4022C72.7909 20.1029 72.5477 19.7848 72.2483 19.5229ZM81.4906 22.0861C81.3971 21.9177 81.2287 21.8054 81.0229 21.768C80.8358 21.768 80.63 21.8241 80.4803 21.9364C80.2184 22.1048 79.9191 22.1983 79.6197 22.217C79.5262 22.217 79.4139 22.1983 79.3204 22.1796C79.2081 22.1609 79.1146 22.1048 79.0397 22.0299C78.9462 21.9364 78.8714 21.8241 78.8152 21.7119C78.7404 21.5248 78.703 21.3377 78.7217 21.1506V17.3152H81.4532C81.6216 17.3152 81.7713 17.2404 81.8835 17.1282C81.9958 17.0159 82.0706 16.8849 82.0706 16.7166V15.0889C82.0706 14.9205 82.0145 14.7708 81.8835 14.6773C81.7713 14.565 81.6216 14.5089 81.4719 14.5089H78.7217V11.8896C78.7217 11.7399 78.6656 11.5716 78.5533 11.478C78.4411 11.3845 78.3101 11.3283 78.1604 11.3096H76.0276C75.8779 11.3096 75.7282 11.3658 75.616 11.478C75.5037 11.5903 75.4289 11.7399 75.4289 11.8896V14.5089H74.2128C74.0631 14.5089 73.9135 14.565 73.8012 14.696C73.7077 14.8082 73.6515 14.9579 73.6515 15.1076V16.7353C73.6515 16.8849 73.7077 17.0346 73.8012 17.1469C73.8947 17.2778 74.0444 17.334 74.2128 17.334H75.4289V21.899C75.4102 22.4415 75.5224 22.9841 75.7469 23.4705C75.9527 23.8821 76.2147 24.2376 76.5701 24.537C76.9069 24.8176 77.2998 25.0234 77.7301 25.1356C78.1604 25.2666 78.6094 25.3414 79.0585 25.3414C79.6384 25.3414 80.2371 25.2479 80.7984 25.0608C81.3223 24.8924 81.79 24.5931 82.1642 24.2002C82.4074 23.957 82.4261 23.5641 82.239 23.2834L81.4906 22.0861ZM93.0529 14.5089H90.9387C90.7891 14.5089 90.6581 14.565 90.5458 14.6773C90.4336 14.7895 90.3775 14.9392 90.3775 15.1076V15.3695C90.1155 15.0514 89.7975 14.8082 89.4233 14.6399C88.8433 14.3592 88.2072 14.2283 87.5711 14.2283C86.2053 14.2283 84.9144 14.7708 83.9415 15.725C83.4364 16.2301 83.0435 16.8288 82.7816 17.4836C82.4822 18.2133 82.3325 18.9991 82.3513 19.7848C82.3325 20.5706 82.4822 21.3564 82.7816 22.1048C83.0435 22.7596 83.4551 23.3583 83.9415 23.8634C84.8957 24.8363 86.1866 25.3789 87.5524 25.3789C88.1885 25.3976 88.8246 25.2479 89.4046 24.986C89.7788 24.7989 90.1155 24.5557 90.3775 24.2563V24.537C90.3775 24.6866 90.4336 24.8363 90.5458 24.9298C90.6581 25.0421 90.7891 25.0982 90.9387 25.0982H93.0529C93.3709 25.0982 93.6141 24.855 93.6141 24.537V15.1263C93.6141 14.9766 93.558 14.8269 93.4645 14.7147C93.3709 14.5837 93.2212 14.5089 93.0529 14.5089ZM90.2091 20.7951C90.0968 21.0945 89.9284 21.3564 89.7039 21.5996C89.4794 21.8241 89.2362 22.0112 88.9556 22.1422C88.6562 22.2732 88.3382 22.348 88.0014 22.348C87.6646 22.348 87.3653 22.2732 87.066 22.1422C86.7853 22.0112 86.5234 21.8241 86.2989 21.5996C86.0744 21.3751 85.906 21.0945 85.8124 20.7951C85.5879 20.159 85.5879 19.4668 85.8124 18.8307C85.9247 18.5313 86.0931 18.2694 86.2989 18.0449C86.5234 17.8204 86.7853 17.6333 87.066 17.5023C87.3653 17.3714 87.6834 17.2965 88.0014 17.2965C88.3195 17.2965 88.6375 17.3527 88.9556 17.5023C89.2362 17.6333 89.4794 17.8017 89.7039 18.0262C89.9284 18.2507 90.0968 18.5126 90.2091 18.812C90.4523 19.4481 90.4523 20.159 90.2091 20.7951ZM104.653 21.9364L103.436 21.0009C103.212 20.8138 102.987 20.7577 102.8 20.8326C102.632 20.9074 102.482 21.0196 102.351 21.1506C102.089 21.4687 101.771 21.7493 101.435 21.9925C101.06 22.1983 100.667 22.3106 100.256 22.2732C99.7694 22.2732 99.3204 22.1422 98.9275 21.8616C98.5346 21.5809 98.2353 21.2067 98.0856 20.739C97.9734 20.421 97.9172 20.1029 97.9172 19.7848C97.9172 19.4481 97.9734 19.13 98.0856 18.7933C98.1979 18.4939 98.3475 18.232 98.572 18.0075C98.7966 17.783 99.0398 17.5959 99.3204 17.4836C99.6198 17.3527 99.9378 17.2778 100.275 17.2778C100.686 17.2591 101.098 17.3714 101.453 17.5772C101.809 17.8017 102.108 18.0823 102.37 18.4191C102.482 18.55 102.632 18.6623 102.8 18.7371C102.987 18.812 103.212 18.7558 103.436 18.5688L104.653 17.652C104.802 17.5585 104.914 17.4088 104.971 17.2404C105.045 17.0533 105.027 16.8475 104.914 16.6791C104.447 15.9495 103.811 15.3508 103.044 14.9205C102.239 14.4715 101.285 14.2283 100.218 14.2283C99.4701 14.2283 98.7217 14.3779 98.0108 14.6586C97.3372 14.9392 96.7386 15.3321 96.2334 15.8372C95.7283 16.3424 95.3167 16.9411 95.036 17.6146C94.456 19.0178 94.456 20.5893 95.036 21.9925C95.3167 22.6473 95.7096 23.2647 96.2334 23.7512C97.2998 24.7989 98.7217 25.3602 100.218 25.3602C101.285 25.3602 102.239 25.1169 103.044 24.6679C103.811 24.2376 104.465 23.6389 104.933 22.8906C105.027 22.7222 105.045 22.5164 104.989 22.348C104.914 22.1983 104.802 22.0486 104.653 21.9364ZM115.915 24.1254L112.566 19.2236L115.429 15.4443C115.56 15.276 115.616 15.0327 115.541 14.8269C115.485 14.6773 115.354 14.5276 114.999 14.5276H112.735C112.604 14.5276 112.473 14.565 112.361 14.6211C112.211 14.696 112.099 14.8082 112.024 14.9392L109.741 18.1384H109.199V10.58C109.199 10.4303 109.143 10.2806 109.03 10.1684C108.918 10.0561 108.787 10 108.638 10H106.523C106.374 10 106.224 10.0561 106.112 10.1684C106 10.2806 105.943 10.4116 105.943 10.58V24.5182C105.943 24.6866 106 24.8176 106.112 24.9298C106.224 25.0421 106.374 25.0982 106.523 25.0982H108.638C108.787 25.0982 108.937 25.0421 109.03 24.9298C109.143 24.8176 109.199 24.6679 109.199 24.5182V20.8326H109.798L112.286 24.6492C112.435 24.9298 112.716 25.0982 113.015 25.0982H115.392C115.747 25.0982 115.897 24.9298 115.972 24.7802C116.065 24.5557 116.046 24.3124 115.915 24.1254ZM63.1931 14.5089H60.8171C60.63 14.5089 60.4616 14.565 60.3307 14.696C60.2184 14.8082 60.1436 14.9392 60.1061 15.0889L58.3475 21.5996H57.9172L56.0463 15.0889C56.0088 14.9579 55.9527 14.8269 55.8592 14.696C55.7469 14.565 55.5972 14.4902 55.4289 14.4902H53.0154C52.6973 14.4902 52.5102 14.5837 52.4167 14.8082C52.3606 14.9953 52.3606 15.2011 52.4167 15.3882L55.4102 24.5557C55.4663 24.6866 55.5224 24.8363 55.6347 24.9298C55.7469 25.0421 55.9153 25.0982 56.0837 25.0982H57.3559L57.2437 25.3976L56.963 26.2395C56.8695 26.5014 56.7198 26.7259 56.4953 26.8943C56.2895 27.044 56.0463 27.1375 55.7843 27.1188C55.5598 27.1188 55.354 27.0627 55.1482 26.9878C54.9424 26.8943 54.7553 26.782 54.587 26.6511C54.4373 26.5388 54.2502 26.4827 54.0444 26.4827H54.0257C53.8012 26.5014 53.5954 26.6137 53.4831 26.8195L52.7348 27.9233C52.4354 28.4097 52.6038 28.7091 52.7909 28.8775C53.2025 29.2516 53.6702 29.5323 54.1941 29.7007C54.774 29.9065 55.3727 30 55.9714 30C57.0566 30 57.9546 29.7007 58.6468 29.1207C59.3578 28.4846 59.9003 27.6614 60.1623 26.7259L63.6422 15.3882C63.717 15.1824 63.7357 14.9766 63.6609 14.7895C63.6422 14.6586 63.5112 14.5089 63.1931 14.5089Z" fill="#011B33"/>
</svg>
