<svg width="120" height="40" viewBox="0 0 120 40" fill="none" xmlns="http://www.w3.org/2000/svg">
<rect width="120" height="40" fill="white"/>
<g clip-path="url(#clip0_4202_590)">
<path d="M26.1154 13.4946H21.9199V20.5715H26.1319C30.2616 20.5715 30.3109 13.4946 26.1154 13.4946Z" fill="#257ECE"/>
<path d="M34.9509 6.53369H13.8582C13.4797 6.53369 13.1836 6.84712 13.1836 7.24303V28.0614L17.8727 30.5358V13.5116H15.6351V9.56901H17.8727H21.8708H26.7244C35.5432 9.56901 35.4445 24.4652 26.7244 24.4652H21.7885V32.6144L24.421 34.0001L35.609 28.0449V7.24303C35.6255 6.84712 35.3129 6.53369 34.9509 6.53369Z" fill="#257ECE"/>
<path d="M40.9715 12.9667C40.9715 11.449 42.2055 10.1953 43.7192 10.1953H45.6113C46.8123 10.2448 47.8982 10.1788 49.0499 10.7232C50.5307 11.4325 51.2217 13.0822 51.2217 14.6658C51.2217 16.167 50.6952 17.5857 49.3296 18.427C48.2602 19.1033 46.9111 19.2848 45.6113 19.2848H43.6863V24.4316H40.9551V12.9667H40.9715ZM43.7192 16.8433H45.7923C47.1249 16.8433 48.4412 16.3154 48.4412 14.7318C48.4412 12.8842 47.4211 12.6203 45.6771 12.6203H44.0482C43.7027 12.6203 43.7027 12.9502 43.7027 13.2966V16.8433H43.7192Z" fill="#257ECE"/>
<path d="M57.5388 23.4414C56.7984 24.2332 55.7125 24.6621 54.676 24.6621C52.57 24.6621 51.0069 23.2434 50.9576 21.1649C50.9247 19.2018 52.3725 17.9316 54.0178 17.7006L57.5059 17.1892C57.4236 16.15 55.7948 15.7871 55.0873 15.7871C54.1824 15.7871 53.0636 16.0345 52.2738 16.4139H51.9941V14.0879C53.0142 13.8075 54.0178 13.5601 55.1366 13.5601C57.5717 13.5601 59.9409 14.4839 60.0232 17.1563V24.4311H57.5552V23.4414H57.5388ZM55.1366 22.3856C55.9428 22.3856 56.7655 22.0557 57.4236 21.6597V19.2678C56.5516 19.4327 55.6631 19.5152 54.7747 19.6967C54.0672 19.8452 53.5407 20.2246 53.5407 21.0329C53.5407 22.0227 54.2975 22.3856 55.1366 22.3856Z" fill="#257ECE"/>
<path d="M68.6445 13.7744H71.0302L66.3411 26.724C65.5513 28.7696 64.1364 29.2974 61.7013 29.2974H61.2406V27.0704C63.1821 27.0869 63.8402 27.0704 64.3338 25.6683L64.8274 24.3156L60.2041 13.7744H63.034L66.0449 20.9338L68.6445 13.7744Z" fill="#257ECE"/>
<path d="M68.6621 12.6853V10.1943H79.192V12.6853H75.2598V24.4307H72.5286V12.6853H68.6621Z" fill="#58595B"/>
<path d="M84.8843 23.4414C84.1275 24.2332 83.058 24.6621 82.0215 24.6621C79.9155 24.6621 78.3525 23.2434 78.2867 21.1649C78.2538 19.2018 79.7016 17.9316 81.3469 17.7006L84.835 17.1892C84.7527 16.15 83.1239 15.7871 82.4164 15.7871C81.5115 15.7871 80.3927 16.0345 79.6029 16.4139H79.3232V14.0879C80.3433 13.8075 81.3469 13.5601 82.4657 13.5601C84.9008 13.5601 87.27 14.4839 87.3523 17.1563V24.4311H84.8843V23.4414ZM82.4986 22.3856C83.3048 22.3856 84.111 22.0557 84.7856 21.6597V19.2678C83.9136 19.4327 83.0251 19.5152 82.1367 19.6967C81.4292 19.8452 80.9027 20.2246 80.9027 21.0329C80.9027 22.0227 81.6431 22.3856 82.4986 22.3856Z" fill="#58595B"/>
<path d="M91.7289 24.6457C90.314 24.6457 89.1787 23.4909 89.1787 22.0558V9.51855H91.7454V14.0715C92.42 13.6426 93.0781 13.5437 93.7855 13.5437C95.2663 13.5437 96.5826 14.1375 97.5039 15.1933C98.3595 16.2985 98.5734 17.5688 98.6063 18.9379C98.6063 20.1257 98.4088 21.3299 97.8165 22.3692C96.8623 23.9528 95.2992 24.5962 93.44 24.6457H91.7289ZM92.3706 22.3527H93.2261C93.9172 22.3527 94.7234 22.2372 95.2499 21.7093C95.908 21.033 95.9738 19.8123 95.9738 18.9379C95.9903 18.2286 95.8751 17.4368 95.5131 16.8264C95.0689 16.1171 94.3614 15.8861 93.5717 15.8531C92.9464 15.8531 92.3706 15.9686 91.7618 16.1171V21.7588C91.7618 22.0887 92.0415 22.3527 92.3706 22.3527Z" fill="#58595B"/>
<path d="M99.1328 24.1179V21.8414H99.4618C100.301 22.1878 101.568 22.4188 102.44 22.4188C103.164 22.4023 104.381 22.2703 104.381 21.2805C104.381 20.7361 103.592 20.4722 103.098 20.2743C102.193 19.9278 101.305 19.6639 100.515 19.268C99.5276 18.7566 99.0176 17.6678 99.0176 16.6121C99.0176 14.583 100.91 13.5438 102.67 13.5603C103.97 13.5767 104.842 13.8077 105.928 14.1211V16.2986H105.582C104.858 16.0182 103.805 15.8038 102.983 15.8038C102.571 15.8038 101.436 15.8862 101.436 16.4966C101.436 16.8265 102.028 17.1564 102.473 17.2884C103.345 17.6183 104.381 17.8988 105.187 18.3277C106.389 18.9216 106.783 20.0763 106.783 21.1486C106.783 23.59 104.529 24.6458 102.308 24.6458C101.206 24.6458 100.186 24.4478 99.1328 24.1179Z" fill="#58595B"/>
</g>
<defs>
<clipPath id="clip0_4202_590">
<rect width="93.6339" height="27.4664" fill="white" transform="translate(13.1826 6.53369)"/>
</clipPath>
</defs>
</svg>
