<svg width="120" height="40" viewBox="0 0 120 40" fill="none" xmlns="http://www.w3.org/2000/svg">
<rect width="120" height="40" fill="white"/>
<g clip-path="url(#clip0_3931_17003)">
<path d="M101.95 15.0679C101.556 13.9574 100.823 12.9954 99.8512 12.3149C98.8799 11.6343 97.7186 11.2689 96.528 11.269H96.4767C94.8471 11.269 93.3814 11.9376 92.3359 13.0114C91.7998 12.4592 91.1561 12.0201 90.4435 11.7206C89.7309 11.4211 88.9643 11.2675 88.19 11.269H88.1387C86.7038 11.269 85.397 11.7857 84.3976 12.6417V12.2061C84.3821 11.9951 84.2861 11.7979 84.1292 11.654C83.9723 11.5102 83.766 11.4306 83.552 11.4311H79.7084C79.5967 11.4311 79.4861 11.4529 79.3829 11.4951C79.2797 11.5374 79.1859 11.5993 79.1069 11.6774C79.0279 11.7555 78.9652 11.8482 78.9225 11.9502C78.8797 12.0522 78.8577 12.1615 78.8577 12.2719V32.9022C78.8577 33.3682 79.237 33.743 79.7084 33.743H83.552C83.7563 33.7424 83.9534 33.6687 84.107 33.5355C84.2605 33.4024 84.3601 33.2188 84.3874 33.0187V18.2083L84.3925 18.0563C84.4207 17.722 84.5709 17.4093 84.8151 17.1763C85.0593 16.9434 85.3808 16.8061 85.7198 16.79H86.427C86.7913 16.8109 87.1334 16.9701 87.3817 17.2344C87.63 17.4987 87.7654 17.8476 87.7595 18.2083L87.7749 32.9478C87.7749 33.4138 88.1541 33.7886 88.6256 33.7886H92.4692C92.9201 33.7886 93.2891 33.4341 93.3096 32.9883V18.188C93.3024 17.827 93.4374 17.4774 93.6859 17.2128C93.9345 16.9482 94.2773 16.7894 94.6421 16.7698H95.3493C96.1846 16.8407 96.6817 17.4637 96.6817 18.188L96.6971 32.9073C96.6971 33.3733 97.0815 33.7481 97.5478 33.7481H101.391C101.503 33.7481 101.614 33.7264 101.717 33.6841C101.82 33.6418 101.914 33.5799 101.993 33.5018C102.072 33.4238 102.135 33.3311 102.177 33.2291C102.22 33.127 102.242 33.0177 102.242 32.9073V17.0787C102.242 15.9999 102.119 15.5389 101.95 15.0679ZM75.9315 11.4868H73.7278V7.95644C73.7284 7.84321 73.7036 7.73125 73.6551 7.62865C73.6066 7.52605 73.5357 7.43537 73.4474 7.36317C73.3592 7.29096 73.2558 7.23902 73.1447 7.21111C73.0337 7.18319 72.9178 7.17999 72.8053 7.20174C70.3711 7.86527 70.8579 11.2032 66.4096 11.4868H65.9791C65.9171 11.4872 65.8553 11.494 65.7946 11.5071H65.7844C65.5955 11.5486 65.4265 11.6525 65.3054 11.8017C65.1843 11.9508 65.1182 12.1364 65.1182 12.3277V16.1265C65.1182 16.5824 65.5025 16.9623 65.974 16.9623H68.2955L68.2904 33.0694C68.2904 33.5303 68.6645 33.9051 69.1309 33.9051H72.9283C73.3896 33.9051 73.7688 33.5303 73.7688 33.0744V16.9673H75.9212C76.1468 16.9673 76.3632 16.8787 76.5228 16.721C76.6823 16.5634 76.7719 16.3495 76.7719 16.1265V12.3277C76.772 12.1064 76.6837 11.8941 76.5264 11.7367C76.3691 11.5793 76.1553 11.4895 75.9315 11.4868Z" fill="#54C1F0"/>
<path d="M62.0994 11.4868H58.2558C58.0311 11.4882 57.816 11.5773 57.6576 11.7349C57.4992 11.8924 57.4102 12.1055 57.4102 12.3276V20.1786C57.4062 20.4124 57.3094 20.6352 57.1407 20.7991C56.972 20.9631 56.7449 21.0549 56.5083 21.0549H54.8991C54.6608 21.0549 54.4321 20.9616 54.2631 20.7955C54.0941 20.6295 53.9985 20.404 53.9971 20.1685L53.9818 12.3276C53.9818 12.2172 53.9598 12.1079 53.917 12.0059C53.8743 11.9039 53.8116 11.8112 53.7326 11.7331C53.6536 11.655 53.5598 11.5931 53.4566 11.5508C53.3534 11.5086 53.2428 11.4868 53.131 11.4868H49.2875C49.0627 11.4882 48.8477 11.5773 48.6892 11.7349C48.5308 11.8924 48.4419 12.1055 48.4419 12.3276V20.9384C48.4419 24.2054 50.7993 26.5353 54.1099 26.5353C54.1099 26.5353 56.5954 26.5353 56.6723 26.5505C56.8882 26.5774 57.0868 26.6809 57.2312 26.8417C57.3756 27.0026 57.4559 27.2098 57.4572 27.4249C57.4584 27.6399 57.3805 27.8481 57.238 28.0106C57.0955 28.1731 56.8981 28.2788 56.6825 28.3081L56.6159 28.3183L50.994 28.3385C50.7693 28.3399 50.5542 28.429 50.3958 28.5866C50.2373 28.7441 50.1484 28.9572 50.1484 29.1793V32.9782C50.1484 33.4391 50.5277 33.8139 50.994 33.8139H57.2821C60.5927 33.8139 62.9501 31.484 62.9501 28.2119V12.3276C62.9501 12.1046 62.8605 11.8908 62.701 11.7331C62.5414 11.5754 62.3251 11.4868 62.0994 11.4868ZM24.8986 18.4463V20.7915C24.8986 21.0279 24.8036 21.2546 24.6344 21.4218C24.4653 21.589 24.2358 21.6829 23.9966 21.6829H21.5572V16.9876H23.9966C24.4937 16.9876 24.8986 17.3826 24.8986 17.8739V18.4463ZM25.2368 11.4868H16.8322C16.6124 11.4881 16.402 11.575 16.2466 11.7286C16.0912 11.8822 16.0033 12.0902 16.002 12.3074V32.9528C16.002 33.4087 16.3453 33.7835 16.7758 33.7937H20.6911C20.9168 33.7937 21.1331 33.7051 21.2927 33.5474C21.4522 33.3897 21.5418 33.1758 21.5418 32.9528L21.5572 27.1786H25.2368C28.3117 27.1786 30.4539 25.0664 30.4539 22.0122V16.6583C30.4539 13.604 28.3117 11.4868 25.2368 11.4868ZM40.8469 27.366V27.9586C40.8436 28.0485 40.8263 28.1373 40.7957 28.222C40.7302 28.393 40.6128 28.5398 40.4595 28.6423C40.3063 28.7447 40.1248 28.7979 39.9398 28.7944H38.3409C37.8387 28.7944 37.4338 28.4196 37.4338 27.9586V27.2394V24.7068C37.4338 24.251 37.8438 23.8761 38.3409 23.8761H39.9398C40.4421 23.8761 40.8469 24.251 40.8469 24.7119V27.366ZM40.232 11.5071H34.9022C34.4307 11.5071 34.0463 11.8616 34.0463 12.2922V15.858C34.0463 16.3139 34.4563 16.6938 34.9534 16.6938H40.027C40.4318 16.7546 40.7444 17.0483 40.7957 17.4941V17.9854C40.7444 18.4159 40.4369 18.73 40.0526 18.7654H37.5363C34.1898 18.7654 31.8068 20.9637 31.8068 24.0483V28.4651C31.8068 31.5295 33.8567 33.7126 37.1776 33.7126H44.1473C45.3977 33.7126 46.4124 32.7756 46.4124 31.6207V17.2104C46.4124 13.7155 44.5931 11.5071 40.232 11.5071Z" fill="#233266"/>
</g>
<defs>
<clipPath id="clip0_3931_17003">
<rect width="87" height="27" fill="white" transform="translate(16 7)"/>
</clipPath>
</defs>
</svg>
