<svg width="120" height="40" viewBox="0 0 120 40" fill="none" xmlns="http://www.w3.org/2000/svg">
<rect width="120" height="40" fill="white"/>
<g clip-path="url(#clip0_3931_17006)">
<path d="M14.6228 14.8019L13.7666 17.9769L18.6672 14.7838L15.4621 26.832L18.7173 26.8347L23.4521 9.03906" fill="#3395FF"/>
<path d="M9.34815 21.7691L8 26.8342H14.6717L17.4017 16.5304L9.34815 21.7691ZM32.5233 17.3098C32.3603 17.9205 32.0461 18.369 31.5775 18.6555C31.11 18.9414 30.4538 19.0849 29.6069 19.0849H26.916L27.8608 15.5358H30.5517C31.3975 15.5358 31.9786 15.6782 32.2939 15.9685C32.6092 16.2588 32.6853 16.7024 32.5233 17.3158M35.3093 17.2392C35.6518 15.9576 35.5105 14.9717 34.8842 14.2816C34.2591 13.597 33.1621 13.252 31.5965 13.252H25.5912L21.9762 26.8402H24.8938L26.3506 21.3633H28.2642C28.6936 21.3633 29.0317 21.4345 29.2785 21.5714C29.5259 21.7138 29.671 21.9603 29.7156 22.3163L30.2364 26.8402H33.3621L32.8555 22.623C32.7522 21.6809 32.3244 21.1278 31.5726 20.9635C32.531 20.6841 33.3339 20.2186 33.9808 19.5723C34.6231 18.9308 35.0821 18.1267 35.3093 17.2446M42.4013 21.9767C42.1567 22.8968 41.7816 23.5924 41.2744 24.0798C40.7666 24.5673 40.16 24.8083 39.4522 24.8083C38.7314 24.8083 38.2427 24.5728 37.9845 24.0963C37.7257 23.6198 37.717 22.9297 37.9573 22.026C38.1975 21.1223 38.5808 20.4158 39.1081 19.9064C39.6354 19.3971 40.2518 19.1424 40.9596 19.1424C41.6663 19.1424 42.1501 19.3889 42.3948 19.8779C42.6448 20.3692 42.6503 21.0719 42.4056 21.9866L42.4013 21.9767ZM43.6799 17.168L43.3145 18.5427C43.1569 18.0497 42.8509 17.6554 42.3986 17.3597C41.9452 17.0694 41.3842 16.9215 40.715 16.9215C39.8942 16.9215 39.1059 17.1351 38.3503 17.5623C37.5947 17.9895 36.9315 18.592 36.3661 19.3697C35.8008 20.1474 35.3876 21.0292 35.1213 22.0205C34.8603 23.0173 34.806 23.8882 34.9636 24.644C35.1267 25.4053 35.4692 25.9858 35.9965 26.3911C36.5292 26.8019 37.2087 27.0045 38.0404 27.0045C38.7013 27.0079 39.3548 26.8639 39.954 26.5828C40.5463 26.3136 41.0732 25.9173 41.4978 25.4217L41.1173 26.8545H43.9386L46.5148 17.1729H43.688L43.6799 17.168ZM56.6531 17.168H48.4484L47.8749 19.3259H52.6489L46.3376 24.8192L45.7983 26.8457H54.2678L54.8413 24.6878H49.7259L56.134 19.1123M63.875 21.9603C63.6211 22.9133 63.2444 23.6296 62.747 24.0963C62.2496 24.5673 61.6473 24.8028 60.94 24.8028C59.4614 24.8028 58.9754 23.8553 59.4799 21.9603C59.7299 21.0182 60.1083 20.3101 60.6139 19.833C61.1194 19.3543 61.7321 19.1156 62.4523 19.1156C63.159 19.1156 63.6363 19.3527 63.882 19.8303C64.1278 20.3068 64.1256 21.0171 63.875 21.9592M65.5265 17.5322C64.8768 17.1247 64.0478 16.9209 63.0367 16.9209C62.0131 16.9209 61.0656 17.1236 60.1936 17.5289C59.3253 17.9316 58.5622 18.5329 57.9648 19.2848C57.3506 20.0461 56.9086 20.9388 56.6373 21.9575C56.371 22.9724 56.3384 23.8635 56.5449 24.6264C56.7515 25.3877 57.1864 25.9738 57.8387 26.3791C58.4965 26.7876 59.3337 26.9908 60.3611 26.9908C61.3722 26.9908 62.3126 26.786 63.177 26.3785C64.0413 25.9688 64.7806 25.3872 65.3949 24.6204C66.0092 23.8569 66.4495 22.9664 66.7213 21.9477C66.9931 20.929 67.0257 20.0395 66.8192 19.2749C66.6126 18.5136 66.1831 17.9276 65.5362 17.5196M75.5985 19.7542L76.3215 17.1198C76.0768 16.9938 75.7561 16.9281 75.3538 16.9281C74.707 16.9281 74.0872 17.0891 73.4893 17.4155C72.975 17.6926 72.5379 18.0837 72.1683 18.5733L72.5434 17.1548L71.7242 17.1581H69.7128L67.1198 26.8358H69.9808L71.3262 21.7768C71.5219 21.0412 71.8742 20.4623 72.3825 20.0516C72.888 19.6391 73.5186 19.4327 74.2797 19.4327C74.7472 19.4327 75.1821 19.5406 75.5952 19.7558M83.5591 22.0068C83.3145 22.9105 82.9448 23.6006 82.4393 24.0771C81.9337 24.5558 81.3249 24.7946 80.6182 24.7946C79.9115 24.7946 79.4277 24.5536 79.1722 24.0716C78.9112 23.5869 78.9058 22.8886 79.1504 21.9707C79.395 21.0533 79.7701 20.3495 80.2866 19.8621C80.803 19.3708 81.4118 19.1254 82.1185 19.1254C82.8144 19.1254 83.2819 19.3774 83.5319 19.8867C83.782 20.3961 83.7874 21.1026 83.5471 22.0063M85.5476 17.5481C85.0176 17.1209 84.3408 16.9073 83.52 16.9073C82.8008 16.9073 82.1153 17.0716 81.4651 17.4035C80.8155 17.7348 80.2882 18.1867 79.8832 18.7585L79.893 18.6927L80.373 17.1537H77.5788L76.8667 19.8319L76.845 19.925L73.9095 30.9578H76.7743L78.2529 25.4042C78.3997 25.8982 78.6987 26.286 79.1553 26.5664C79.6119 26.8457 80.1757 26.9843 80.8459 26.9843C81.6777 26.9843 82.4713 26.7816 83.2242 26.3763C83.9798 25.9699 84.6322 25.385 85.1867 24.6292C85.7411 23.8734 86.1527 22.9971 86.4152 22.0057C86.6816 21.0128 86.736 20.1271 86.5837 19.3522C86.4288 18.5761 86.0858 17.9753 85.5563 17.5502M95.0505 21.9674C94.8058 22.882 94.4308 23.5831 93.9252 24.0651C93.4196 24.5503 92.8108 24.7918 92.1041 24.7918C91.3811 24.7918 90.8919 24.5563 90.6364 24.0798C90.3754 23.6034 90.37 22.9133 90.6092 22.0096C90.8484 21.1059 91.23 20.3993 91.7573 19.89C92.2846 19.3806 92.9016 19.1265 93.6094 19.1265C94.3161 19.1265 94.7944 19.373 95.0445 19.8604C95.2946 20.3495 95.2962 21.0522 95.0526 21.969L95.0505 21.9674ZM96.328 17.1559L95.9621 18.5306C95.8045 18.035 95.5 17.6406 95.0488 17.3476C94.5922 17.0551 94.0323 16.9094 93.3636 16.9094C92.5428 16.9094 91.7502 17.123 90.9935 17.5502C90.2379 17.9774 89.5747 18.5766 89.0093 19.3522C88.444 20.1277 88.0308 21.0117 87.7645 22.003C87.5008 22.9982 87.4492 23.8706 87.6068 24.6297C87.7661 25.3855 88.1091 25.9694 88.6397 26.3769C89.1692 26.7822 89.8519 26.987 90.6837 26.987C91.3523 26.987 91.991 26.8468 92.5972 26.5653C93.1882 26.2948 93.7137 25.8981 94.1372 25.4025L93.7567 26.8364H96.578L99.1536 17.1586H96.3323L96.328 17.1559ZM110.998 17.1592L111 17.1565H109.266C109.21 17.1565 109.162 17.1592 109.111 17.1603H108.211L107.749 17.8066L107.635 17.9599L107.586 18.0366L103.93 23.1674L103.175 17.1592H100.181L101.697 26.2892L98.3486 30.9611H101.333L102.143 29.8038C102.166 29.7698 102.186 29.7413 102.214 29.7052L103.16 28.3524L103.187 28.3141L107.423 22.2621L110.995 17.1685L111 17.1652H110.998V17.1592Z" fill="#072654"/>
</g>
<defs>
<clipPath id="clip0_3931_17006">
<rect width="103" height="22" fill="white" transform="translate(8 9)"/>
</clipPath>
</defs>
</svg>
