<svg width="120" height="40" viewBox="0 0 120 40" fill="none" xmlns="http://www.w3.org/2000/svg">
<rect width="120" height="40" fill="white"/>
<g clip-path="url(#clip0_3931_17000)">
<path d="M42.1396 18.0805C42.1396 17.6277 42.5112 17.4535 43.1266 17.4535C44.0089 17.4535 45.1235 17.7206 46.006 18.1966V15.4681C45.0423 15.085 44.0903 14.934 43.1266 14.934C40.7696 14.934 39.2021 16.1648 39.2021 18.2199C39.2021 21.4243 43.6142 20.9135 43.6142 22.2952C43.6142 22.8291 43.1498 23.0034 42.4996 23.0034C41.5359 23.0034 40.3051 22.6086 39.3298 22.0745V24.8378C40.4096 25.3022 41.5011 25.4995 42.4996 25.4995C44.9146 25.4995 46.5749 24.3037 46.5749 22.2254C46.5633 18.7655 42.1396 19.3808 42.1396 18.0805ZM49.9884 12.612L47.1554 13.2157L47.1438 22.5157C47.1438 24.2341 48.4326 25.4995 50.151 25.4995C51.1031 25.4995 51.7997 25.3254 52.1828 25.1164V22.7595C51.8113 22.9105 49.9768 23.4445 49.9768 21.7262V17.6044H52.1828V15.1314H49.9768L49.9884 12.612ZM55.7938 15.9906L55.608 15.1314H53.1001V25.2906H56.0028V18.4056C56.6877 17.5116 57.8488 17.6741 58.2088 17.8018V15.1314C57.8372 14.9921 56.4788 14.7366 55.7938 15.9906ZM58.917 15.1314H61.8313V25.2906H58.917V15.1314ZM58.917 14.249L61.8313 13.6221V11.2651L58.917 11.8805V14.249ZM67.892 14.934C66.7541 14.934 66.0227 15.4681 65.6164 15.8397L65.4653 15.1198H62.9111V28.6576L65.8137 28.0423L65.8254 24.7565C66.2433 25.0584 66.8586 25.488 67.8804 25.488C69.9587 25.488 71.8512 23.816 71.8512 20.1356C71.8396 16.7685 69.9239 14.934 67.892 14.934ZM67.1954 22.9336C66.5104 22.9336 66.1039 22.6899 65.8254 22.388L65.8137 18.0805C66.1156 17.7438 66.5336 17.5116 67.1954 17.5116C68.2519 17.5116 68.9834 18.6958 68.9834 20.2168C68.9834 21.7726 68.2635 22.9336 67.1954 22.9336ZM81.0004 20.2516C81.0004 17.2794 79.5607 14.934 76.809 14.934C74.0456 14.934 72.3736 17.2794 72.3736 20.2285C72.3736 23.7231 74.3475 25.488 77.1804 25.488C78.5621 25.488 79.6071 25.1745 80.3966 24.7333V22.4112C79.6072 22.806 78.7015 23.0498 77.5521 23.0498C76.4258 23.0498 75.4273 22.655 75.2996 21.285H80.9772C80.9772 21.134 81.0004 20.5303 81.0004 20.2516ZM75.2647 19.1487C75.2647 17.8367 76.0659 17.2909 76.7974 17.2909C77.5056 17.2909 78.2603 17.8367 78.2603 19.1487H75.2647Z" fill="#6772E5"/>
</g>
<defs>
<clipPath id="clip0_3931_17000">
<rect width="41.7983" height="17.4715" fill="white" transform="translate(39.2021 11.2642)"/>
</clipPath>
</defs>
</svg>
