<svg width="120" height="40" viewBox="0 0 120 40" fill="none" xmlns="http://www.w3.org/2000/svg">
<rect width="120" height="40" fill="white"/>
<g clip-path="url(#clip0_3931_17000)">
<path d="M29.06 16.704C29.06 15.9265 29.7 15.6274 30.7601 15.6274C32.28 15.6274 34.2 16.0861 35.72 16.9034V12.2183C34.06 11.5605 32.4201 11.3013 30.7601 11.3013C26.7 11.3013 24 13.4146 24 16.9434C24 22.4456 31.5999 21.5685 31.5999 23.941C31.5999 24.8579 30.8001 25.157 29.68 25.157C28.02 25.157 25.9 24.4791 24.2199 23.5621V28.3069C26.08 29.1044 27.96 29.4432 29.68 29.4432C33.84 29.4432 36.7 27.3899 36.7 23.8213C36.68 17.8803 29.06 18.9368 29.06 16.704ZM42.5799 7.3141L37.7 8.3507L37.68 24.3196C37.68 27.2703 39.9 29.4432 42.8601 29.4432C44.5 29.4432 45.7 29.1442 46.3599 28.7853V24.7383C45.7201 24.9975 42.56 25.9145 42.56 22.964V15.8866H46.3599V11.6402H42.56L42.5799 7.3141ZM52.5801 13.1154L52.26 11.6402H47.94V29.0843H52.9401V17.2623C54.1199 15.7272 56.12 16.0063 56.74 16.2255V11.6402C56.1 11.4009 53.76 10.9623 52.5801 13.1154ZM57.96 11.6402H62.98V29.0843H57.96V11.6402ZM57.96 10.1251L62.98 9.0485V5.00146L57.96 6.05811V10.1251ZM73.42 11.3013C71.46 11.3013 70.2 12.2183 69.5001 12.8564L69.2399 11.6203H64.84V34.8658L69.84 33.8093L69.8601 28.1673C70.5801 28.6857 71.64 29.4233 73.4 29.4233C76.98 29.4233 80.24 26.5525 80.24 20.2328C80.22 14.4512 76.92 11.3013 73.42 11.3013ZM72.22 25.0373C71.04 25.0373 70.3399 24.6187 69.8601 24.1004L69.84 16.704C70.36 16.1259 71.08 15.7272 72.22 15.7272C74.04 15.7272 75.3 17.7606 75.3 20.3722C75.3 23.0437 74.06 25.0373 72.22 25.0373ZM96 20.4321C96 15.3284 93.5199 11.3013 88.78 11.3013C84.0199 11.3013 81.1399 15.3285 81.1399 20.3923C81.1399 26.3929 84.54 29.4233 89.4199 29.4233C91.8 29.4233 93.6 28.885 94.9599 28.1275V24.1402C93.6001 24.8181 92.04 25.2368 90.06 25.2368C88.1199 25.2368 86.4 24.5589 86.18 22.2064H95.9601C95.9601 21.9471 96 20.9105 96 20.4321ZM86.12 18.5382C86.12 16.2854 87.5001 15.3483 88.7601 15.3483C89.98 15.3483 91.2801 16.2854 91.2801 18.5382H86.12Z" fill="#6772E5"/>
</g>
<defs>
<clipPath id="clip0_3931_17000">
<rect width="72" height="30" fill="white" transform="translate(24 5)"/>
</clipPath>
</defs>
</svg>
