<svg width="120" height="40" viewBox="0 0 120 40" fill="none" xmlns="http://www.w3.org/2000/svg">
<rect width="120" height="40" fill="white"/>
<g clip-path="url(#clip0_3931_17005)">
<path d="M36.0723 16.3564L39.4452 24.6482L38.096 28.3611H40.1511L44.4967 16.3564H42.3788L40.4806 21.9842L38.2843 16.3564H36.0723Z" fill="#0A2540"/>
<path d="M49.0979 16.1753C46.6819 16.1753 44.9092 18.0234 44.9092 20.5209C44.9092 23.0351 46.6819 24.8666 49.0979 24.8666C51.5138 24.8666 53.2866 23.0351 53.2866 20.5209C53.2866 18.0234 51.5138 16.1753 49.0979 16.1753ZM49.0979 18.1233C50.3686 18.1233 51.2001 19.089 51.2001 20.5209C51.2001 21.9695 50.3686 22.9352 49.0979 22.9352C47.8271 22.9352 46.98 21.9695 46.98 20.5209C46.98 19.089 47.8271 18.1233 49.0979 18.1233Z" fill="#0A2540"/>
<path d="M58.5657 16.1753C56.1497 16.1753 54.377 18.0234 54.377 20.5209C54.377 23.0351 56.1497 24.8666 58.5657 24.8666C60.9816 24.8666 62.7543 23.0351 62.7543 20.5209C62.7543 18.0234 60.9816 16.1753 58.5657 16.1753ZM58.5657 18.1233C59.8364 18.1233 60.6678 19.089 60.6678 20.5209C60.6678 21.9695 59.8364 22.9352 58.5657 22.9352C57.2949 22.9352 56.4478 21.9695 56.4478 20.5209C56.4478 19.089 57.2949 18.1233 58.5657 18.1233Z" fill="#0A2540"/>
<path d="M64.4404 24.7001H66.4328V19.5885C66.4328 18.5063 67.1388 18.1233 67.8289 18.1233C68.5818 18.1233 69.0839 18.6228 69.0839 19.5885V24.7001H71.0767V19.5885C71.0767 18.4896 71.7824 18.1233 72.4729 18.1233C73.2258 18.1233 73.7279 18.6228 73.7279 19.5885V24.7001H75.7201V19.422C75.7201 17.2908 74.4651 16.1753 72.912 16.1753C71.8762 16.1753 71.1391 16.6748 70.5746 17.4074C70.0724 16.5915 69.2565 16.1753 68.331 16.1753C67.4839 16.1753 66.8407 16.5749 66.3387 17.1743L66.2289 16.3584H64.4404V24.7001Z" fill="#0A2540"/>
<path d="M81.4248 16.1753C79.0086 16.1753 77.2363 18.0234 77.2363 20.5209C77.2363 23.0351 79.0086 24.8666 81.4248 24.8666C83.841 24.8666 85.6134 23.0351 85.6134 20.5209C85.6134 18.0234 83.841 16.1753 81.4248 16.1753ZM81.4248 18.1233C82.6956 18.1233 83.5273 19.089 83.5273 20.5209C83.5273 21.9695 82.6956 22.9352 81.4248 22.9352C80.1541 22.9352 79.3073 21.9695 79.3073 20.5209C79.3073 19.089 80.1541 18.1233 81.4248 18.1233Z" fill="#0A2540"/>
<path d="M87.3008 24.7001H89.293V20.0048C89.293 18.6062 90.2028 18.14 91.0344 18.14C91.9599 18.14 92.619 18.7727 92.619 20.0048V24.7001H94.6111V19.6718C94.6111 17.3741 93.1992 16.1753 91.5208 16.1753C90.6425 16.1753 89.8424 16.5249 89.2148 17.1909L89.1046 16.3584H87.3008V24.7001Z" fill="#0A2540"/>
<path d="M100.283 24.8666C102.181 24.8666 103.547 23.9175 104.017 22.2525L102.166 21.8529C101.915 22.5522 101.319 23.0351 100.283 23.0351C99.1539 23.0351 98.3538 22.469 98.1654 21.1703H104.001C104.064 20.8539 104.095 20.5209 104.095 20.2212C104.095 17.807 102.495 16.1753 100.189 16.1753C97.8044 16.1753 96.126 18.0401 96.126 20.5709C96.126 23.0517 97.679 24.8666 100.283 24.8666ZM100.189 17.9235C101.193 17.9235 101.837 18.5063 102.009 19.5552H98.2284C98.5107 18.4563 99.2793 17.9235 100.189 17.9235Z" fill="#0A2540"/>
<path d="M104.558 16.3564L107.93 24.6482L106.581 28.3611H108.637L112.982 16.3564H110.864L108.965 21.9842L106.769 16.3564H104.558Z" fill="#0A2540"/>
<path fill-rule="evenodd" clip-rule="evenodd" d="M31.2276 20.001C31.2276 24.9715 27.431 29.001 22.7476 29.001C18.8447 29.001 15.5576 26.2026 14.5705 22.3933V27.0724H11.239L6.99902 13.5724H14.5705V17.6086C15.5576 13.7993 18.8447 11.001 22.7476 11.001C27.431 11.001 31.2276 15.0304 31.2276 20.001ZM25.7762 20.001C25.7762 18.2258 24.4202 16.7867 22.7476 16.7867C21.075 16.7867 19.719 18.2258 19.719 20.001C19.719 21.7762 21.075 23.2153 22.7476 23.2153C24.4202 23.2153 25.7762 21.7762 25.7762 20.001Z" fill="#0070F0"/>
</g>
<defs>
<clipPath id="clip0_3931_17005">
<rect width="106" height="18" fill="white" transform="translate(7 11)"/>
</clipPath>
</defs>
</svg>
