<svg width="72" height="36" viewBox="0 0 72 36" fill="none" xmlns="http://www.w3.org/2000/svg">
<g clip-path="url(#clip0_1741_13896)">
<path fill-rule="evenodd" clip-rule="evenodd" d="M22.2472 31.1895C21.7679 31.1895 21.2073 30.825 21.2073 30.045C21.2073 29.274 21.7679 28.899 22.2472 28.899C22.7103 28.899 23.2567 29.238 23.2567 30.045C23.2567 30.837 22.7103 31.1895 22.2472 31.1895ZM23.4764 28.494C23.3459 28.494 23.2327 28.6046 23.2327 28.7415V29.097C23.0482 28.7006 22.6274 28.4756 22.1774 28.4756C21.5163 28.4756 20.7168 28.9961 20.7168 30.045C20.7168 31.1051 21.5163 31.6222 22.1774 31.6222C22.7043 31.6222 23.1138 31.3012 23.2327 30.9424V31.3669C23.2327 31.4959 23.3459 31.614 23.4764 31.614C23.611 31.614 23.7254 31.4959 23.7254 31.3665V28.7415C23.7254 28.6046 23.6193 28.494 23.4764 28.494ZM28.1339 29.439H27.4458V28.1272H28.1339C28.5809 28.1272 28.9117 28.3042 28.9117 28.7887C28.9117 29.2781 28.5809 29.439 28.1339 29.439ZM28.1707 27.4496H27.0839C26.8278 27.4496 26.644 27.6319 26.644 27.8854V31.2202C26.644 31.4389 26.8229 31.6222 27.0475 31.6222C27.2684 31.6222 27.4458 31.4385 27.4458 31.2202V30.1151H28.1707C29.095 30.1151 29.6887 29.5451 29.6887 28.7887C29.6887 28.0451 29.095 27.4496 28.1707 27.4496ZM31.5678 30.9514C31.1759 30.9514 30.7672 30.6529 30.7672 30.0446C30.7672 29.4431 31.1759 29.1371 31.5678 29.1371C31.9 29.1371 32.3403 29.3782 32.3403 30.0446C32.3403 30.7106 31.9 30.9514 31.5678 30.9514ZM32.6954 28.494C32.4832 28.494 32.3028 28.6702 32.3028 28.8754V28.9785C32.1854 28.7002 31.8475 28.476 31.4245 28.476C30.7765 28.476 29.9887 28.9961 29.9887 30.0446C29.9887 31.1182 30.7724 31.6222 31.4249 31.6222C31.9417 31.6222 32.2574 31.3009 32.3028 31.1182V31.2307C32.3028 31.4441 32.4832 31.614 32.6954 31.614C32.9035 31.614 33.0925 31.4441 33.0925 31.2311V28.8754C33.0925 28.6702 32.9039 28.494 32.6954 28.494ZM36.3374 28.494C36.1889 28.494 36.0509 28.5757 35.9699 28.7655L35.1554 30.5929L34.3612 28.7655C34.2764 28.5757 34.135 28.494 33.9869 28.494C33.784 28.494 33.6303 28.6537 33.6303 28.839C33.6303 28.9117 33.6543 28.9721 33.6719 29.0197L34.7755 31.4385L34.4373 32.2054C34.4215 32.2519 34.3975 32.3096 34.3975 32.3835C34.3975 32.5691 34.5397 32.7285 34.7395 32.7285C34.8899 32.7285 35.0328 32.6475 35.1145 32.4589L36.6535 29.0197C36.6753 28.9721 36.7012 28.9117 36.7012 28.8394C36.7012 28.6537 36.5448 28.494 36.3374 28.494ZM40.339 27.4301C40.1118 27.4301 39.922 27.606 39.922 27.8171V30.087C39.922 30.7061 39.532 30.9514 39.0678 30.9514C38.6125 30.9514 38.2128 30.7061 38.2128 30.087V27.8171C38.2128 27.606 38.0238 27.4301 37.8029 27.4301C37.5832 27.4301 37.4122 27.606 37.4122 27.8171V30.0994C37.4122 31.0537 38.1434 31.6222 39.0678 31.6222C39.9884 31.6222 40.7245 31.0537 40.7245 30.0994V27.8171C40.7245 27.606 40.5569 27.4301 40.339 27.4301ZM44.6917 28.9072C44.9542 28.9072 45.2493 29.0137 45.4267 29.2485C45.4754 29.3081 45.5467 29.3617 45.6348 29.3617C45.748 29.3617 45.8433 29.2785 45.8433 29.1596C45.8433 29.0662 45.7777 29.001 45.7304 28.9432C45.469 28.6282 45.0967 28.4756 44.6677 28.4756C43.9668 28.4756 43.1234 28.9909 43.1234 30.0446C43.1234 31.0946 43.9672 31.6099 44.6677 31.6099C45.0967 31.6099 45.469 31.4494 45.7304 31.1381C45.7777 31.0822 45.8433 31.0196 45.8433 30.9259C45.8433 30.8074 45.748 30.7234 45.6348 30.7234C45.547 30.7234 45.4754 30.7751 45.4267 30.837C45.2493 31.0721 44.9542 31.1782 44.6917 31.1782C44.1637 31.1782 43.6124 30.801 43.6124 30.0446C43.6124 29.2845 44.1637 28.9072 44.6917 28.9072ZM47.7903 31.1895C47.2975 31.1895 46.7347 30.807 46.7347 30.0514C46.7347 29.2905 47.2975 28.9076 47.7903 28.9076C48.2887 28.9076 48.8478 29.2905 48.8478 30.0514C48.8478 30.8074 48.2887 31.1895 47.7903 31.1895ZM47.7903 28.4756C47.1078 28.4756 46.2453 29.001 46.2453 30.0514C46.2453 31.1051 47.1078 31.6226 47.7903 31.6226C48.4803 31.6226 49.339 31.1051 49.339 30.0514C49.339 29.0014 48.4803 28.4756 47.7903 28.4756ZM53.7997 28.4797C53.1764 28.4797 52.7827 28.89 52.618 29.2485C52.4373 28.6879 51.9753 28.4797 51.5365 28.4797C50.8308 28.4797 50.4625 29.0197 50.4277 29.2196V28.7411C50.4277 28.6046 50.3152 28.494 50.1828 28.494C50.0467 28.494 49.9342 28.6046 49.9342 28.7415V31.3627C49.9342 31.4891 50.0467 31.6099 50.1828 31.6099C50.3155 31.6099 50.4277 31.4891 50.4277 31.3624V29.7566C50.4802 29.4195 50.7892 28.9114 51.3937 28.9114C51.8092 28.9114 52.2007 29.1544 52.2007 29.7964V31.3627C52.2007 31.4891 52.3072 31.6099 52.4444 31.6099C52.5817 31.6099 52.6934 31.4891 52.6934 31.3624V29.7566C52.7485 29.4195 53.0564 28.9114 53.6628 28.9114C54.0783 28.9114 54.4634 29.1544 54.4634 29.7964V31.3627C54.4634 31.4891 54.5759 31.6099 54.7143 31.6099C54.8485 31.6099 54.9558 31.4891 54.9558 31.3624V29.7964C54.9558 28.8165 54.3622 28.4797 53.7997 28.4797ZM57.1649 31.1895C56.7014 31.1895 56.1562 30.837 56.1562 30.045C56.1562 29.238 56.7014 28.899 57.1649 28.899C57.6468 28.899 58.2025 29.274 58.2025 30.045C58.2025 30.825 57.6468 31.1895 57.1649 31.1895ZM57.235 28.4756C56.7828 28.4756 56.3632 28.7006 56.1787 29.097V28.7415C56.1787 28.6046 56.0669 28.494 55.9364 28.494C55.7932 28.494 55.6885 28.6046 55.6885 28.7415V32.4825C55.6885 32.6167 55.8003 32.7289 55.936 32.7289C56.0673 32.7289 56.1835 32.6164 56.1835 32.4825V30.9596C56.3103 31.311 56.7127 31.6222 57.235 31.6222C57.8943 31.6222 58.6964 31.1047 58.6964 30.045C58.6964 28.9961 57.8943 28.4756 57.235 28.4756ZM60.6565 31.1895C60.1739 31.1895 59.6163 30.825 59.6163 30.045C59.6163 29.274 60.1739 28.899 60.6569 28.899C61.1174 28.899 61.6649 29.238 61.6649 30.045C61.6649 30.837 61.1174 31.1895 60.6569 31.1895M61.8835 28.494C61.7549 28.494 61.6398 28.6046 61.6398 28.7415V29.097C61.4564 28.7006 61.0342 28.4756 60.5845 28.4756C59.9264 28.4756 59.125 28.9961 59.125 30.045C59.125 31.1051 59.9264 31.6222 60.5845 31.6222C61.1122 31.6222 61.522 31.3012 61.6402 30.9424V31.3669C61.6402 31.4959 61.7549 31.614 61.8839 31.614C62.0215 31.614 62.1314 31.4959 62.1314 31.3665V28.7415C62.1314 28.6046 62.026 28.494 61.8835 28.494ZM64.4482 28.4797C63.7413 28.4797 63.3719 29.0197 63.3382 29.2196V28.7411C63.3382 28.6046 63.2257 28.494 63.0952 28.494C62.9594 28.494 62.8454 28.6046 62.8454 28.7415V31.3627C62.8454 31.4891 62.9594 31.6099 63.0952 31.6099C63.2257 31.6099 63.3378 31.4891 63.3378 31.3624V29.7566C63.3918 29.4195 63.7015 28.9114 64.3064 28.9114C64.7204 28.9114 65.1145 29.1544 65.1145 29.7964V31.3627C65.1145 31.4891 65.2207 31.6099 65.3583 31.6099C65.4933 31.6099 65.6058 31.4891 65.6058 31.3624V29.7964C65.6058 28.8165 65.0069 28.4797 64.4482 28.4797ZM68.5998 28.494C68.5038 28.494 68.4142 28.5457 68.3658 28.659L67.3945 30.9131L66.4259 28.6594C66.3794 28.5457 66.2883 28.4944 66.1934 28.4944C66.0644 28.4944 65.9617 28.6005 65.9617 28.7186C65.9617 28.7655 65.974 28.7951 65.9864 28.8289L67.1508 31.4726L66.7529 32.394C66.7394 32.43 66.7267 32.4589 66.7267 32.5065C66.7267 32.6227 66.8167 32.7285 66.9479 32.7285C67.0432 32.7285 67.1324 32.6764 67.1797 32.565L68.8072 28.8289C68.8184 28.7951 68.8297 28.7651 68.8297 28.7186C68.8297 28.6005 68.7292 28.494 68.5998 28.494Z" fill="#060809"/>
<path fill-rule="evenodd" clip-rule="evenodd" d="M3.90731 8.89648C2.95331 8.89648 2.17969 9.66523 2.17969 10.611V20.6509C2.17969 21.6 2.95294 22.3669 3.90694 22.3669C4.86019 22.3669 5.63381 21.6 5.63381 20.6509V10.611C5.63381 9.66486 4.86056 8.89648 3.90731 8.89648Z" fill="#1E64FF"/>
<mask id="mask0_1741_13896" style="mask-type:luminance" maskUnits="userSpaceOnUse" x="2" y="3" width="4" height="5">
<path d="M2 3.42975H5.816V7.224H2V3.42975Z" fill="#1E64FF"/>
</mask>
<g mask="url(#mask0_1741_13896)">
<path fill-rule="evenodd" clip-rule="evenodd" d="M3.90762 3.42975C2.85387 3.42975 2 4.27912 2 5.32725C2 6.37312 2.85425 7.224 3.90762 7.224C4.96062 7.224 5.816 6.37275 5.816 5.32725C5.816 4.27912 4.961 3.42975 3.90762 3.42975Z" fill="#1E64FF"/>
</g>
<path fill-rule="evenodd" clip-rule="evenodd" d="M34.8222 20.6509C34.8222 19.7044 34.0482 18.9334 33.0931 18.9334H28.3227L34.4194 11.7146C35.0311 10.989 34.9358 9.90448 34.2057 9.29811C33.8656 9.01311 33.4489 8.88223 33.0361 8.89648C33.0169 8.89423 25.4074 8.89648 25.4074 8.89648C24.4527 8.89648 23.6802 9.66523 23.6802 10.6106C23.6802 11.5597 24.4527 12.3307 25.4074 12.3307H29.3922L23.2969 19.5476C22.6831 20.2751 22.7794 21.357 23.5092 21.9649C23.8328 22.2371 24.2277 22.3669 24.6199 22.3669H33.0931C34.0482 22.3669 34.8222 21.6 34.8222 20.6509ZM50.0449 12.102C50.9911 12.102 51.8776 12.4665 52.5469 13.1325C53.2212 13.8011 54.3151 13.8011 54.9904 13.1325C55.6624 12.4612 55.6624 11.3745 54.9904 10.704C53.6689 9.38998 51.9124 8.66736 50.0446 8.66736C48.1789 8.66736 46.4232 9.38998 45.1032 10.7036C43.7824 12.0172 43.0546 13.7599 43.0546 15.6169C43.0546 17.4724 43.7821 19.2187 45.1032 20.5286C46.4232 21.8422 48.1789 22.5667 50.0446 22.5667C51.9124 22.5667 53.6689 21.8422 54.9908 20.5286C55.6624 19.8607 55.6624 18.7736 54.9908 18.1031C54.3151 17.4311 53.2208 17.4311 52.5469 18.1031C51.8776 18.7646 50.9911 19.1344 50.0446 19.1344C49.1007 19.1344 48.2127 18.7646 47.5456 18.1031C46.8769 17.4382 46.5094 16.5559 46.5094 15.6169C46.5094 14.6779 46.8769 13.7936 47.5456 13.1325C48.2131 12.4665 49.1011 12.102 50.0449 12.102ZM64.0084 19.1344C62.0596 19.1344 60.4744 17.5556 60.4744 15.6169C60.4744 13.6781 62.0596 12.102 64.0084 12.102C65.9592 12.102 67.5466 13.6781 67.5466 15.6169C67.5466 17.5556 65.9592 19.1344 64.0084 19.1344ZM64.0084 8.66736C60.1553 8.66736 57.0192 11.7847 57.0192 15.6169C57.0192 19.4486 60.1553 22.5667 64.0084 22.5667C67.8634 22.5667 70.9999 19.4486 70.9999 15.6169C70.9999 11.7844 67.8638 8.66736 64.0084 8.66736ZM39.0646 8.89648C38.1121 8.89648 37.3396 9.66523 37.3396 10.611V20.6509C37.3396 21.6 38.1121 22.3669 39.0646 22.3669C40.0201 22.3669 40.7918 21.6 40.7918 20.6509V10.611C40.7918 9.66486 40.0201 8.89648 39.0646 8.89648Z" fill="#1E64FF"/>
<mask id="mask1_1741_13896" style="mask-type:luminance" maskUnits="userSpaceOnUse" x="37" y="3" width="4" height="5">
<path d="M37.1562 3.42975H40.9749V7.224H37.1562V3.42975Z" fill="#1E64FF"/>
</mask>
<g mask="url(#mask1_1741_13896)">
<path fill-rule="evenodd" clip-rule="evenodd" d="M39.065 3.42975C38.0112 3.42975 37.1562 4.27912 37.1562 5.32725C37.1562 6.37312 38.0112 7.224 39.065 7.224C40.1206 7.224 40.9749 6.37275 40.9749 5.32725C40.9749 4.27912 40.1206 3.42975 39.065 3.42975Z" fill="#1E64FF"/>
</g>
<path fill-rule="evenodd" clip-rule="evenodd" d="M20.6797 9.08961C19.8326 8.65198 18.7908 8.97973 18.3509 9.82011L14.6463 16.9189L10.9413 9.82011C10.5026 8.98011 9.45895 8.65198 8.61257 9.08961C7.76695 9.52798 7.43657 10.5645 7.87645 11.4064L12.6993 20.6479L10.4726 24.9229C10.0323 25.7647 10.3604 26.8016 11.2076 27.2381C11.4854 27.3844 11.7851 27.4444 12.0783 27.4301C12.6746 27.4054 13.2427 27.0735 13.5389 26.5087L21.4139 11.4064C21.8553 10.5645 21.5264 9.52761 20.6797 9.08961Z" fill="#1E64FF"/>
</g>
<defs>
<clipPath id="clip0_1741_13896">
<rect width="69" height="30" fill="white" transform="translate(2 3)"/>
</clipPath>
</defs>
</svg>
