<svg width="98" height="26" viewBox="0 0 98 26" fill="none" xmlns="http://www.w3.org/2000/svg">
<path d="M0 21.576C0.0987923 21.0492 0.216275 20.5281 0.296377 19.9984C0.958553 15.5245 1.61272 11.0506 2.26688 6.57667C2.53122 4.77156 2.79556 2.96357 3.05188 1.15847C3.16402 0.375389 3.54317 0.0126398 4.28545 0.0126398C6.814 0.0126398 9.34255 -0.0276657 11.8684 0.0356715C12.8724 0.0615821 13.9003 0.211288 14.8669 0.496305C17.3367 1.22756 18.5916 3.44724 18.1831 6.16786C18.1671 6.27438 18.1484 6.38378 18.1324 6.4903C18.0016 6.44424 17.8734 6.38666 17.7399 6.35211C16.9469 6.1477 16.1566 5.80223 15.3582 5.77632C13.0753 5.69859 10.7871 5.74753 8.50148 5.74753C7.95946 5.74753 7.64439 6.03542 7.55895 6.60258C7.47618 7.13807 7.40408 7.67355 7.32398 8.20904C7.04897 10.0948 6.76861 11.9805 6.49893 13.8691C6.46155 14.1368 6.48825 14.4161 6.48291 14.6896C6.42951 14.8566 6.35208 15.0178 6.32538 15.1876C5.93822 17.7038 5.55907 20.2229 5.17725 22.7391C3.75411 22.7391 2.33363 22.7276 0.910491 22.7449C0.528672 22.7507 0.218945 22.6614 0 22.3131C0 22.0684 0 21.8208 0 21.576Z" fill="black"/>
<path d="M73.0607 16.4659C72.476 16.4659 72.0835 16.463 71.6883 16.4659C71.0929 16.4688 70.8606 16.6789 70.7671 17.3093C70.5802 18.5615 70.3987 19.8166 70.2198 21.0688C70.1317 21.6848 70.0035 21.8172 69.4374 21.8172C68.6738 21.8172 67.9128 21.8172 67.1492 21.8172C66.5431 21.8172 66.3989 21.6416 66.4924 20.9968C66.7193 19.4193 66.9516 17.8419 67.1839 16.2673C67.6592 13.0461 68.1345 9.82778 68.6071 6.6066C68.7032 5.95027 68.9221 5.73438 69.5389 5.73438C71.4587 5.73725 73.3758 5.7315 75.2956 5.75165C76.0752 5.76028 76.8309 5.93876 77.5438 6.29858C78.6946 6.87719 79.3194 7.87607 79.4235 9.21175C79.541 10.7403 79.2553 12.2084 78.5717 13.5585C77.6426 15.3893 76.0993 16.1867 74.2409 16.3939C73.787 16.4457 73.3277 16.4515 73.0607 16.4659ZM71.3706 13.2246C71.5228 13.2246 71.6456 13.2274 71.7684 13.2246C72.3505 13.2044 72.9406 13.2389 73.512 13.1497C74.6734 12.9684 75.1888 12.3782 75.381 11.1404C75.5813 9.84505 75.1567 9.18584 73.9552 9.00737C73.4692 8.9354 72.9699 8.96707 72.476 8.94404C72.1529 8.92965 71.9767 9.09949 71.926 9.43053C71.7444 10.677 71.5628 11.9263 71.3706 13.2246Z" fill="#189BD6"/>
<path d="M34.494 16.4655C34.0614 16.4655 33.6289 16.4598 33.199 16.4684C32.7237 16.477 32.4754 16.7131 32.4006 17.2197C32.2191 18.446 32.0375 19.6723 31.8639 20.8986C31.7652 21.5981 31.5329 21.8226 30.8867 21.8255C30.1364 21.8283 29.3888 21.8312 28.6385 21.8255C28.1873 21.8226 28.0217 21.5981 28.0912 21.126C28.796 16.3158 29.5009 11.5057 30.2032 6.69268C30.3126 5.93849 30.5209 5.73699 31.2311 5.73987C33.1109 5.74274 34.9906 5.72835 36.8703 5.76289C37.4097 5.77441 37.9597 5.87516 38.4804 6.03348C40.1999 6.56027 41.0837 7.83836 41.0703 9.7843C41.0596 11.025 40.8193 12.2253 40.2987 13.3422C39.3855 15.2997 37.8182 16.1805 35.8664 16.3993C35.4125 16.4511 34.9532 16.454 34.4966 16.4799C34.494 16.4742 34.494 16.4713 34.494 16.4655ZM32.9854 13.1983C33.6796 13.1983 34.3177 13.2501 34.9425 13.1868C36.3657 13.0486 37.1533 11.9835 37.0305 10.4435C36.9718 9.69506 36.6594 9.26327 35.9705 9.09055C35.5913 8.99556 35.1935 8.96102 34.8037 8.95526C33.514 8.93511 33.6208 8.81421 33.4259 10.1585C33.2817 11.1631 33.1349 12.1707 32.9854 13.1983Z" fill="black"/>
<path d="M5.18048 22.7355C5.5623 20.2167 5.94145 17.7007 6.32861 15.1848C6.35531 15.0149 6.43274 14.8537 6.48614 14.6868C6.7932 14.3068 7.19638 14.2118 7.64762 14.2003C9.00134 14.1571 10.3738 14.2147 11.7088 14.0045C15.535 13.4058 17.599 10.4551 18.0796 6.73301C18.0876 6.70998 18.0983 6.68695 18.1063 6.66392C18.1223 6.62362 18.141 6.5862 18.157 6.5459C19.2304 7.09284 19.8658 8.04568 20.018 9.26336C20.3518 11.9204 19.767 14.3442 18.0609 16.3506C16.9768 17.6259 15.527 18.1728 13.9623 18.3657C13.3349 18.4434 12.6967 18.4434 12.0639 18.4636C11.4044 18.4837 11.0813 18.7543 10.9745 19.4567C10.7182 21.1378 10.4725 22.8219 10.2242 24.503C10.1094 25.2774 9.79702 25.5767 9.08144 25.5767C7.9253 25.5796 6.77184 25.5796 5.6157 25.5767C5.02294 25.5767 4.81468 25.3004 4.90813 24.6728C5.00158 24.028 5.08969 23.3832 5.18048 22.7355Z" fill="#189AD6"/>
<path d="M87.7108 12.2587C87.8843 11.0841 87.8843 11.084 88.8856 11.084C89.4437 11.084 90.0044 11.084 90.5624 11.084C91.2166 11.084 91.3527 11.2453 91.2513 11.9477C91.0217 13.5513 90.7813 15.1549 90.5464 16.7585C90.3515 18.0914 90.1485 19.4244 89.9616 20.7602C89.8388 21.6354 89.6546 21.8168 88.8215 21.8168C88.2127 21.8168 87.6013 21.8197 86.9925 21.8168C86.4986 21.8139 86.341 21.6009 86.4265 21.0654C86.4478 20.9243 86.4585 20.7775 86.4852 20.5443C85.7616 21.241 85.014 21.7017 84.1436 21.9205C83.2331 22.1508 82.3226 22.145 81.4335 21.8542C79.7353 21.2957 78.9023 19.9282 78.71 18.1289C78.3629 14.8785 80.2533 11.8642 82.9874 11.0495C84.0928 10.7184 85.1983 10.7501 86.2956 11.0898C86.8697 11.2712 87.3396 11.6282 87.7108 12.2587ZM84.3652 19.1279C85.7376 19.1221 86.835 18.221 87.1901 16.8045C87.5746 15.2701 86.8403 13.9774 85.4866 13.796C83.9407 13.5887 82.5869 14.6194 82.2478 16.2633C81.8981 17.959 82.7658 19.1336 84.3652 19.1279Z" fill="#189BD6"/>
<path d="M49.3042 12.2436C49.3335 12.1169 49.3496 12.0651 49.3576 12.0104C49.4777 10.9166 49.6967 11.0922 50.4416 11.0865C51.0771 11.0836 51.7126 11.0807 52.3481 11.0865C52.7779 11.0922 52.9515 11.3167 52.8874 11.7629C52.4362 14.8342 51.9849 17.9084 51.5364 20.9797C51.4509 21.5669 51.1893 21.8145 50.6419 21.8174C49.9824 21.8202 49.3202 21.8202 48.6607 21.8174C48.108 21.8174 47.9958 21.6792 48.0332 21.0834C48.0412 20.9538 48.0332 20.8243 48.0332 20.6286C47.881 20.7523 47.7849 20.8329 47.6888 20.9135C46.2096 22.1196 44.5648 22.3931 42.8266 21.7742C41.3554 21.2474 40.6184 19.9924 40.3541 18.4179C39.7881 15.0674 41.8921 11.6765 44.9626 10.9569C45.9613 10.7209 46.9599 10.7871 47.9371 11.1037C48.4951 11.288 48.9571 11.6362 49.3042 12.2436ZM45.9532 19.1289C47.4164 19.1289 48.5539 18.1301 48.8476 16.5901C49.1199 15.1624 48.3883 13.9822 47.1174 13.798C45.5047 13.5648 44.0789 14.7104 43.8279 16.4404C43.5929 18.0696 44.4313 19.1289 45.9532 19.1289Z" fill="black"/>
<path d="M59.4119 17.0908C60.5707 15.2514 61.7055 13.4753 62.8162 11.6819C63.0752 11.2645 63.3796 11.063 63.8522 11.0803C64.5758 11.1091 65.302 11.0688 66.0229 11.1004C66.2098 11.1091 66.4769 11.2213 66.5489 11.371C66.621 11.5236 66.5543 11.8258 66.4475 11.9899C63.6493 16.3625 60.835 20.7265 58.0288 25.0933C57.8045 25.4445 57.5215 25.5971 57.1317 25.5884C56.4081 25.5769 55.6818 25.6057 54.9609 25.5712C54.75 25.5625 54.4616 25.4531 54.3628 25.2833C54.2827 25.148 54.3842 24.817 54.4963 24.6385C55.2653 23.4352 56.0503 22.2435 56.846 21.0604C57.0062 20.8215 57.0222 20.6229 56.9367 20.3523C56.053 17.5946 55.1798 14.8369 54.3041 12.0763C54.2667 11.9611 54.2266 11.8431 54.2026 11.7251C54.1305 11.348 54.2961 11.0947 54.6538 11.0889C55.4922 11.0745 56.3306 11.0745 57.169 11.0889C57.5669 11.0947 57.7938 11.3307 57.93 11.8172C58.3893 13.4609 58.8458 15.1074 59.3051 16.7511C59.3318 16.8432 59.3611 16.9325 59.4119 17.0908Z" fill="black"/>
<path d="M18.0734 6.73529C17.5928 10.4549 15.5289 13.4087 11.7027 14.0075C10.3676 14.2148 8.99789 14.1601 7.6415 14.2033C7.19026 14.2177 6.78975 14.3098 6.48002 14.6899C6.48269 14.4164 6.45866 14.1371 6.49604 13.8694C6.76305 11.9808 7.0434 10.095 7.32109 8.20932C7.39852 7.67383 7.47328 7.13834 7.55605 6.60286C7.64417 6.0357 7.95923 5.74781 8.49859 5.74781C10.7842 5.74493 13.0724 5.69598 15.3553 5.7766C16.1537 5.80539 16.944 6.14798 17.737 6.35239C17.8705 6.38694 17.9987 6.44451 18.1295 6.49058C18.1455 6.50497 18.1535 6.52513 18.1509 6.54816C18.1348 6.58846 18.1162 6.62589 18.1001 6.66619C18.0814 6.68347 18.0708 6.7065 18.0734 6.73529Z" fill="black"/>
<path d="M93.2588 21.8194C92.917 21.8194 92.5726 21.8251 92.2308 21.8194C91.7956 21.8107 91.6327 21.615 91.6995 21.1487C92.0413 18.7624 92.3857 16.379 92.7328 13.9928C93.1039 11.4453 93.4804 8.90071 93.8516 6.35613C93.9263 5.838 94.0251 5.73725 94.5217 5.73725C95.2587 5.73437 95.9956 5.7315 96.7326 5.74013C97.1277 5.74301 97.3066 5.9589 97.2505 6.35613C96.5323 11.2467 95.8141 16.1344 95.0905 21.022C95.0024 21.6092 94.7621 21.8165 94.2147 21.8222C93.8943 21.8222 93.5765 21.8194 93.2588 21.8194Z" fill="#189BD6"/>
<path d="M18.0728 6.73413C18.07 6.70534 18.0783 6.68231 18.1004 6.66504C18.0921 6.68807 18.0838 6.7111 18.0728 6.73413Z" fill="#253B80"/>
</svg>
