<svg width="76" height="24" viewBox="0 0 76 24" fill="none" xmlns="http://www.w3.org/2000/svg">
<g clip-path="url(#clip0_1434_9146)">
<path d="M75.7435 7.08194C75.0537 5.09582 73.1734 3.66959 70.9655 3.66959H70.9193C69.4838 3.66959 68.19 4.27112 67.2691 5.23694C66.3468 4.27112 65.053 3.66959 63.619 3.66959H63.5728C62.3109 3.66959 61.1575 4.1349 60.2717 4.9048V4.51326C60.2413 4.12326 59.9227 3.81684 59.5293 3.81684H56.1421C55.7278 3.81684 55.3934 4.15388 55.3934 4.57235V23.0946C55.3934 23.5134 55.7281 23.8501 56.1421 23.8501H59.5293C59.9069 23.8501 60.2176 23.566 60.2671 23.1987L60.2656 9.90194C60.2656 9.85541 60.2671 9.81224 60.272 9.76878C60.3261 9.1752 60.7578 8.68755 61.4399 8.62633H62.0644C62.3495 8.65204 62.5903 8.75306 62.7797 8.90551C63.0746 9.14122 63.2384 9.50398 63.2384 9.90194L63.2512 23.1332C63.2512 23.5519 63.5874 23.8905 63.9999 23.8905H67.3871C67.7869 23.8905 68.1121 23.5697 68.1313 23.1702L68.1298 9.88449C68.1283 9.44796 68.3289 9.05337 68.6809 8.81918C68.8545 8.70684 69.0634 8.63153 69.3038 8.60888H69.9282C70.6612 8.67316 71.1041 9.23306 71.1026 9.88449L71.1154 23.098C71.1154 23.5167 71.4516 23.8535 71.8641 23.8535H75.2513C75.6638 23.8535 76 23.5164 76 23.098V8.88684C76 7.91765 75.8918 7.50531 75.7435 7.08194ZM52.8127 3.8652H50.8753V0.694999C50.8753 0.314795 50.5695 0.00683594 50.1919 0.00683594C50.1473 0.00683594 50.1044 0.0132645 50.0627 0.0212237C47.915 0.614795 48.3451 3.6102 44.4245 3.8652H44.0435C43.9861 3.8652 43.932 3.87316 43.8794 3.88449H43.8763L43.8794 3.88602C43.5447 3.96133 43.293 4.2598 43.293 4.61918V8.03031C43.293 8.44571 43.6292 8.78429 44.0432 8.78429H46.0873L46.0843 23.2477C46.0843 23.66 46.4157 23.9937 46.8251 23.9937H50.174C50.582 23.9937 50.9133 23.66 50.9133 23.2477L50.9149 8.78429H52.8124C53.225 8.78429 53.5612 8.44571 53.5612 8.03031V4.61949C53.5618 4.20377 53.2256 3.8652 52.8127 3.8652Z" fill="#54C1F0"/>
<path d="M40.626 3.86487H37.2388C36.8263 3.86487 36.4916 4.20344 36.4916 4.61885V11.6716C36.4836 12.1081 36.1331 12.4577 35.6981 12.4577H34.2803C33.8407 12.4577 33.4853 12.1017 33.4853 11.6587L33.4725 4.61885C33.4725 4.20344 33.1363 3.86487 32.7238 3.86487H29.3363C28.922 3.86487 28.5876 4.20344 28.5876 4.61885V12.3487C28.5876 15.2848 30.6666 17.3783 33.5838 17.3783C33.5838 17.3783 35.7729 17.3783 35.8398 17.3912C36.235 17.4362 36.5423 17.7699 36.5423 18.1807C36.5423 18.5866 36.2411 18.9187 35.8507 18.9683C35.8316 18.9714 35.8139 18.9763 35.7933 18.9797L30.8399 18.9974C30.4255 18.9974 30.0911 19.336 30.0911 19.7514V23.1607C30.0911 23.5779 30.4258 23.9147 30.8399 23.9147H36.3779C39.2966 23.9147 41.3741 21.8226 41.3741 18.8851V4.61916C41.3747 4.20344 41.0403 3.86487 40.626 3.86487ZM8.13808 3.86426H0.734464C0.32832 3.86426 0 4.19609 0 4.60385V7.94579C0 7.95222 0.00152 7.95865 0.00152 7.96507C0.00152 7.98099 0 7.99722 0 8.01161V23.1371C0 23.5479 0.305824 23.8831 0.685216 23.8926H4.13622C4.54875 23.8926 4.88498 23.5556 4.88498 23.1386L4.89774 17.9551H8.13838C10.8501 17.9551 12.7397 16.0605 12.7397 13.3185V8.50722C12.7394 5.76528 10.8498 3.86426 8.13808 3.86426ZM7.84016 12.2196C7.84016 12.6607 7.48478 13.0201 7.04672 13.0201L4.89744 13.0216V8.80385H7.04672C7.48478 8.80385 7.84016 9.15987 7.84016 9.60283V12.2196ZM21.3557 3.88354H16.6559C16.24 3.88354 15.9038 4.2013 15.9038 4.59099V5.91773C15.9038 5.92569 15.9053 5.93548 15.9053 5.94344C15.9053 5.95293 15.9038 5.96273 15.9038 5.97222V7.78997C15.9038 8.20232 16.2607 8.53905 16.7002 8.53905H21.1757C21.5293 8.59507 21.8099 8.85497 21.8497 9.26089V9.70048C21.8099 10.0871 21.5326 10.3694 21.1949 10.4015H18.9787C16.0311 10.4015 13.9314 12.3732 13.9314 15.1424V19.1082C13.9314 21.8612 15.7366 23.8201 18.6632 23.8201H24.8052C25.9078 23.8201 26.8016 22.9795 26.8016 21.9445V9.00314C26.8016 5.86507 25.1955 3.88354 21.3557 3.88354ZM21.8944 18.6549C21.8944 18.6983 21.888 18.74 21.8816 18.7801C21.8736 18.8177 21.863 18.8548 21.8497 18.8909C21.7445 19.1894 21.4481 19.4058 21.0961 19.4058H19.6861C19.2465 19.4058 18.8878 19.0687 18.8878 18.6549V18.0114C18.8878 18.0034 18.8863 17.9955 18.8863 17.9872L18.8878 16.2754V15.7397L18.8893 15.7348C18.8909 15.3224 19.2462 14.9887 19.6858 14.9887H21.0958C21.5372 14.9887 21.8941 15.324 21.8941 15.7397V18.6549H21.8944Z" fill="#233266"/>
</g>
<defs>
<clipPath id="clip0_1434_9146">
<rect width="76" height="24" fill="white"/>
</clipPath>
</defs>
</svg>
