<svg width="148" height="29" viewBox="0 0 148 29" fill="none" xmlns="http://www.w3.org/2000/svg">
<path fill-rule="evenodd" clip-rule="evenodd" d="M35.1683 10.8108C34.9352 11.6095 34.4835 12.1958 33.813 12.5701C33.1418 12.9443 32.2003 13.1318 30.9859 13.1318H27.1279L28.4822 8.49013H32.3403C33.5537 8.49013 34.3868 8.67728 34.8394 9.05152C35.2912 9.42619 35.4014 10.0125 35.1683 10.8108ZM39.1637 10.7108C39.6543 9.03119 39.4509 7.74166 38.5538 6.84333C37.6566 5.94501 36.0845 5.49609 33.8392 5.49609H25.2269L20.0435 23.2621H24.2276L26.3175 16.1007H29.0614C29.6767 16.1007 30.161 16.1923 30.5153 16.3753C30.8703 16.5587 31.0781 16.8831 31.1422 17.3483L31.8886 23.2621H36.3718L35.6444 17.7479C35.4963 16.5168 34.8828 15.7931 33.8049 15.577C35.1791 15.2114 36.3302 14.6036 37.2572 13.7551C38.1834 12.907 38.8194 11.8925 39.1637 10.7108Z" fill="#131313"/>
<path fill-rule="evenodd" clip-rule="evenodd" d="M49.3294 16.9007C48.9798 18.0982 48.4412 19.0134 47.7139 19.6454C46.9857 20.2777 46.1147 20.5935 45.101 20.5935C44.0673 20.5935 43.3662 20.2819 42.9966 19.6578C42.6252 19.0342 42.6126 18.1322 42.9578 16.9505C43.302 15.7696 43.8514 14.8464 44.6076 14.1804C45.3629 13.5157 46.2475 13.1826 47.2621 13.1826C48.2759 13.1826 48.9625 13.5034 49.3185 14.1436C49.6746 14.7838 49.679 15.7028 49.3294 16.9007ZM51.1635 10.6126L50.6395 12.4092C50.4126 11.7603 49.9745 11.2449 49.3257 10.8624C48.6761 10.4798 47.8711 10.2881 46.9115 10.2881C45.7343 10.2881 44.6021 10.567 43.5162 11.1242C42.4301 11.6818 41.4805 12.4677 40.6683 13.4822C39.856 14.497 39.2606 15.653 38.882 16.9505C38.5034 18.2484 38.4275 19.3919 38.6552 20.3814C38.8829 21.3715 39.3762 22.1324 40.136 22.6647C40.8951 23.1975 41.8727 23.463 43.068 23.463C44.0275 23.463 44.9419 23.2801 45.8093 22.9141C46.6766 22.5486 47.413 22.0408 48.0192 21.3922L47.4727 23.2635H51.5204L55.2113 10.6126H51.1635Z" fill="#131313"/>
<path fill-rule="evenodd" clip-rule="evenodd" d="M69.7677 10.6123H58.0038L57.1816 13.4321H64.0276L54.9761 20.6181L54.2036 23.2632H66.3478L67.1709 20.4438H59.8362L69.025 13.1574L69.7677 10.6123Z" fill="#131313"/>
<path fill-rule="evenodd" clip-rule="evenodd" d="M80.1235 16.8758C79.7594 18.123 79.2199 19.0553 78.5062 19.6707C77.7924 20.286 76.9286 20.5934 75.9149 20.5934C73.7952 20.5934 73.0977 19.3549 73.8205 16.8758C74.1801 15.6447 74.7222 14.7173 75.4469 14.0937C76.1723 13.4697 77.0506 13.1577 78.0834 13.1577C79.0971 13.1577 79.781 13.4697 80.1335 14.0937C80.4857 14.7173 80.4831 15.6447 80.1235 16.8758ZM82.4916 11.0864C81.5601 10.5544 80.3701 10.2881 78.9209 10.2881C77.4536 10.2881 76.0947 10.5544 74.8434 11.0864C73.592 11.6191 72.5267 12.3843 71.6476 13.3821C70.7675 14.3804 70.1333 15.5447 69.7447 16.8758C69.3562 18.2068 69.3111 19.3707 69.6093 20.369C69.9065 21.3673 70.5245 22.1324 71.466 22.6647C72.4065 23.1975 73.61 23.463 75.0774 23.463C76.5265 23.463 77.8719 23.1975 79.1143 22.6647C80.3548 22.1324 81.4164 21.3673 82.2964 20.369C83.1755 19.3707 83.8098 18.2068 84.1983 16.8758C84.5869 15.5447 84.6321 14.3804 84.3348 13.3821C84.0366 12.3843 83.4222 11.6191 82.4916 11.0864Z" fill="#131313"/>
<path fill-rule="evenodd" clip-rule="evenodd" d="M124.832 16.9007C124.483 18.0982 123.944 19.0134 123.217 19.6454C122.49 20.2777 121.617 20.5935 120.603 20.5935C119.571 20.5935 118.869 20.2819 118.5 19.6578C118.128 19.0342 118.116 18.1322 118.461 16.9505C118.805 15.7696 119.354 14.8464 120.111 14.1804C120.866 13.5157 121.751 13.1826 122.765 13.1826C123.779 13.1826 124.466 13.5034 124.822 14.1436C125.178 14.7838 125.182 15.7028 124.832 16.9007ZM126.667 10.6126L126.143 12.4092C125.916 11.7603 125.478 11.2449 124.829 10.8624C124.179 10.4798 123.374 10.2881 122.415 10.2881C121.237 10.2881 120.105 10.567 119.019 11.1242C117.933 11.6818 116.984 12.4677 116.171 13.4822C115.359 14.497 114.764 15.653 114.385 16.9505C114.006 18.2484 113.931 19.3919 114.158 20.3814C114.386 21.3715 114.878 22.1324 115.639 22.6647C116.398 23.1975 117.376 23.463 118.571 23.463C119.531 23.463 120.445 23.2801 121.312 22.9141C122.18 22.5486 122.916 22.0408 123.522 21.3922L122.976 23.2635H127.023L130.714 10.6126H126.667Z" fill="#131313"/>
<path fill-rule="evenodd" clip-rule="evenodd" d="M96.922 14.0067L97.9538 10.5632C97.6033 10.3968 97.1388 10.3135 96.5597 10.3135C95.6354 10.3135 94.7454 10.5255 93.888 10.9499C93.1517 11.314 92.5246 11.8252 91.9951 12.4656L92.5318 10.6112L91.3599 10.613H88.4853L84.7661 23.2639H88.8698L90.7989 16.6518C91.0799 15.6871 91.584 14.9344 92.3132 14.3938C93.0405 13.8532 93.9485 13.5826 95.0355 13.5826C95.7058 13.5826 96.3338 13.7241 96.922 14.0067Z" fill="#131313"/>
<path fill-rule="evenodd" clip-rule="evenodd" d="M108.349 16.95C108.003 18.1317 107.469 19.0338 106.744 19.6574C106.018 20.2814 105.148 20.593 104.135 20.593C103.12 20.593 102.429 20.2773 102.061 19.6449C101.692 19.013 101.683 18.0981 102.033 16.9002C102.383 15.7024 102.926 14.7833 103.666 14.1431C104.405 13.5029 105.282 13.1821 106.297 13.1821C107.292 13.1821 107.969 13.5153 108.328 14.1804C108.686 14.8459 108.693 15.7695 108.349 16.95ZM111.216 11.1237C110.455 10.5665 109.485 10.2881 108.309 10.2881C107.276 10.2881 106.293 10.5042 105.362 10.9366C104.429 11.3698 103.673 11.9594 103.093 12.7083L103.106 12.6253L103.795 10.6103H103.002V10.6121H99.7895L98.7695 14.1105C98.7577 14.1512 98.7478 14.1891 98.7359 14.2302L94.5283 28.6529H98.6313L100.75 21.3922C100.958 22.0403 101.39 22.5481 102.044 22.9137C102.698 23.2796 103.505 23.4626 104.465 23.4626C105.661 23.4626 106.797 23.1971 107.877 22.6643C108.956 22.1323 109.894 21.371 110.689 20.381C111.485 19.3918 112.072 18.2479 112.451 16.95C112.829 15.6525 112.908 14.4966 112.688 13.4817C112.469 12.4672 111.977 11.6814 111.216 11.1237Z" fill="#131313"/>
<path fill-rule="evenodd" clip-rule="evenodd" d="M147.701 10.6158L147.704 10.6123H145.219C145.139 10.6123 145.069 10.6144 144.997 10.6158H143.707L143.047 11.4598C142.994 11.5234 142.942 11.5874 142.885 11.6616L142.813 11.7594L137.571 18.4643L136.484 10.6123H132.191L134.365 22.5438L129.563 28.6531H129.7H132.152H133.841L135.005 27.1391C135.039 27.094 135.068 27.057 135.105 27.0093L136.463 25.2411L136.502 25.1905L142.578 17.2795L147.697 10.621L147.704 10.6158H147.701Z" fill="#131313"/>
<path fill-rule="evenodd" clip-rule="evenodd" d="M9.49752 7.53256L8.26929 11.684L15.2973 7.50922L10.7012 23.2594L15.3685 23.2633L22.1581 0L9.49752 7.53256Z" fill="#3395FF"/>
<path fill-rule="evenodd" clip-rule="evenodd" d="M1.93223 16.6428L0 23.264H9.56693C9.56693 23.264 13.48 9.79781 13.4811 9.79395C13.4775 9.79609 1.93223 16.6428 1.93223 16.6428Z" fill="#131313"/>
</svg>
