<svg width="64" height="26" viewBox="0 0 64 26" fill="none" xmlns="http://www.w3.org/2000/svg">
<g clip-path="url(#clip0_1434_9149)">
<path d="M63.9999 13.4729C63.9999 8.98196 61.8263 5.55469 57.5999 5.55469C53.3735 5.55469 50.8376 9.10014 50.8376 13.4729C50.8376 18.6729 53.8565 21.3911 58.2037 21.3911C60.3773 21.3911 61.9471 20.9183 63.1546 20.2092V16.6638C61.9471 17.2547 60.6188 17.6092 58.8075 17.6092C57.1169 17.6092 55.5471 17.0183 55.3056 15.0092H63.9999C63.9999 14.7729 63.9999 13.8274 63.9999 13.4729ZM55.1848 11.8183C55.1848 9.80923 56.3924 9.10014 57.4792 9.10014C58.5659 9.10014 59.7735 9.92742 59.7735 11.8183H55.1848Z" fill="#6772E5"/>
<path d="M43.9547 5.43652C42.2642 5.43652 41.0566 6.2638 40.4528 6.73652L40.2113 5.67289H36.3472V25.882L40.8151 24.9365V20.0911C41.4189 20.5638 42.3849 21.1547 43.9547 21.1547C47.0943 21.1547 49.9925 18.6729 49.9925 13.1183C49.9925 8.27289 47.0943 5.43652 43.9547 5.43652ZM42.8679 17.4911C41.7811 17.4911 41.1774 17.1365 40.8151 16.6638V10.282C41.2981 9.80925 41.9019 9.45471 42.9887 9.45471C44.5585 9.45471 45.766 11.2274 45.766 13.4729C45.6453 15.7183 44.5585 17.4911 42.8679 17.4911Z" fill="#6772E5"/>
<path d="M30.3098 4.49091L34.7777 3.54546V0L30.3098 0.945455V4.49091Z" fill="#6772E5"/>
<path d="M34.7777 5.79102H30.3098V21.0365H34.7777V5.79102Z" fill="#6772E5"/>
<path d="M25.4787 7.09078L25.2372 5.79079H21.373V21.0362H25.841V10.6362C26.9278 9.33624 28.6183 9.5726 29.2221 9.69078V5.79079C28.6183 5.55442 26.5655 5.19988 25.4787 7.09078Z" fill="#6772E5"/>
<path d="M16.6641 2.00879L12.3169 2.95424V16.8997C12.3169 19.4997 14.249 21.3906 16.9056 21.3906C18.3546 21.3906 19.4414 21.1542 20.0452 20.7997V17.2542C19.4414 17.4906 16.6641 18.3179 16.6641 15.7179V9.45424H20.0452V5.79061H16.6641V2.00879Z" fill="#6772E5"/>
<path d="M4.71002 10.1638C4.71002 9.45471 5.31379 9.21834 6.15907 9.21834C7.48738 9.21834 9.17794 9.57289 10.5062 10.282V6.2638C9.05719 5.67289 7.60813 5.43652 6.15907 5.43652C2.53643 5.43652 0.121338 7.32743 0.121338 10.282C0.121338 15.1274 6.8836 14.3002 6.8836 16.4274C6.8836 17.2547 6.15907 17.4911 5.19304 17.4911C3.74398 17.4911 1.8119 16.9002 0.362847 16.0729V20.2093C2.05341 21.0365 3.62323 21.2729 5.19304 21.2729C8.81568 21.2729 11.3515 19.5002 11.3515 16.4274C11.4723 11.2274 4.71002 12.1729 4.71002 10.1638Z" fill="#6772E5"/>
</g>
<defs>
<clipPath id="clip0_1434_9149">
<rect width="64" height="26" fill="white"/>
</clipPath>
</defs>
</svg>
