<svg width="72" height="36" viewBox="0 0 72 36" fill="none" xmlns="http://www.w3.org/2000/svg">
<g clip-path="url(#clip0_1741_13903)">
<path d="M52.4086 17.6468V12.7276C52.4086 11.0596 51.1148 9.70302 49.4801 9.57147L44.9118 1.5922C44.4884 0.854225 43.8048 0.326772 42.9868 0.107753C42.1727 -0.109776 41.3214 0.00446952 40.5927 0.428564L24.9323 9.54582H22.1818C20.427 9.54582 19 10.9728 19 12.7276V31.8182C19 33.573 20.4269 35 22.1818 35H49.2268C50.9816 35 52.4086 33.573 52.4086 31.8182V26.899C53.3325 26.5696 53.9995 25.6949 53.9995 24.6592V19.8866C53.9995 18.8509 53.3325 17.9763 52.4086 17.6468ZM47.6315 9.54582H40.6984L45.8983 6.51846L47.6315 9.54582ZM45.1079 5.1379L37.5366 9.54582H34.3961L44.3226 3.76644L45.1079 5.1379ZM41.3936 1.80346C41.7532 1.59294 42.1735 1.53701 42.5751 1.64425C42.9814 1.75297 43.3201 2.01554 43.5306 2.38296L43.5322 2.38587L31.2345 9.54582H28.0941L41.3936 1.80346ZM50.8177 31.8182C50.8177 32.6952 50.1038 33.4091 49.2268 33.4091H22.1818C21.3048 33.4091 20.5909 32.6952 20.5909 31.8182V12.7276C20.5909 11.8506 21.3048 11.1367 22.1818 11.1367H49.2268C50.1038 11.1367 50.8177 11.8506 50.8177 12.7276V17.5003H46.045C43.4132 17.5003 41.2724 19.6411 41.2724 22.2729C41.2724 24.9047 43.4132 27.0456 46.045 27.0456H50.8177V31.8182ZM52.4086 24.6592C52.4086 25.0981 52.0521 25.4547 51.6132 25.4547H46.045C44.2903 25.4547 42.8632 24.0277 42.8632 22.2729C42.8632 20.5181 44.2902 19.0911 46.045 19.0911H51.6132C52.052 19.0911 52.4086 19.4476 52.4086 19.8866V24.6592Z" fill="black"/>
<path d="M46.044 20.6821C45.167 20.6821 44.4531 21.396 44.4531 22.2729C44.4531 23.1499 45.167 23.8638 46.044 23.8638C46.921 23.8638 47.6348 23.1499 47.6348 22.2729C47.6349 21.396 46.921 20.6821 46.044 20.6821Z" fill="black"/>
</g>
<defs>
<clipPath id="clip0_1741_13903">
<rect width="35" height="35" fill="white" transform="translate(19)"/>
</clipPath>
</defs>
</svg>
