<svg width="40" height="40" fill="none" xmlns="http://www.w3.org/2000/svg"><path d="M19.922 20.313v18.906L3.907 34.53V23.618l12.11 3.726 3.905-7.032z" fill="#FF7C08"/><path d="M39.725 22.242c-4.175-6.68-3.918-6.28-3.989-6.359a.79.79 0 00-.395-.236l-7.216-1.85V.781A.781.781 0 0027.344 0H12.5a.781.781 0 00-.781.781v13.016l-7.225 1.852c-.016.007-.238.05-.411.264-.091.112-.043.066-3.964 6.33a.782.782 0 00.433 1.16l2.573.792V34.53c0 .347.23.653.562.75l16.016 4.688a.78.78 0 00.439 0l16.015-4.688a.781.781 0 00.562-.75V24.195l2.573-.792a.782.782 0 00.433-1.16zm-7.714-5.836l-3.886.997V15.41l3.886.996zM13.281 1.563h13.282v16.24l-6.64 1.703-6.641-1.703V1.563zm-1.562 15.84l-3.886-.997 3.886-.996v1.993zm-6.672-.098l13.7 3.513-3.107 5.593-13.657-4.203 3.064-4.903zm30.11 16.64l-15.235 4.46-15.234-4.46v-9.27l11.098 3.415a.781.781 0 00.913-.367l3.223-5.802 3.223 5.802a.782.782 0 00.913.367l11.099-3.415v9.27zm-10.953-7.534l-3.107-5.593 13.7-3.513 3.065 4.904-13.658 4.202z" fill="#4EB529"/><path d="M15.626 4.688h8.593a.781.781 0 100-1.563h-8.594a.781.781 0 100 1.563zm0 3.125h8.593a.781.781 0 100-1.563h-8.594a.781.781 0 100 1.563zm0 3.125h8.593a.781.781 0 100-1.563h-8.594a.781.781 0 100 1.563zM25 13.281a.781.781 0 00-.78-.781h-8.594a.781.781 0 000 1.563h8.593c.432 0 .781-.35.781-.782zm-2.343 3.125a.781.781 0 00-.782-.781H17.97a.781.781 0 000 1.563h3.906c.432 0 .782-.35.782-.782z" fill="#4EB529"/></svg>