<svg width="47" height="50" fill="none" xmlns="http://www.w3.org/2000/svg"><path d="M25.05 34.095l-.383 1.09a6.76 6.76 0 00-.286 1.104l.001 2.385v.001l6.757.858.74-5.83.011-.095-6.55-.64c-.065.382-.162.76-.29 1.127zm-.302 7.469l-12.632 1.604.74 5.83 12.632-1.603-.74-5.83z" fill="#FF7C08"/><path d="M24.383 38.675l6.756.858.74-5.831.463-3.651c.098-.774.5-1.476 1.116-1.953l2.588-2.006a5.875 5.875 0 002.231-3.906l.927-7.303a3.918 3.918 0 00-4.38 3.393m-15.402-3.132l.963-7.587a1.959 1.959 0 013.89.47" stroke="#4EB529" stroke-width="1.951" stroke-miterlimit="10" stroke-linecap="round" stroke-linejoin="round"/><path d="M32.416 6.121l.37-2.915a1.958 1.958 0 10-3.887-.494l-.363 2.854-.003.027a.22.22 0 01-.004.036l-1.233 9.717 1.237-9.753.003-.027a1.959 1.959 0 00-3.895-.431l-.366 2.893-.003.022-1.04 8.043" stroke="#4EB529" stroke-width="1.951" stroke-miterlimit="10" stroke-linecap="round" stroke-linejoin="round"/><path d="M31.183 15.84l1.233-9.719a1.96 1.96 0 113.887.494l-1.48 11.661-.247 1.944M5.898 6.878H1m4.898 3.918L1 12.756M5.898 2.96L1 1m39.184 5.878h4.898m-4.898 3.918l4.898 1.96M40.184 2.96L45.082 1M9.418 29.688L7.692 16.081a1.96 1.96 0 113.887-.493l1.233 9.718-1.603-12.633a1.96 1.96 0 013.887-.494l1.603 12.634-1.233-9.718a1.96 1.96 0 113.887-.494l1.233 9.718-.863-6.802a1.96 1.96 0 113.887-.494l1.77 13.95a6.83 6.83 0 01-.33 3.12l-.383 1.092a6.829 6.829 0 00-.33 3.12l1.153 9.09L12.856 49l-1.203-9.482a2.939 2.939 0 00-1.116-1.953L7.95 35.559a5.877 5.877 0 01-2.231-3.906L4.79 24.35a3.918 3.918 0 014.38 3.394l.247 1.944z" stroke="#4EB529" stroke-width="1.951" stroke-miterlimit="10" stroke-linecap="round" stroke-linejoin="round"/></svg>