<svg width="28" height="33" viewBox="0 0 28 33" fill="none" xmlns="http://www.w3.org/2000/svg">
<path d="M15.1089 31.0776C15.1651 31.0924 15.2211 31.1083 15.277 31.1251C15.9648 31.3326 16.7643 31.4613 17.5661 31.4613C18.8344 31.4613 20.1667 30.7116 21.4037 29.5235C24.1929 26.8482 26.4998 21.9509 26.4998 18.4071C26.4998 13.2909 23.4361 10.1998 20.5551 9.45372C19.344 9.14027 17.9639 9.27882 16.7703 9.54448" stroke="#FF89C9" stroke-width="1.22991" stroke-miterlimit="10" stroke-linecap="round" stroke-linejoin="round"/>
<path d="M21.3781 23.1625C22.0186 21.5138 22.4003 19.8485 22.4003 18.4071C22.4003 13.477 19.5553 10.4274 16.7705 9.54449C17.0028 9.49277 16.6605 9.56392 16.2808 9.66268C16.0119 9.73224 15.7409 9.79059 15.4678 9.83745" stroke="#FF89C9" stroke-width="1.22991" stroke-miterlimit="10" stroke-linecap="round" stroke-linejoin="round"/>
<path d="M6.53242 9.63473C3.83479 10.6222 1.16699 13.6329 1.16699 18.4071C1.16699 21.8748 3.37641 26.6399 6.08523 29.3494C7.37202 30.6377 8.77191 31.4613 10.1007 31.4613C10.9024 31.4613 11.7019 31.3327 12.3898 31.1252C13.2768 30.857 14.2168 30.8413 15.11 31.0778C15.1098 31.0778 15.1094 31.0776 15.1091 31.0776" stroke="#FF89C9" stroke-width="1.22991" stroke-miterlimit="10" stroke-linecap="round" stroke-linejoin="round"/>
<path d="M14.8179 10.5242V9.59786C14.8179 3.33773 20.2439 1.20549 20.2439 1.20549" stroke="#FF89C9" stroke-width="1.22991" stroke-miterlimit="10" stroke-linecap="round" stroke-linejoin="round"/>
<path d="M14.7166 11.6099C14.7166 11.6099 15.6401 6.44897 13.0231 3.83473C10.4061 1.22055 5.23975 2.14298 5.23975 2.14298V2.14305" stroke="#FF89C9" stroke-width="1.22991" stroke-miterlimit="10" stroke-linecap="round" stroke-linejoin="round"/>
<path d="M5.2396 2.14302C5.23923 2.14524 4.31673 7.30447 6.93319 9.9181C9.54958 12.5317 14.7143 11.6102 14.7165 11.6098L9.10355 6.00286" stroke="#FF89C9" stroke-width="1.22991" stroke-miterlimit="10" stroke-linecap="round" stroke-linejoin="round"/>
</svg>
