<svg width="29" height="32" viewBox="0 0 29 32" fill="none" xmlns="http://www.w3.org/2000/svg">
<path d="M20.125 0V16.0625" stroke="#8EB0FF" stroke-width="1.875" stroke-miterlimit="10"/>
<path d="M23.875 31.0625H18.25C16.1789 31.0625 14.5 29.3836 14.5 27.3125V23.5625C14.5 21.1133 16.0652 19.0298 18.25 18.2576V16.0625H22V18.2576C24.1847 19.0298 25.75 21.1133 25.75 23.5625V25.4375C25.75 26.473 26.5895 27.3125 27.625 27.3125C27.625 28.5143 27.625 27.3125 27.625 27.3125C27.625 29.3836 25.9461 31.0625 23.875 31.0625Z" stroke="#8EB0FF" stroke-width="1.875" stroke-miterlimit="10"/>
<path d="M14.8201 21.6875H2.3125" stroke="#8EB0FF" stroke-width="1.875" stroke-miterlimit="10"/>
<path d="M15.9999 30.3127C15.6579 30.7681 15.1133 31.0625 14.5 31.0625H7C5.9645 31.0625 5.125 30.223 5.125 29.1875V21.6875" stroke="#8EB0FF" stroke-width="1.875" stroke-miterlimit="10"/>
<path d="M5.125 14.1875C5.125 15.2231 4.2855 16.0625 3.25 16.0625C2.2145 16.0625 1.375 15.2231 1.375 14.1875C1.375 13.1519 2.2145 12.3125 3.25 12.3125C4.2855 12.3125 5.125 13.1519 5.125 14.1875Z" stroke="#8EB0FF" stroke-width="1.875" stroke-miterlimit="10"/>
<path d="M6.0625 17.9375H7.9375" stroke="#8EB0FF" stroke-width="1.875" stroke-miterlimit="10"/>
<path d="M18.25 28.25C18.25 29.8033 19.5092 31.0625 21.0625 31.0625" stroke="#8EB0FF" stroke-width="1.875" stroke-miterlimit="10"/>
<path d="M22 28.25C22 29.8033 23.2592 31.0625 24.8125 31.0625" stroke="#8EB0FF" stroke-width="1.875" stroke-miterlimit="10"/>
</svg>
