<svg width="68" height="68" viewBox="0 0 68 68" fill="none" xmlns="http://www.w3.org/2000/svg">
<path d="M62.8803 31.5954L60.7334 39.1517H7.26863L5.11798 31.5954H62.8803Z" fill="#FF963A" stroke="white" stroke-width="0.113281"/>
<path d="M47.6638 65.9434C45.9915 65.9434 44.623 64.5749 44.623 62.9026V56.6577H50.7007V62.9026C50.7007 64.5749 49.3322 65.9434 47.6638 65.9434Z" fill="#FF963A" stroke="white" stroke-width="0.113281"/>
<path d="M13.3789 14.8096C13.3789 12.5604 13.6518 10.4181 15.1452 9.14224" stroke="white" stroke-width="2.26562" stroke-miterlimit="10" stroke-linecap="round" stroke-linejoin="round"/>
<path d="M40.0469 18.0248C40.0469 14.3818 41.1826 11.1481 42.934 9.14224M51.3226 9.14224C53.074 11.1481 54.2097 14.3819 54.2097 18.0248" stroke="white" stroke-width="2.26562" stroke-miterlimit="10" stroke-linecap="round" stroke-linejoin="round"/>
<path d="M3.74413 24.5145H64.256C65.2147 24.5145 66.0001 25.2961 66.0001 26.2548V29.7946C66.0001 30.7533 65.2147 31.5387 64.256 31.5387H3.74413C2.78543 31.5387 2 30.7533 2 29.7946V26.2548C2 25.2963 2.78543 24.5145 3.74413 24.5145Z" stroke="white" stroke-width="2.26562" stroke-miterlimit="10" stroke-linecap="round" stroke-linejoin="round"/>
<path d="M18.5234 24.5145C18.9069 20.4548 22.3213 17.28 26.4769 17.28C30.6361 17.28 34.0506 20.4548 34.4339 24.5145" stroke="white" stroke-width="2.26562" stroke-miterlimit="10" stroke-linecap="round" stroke-linejoin="round"/>
<path d="M31.7007 19.2269C31.675 18.8324 31.6602 18.4304 31.6602 18.0248C31.6602 11.9372 34.8311 7.00357 38.7433 7.00357C40.3104 7.00357 41.7632 7.79629 42.9357 9.14224C44.1083 7.79642 45.561 7.00357 47.1281 7.00357C48.6989 7.00357 50.148 7.79629 51.3243 9.14224C52.4968 7.79642 53.9496 7.00357 55.5167 7.00357C59.4289 7.00357 62.6 11.9372 62.6 18.0248C62.6 20.4511 62.0949 22.6929 61.2431 24.5145" stroke="white" stroke-width="2.26562" stroke-miterlimit="10" stroke-linecap="round" stroke-linejoin="round"/>
<path d="M20.898 19.5515C21.0713 15.643 18.8773 12.2692 13.3797 14.8097C5.48519 11.163 4.40487 19.7027 7.34353 24.5145" stroke="white" stroke-width="2.26562" stroke-miterlimit="10" stroke-linecap="round" stroke-linejoin="round"/>
<path d="M26.6372 66C31.8104 66 36.0323 61.7781 36.0323 56.6011C36.0323 51.4241 31.8104 47.2022 26.6372 47.2022C21.4602 47.2022 17.2383 51.4241 17.2383 56.6011C17.2383 61.7781 21.4603 66 26.6372 66Z" stroke="white" stroke-width="2.26562" stroke-miterlimit="10" stroke-linecap="round" stroke-linejoin="round"/>
<path d="M5.04297 31.5387L12.1669 56.6011H17.2406M36.0346 56.6011H55.8315L62.9553 31.5387" stroke="white" stroke-width="2.26562" stroke-miterlimit="10" stroke-linecap="round" stroke-linejoin="round"/>
<path d="M26.6372 60.211C28.6246 60.211 30.2471 58.5886 30.2471 56.6011C30.2471 54.6137 28.6247 52.9912 26.6372 52.9912C24.6461 52.9912 23.0273 54.6136 23.0273 56.6011C23.0275 58.5886 24.6462 60.211 26.6372 60.211Z" stroke="white" stroke-width="2.26562" stroke-miterlimit="10" stroke-linecap="round" stroke-linejoin="round"/>
<path d="M47.1289 7.00358V2" stroke="white" stroke-width="2.26562" stroke-miterlimit="10" stroke-linecap="round" stroke-linejoin="round"/>
</svg>
