<svg width="30" height="32" viewBox="0 0 30 32" fill="none" xmlns="http://www.w3.org/2000/svg">
<path d="M16.3453 7.84474C15.9984 8.19338 15.5858 8.46977 15.1314 8.6579C14.677 8.84603 14.1898 8.94217 13.698 8.94075C13.5051 8.94075 13.3201 9.01738 13.1837 9.15377C13.0473 9.29016 12.9707 9.47515 12.9707 9.66804C12.9707 9.86093 13.0473 10.0459 13.1837 10.1823C13.3201 10.3187 13.5051 10.3953 13.698 10.3953C14.3808 10.3971 15.0572 10.2634 15.688 10.0019C16.3188 9.74054 16.8915 9.35661 17.373 8.87239C17.4424 8.8053 17.4978 8.72505 17.5359 8.63632C17.5741 8.54759 17.5941 8.45215 17.595 8.35558C17.5958 8.25901 17.5774 8.16325 17.5408 8.07387C17.5043 7.98448 17.4503 7.90328 17.382 7.835C17.3137 7.76671 17.2325 7.71271 17.1431 7.67614C17.0537 7.63957 16.958 7.62117 16.8614 7.62201C16.7648 7.62285 16.6694 7.64291 16.5806 7.68102C16.4919 7.71914 16.4117 7.77455 16.3446 7.84401L16.3453 7.84474Z" fill="#89C74A"/>
<path d="M26.5988 9.21564C26.7515 8.70303 26.8287 8.17088 26.8279 7.63598C26.8288 6.64491 26.5647 5.67163 26.0629 4.81696C25.5611 3.9623 24.8399 3.25736 23.9741 2.77517C23.1082 2.29298 22.1292 2.05109 21.1384 2.07456C20.1476 2.09802 19.1811 2.386 18.339 2.90864C17.8591 1.93432 17.0867 1.13429 16.1298 0.620365C15.173 0.106438 14.0795 -0.0957101 13.0022 0.0421717C11.9248 0.180054 10.9175 0.651075 10.1209 1.38941C9.32434 2.12775 8.77835 3.0965 8.55923 4.16029C7.70406 4.10132 6.8459 4.21896 6.03815 4.5059C5.2304 4.79284 4.49035 5.24293 3.86403 5.82818C3.23771 6.41343 2.73853 7.12131 2.39756 7.90778C2.05658 8.69424 1.8811 9.54246 1.88203 10.3997C1.88267 10.8165 1.9258 11.2323 2.01076 11.6404C1.03413 12.7202 0.495488 14.1256 0.500192 15.5816C0.492904 16.4827 0.693462 17.3733 1.08628 18.1843C1.4791 18.9953 2.05361 19.7048 2.76517 20.2577C3.47673 20.8106 4.30618 21.1921 5.18909 21.3724C6.07199 21.5526 6.98458 21.527 7.85594 21.2973C9.43763 23.9356 10.3882 26.9038 10.6334 29.9701C10.6747 30.5194 10.921 31.033 11.3234 31.4091C11.7259 31.7851 12.2551 31.9961 12.8058 32H17.2852C17.8358 31.9973 18.3652 31.787 18.7676 31.4111C19.17 31.0353 19.4159 30.5215 19.4561 29.9723C19.7006 26.6822 20.7816 23.5091 22.5965 20.754C22.8422 20.7836 23.0894 20.7989 23.3369 20.7998C24.6999 20.8006 26.0258 20.3559 27.1126 19.5334C28.1994 18.7108 28.9875 17.5556 29.357 16.2436C29.7264 14.9317 29.6568 13.5349 29.1589 12.2661C28.661 10.9974 27.7619 9.92614 26.5988 9.21564ZM18.0052 29.8705C17.9927 30.0535 17.9116 30.2249 17.7781 30.3506C17.6446 30.4763 17.4685 30.5469 17.2852 30.5483H12.8058C12.6213 30.5474 12.444 30.4763 12.3099 30.3495C12.1758 30.2227 12.0949 30.0496 12.0836 29.8654C11.8255 26.6546 10.8495 23.5428 9.2276 20.7598C9.63402 20.5429 10.0136 20.279 10.3585 19.9736C11.3618 21.7991 12.2108 23.7051 12.8967 25.6719C12.9431 25.8198 13.0355 25.949 13.1604 26.0407C13.2853 26.1324 13.4363 26.1818 13.5913 26.1817C13.6276 26.1819 13.6638 26.1793 13.6997 26.1737C13.8719 26.1478 14.029 26.0609 14.1426 25.9289C14.2562 25.7969 14.3186 25.6286 14.3186 25.4544C14.3264 23.196 14.4558 20.9396 14.7062 18.6951C15.2418 18.7205 15.7786 18.6852 16.3063 18.5896C15.8675 20.8722 15.6886 23.1971 15.7732 25.5199C15.7888 25.6863 15.8613 25.8421 15.9784 25.9613C16.0955 26.0806 16.25 26.1558 16.4161 26.1745C16.444 26.1784 16.4722 26.1809 16.5004 26.1817C16.6538 26.1818 16.8033 26.1334 16.9276 26.0434C17.0518 25.9534 17.1444 25.8264 17.1921 25.6806C17.9249 23.6334 18.8194 21.6477 19.867 19.7424C20.2535 20.0032 20.6682 20.2194 21.1034 20.3867C19.3237 23.2521 18.261 26.5042 18.0052 29.8676V29.8705ZM11.3607 18.794C11.5397 18.5211 11.6956 18.2338 11.8269 17.9351C12.2844 18.174 12.7678 18.3595 13.2677 18.4878C13.1222 19.5002 13.0233 20.7606 12.9644 21.9337C12.4524 20.8136 11.8851 19.7002 11.3607 18.7911V18.794ZM17.9143 18.0951C17.987 18.0631 18.0597 18.0391 18.1325 18.0041C18.317 18.2782 18.523 18.5372 18.7485 18.7787C18.3056 19.5547 17.8212 20.4973 17.3666 21.4697C17.467 20.332 17.6501 19.2032 17.9143 18.0921V18.0951ZM23.3369 19.3453C22.445 19.3472 21.5703 19.0994 20.8119 18.6298C20.0536 18.1603 19.4418 17.4878 19.0459 16.6885C19.0005 16.5972 18.9363 16.5165 18.8574 16.4518C18.7786 16.3872 18.6869 16.3399 18.5885 16.3132C18.4906 16.287 18.3884 16.2814 18.2883 16.2966C18.1881 16.3119 18.0922 16.3478 18.0066 16.4019C17.0807 16.9853 16.0029 17.2817 14.9089 17.2536C13.8149 17.2255 12.7537 16.8742 11.8589 16.2441C11.7625 16.175 11.6505 16.1305 11.5329 16.1145C11.4153 16.0986 11.2956 16.1116 11.1842 16.1526C11.0728 16.1935 10.9731 16.2611 10.8938 16.3495C10.8146 16.4378 10.7581 16.5442 10.7294 16.6594C10.5744 17.282 10.2867 17.8638 9.88581 18.3649C9.48495 18.8659 8.98051 19.2743 8.40705 19.5622C7.83359 19.85 7.20468 20.0105 6.56341 20.0326C5.92214 20.0546 5.28367 19.9378 4.69178 19.6901C4.09988 19.4423 3.56855 19.0696 3.13419 18.5973C2.69983 18.125 2.37271 17.5644 2.17527 16.9539C1.97782 16.3434 1.91471 15.6974 1.99025 15.0602C2.0658 14.423 2.27822 13.8097 2.61295 13.2623C3.29178 14.5211 4.38025 15.5103 5.69809 16.0659C5.87584 16.1411 6.07615 16.1425 6.25496 16.0699C6.3435 16.034 6.42409 15.981 6.49214 15.9139C6.56019 15.8469 6.61436 15.767 6.65156 15.679C6.68876 15.591 6.70826 15.4965 6.70895 15.401C6.70964 15.3054 6.6915 15.2107 6.65557 15.1222C6.61964 15.0336 6.56663 14.953 6.49955 14.885C6.43248 14.8169 6.35266 14.7627 6.26465 14.7255C5.60989 14.446 5.02414 14.0267 4.54839 13.4971C4.07264 12.9674 3.71839 12.3402 3.51042 11.6593C3.29388 10.8729 3.28181 10.0443 3.47534 9.25193C3.66887 8.45958 4.06159 7.72979 4.61625 7.13178C5.17092 6.53376 5.86916 6.08735 6.64474 5.83486C7.42032 5.58237 8.24754 5.53218 9.04796 5.68904C9.14962 5.70858 9.25428 5.70619 9.35494 5.68204C9.45561 5.65788 9.54995 5.61251 9.63167 5.54897C9.7134 5.48542 9.78061 5.40516 9.82882 5.31355C9.87704 5.22195 9.90514 5.1211 9.91125 5.01776C9.95638 4.12137 10.3208 3.27073 10.9387 2.61973C11.5566 1.96874 12.3871 1.56039 13.2799 1.46856C14.1727 1.37673 15.0689 1.60748 15.8064 2.11908C16.5438 2.63067 17.0738 3.38931 17.3005 4.25775C17.3323 4.37893 17.3949 4.48984 17.4822 4.57972C17.5695 4.66959 17.6785 4.73539 17.7987 4.77073C17.919 4.80606 18.0463 4.80975 18.1683 4.78142C18.2904 4.75309 18.403 4.69371 18.4954 4.60903C19.1877 3.97156 20.0781 3.59136 21.0173 3.5321C21.9566 3.47284 22.8876 3.73813 23.6546 4.28352C24.4216 4.82892 24.9778 5.6213 25.2302 6.52794C25.4826 7.43457 25.4158 8.4004 25.0409 9.26365C24.7233 9.97051 24.2081 10.5705 23.5574 10.9914C22.9067 11.4123 22.1482 11.6362 21.3732 11.636C21.1804 11.636 20.9954 11.7127 20.859 11.8491C20.7226 11.9855 20.646 12.1704 20.646 12.3633C20.646 12.5562 20.7226 12.7412 20.859 12.8776C20.9954 13.014 21.1804 13.0906 21.3732 13.0906C22.2939 13.0896 23.1995 12.8566 24.0062 12.4129C24.8129 11.9693 25.4947 11.3294 25.9886 10.5524C26.848 11.1215 27.5011 11.9524 27.8512 12.9219C28.2012 13.8914 28.2296 14.9479 27.9319 15.9347C27.6343 16.9216 27.0266 17.7863 26.199 18.4006C25.3713 19.0149 24.3677 19.3462 23.3369 19.3453Z" fill="#89C74A"/>
</svg>
