<svg width="33" height="32" viewBox="0 0 33 32" fill="none" xmlns="http://www.w3.org/2000/svg">
<path d="M8.72595 4.02461C8.05599 3.35459 8.05599 2.27042 8.72595 1.6004C9.09209 1.23426 9.09209 0.640742 8.72595 0.274604C8.35988 -0.0915345 7.76629 -0.0915345 7.40015 0.274604C6.00073 1.67403 6.00073 3.95098 7.40015 5.35041C8.07012 6.02037 8.07012 7.1046 7.40015 7.77462C7.03402 8.14076 7.03402 8.73428 7.40015 9.10042C7.76623 9.46656 8.35988 9.46656 8.72595 9.10042C10.1254 7.70099 10.1254 5.42404 8.72595 4.02461Z" fill="#FF7C08"/>
<path d="M14.351 4.02461C13.681 3.35459 13.681 2.27042 14.351 1.6004C14.7171 1.23426 14.7171 0.640742 14.351 0.274604C13.9849 -0.0915345 13.3913 -0.0915345 13.0252 0.274604C11.6257 1.67403 11.6257 3.95098 13.0252 5.35041C13.6951 6.02037 13.6951 7.1046 13.0252 7.77462C12.659 8.14076 12.659 8.73428 13.0252 9.10042C13.3912 9.46656 13.9849 9.46656 14.351 9.10042C15.7504 7.70099 15.7504 5.42404 14.351 4.02461Z" fill="#FF7C08"/>
<path d="M19.9764 4.02461C19.3065 3.35459 19.3065 2.27042 19.9764 1.6004C20.3426 1.23426 20.3426 0.640742 19.9764 0.274604C19.6104 -0.0915345 19.0167 -0.0915345 18.6506 0.274604C17.2512 1.67403 17.2512 3.95098 18.6506 5.35041C19.3206 6.02037 19.3206 7.1046 18.6506 7.77462C18.2845 8.14076 18.2845 8.73428 18.6506 9.10042C19.0167 9.46656 19.6104 9.46656 19.9764 9.10042C21.3759 7.70099 21.3759 5.42404 19.9764 4.02461Z" fill="#FF7C08"/>
<path d="M24.0636 24.4376C28.716 24.4376 32.5011 20.6525 32.5011 16C32.5011 14.4492 31.2395 13.1875 29.6886 13.1875H26.858C26.8699 12.8758 26.876 12.5632 26.876 12.25C26.876 11.7322 26.4563 11.3124 25.9385 11.3124H1.43851C0.920741 11.3124 0.500976 11.7322 0.500976 12.25C0.500976 17.3747 2.1456 22.7507 5.5731 26.375H1.43851C0.743298 26.375 0.288406 27.1086 0.599918 27.7318C1.24157 29.0149 2.22629 30.092 3.44789 30.8467C4.66913 31.6012 6.07305 32 7.50779 32H19.8693C22.7931 32 25.4682 30.3494 26.7772 27.7317C27.0881 27.1099 26.6354 26.375 25.9386 26.375H21.8039C22.3594 25.7876 22.8797 25.1399 23.3595 24.4375H24.0636V24.4376ZM26.7132 15.0625H29.6886C30.2056 15.0625 30.6262 15.4831 30.6262 16C30.6262 19.4774 27.9073 22.3313 24.4839 22.5488C25.6559 20.2809 26.4037 17.7203 26.7132 15.0625ZM24.1659 28.2376C23.0777 29.4203 21.5365 30.1251 19.8692 30.1251H7.50779C5.84054 30.1251 4.29942 29.4203 3.2112 28.2376C4.03729 28.2376 23.7189 28.2376 24.1659 28.2376ZM19.0107 26.3751H8.36632C4.91376 23.7631 2.63037 18.6815 2.39592 13.1751L24.9811 13.1876C24.774 18.053 22.8343 23.4824 19.0107 26.3751Z" fill="#FF7C08"/>
</svg>
