<svg width="33" height="33" viewBox="0 0 33 33" fill="none" xmlns="http://www.w3.org/2000/svg">
<path d="M16.499 10.5784L20.3258 5.35193L24.1507 10.5784" stroke="#94B0FC" stroke-width="1.15592" stroke-miterlimit="10" stroke-linecap="round" stroke-linejoin="round"/>
<path d="M5.24902 5.35193V2.71749C5.24902 2.03893 5.80352 1.48262 6.48384 1.48262H19.0889C19.7692 1.48262 20.3255 2.03893 20.3255 2.71749V5.35193H5.24902Z" stroke="#94B0FC" stroke-width="1.15592" stroke-miterlimit="10" stroke-linecap="round" stroke-linejoin="round"/>
<path d="M0.791992 10.5784L5.24937 5.35193" stroke="#94B0FC" stroke-width="1.15592" stroke-miterlimit="10" stroke-linecap="round" stroke-linejoin="round"/>
<path d="M16.499 10.5784V31.8507" stroke="#94B0FC" stroke-width="1.15592" stroke-miterlimit="10" stroke-linecap="round" stroke-linejoin="round"/>
<path d="M0.791992 18.4871V19.1781C0.791992 20.0426 1.49887 20.7495 2.36343 20.7495C3.22618 20.7495 3.93305 20.0408 3.93305 19.1781V18.1717C3.93305 17.3089 4.63993 16.6002 5.50449 16.6002C6.36724 16.6002 7.07418 17.3089 7.07418 18.1717V19.2719C7.07418 20.1365 7.78099 20.8434 8.64555 20.8434C9.51012 20.8434 10.217 20.1347 10.217 19.2719V16.788C10.217 15.9252 10.9239 15.2166 11.7867 15.2166C12.6512 15.2166 13.3581 15.9252 13.3581 16.788V20.1259C13.3581 20.9886 14.0649 21.6956 14.9295 21.6956C15.7923 21.6956 16.4991 20.9886 16.4991 20.1259V17.9786" stroke="#94B0FC" stroke-width="1.15592" stroke-miterlimit="10" stroke-linecap="round" stroke-linejoin="round"/>
<path d="M19.6348 17.2363H31.5418L30.2415 31.8508H20.9333L19.6348 17.2363Z" stroke="#94B0FC" stroke-width="1.15592" stroke-miterlimit="10" stroke-linecap="round" stroke-linejoin="round"/>
<path d="M11.4519 28.4279H20.6289M0.791992 28.4279H5.83937" stroke="#94B0FC" stroke-width="1.15592" stroke-miterlimit="10" stroke-linecap="round" stroke-linejoin="round"/>
<path d="M20.9336 31.8508H0.791992V10.5784H24.1509V17.2363" stroke="#94B0FC" stroke-width="1.15592" stroke-miterlimit="10" stroke-linecap="round" stroke-linejoin="round"/>
<path d="M20.0723 22.1668C20.9386 22.6062 21.9626 22.6062 22.8289 22.1668C23.2488 21.9542 23.7165 21.8373 24.209 21.8373C24.6998 21.8373 25.1675 21.9542 25.5873 22.1668C26.4537 22.6062 27.4776 22.6062 28.344 22.1668C29.2121 21.7292 30.2361 21.7292 31.1023 22.1668" stroke="#94B0FC" stroke-width="1.15592" stroke-miterlimit="10" stroke-linecap="round" stroke-linejoin="round"/>
<path d="M8.64877 28.4279H8.64551" stroke="#94B0FC" stroke-width="1.15592" stroke-miterlimit="10" stroke-linecap="round" stroke-linejoin="round"/>
</svg>
