<svg width="65" height="64" viewBox="0 0 65 64" fill="none" xmlns="http://www.w3.org/2000/svg">
<path d="M38.3992 25.9653L36.7599 27.1204V26.0156V24.7766C36.7599 22.6866 35.0668 20.9922 32.9767 20.9922H12.6954C12.0219 19.2367 11.6797 17.3861 11.6797 15.4833C11.6797 11.3252 13.3101 7.42666 16.2702 4.50712C19.2315 1.5864 23.1521 0.013701 27.3127 0.0677544C35.8018 0.184481 42.6201 7.19069 42.5108 15.6836C42.4616 19.4988 40.9791 23.1792 38.3992 25.9653Z" fill="#FF7C08" stroke="white" stroke-width="0.132812"/>
<path d="M7.02344 28.5596H31.6716V44.5345H7.02344V28.5596Z" fill="#FF7C08" stroke="white" stroke-width="0.132812"/>
<path d="M53.2769 30.9713H41.6484V40.8837H61.664" stroke="white" stroke-width="2.65624" stroke-miterlimit="10" stroke-linecap="round" stroke-linejoin="round"/>
<path d="M41.6484 45.8398H44.1265" stroke="white" stroke-width="2.65624" stroke-miterlimit="10" stroke-linecap="round" stroke-linejoin="round"/>
<path d="M36.6953 55.7523H45.5248" stroke="white" stroke-width="2.65624" stroke-miterlimit="10" stroke-linecap="round" stroke-linejoin="round"/>
<path d="M55.1248 55.7523H58.9981C61.051 55.7523 62.7152 54.0881 62.7152 52.0352V43.4845C62.7152 42.6053 62.4036 41.7545 61.8357 41.0835L50.1994 27.3314C49.4931 26.4967 48.4551 26.0153 47.3618 26.0153H36.6953" stroke="white" stroke-width="2.65624" stroke-miterlimit="10" stroke-linecap="round" stroke-linejoin="round"/>
<path d="M55.145 58.1354C55.774 55.4715 54.1244 52.8021 51.4606 52.1731C48.7967 51.5441 46.1273 53.1937 45.4983 55.8575C44.8693 58.5214 46.5189 61.1908 49.1827 61.8198C51.8466 62.4488 54.516 60.7992 55.145 58.1354Z" stroke="white" stroke-width="2.65624" stroke-miterlimit="10" stroke-linecap="round" stroke-linejoin="round"/>
<path d="M27.0938 15.4831V11.1465" stroke="white" stroke-width="2.65624" stroke-miterlimit="10" stroke-linecap="round" stroke-linejoin="round"/>
<path d="M30.1914 15.4831H27.0938" stroke="white" stroke-width="2.65624" stroke-miterlimit="10" stroke-linecap="round" stroke-linejoin="round"/>
<path d="M27.103 6.19028H27.0898" stroke="white" stroke-width="2.65624" stroke-miterlimit="10" stroke-linecap="round" stroke-linejoin="round"/>
<path d="M20.5305 8.90747L20.5195 8.91846" stroke="white" stroke-width="2.65624" stroke-miterlimit="10" stroke-linecap="round" stroke-linejoin="round"/>
<path d="M17.8008 15.4766V15.4898" stroke="white" stroke-width="2.65624" stroke-miterlimit="10" stroke-linecap="round" stroke-linejoin="round"/>
<path d="M36.3906 15.4898V15.4766" stroke="white" stroke-width="2.65624" stroke-miterlimit="10" stroke-linecap="round" stroke-linejoin="round"/>
<path d="M33.675 8.91846L33.6641 8.90747" stroke="white" stroke-width="2.65624" stroke-miterlimit="10" stroke-linecap="round" stroke-linejoin="round"/>
<path d="M17.8963 60.4955C19.8318 58.56 19.8318 55.422 17.8963 53.4865C15.9609 51.551 12.8228 51.551 10.8873 53.4865C8.95183 55.422 8.95184 58.56 10.8873 60.4955C12.8228 62.431 15.9608 62.431 17.8963 60.4955Z" stroke="white" stroke-width="2.65624" stroke-miterlimit="10" stroke-linecap="round" stroke-linejoin="round"/>
<path d="M19.1907 55.7523H36.6936V24.7761C36.6936 22.7232 35.0294 21.059 32.9763 21.059H5.71722C3.66431 21.0589 2 22.7231 2 24.776V52.0351C2 54.088 3.66419 55.7522 5.7171 55.7522H9.59042" stroke="white" stroke-width="2.65624" stroke-miterlimit="10" stroke-linecap="round" stroke-linejoin="round"/>
</svg>
