<svg width="47" height="50" viewBox="0 0 47 50" fill="none" xmlns="http://www.w3.org/2000/svg">
<path d="M25.0494 34.0949L24.6666 35.1859C24.5403 35.5461 24.4452 35.9152 24.3809 36.289L24.3824 38.6744L24.3825 38.6754L31.1386 39.5326L31.8782 33.7021L31.8901 33.6079L25.3392 32.9681C25.2751 33.3501 25.1784 33.7271 25.0494 34.0949Z" fill="#FF7C08"/>
<path d="M24.7485 41.5643L12.1157 43.1676L12.8557 48.9981L25.4885 47.3948L24.7485 41.5643Z" fill="#FF7C08"/>
<path d="M24.3828 38.6753L31.1389 39.5325L31.8786 33.702L32.3419 30.051C32.4398 29.2772 32.8415 28.5747 33.4576 28.0978L36.0456 26.0915C37.2779 25.1374 38.0812 23.7317 38.2771 22.1859L39.2039 14.8831C39.0363 14.8615 38.8698 14.8517 38.7052 14.8517C36.7608 14.8517 35.0739 16.2976 34.8231 18.2764" stroke="#4EB529" stroke-width="1.95123" stroke-miterlimit="10" stroke-linecap="round" stroke-linejoin="round"/>
<path d="M19.4224 15.1444L20.3853 7.5575C20.5106 6.56716 21.3541 5.84424 22.3259 5.84424C22.4081 5.84424 22.4914 5.84912 22.5746 5.85995C23.6404 5.99516 24.3976 6.96297 24.2752 8.02775" stroke="#4EB529" stroke-width="1.95123" stroke-miterlimit="10" stroke-linecap="round" stroke-linejoin="round"/>
<path d="M32.4163 6.12136L32.7856 3.20604C32.9228 2.13239 32.1626 1.1518 31.0889 1.01571C31.0057 1.00498 30.9224 1 30.8402 1C29.8674 1 29.024 1.72293 28.8986 2.71229L28.5362 5.56594L28.5333 5.59336C28.5323 5.60506 28.5313 5.61687 28.5294 5.62858L27.2961 15.3461L28.5334 5.59336L28.5363 5.56594C28.6362 4.51677 27.8849 3.57151 26.8318 3.43824C26.7485 3.42741 26.6653 3.42253 26.583 3.42253C25.6113 3.42253 24.7678 4.14546 24.6415 5.13482L24.2751 8.0275C24.2742 8.0353 24.2732 8.04223 24.2722 8.05004L23.2319 16.0925" stroke="#4EB529" stroke-width="1.95123" stroke-miterlimit="10" stroke-linecap="round" stroke-linejoin="round"/>
<path d="M31.1831 15.8399L32.4164 6.12138C32.5417 5.13201 33.3851 4.40909 34.3579 4.40909C34.4402 4.40909 34.5225 4.41397 34.6067 4.4248C35.6794 4.56099 36.4395 5.54148 36.3034 6.61513L34.8233 18.2762L34.5764 20.2197" stroke="#4EB529" stroke-width="1.95123" stroke-miterlimit="10" stroke-linecap="round" stroke-linejoin="round"/>
<path d="M5.89791 6.87766H1" stroke="#4EB529" stroke-width="1.95123" stroke-miterlimit="10" stroke-linecap="round" stroke-linejoin="round"/>
<path d="M5.89791 10.796L1 12.7552" stroke="#4EB529" stroke-width="1.95123" stroke-miterlimit="10" stroke-linecap="round" stroke-linejoin="round"/>
<path d="M5.89791 2.95955L1 1.00034" stroke="#4EB529" stroke-width="1.95123" stroke-miterlimit="10" stroke-linecap="round" stroke-linejoin="round"/>
<path d="M40.1836 6.87769H45.0815" stroke="#4EB529" stroke-width="1.95123" stroke-miterlimit="10" stroke-linecap="round" stroke-linejoin="round"/>
<path d="M40.1836 10.796L45.0815 12.7552" stroke="#4EB529" stroke-width="1.95123" stroke-miterlimit="10" stroke-linecap="round" stroke-linejoin="round"/>
<path d="M40.1836 2.95931L45.0815 1.00009" stroke="#4EB529" stroke-width="1.95123" stroke-miterlimit="10" stroke-linecap="round" stroke-linejoin="round"/>
<path d="M9.4181 29.6875L7.69158 16.0822C7.55538 15.0087 8.31508 14.0282 9.38854 13.892C10.462 13.7558 11.4426 14.5155 11.5788 15.5889L12.812 25.3069L11.2088 12.6735C11.0726 11.6002 11.8323 10.6195 12.9058 10.4833C13.9792 10.3471 14.9598 11.1068 15.096 12.1803L16.6992 24.8136L15.466 15.0957C15.3298 14.0222 16.0895 13.0416 17.1629 12.9054C18.2364 12.7692 19.2169 13.5289 19.3531 14.6024L20.5864 24.3203L19.7231 17.5177C19.5869 16.4443 20.3466 15.4637 21.4201 15.3275C22.4935 15.1913 23.4741 15.951 23.6103 17.0245L25.3805 30.9737C25.514 32.0256 25.4007 33.0941 25.0497 34.0946L24.667 35.1856C24.3159 36.1861 24.2027 37.2546 24.3362 38.3065L25.4898 47.3968L12.8563 49L11.653 39.5179C11.5549 38.7447 11.1536 38.0421 10.5375 37.5647L7.94875 35.559C6.71646 34.6042 5.91393 33.1992 5.71774 31.6527L4.79102 24.35C6.93783 24.0775 8.89898 25.597 9.17147 27.7438L9.4181 29.6875Z" stroke="#4EB529" stroke-width="1.95123" stroke-miterlimit="10" stroke-linecap="round" stroke-linejoin="round"/>
</svg>
