<svg width="70" height="52" viewBox="0 0 70 52" fill="none" xmlns="http://www.w3.org/2000/svg">
<path d="M6.05172 8.74549L17.2131 6.88525V40.7377L12.3018 41.7717C9.01306 42.464 5.79705 40.3203 5.17081 37.0184L1.14319 15.7819C0.515988 12.4748 2.73148 9.29886 6.05172 8.74549Z" fill="white" stroke="#4EB529" stroke-width="2"/>
<path d="M63.9483 8.74549L52.7869 6.88525V40.7377L57.6982 41.7717C60.9869 42.464 64.203 40.3203 64.8292 37.0184L68.8568 15.7819C69.484 12.4748 67.2685 9.29886 63.9483 8.74549Z" fill="white" stroke="#4EB529" stroke-width="2"/>
<g filter="url(#filter0_dd_1321_7835)">
<rect x="16.0664" width="37.8689" height="44.7541" rx="6" fill="white"/>
<rect x="17.0664" y="1" width="35.8689" height="42.7541" rx="5" stroke="#4EB529" stroke-width="2"/>
</g>
<path d="M47.9353 43.7541H22.0664C19.305 43.7541 17.0664 41.5155 17.0664 38.7541L17.0664 35.293L29.4732 22.1452L38.9834 33.0891C39.7841 34.0105 41.2162 34.0059 42.011 33.0794L47.2464 26.9765L52.9353 33.0979V38.7541C52.9353 41.5155 50.6967 43.7541 47.9353 43.7541Z" fill="#EFF6FF" stroke="#4EB529" stroke-width="2"/>
<circle cx="39.5897" cy="14.3442" r="4.16393" fill="#EFF6FF" stroke="#4EB529" stroke-width="2"/>
<defs>
<filter id="filter0_dd_1321_7835" x="13.0664" y="0" width="43.8672" height="51.7542" filterUnits="userSpaceOnUse" color-interpolation-filters="sRGB">
<feFlood flood-opacity="0" result="BackgroundImageFix"/>
<feColorMatrix in="SourceAlpha" type="matrix" values="0 0 0 0 0 0 0 0 0 0 0 0 0 0 0 0 0 0 127 0" result="hardAlpha"/>
<feOffset dy="2"/>
<feGaussianBlur stdDeviation="1"/>
<feComposite in2="hardAlpha" operator="out"/>
<feColorMatrix type="matrix" values="0 0 0 0 0 0 0 0 0 0 0 0 0 0 0 0 0 0 0.06 0"/>
<feBlend mode="normal" in2="BackgroundImageFix" result="effect1_dropShadow_1321_7835"/>
<feColorMatrix in="SourceAlpha" type="matrix" values="0 0 0 0 0 0 0 0 0 0 0 0 0 0 0 0 0 0 127 0" result="hardAlpha"/>
<feOffset dy="4"/>
<feGaussianBlur stdDeviation="1.5"/>
<feComposite in2="hardAlpha" operator="out"/>
<feColorMatrix type="matrix" values="0 0 0 0 0 0 0 0 0 0 0 0 0 0 0 0 0 0 0.07 0"/>
<feBlend mode="normal" in2="effect1_dropShadow_1321_7835" result="effect2_dropShadow_1321_7835"/>
<feBlend mode="normal" in="SourceGraphic" in2="effect2_dropShadow_1321_7835" result="shape"/>
</filter>
</defs>
</svg>
