<svg width="40" height="40" viewBox="0 0 40 40" fill="none" xmlns="http://www.w3.org/2000/svg">
<path d="M19.9224 20.3125V39.2188L3.90674 34.5312V23.618L16.0161 27.3438L19.9224 20.3125Z" fill="#FF7C08"/>
<path d="M39.7253 22.2422C35.5504 15.5628 35.8069 15.9619 35.7364 15.883C35.6282 15.7637 35.4881 15.683 35.341 15.647L28.1253 13.797V0.78125C28.1253 0.349766 27.7755 0 27.344 0H12.5003C12.0688 0 11.719 0.349766 11.719 0.78125V13.797C4.8798 15.5505 4.50183 15.6475 4.49371 15.6495C4.47792 15.6563 4.25574 15.6999 4.08261 15.9131C3.99167 16.0248 4.03996 15.9788 0.119018 22.2422C-0.152779 22.677 0.0616746 23.2522 0.551753 23.4029L3.12527 24.1948V34.5312C3.12527 34.8782 3.3541 35.1836 3.68707 35.281L19.7027 39.9685C19.8451 40.0102 19.9975 40.0108 20.1416 39.9685L36.1572 35.281C36.4902 35.1836 36.719 34.8782 36.719 34.5312V24.1948L39.2925 23.4029C39.7826 23.2522 39.997 22.677 39.7253 22.2422ZM32.0111 16.4062L28.1253 17.4026V15.4099L32.0111 16.4062ZM13.2815 1.5625H26.5628V17.8032L19.9221 19.5059L13.2815 17.8032V1.5625ZM11.719 17.4026L7.83324 16.4062L11.719 15.4099V17.4026ZM5.04738 17.3049L18.7477 20.8178L15.6405 26.4108C14.6436 26.1041 2.62621 22.4064 1.98277 22.2084L5.04738 17.3049ZM35.1565 33.9459L19.9221 38.4047L4.68777 33.9459V24.6755L15.7861 28.0904C16.1381 28.1988 16.5193 28.0464 16.6989 27.7231L19.9221 21.9212L23.1455 27.7232C23.326 28.0482 23.7081 28.1984 24.0582 28.0905L35.1565 24.6755V33.9459ZM24.2039 26.4109L21.0966 20.8179C21.7381 20.6534 33.9814 17.5141 34.7969 17.305L37.8615 22.2085C37.1342 22.4323 25.0932 26.1372 24.2039 26.4109Z" fill="#4EB529"/>
<path d="M15.6255 4.6875H24.2192C24.6507 4.6875 25.0005 4.33773 25.0005 3.90625C25.0005 3.47477 24.6507 3.125 24.2192 3.125H15.6255C15.194 3.125 14.8442 3.47477 14.8442 3.90625C14.8442 4.33773 15.194 4.6875 15.6255 4.6875Z" fill="#4EB529"/>
<path d="M15.6255 7.8125H24.2192C24.6507 7.8125 25.0005 7.46273 25.0005 7.03125C25.0005 6.59977 24.6507 6.25 24.2192 6.25H15.6255C15.194 6.25 14.8442 6.59977 14.8442 7.03125C14.8442 7.46273 15.194 7.8125 15.6255 7.8125Z" fill="#4EB529"/>
<path d="M15.6255 10.9375H24.2192C24.6507 10.9375 25.0005 10.5877 25.0005 10.1563C25.0005 9.72477 24.6507 9.375 24.2192 9.375H15.6255C15.194 9.375 14.8442 9.72477 14.8442 10.1563C14.8442 10.5877 15.194 10.9375 15.6255 10.9375Z" fill="#4EB529"/>
<path d="M25.0005 13.2813C25.0005 12.8498 24.6507 12.5 24.2192 12.5H15.6255C15.194 12.5 14.8442 12.8498 14.8442 13.2813C14.8442 13.7127 15.194 14.0625 15.6255 14.0625H24.2192C24.6507 14.0625 25.0005 13.7127 25.0005 13.2813Z" fill="#4EB529"/>
<path d="M22.6567 16.4063C22.6567 15.9748 22.3069 15.625 21.8755 15.625H17.9692C17.5378 15.625 17.188 15.9748 17.188 16.4063C17.188 16.8377 17.5378 17.1875 17.9692 17.1875H21.8755C22.307 17.1875 22.6567 16.8377 22.6567 16.4063Z" fill="#4EB529"/>
</svg>
