<svg width="38" height="42" viewBox="0 0 38 42" fill="none" xmlns="http://www.w3.org/2000/svg">
<path d="M6.99661 14.1406C8.3999 14.4807 9.40517 15.395 9.40517 16.4699C9.40517 17.8347 7.78471 18.9409 5.7865 18.9409C3.78828 18.9409 2.16797 17.8347 2.16797 16.4699C2.16797 15.395 3.17317 14.4808 4.57645 14.1406" stroke="#4EB529" stroke-width="1.64062" stroke-miterlimit="10" stroke-linecap="round" stroke-linejoin="round"/>
<path d="M14.8359 16.4698H17.0071" stroke="#4EB529" stroke-width="1.64062" stroke-miterlimit="10" stroke-linecap="round" stroke-linejoin="round"/>
<path d="M19.8984 16.4698H22.0696" stroke="#4EB529" stroke-width="1.64062" stroke-miterlimit="10" stroke-linecap="round" stroke-linejoin="round"/>
<path d="M24.9648 16.4698H27.136" stroke="#4EB529" stroke-width="1.64062" stroke-miterlimit="10" stroke-linecap="round" stroke-linejoin="round"/>
<path d="M14.8359 24.7065H17.0071" stroke="#4EB529" stroke-width="1.64062" stroke-miterlimit="10" stroke-linecap="round" stroke-linejoin="round"/>
<path d="M9.76953 24.7065H11.9407" stroke="#4EB529" stroke-width="1.64062" stroke-miterlimit="10" stroke-linecap="round" stroke-linejoin="round"/>
<path d="M19.8984 24.7065H22.0696" stroke="#4EB529" stroke-width="1.64062" stroke-miterlimit="10" stroke-linecap="round" stroke-linejoin="round"/>
<path d="M14.8359 32.9431H17.0071" stroke="#4EB529" stroke-width="1.64062" stroke-miterlimit="10" stroke-linecap="round" stroke-linejoin="round"/>
<path d="M9.76953 32.9431H11.9407" stroke="#4EB529" stroke-width="1.64062" stroke-miterlimit="10" stroke-linecap="round" stroke-linejoin="round"/>
<path d="M19.8984 32.9431H22.0696" stroke="#4EB529" stroke-width="1.64062" stroke-miterlimit="10" stroke-linecap="round" stroke-linejoin="round"/>
<path d="M29.6875 30.5156V36.2595L31.4969 34.6122L33.3061 36.2595V30.5156H29.6875Z" fill="#FF7C08"/>
<path d="M26.8125 39.5391V32.1562C26.8125 31.2501 27.4579 30.5156 28.2541 30.5156H34.7411C35.5372 30.5156 36.1826 31.2501 36.1826 32.1562V39.5391C36.1826 40.4452 35.5372 41.1797 34.7411 41.1797H28.2541C27.4579 41.1797 26.8125 40.4452 26.8125 39.5391Z" stroke="#4EB529" stroke-width="1.64062" stroke-miterlimit="10" stroke-linecap="round" stroke-linejoin="round"/>
<path d="M24.9648 24.7065H27.136" stroke="#4EB529" stroke-width="1.64062" stroke-miterlimit="10" stroke-linecap="round" stroke-linejoin="round"/>
<path d="M30.0312 16.4698C32.0297 16.4698 33.6498 18.3137 33.6498 20.5881C33.6498 22.8626 32.0297 24.7064 30.0312 24.7064" stroke="#4EB529" stroke-width="1.64062" stroke-miterlimit="10" stroke-linecap="round" stroke-linejoin="round"/>
<path d="M6.87243 24.7065C4.87393 24.7065 3.25391 26.5503 3.25391 28.8248C3.25391 31.0993 4.874 32.9431 6.87243 32.9431" stroke="#4EB529" stroke-width="1.64062" stroke-miterlimit="10" stroke-linecap="round" stroke-linejoin="round"/>
<path d="M5.78678 0C2.59596 0 0 2.95444 0 6.58588C0 8.09214 0.902776 10.1867 2.68324 12.8115C3.96119 14.6953 5.21945 16.1593 5.27236 16.2208L5.78685 16.8175L6.30134 16.2208C6.35425 16.1593 7.61244 14.6954 8.89045 12.8115C10.6709 10.1868 11.5738 8.09222 11.5738 6.58588C11.5736 2.95444 8.97767 0 5.78678 0ZM5.78685 9.05691C4.58776 9.05691 3.61572 7.95063 3.61572 6.58596C3.61572 5.22137 4.58776 4.11502 5.78685 4.11502C6.98594 4.11502 7.95805 5.22137 7.95805 6.58596C7.95805 7.95063 6.98594 9.05691 5.78685 9.05691Z" fill="#FF7C08"/>
<path d="M3.61328 6.586C3.61328 5.22141 4.58532 4.11505 5.78441 4.11505C6.9835 4.11505 7.95562 5.22141 7.95562 6.586C7.95562 7.95067 6.9835 9.05694 5.78441 9.05694C4.58532 9.05694 3.61328 7.95067 3.61328 6.586Z" stroke="#4EB529" stroke-width="1.64062" stroke-miterlimit="10" stroke-linecap="round" stroke-linejoin="round"/>
</svg>
