<svg width="33" height="32" viewBox="0 0 33 32" fill="none" xmlns="http://www.w3.org/2000/svg">
<path d="M26.6986 22.1732L23.4747 19.6497C23.6896 18.6978 23.4772 17.7793 22.834 16.9892C21.5445 15.4011 21.2604 13.5216 20.9608 11.5323C20.5268 8.65617 20.0342 5.39709 16.3978 2.54381C14.3885 0.967023 12.3229 0.167023 10.258 0.167023C6.46584 0.167023 4.07357 2.85256 3.98355 2.95595C3.82425 3.13247 0.0644303 7.33573 0.754364 12.3566C1.17458 15.4156 3.14241 18.0666 6.60544 20.2388L6.67225 20.2764C6.95111 20.4149 13.5326 23.6568 15.5018 24.2648C16.3869 24.5377 17.1159 24.6657 17.7931 24.6657C18.3814 24.6657 18.9268 24.5609 19.4315 24.359L23.065 26.6402C22.9191 27.7296 22.8621 30.1162 24.8978 31.2306C25.4355 31.5246 26.0252 31.6691 26.61 31.6691C27.4673 31.6691 28.3148 31.3607 28.977 30.7636C29.7854 30.0346 30.1518 29.0289 30.0207 27.9968C30.6624 27.8382 31.4821 27.4971 31.9712 26.7696C32.2934 26.2885 32.5821 25.4544 32.1284 24.2113C31.1987 21.6559 28.3718 21.7164 26.6986 22.1732ZM20.5617 21.325L20.4906 21.4403C19.564 22.9668 18.5073 23.1427 17.7942 23.1427C17.2727 23.1427 16.6879 23.0368 15.9516 22.8104C14.1673 22.26 7.90865 19.187 7.38188 18.9285C4.34399 17.0138 2.62162 14.7372 2.26469 12.1593C1.66654 7.84878 5.07753 4.01722 5.11973 3.97115C5.13977 3.94865 7.17335 1.69107 10.2587 1.69107C11.9748 1.69107 13.7242 2.381 15.4585 3.74223C18.6192 6.22311 19.0243 8.91252 19.4547 11.7605C19.7722 13.8637 20.1007 16.0397 21.6521 17.9499C21.9588 18.3258 22.2995 18.9436 21.7379 19.962C21.3314 20.7012 20.6714 21.2371 20.6672 21.2417L20.5617 21.325ZM30.7092 25.9175C30.3607 26.4397 29.361 26.5997 29.041 26.6148C28.7913 26.624 28.5634 26.7555 28.4287 26.9665C28.2951 27.1778 28.2716 27.4409 28.369 27.6705C28.8068 28.7121 28.2276 29.3894 27.9593 29.6313C27.4304 30.1081 26.5052 30.374 25.6293 29.894C24.0356 29.0219 24.638 26.4763 24.6439 26.4527C24.7241 26.1327 24.5898 25.798 24.3095 25.6228L20.8324 23.4405C21.1556 23.13 21.4552 22.7668 21.7253 22.3392C21.9377 22.1535 22.4198 21.6978 22.8326 21.081L26.073 23.6167C26.2763 23.7753 26.5481 23.8196 26.7922 23.7373C26.9195 23.6919 29.9482 22.6736 30.6983 24.7318C30.8871 25.2459 30.8899 25.6457 30.7092 25.9175Z" fill="#FACD58"/>
<path d="M13.5785 4.41036C10.4573 2.63734 7.92541 3.97888 7.02272 4.93537C6.73402 5.2413 6.74809 5.72341 7.05297 6.01211C7.20066 6.15066 7.38809 6.21923 7.57622 6.21923C7.77807 6.21923 7.97991 6.13976 8.12971 5.98082C8.14694 5.96183 9.95266 4.10301 12.826 5.73501C13.1913 5.94249 13.6562 5.81484 13.864 5.44912C14.0722 5.08306 13.9446 4.61888 13.5785 4.41036Z" fill="#FACD58"/>
<path d="M14.9755 5.60983C14.4624 5.60983 14.0439 6.02829 14.0439 6.5424C14.0439 7.05546 14.4624 7.47498 14.9755 7.47498C15.4896 7.47498 15.908 7.05546 15.908 6.5424C15.908 6.02829 15.4899 5.60983 14.9755 5.60983Z" fill="#FACD58"/>
</svg>
