<svg width="64" height="65" viewBox="0 0 64 65" fill="none" xmlns="http://www.w3.org/2000/svg">
<path d="M28.3711 28.8963L40.3219 4.69992L44.9447 6.87108L44.9461 6.87222L42.0931 12.6253L40.3538 16.1335L39.1367 18.5892L33.4104 30.1376" stroke="white" stroke-width="2" stroke-miterlimit="10" stroke-linecap="round" stroke-linejoin="round"/>
<path d="M33.4102 30.1389L40.3522 16.1335L42.0916 12.6253L44.9446 6.87223V6.87108L47.5726 1.2749L52.197 3.44721L38.5337 31.1758" stroke="white" stroke-width="2" stroke-miterlimit="10" stroke-linecap="round" stroke-linejoin="round"/>
<path d="M51.2531 21.8571H52.2325C58.0393 21.8571 62.7467 26.5646 62.7467 32.3715C62.7467 36.7929 59.9808 40.7417 55.8257 42.2528L48.6992 44.8441" stroke="white" stroke-width="2" stroke-miterlimit="10" stroke-linecap="round" stroke-linejoin="round"/>
<path d="M10.6785 29.7111C5.97935 29.7111 2.53125 26.1948 2.53125 21.8572C2.53125 17.5197 6.04755 14.0033 10.3851 14.0033C14.7227 14.0033 18.239 17.5197 18.239 21.8572" stroke="white" stroke-width="2" stroke-miterlimit="10" stroke-linecap="round" stroke-linejoin="round"/>
<path d="M10.385 14.0033V21.8572H2.53125" fill="#FF963A"/>
<path d="M10.385 14.0033V21.8572H2.53125" stroke="white" stroke-width="2" stroke-miterlimit="10" stroke-linecap="round" stroke-linejoin="round"/>
<path d="M10.5891 26.9629C10.5699 26.5664 10.5528 26.1682 10.538 25.7686H10.5481C20.8718 25.7686 26.1159 27.0848 31.1903 28.3584L31.1917 28.3588C36.2645 29.6322 41.0599 30.8355 50.7583 30.876L50.7866 30.8761C50.7518 31.2743 50.7148 31.6708 50.6756 32.065C49.5936 42.9326 46.8203 52.3455 43.0185 58.8133H18.6208C14.2368 51.3522 11.2201 39.9734 10.5891 26.9629L10.5891 26.9629Z" fill="#FF963A" stroke="white" stroke-width="0.15625"/>
<path d="M43.0624 58.8915C46.8834 52.4099 49.6678 42.9692 50.7526 32.0728C51.0803 28.7861 51.2524 25.3667 51.2524 21.8569H10.3867C10.3867 23.5845 10.4288 25.289 10.5104 26.9667C11.1427 40.0076 14.1706 51.4167 18.5754 58.8915" stroke="white" stroke-width="2" stroke-miterlimit="10" stroke-linecap="round" stroke-linejoin="round"/>
<path d="M18.5781 58.8914C19.7549 60.8905 21.0323 62.6078 22.3875 64H39.2532C40.6084 62.6078 41.8857 60.8904 43.0626 58.8914" fill="#FF963A"/>
<path d="M18.5781 58.8914C19.7549 60.8905 21.0323 62.6078 22.3875 64H39.2532C40.6084 62.6078 41.8857 60.8904 43.0626 58.8914" stroke="white" stroke-width="2" stroke-miterlimit="10" stroke-linecap="round" stroke-linejoin="round"/>
<path d="M43.0614 58.8914H43.0601H18.5756H18.5742" fill="#FF963A"/>
<path d="M43.0614 58.8914H43.0601H18.5756H18.5742" stroke="white" stroke-width="2" stroke-miterlimit="10" stroke-linecap="round" stroke-linejoin="round"/>
</svg>
