<svg width="39" height="50" viewBox="0 0 39 50" fill="none" xmlns="http://www.w3.org/2000/svg">
<path d="M19.1395 43.1124C25.0932 43.1124 29.9196 38.286 29.9196 32.3323C29.9196 26.3786 25.0932 21.5522 19.1395 21.5522C13.1858 21.5522 8.35938 26.3786 8.35938 32.3323C8.35938 38.286 13.1858 43.1124 19.1395 43.1124Z" fill="#FF963A"/>
<path d="M20.8062 28.6326C20.6595 28.4963 19.8872 27.7536 18.3924 28.1975C17.0586 28.6359 16.7142 30.4418 17.6277 31.1584C18.1523 31.5698 18.9415 31.9082 20.0053 32.2842C22.386 33.1256 21.5059 36.4832 19.0843 36.4993C18.1391 36.5055 17.6972 36.4455 16.8672 35.9025" stroke="#4EB529" stroke-width="1.84261" stroke-miterlimit="10" stroke-linecap="round" stroke-linejoin="round"/>
<path d="M19.0859 38.215V36.4993" stroke="#4EB529" stroke-width="1.84261" stroke-miterlimit="10" stroke-linecap="round" stroke-linejoin="round"/>
<path d="M19.0859 28.0663V26.4496" stroke="#4EB529" stroke-width="1.84261" stroke-miterlimit="10" stroke-linecap="round" stroke-linejoin="round"/>
<path d="M27.8615 15.6644C33.4706 19.8676 37.2729 26.886 37.2729 34.2942C37.2728 45.1233 29.1527 48.9999 19.1364 48.9999C9.1201 48.9999 1 45.1233 1 34.2942C1 26.8839 4.80127 19.8676 10.4114 15.6644" stroke="#4EB529" stroke-width="1.84261" stroke-miterlimit="10" stroke-linecap="round" stroke-linejoin="round"/>
<path d="M12.7146 11.519L8.83984 1C11.4136 1 11.4136 2.79132 13.9873 2.79132C16.5608 2.79132 16.5608 1 19.1346 1C21.7083 1 21.7083 2.79132 24.282 2.79132C26.8556 2.79132 26.8556 1 29.4294 1L25.5546 11.519L34.3316 3.89912" stroke="#4EB529" stroke-width="1.84261" stroke-miterlimit="10" stroke-linecap="round" stroke-linejoin="round"/>
<path d="M36.2965 9.61108L25.5586 11.519" stroke="#4EB529" stroke-width="1.84261" stroke-miterlimit="10" stroke-linecap="round" stroke-linejoin="round"/>
<path d="M9.81011 16.6402C8.12923 16.6402 6.76172 15.2727 6.76172 13.5918C6.76172 11.9109 8.12923 10.5434 9.81011 10.5434H27.9469C29.6279 10.5434 30.9953 11.9109 30.9953 13.5918C30.9953 15.2727 29.6278 16.6402 27.9469 16.6402H9.81011Z" fill="#FF963A"/>
</svg>
