<svg width="64" height="64" viewBox="0 0 64 64" fill="none" xmlns="http://www.w3.org/2000/svg">
<path d="M63.7446 31.2449L60.0821 26.414L61.6171 20.5491C61.7589 20.007 61.5227 19.4367 61.0391 19.1536L55.8067 16.0921L54.9804 10.0862C54.904 9.53106 54.4675 9.09456 53.9124 9.01818L47.9065 8.19193L44.8449 2.9594C44.5617 2.47578 43.9916 2.23978 43.4494 2.3814L37.5844 3.91641L32.7536 0.253893C32.307 -0.084734 31.6897 -0.084609 31.2432 0.253893L26.4123 3.91641L20.5472 2.3814C19.8795 2.20665 19.1962 2.60628 19.0215 3.27428C18.8467 3.94216 19.2464 4.62529 19.9144 4.80004L26.367 6.4888C26.738 6.5858 27.133 6.5073 27.4387 6.27555L31.9983 2.81865L36.5582 6.27555C36.8637 6.50717 37.2588 6.58555 37.6298 6.4888L43.1656 5.03991L46.0554 9.97881C46.2491 10.3098 46.584 10.5336 46.964 10.5858L52.6328 11.3657L53.4126 17.0345C53.4649 17.4145 53.6886 17.7493 54.0196 17.9431L58.9584 20.8329L57.5095 26.3688C57.4124 26.7398 57.491 27.1348 57.7228 27.4404L61.1798 32L57.7228 36.5599C57.491 36.8656 57.4125 37.2606 57.5095 37.6316L59.1984 44.0842C59.3454 44.646 59.852 45.0181 60.4068 45.018C60.5116 45.018 60.618 45.0047 60.7242 44.977C61.3921 44.8022 61.7918 44.1191 61.6169 43.4511L60.0819 37.5862L63.7444 32.7553C64.0831 32.3088 64.0831 31.6914 63.7446 31.2449Z" fill="white"/>
<path d="M44.0841 59.2003L37.6315 57.5114C37.2603 57.4143 36.8655 57.4929 36.5598 57.7246L32 61.1815L27.4401 57.7245C27.1345 57.4928 26.7394 57.4143 26.3685 57.5113L20.8326 58.9601L17.9428 54.0212C17.7491 53.6902 17.4142 53.4665 17.0342 53.4142L11.3654 52.6345L10.5855 46.9656C10.5333 46.5856 10.3095 46.2507 9.97854 46.057L5.03977 43.1672L6.48865 37.6313C6.58578 37.2603 6.50715 36.8653 6.2754 36.5597L2.81851 32L6.27553 27.4401C6.50728 27.1345 6.58578 26.7395 6.48878 26.3685L4.80002 19.916C4.62527 19.2481 3.94177 18.8485 3.27426 19.0231C2.60639 19.1978 2.20663 19.881 2.38139 20.5488L3.91639 26.4137L0.253876 31.2448C-0.0846254 31.6913 -0.0846254 32.3086 0.253876 32.7551L3.91639 37.586L2.38139 43.4511C2.23951 43.9931 2.47576 44.5635 2.95939 44.8465L8.19179 47.908L9.01804 53.9139C9.09441 54.469 9.53092 54.9055 10.086 54.9819L16.0918 55.808L19.1535 61.0405C19.4366 61.5243 20.0067 61.7604 20.549 61.6185L26.4139 60.0835L31.2448 63.746C31.6913 64.0847 32.3085 64.0845 32.7551 63.746L37.586 60.0835L43.4509 61.6185C44.1188 61.7933 44.8019 61.3937 44.9768 60.7258C45.1517 60.0581 44.7519 59.375 44.0841 59.2003Z" fill="white"/>
<path d="M32.771 28.989L27.0988 34.6613C25.9708 35.8763 27.653 37.5567 28.8667 36.4292L30.819 34.4768L32.8327 36.4905L30.8804 38.4428C29.7523 39.6579 31.4345 41.338 32.6482 40.2107L38.3205 34.5384C39.8504 33.0084 39.8504 30.519 38.3205 28.989C36.7905 27.4591 34.301 27.4591 32.771 28.989ZM36.5526 32.7705L34.6005 34.7226L32.5867 32.7089L34.5389 30.7568C35.0941 30.2016 35.9976 30.2016 36.5526 30.7568C37.1079 31.312 37.1079 32.2154 36.5526 32.7705Z" fill="white"/>
<path d="M10.4924 18.1963C11.4972 18.1963 12.5021 17.8138 13.267 17.0489L17.0485 13.2674C18.5784 11.7374 18.5784 9.24813 17.0485 7.71812C15.5186 6.18836 13.0292 6.18836 11.4992 7.71812L7.71772 11.4995C6.18784 13.0294 6.18784 15.5188 7.71772 17.0488C8.48273 17.8138 9.48748 18.1963 10.4924 18.1963ZM9.48548 13.2674L13.2671 9.48588C13.8223 8.93075 14.7256 8.93062 15.2808 9.48588C15.8359 10.041 15.8359 10.9444 15.2808 11.4995L11.4992 15.281C10.9442 15.8363 10.0409 15.8363 9.48561 15.281C8.93035 14.7259 8.93035 13.8225 9.48548 13.2674Z" fill="white"/>
<path d="M50.7306 46.9512L46.9491 50.7327C44.4889 53.1627 46.2635 57.4591 49.7239 57.428C51.1192 57.4985 53.8715 56.1354 52.4985 54.5141C52.0104 54.026 51.2189 54.026 50.7306 54.5141C50.2058 55.0624 49.2418 55.0622 48.717 54.5141C48.1619 53.959 48.1619 53.0557 48.717 52.5005L52.4985 48.719C53.8905 47.4361 55.7884 49.347 54.5122 50.7326C53.3844 51.9467 55.0655 53.6284 56.2801 52.5004C57.7981 51.045 57.7979 48.4065 56.2801 46.9511C54.75 45.4213 52.2607 45.4215 50.7306 46.9512Z" fill="white"/>
<path d="M28.4536 20.7526C27.4033 20.7526 26.4179 21.1596 25.6789 21.8986L21.8974 25.6801C20.3675 27.21 20.3675 29.6994 21.8974 31.2294C23.4273 32.7592 25.9168 32.7592 27.4467 31.2294L28.8427 29.8334C29.3269 29.3679 29.3268 28.5311 28.8427 28.0655L27.8974 27.1202C26.6824 25.9922 25.0021 27.6743 26.1296 28.8881L26.1909 28.9495L25.6788 29.4616C24.2939 30.7451 22.3822 28.8315 23.6652 27.448L27.4467 23.6665C27.9716 23.1183 28.9356 23.1184 29.4603 23.6665C29.8393 24.0455 29.9712 24.6016 29.8044 25.1178C29.5923 25.7748 29.9529 26.4793 30.6098 26.6915C31.2667 26.9035 31.9713 26.5431 32.1835 25.8861C32.64 24.4723 32.274 22.9443 31.2281 21.8986C30.4892 21.1597 29.5038 20.7526 28.4536 20.7526Z" fill="white"/>
<path d="M41.7528 51.0825C42.2409 51.5706 43.0324 51.5706 43.5207 51.0825L51.0836 43.5194C52.2116 42.3044 50.5295 40.6241 49.3157 41.7516L41.7528 49.3146C41.2647 49.8028 41.2647 50.5943 41.7528 51.0825Z" fill="white"/>
<path d="M43.2927 34.0093C42.7995 33.7045 42.1616 33.7789 41.7516 34.1886L34.1887 41.7516C33.0607 42.9666 34.7428 44.6469 35.9566 43.5194L39.7753 39.7007L37.6683 46.0218C37.4849 46.5717 37.7038 47.1756 38.1969 47.4803C38.4001 47.6058 38.6276 47.6671 38.8537 47.6671C39.1767 47.6671 39.497 47.5421 39.7381 47.301L47.301 39.738C48.429 38.523 46.7469 36.8427 45.5331 37.9702L41.7143 41.7889L43.8213 35.4678C44.0048 34.9178 43.786 34.314 43.2927 34.0093Z" fill="white"/>
<path d="M22.2502 12.9175C21.7621 12.4294 20.9706 12.4294 20.4823 12.9175L12.9191 20.4807C11.7911 21.6958 13.4733 23.376 14.687 22.2486L17.5848 19.3508L18.0453 19.8113L16.3988 24.7508C16.1804 25.4059 16.5344 26.1137 17.1893 26.332C17.8265 26.5497 18.5535 26.2026 18.7704 25.5415L20.1771 21.3218C21.5298 21.7497 23.0703 21.4283 24.1409 20.3577C25.6708 18.8278 25.6708 16.3384 24.1409 14.8083L22.2502 12.9175ZM22.3731 18.5898C21.8213 19.1418 20.9252 19.1449 20.3692 18.5994C20.3602 18.5902 20.3509 18.5811 20.3417 18.5722L19.3526 17.5831L21.3662 15.5693L22.3729 16.5761C22.9283 17.1313 22.9283 18.0346 22.3731 18.5898Z" fill="white"/>
<path fill-rule="evenodd" clip-rule="evenodd" d="M32.0008 10.6086C45.5614 10.4296 56.0179 23.6387 52.8549 36.7828L27.218 11.1459C28.7557 10.7946 30.3565 10.6086 32.0008 10.6086ZM36.7835 52.8541L11.1467 27.2172C7.49965 42.3604 21.6432 56.5008 36.7835 52.8541Z" fill="#FF7C08"/>
</svg>
