<svg width="46" height="48" viewBox="0 0 46 48" fill="none" xmlns="http://www.w3.org/2000/svg">
<path d="M32.9062 15.6735V33.3062H12.5138V15.6735H6.21875V37.2245H39.2013V15.6735H32.9062Z" fill="#FF7C08"/>
<path d="M44.5087 40.1633H43.6221V14.6939C43.6221 12.5333 42.0311 10.7755 40.0756 10.7755H33.7805V0.979592C33.7805 0.438563 33.3835 0 32.8939 0H12.5015C12.0118 0 11.6148 0.438563 11.6148 0.979592V10.7755H5.31977C3.36422 10.7755 1.77326 12.5333 1.77326 14.6939V40.1633H0.886628C0.396943 40.1633 0 40.6019 0 41.1429V44.0816C0 46.2422 1.59097 48 3.54651 48H41.8488C43.8044 48 45.3953 46.2422 45.3953 44.0816V41.1429C45.3953 40.6019 44.9983 40.1633 44.5087 40.1633ZM13.3881 1.95918H32.0073V32.3265H13.3881V1.95918ZM3.54651 14.6939C3.54651 13.6136 4.34199 12.7347 5.31977 12.7347H11.6148V32.3265H10.7282C10.2386 32.3265 9.84157 32.7652 9.84157 33.3061C9.84157 33.8471 10.2386 34.2857 10.7282 34.2857H34.6671C35.1567 34.2857 35.5538 33.8471 35.5538 33.3061C35.5538 32.7652 35.1567 32.3265 34.6671 32.3265H33.7805V12.7347H40.0756C41.0534 12.7347 41.8488 13.6136 41.8488 14.6939V40.1633H3.54651V14.6939ZM43.6221 44.0816C43.6221 45.1619 42.8266 46.0408 41.8488 46.0408H3.54651C2.56874 46.0408 1.77326 45.1619 1.77326 44.0816V42.1224H43.6221V44.0816Z" fill="#4EB529"/>
<path d="M24.0854 11.6196C23.204 11.2753 22.2284 10.8589 21.676 10.3803C21.2309 9.99473 21.412 8.70323 22.2403 8.42768C23.3483 8.05876 24.0651 8.7288 24.0951 8.75741L24.0855 8.74771L24.0863 8.74673C24.2488 8.91208 24.4646 9.0074 24.6867 9.0074C25.1751 9.0074 25.5733 8.56766 25.5733 8.02781C25.5733 7.7691 25.4785 7.51744 25.3135 7.33523C25.3049 7.32573 25.2956 7.3175 25.2867 7.30849L25.2876 7.30741C25.2502 7.26941 24.6668 6.68949 23.7051 6.45458V5.8776C23.7051 5.33667 23.3081 4.89801 22.8185 4.89801C22.3289 4.89801 21.9319 5.33667 21.9319 5.8776V6.49014C21.8649 6.50856 21.7973 6.52893 21.7288 6.55166C20.698 6.89481 19.9283 7.86676 19.72 9.08821C19.5287 10.2099 19.8588 11.2957 20.5816 11.922C21.1895 12.4488 22.0334 12.8964 23.4944 13.4669C24.5311 13.8718 24.5083 14.8013 24.4503 15.1822C24.3342 15.9449 23.7537 16.769 22.7531 16.7763C21.7982 16.7829 21.4998 16.7309 20.7628 16.1982C20.353 15.9018 19.8036 16.0289 19.5354 16.4816C19.2674 16.9344 19.3821 17.5414 19.792 17.8376C20.601 18.4225 21.1858 18.6387 21.9319 18.7074V19.2148C21.9319 19.7558 22.3289 20.1944 22.8185 20.1944C23.3081 20.1944 23.7051 19.7558 23.7051 19.2148V18.5916C25.1031 18.1608 25.9985 16.8251 26.199 15.5071C26.4622 13.7783 25.6127 12.2161 24.0854 11.6196Z" fill="#4EB529"/>
<path d="M16.9413 24.4898H28.4675C28.9571 24.4898 29.3541 24.0512 29.3541 23.5102C29.3541 22.9692 28.9571 22.5306 28.4675 22.5306H16.9413C16.4516 22.5306 16.0547 22.9692 16.0547 23.5102C16.0547 24.0512 16.4516 24.4898 16.9413 24.4898Z" fill="#4EB529"/>
<path d="M16.9413 29.3877H28.4675C28.9571 29.3877 29.3541 28.9491 29.3541 28.4081C29.3541 27.8672 28.9571 27.4285 28.4675 27.4285H16.9413C16.4516 27.4285 16.0547 27.8672 16.0547 28.4081C16.0547 28.9491 16.4516 29.3877 16.9413 29.3877Z" fill="#4EB529"/>
</svg>
