<svg width="42" height="42" viewBox="0 0 42 42" fill="none" xmlns="http://www.w3.org/2000/svg">
<g clip-path="url(#clip0_1_7931)">
<path d="M40.4408 30.9272L41.9797 24.1359C42.0349 23.8927 41.9763 23.6375 41.8207 23.4426C41.6651 23.2478 41.4292 23.1343 41.1798 23.1343H37.3278C41.1804 12.2894 32.5605 0.200609 20.9999 0.411675C9.44195 0.200035 0.816708 12.2907 4.6725 23.1343H0.820317C0.570943 23.1343 0.335022 23.2478 0.179409 23.4426C0.0237956 23.6375 -0.0347746 23.8927 0.0203502 24.1359L1.55934 30.9272L0.0203502 37.7186C-0.0347746 37.9618 0.0237956 38.2169 0.179409 38.4118C0.335022 38.6067 0.570943 38.7202 0.820317 38.7202H7.2495C8.33674 38.6798 8.33592 37.1196 7.2495 37.0796H1.84735L3.20045 31.1085C3.22744 30.9892 3.22744 30.8653 3.20045 30.746L1.84735 24.7749H5.32227C11.3574 38.1461 30.6481 38.1384 36.6778 24.7749H40.1527L38.7996 30.746C38.7726 30.8653 38.7726 30.9892 38.7996 31.1085L40.1527 37.0796H34.7504C33.6632 37.1199 33.664 38.6802 34.7504 38.7202H41.1797C41.4291 38.7202 41.665 38.6067 41.8206 38.4118C41.9762 38.2169 42.0348 37.9618 41.9797 37.7186L40.4408 30.9272ZM21 33.2239C12.4059 33.2239 5.41414 26.2321 5.41414 17.638C6.1977 -3.01058 35.8055 -3.00476 36.586 17.6381C36.586 26.2321 29.5941 33.2239 21 33.2239Z" fill="#212B36"/>
<path fill-rule="evenodd" clip-rule="evenodd" d="M6.23447 27.646H35.7657V41.5913H6.23447V27.646Z" fill="#4EB529"/>
<path d="M12.7972 37.0796H12.3871V31.3374C12.3871 30.8844 12.0197 30.5171 11.5667 30.5171H10.3364C9.24911 30.5574 9.24993 32.1177 10.3364 32.1577H10.7464V37.0796H10.3363C9.24903 37.1199 9.24985 38.6802 10.3363 38.7202H12.7972C13.8845 38.6799 13.8836 37.1196 12.7972 37.0796Z" fill="#FAFFF3"/>
<path d="M16.8988 30.5171C15.5418 30.5171 14.4378 31.6211 14.4378 32.978V36.2592C14.5619 39.5203 19.2367 39.5178 19.3597 36.2592V32.978C19.3597 31.6211 18.2557 30.5171 16.8988 30.5171ZM17.7191 36.2592C17.6776 37.3462 16.1195 37.3454 16.0784 36.2592V32.978C16.1199 31.891 17.6781 31.8919 17.7191 32.978V36.2592Z" fill="#FAFFF3"/>
<path d="M23.0511 30.5171C21.6941 30.5171 20.5901 31.6211 20.5901 32.978V36.2592C20.7143 39.5203 25.3891 39.5178 25.512 36.2592V32.978C25.512 31.6211 24.408 30.5171 23.0511 30.5171ZM23.8714 36.2592C23.83 37.3462 22.2718 37.3454 22.2308 36.2592V32.978C22.2722 31.891 23.8304 31.8919 23.8714 32.978V36.2592Z" fill="#FAFFF3"/>
<path d="M32.066 30.6226C31.6712 30.4005 31.171 30.5405 30.9489 30.9353L27.2575 37.4978C27.0353 37.8926 27.1754 38.3927 27.5702 38.6149C27.9578 38.8349 28.464 38.7007 28.6873 38.3021L32.3788 31.7397C32.6009 31.3448 32.4608 30.8447 32.066 30.6226Z" fill="#FAFFF3"/>
<path d="M27.9724 30.5171C27.5194 30.5171 27.1523 30.8844 27.1523 31.3374C27.1927 32.4242 28.7532 32.4242 28.7933 31.3374C28.7933 30.8844 28.4259 30.5171 27.973 30.5171H27.9724Z" fill="#FAFFF3"/>
<path d="M31.6638 37.0796H31.6631C31.2101 37.0796 30.8431 37.4469 30.8431 37.8999C30.8835 38.9867 32.444 38.9867 32.4841 37.8999C32.4841 37.4468 32.1168 37.0796 31.6638 37.0796Z" fill="#FAFFF3"/>
<path d="M29.6133 18.9507V14.0287C29.6133 12.6718 28.5093 11.5679 27.1523 11.5679H23.0508C23.0508 9.30627 21.2108 7.46631 18.9492 7.46631H18.1289C17.6759 7.46631 17.3086 7.83364 17.3086 8.28662V13.2085H14.0273C13.5744 13.2085 13.207 13.5758 13.207 14.0288V22.2319C13.207 22.6848 13.5744 23.0522 14.0273 23.0522H25.5117C27.7734 23.0522 29.6133 21.2122 29.6133 18.9507ZM17.3086 21.4115H14.8477V14.8491H17.3086V21.4115ZM18.9492 9.10693C20.3062 9.10693 21.4102 10.2109 21.4102 11.5679V12.3882C21.4102 12.8412 21.7775 13.2085 22.2305 13.2085H27.1523C27.6047 13.2085 27.9727 13.5764 27.9727 14.0287V18.9507C27.9727 20.3076 26.8687 21.4115 25.5117 21.4115H18.9492V9.10693Z" fill="#4EB529"/>
</g>
<defs>
<clipPath id="clip0_1_7931">
<rect width="42" height="42" fill="white"/>
</clipPath>
</defs>
</svg>
