<svg width="39" height="42" viewBox="0 0 39 42" fill="none" xmlns="http://www.w3.org/2000/svg">
<path d="M35.2165 24.0004V35.274C35.2165 36.6264 34.1437 37.7358 32.7913 37.7358H20.7253L17.6946 40.9998L14.663 37.7358H3.41304C2.06144 37.7358 1 36.6264 1 35.274V24.6653C1 23.3137 2.06144 22.2124 3.41304 22.2124H12.7848" stroke="#4EB529" stroke-width="1.54421" stroke-miterlimit="10" stroke-linecap="round" stroke-linejoin="round"/>
<path d="M29.859 13.6828L36.4311 13.6832C37.3507 13.6832 38.0962 12.9378 38.0962 12.0181V11.975C38.0962 11.0188 37.3278 10.2505 36.38 10.2505H26.8545L27.539 9.2238C28.8664 7.23274 29.4131 4.82222 29.0747 2.4534C28.9775 1.77224 28.4774 1.21778 27.8099 1.05093C26.9031 0.824251 25.9843 1.37554 25.7576 2.28231C25.1506 4.71039 23.4532 6.72039 21.161 7.72543L18.5327 8.87774" stroke="#4EB529" stroke-width="1.54421" stroke-miterlimit="10" stroke-linecap="round" stroke-linejoin="round"/>
<path d="M29.8584 13.6831H36.3795C37.3273 13.6831 38.0956 14.4514 38.0956 15.3992C38.0956 16.347 37.3274 17.1153 36.3795 17.1153H29.8584" stroke="#4EB529" stroke-width="1.54421" stroke-miterlimit="10" stroke-linecap="round" stroke-linejoin="round"/>
<path d="M29.8584 17.1152H36.3795C37.3273 17.1152 38.0956 17.8835 38.0956 18.8313C38.0956 19.7791 37.3274 20.5475 36.3795 20.5475H30.5448" stroke="#4EB529" stroke-width="1.54421" stroke-miterlimit="10" stroke-linecap="round" stroke-linejoin="round"/>
<path d="M29.8589 20.5474H35.0072C35.9549 20.5474 36.7233 21.3156 36.7233 22.2635C36.7233 23.2112 35.955 23.9796 35.0072 23.9796H29.1725H22.2981C21.2058 23.9796 20.1582 23.5457 19.3858 22.7733L18.5327 21.9203" stroke="#4EB529" stroke-width="1.54421" stroke-miterlimit="10" stroke-linecap="round" stroke-linejoin="round"/>
<path d="M20.5154 30.8026C20.7499 29.4709 19.8604 28.2013 18.5288 27.9669C17.1971 27.7324 15.9275 28.6219 15.6931 29.9536C15.4586 31.2852 16.3481 32.5548 17.6797 32.7893C19.0114 33.0237 20.281 32.1342 20.5154 30.8026Z" fill="#FF7C08"/>
<path d="M30.2774 30.9438C30.5881 29.628 29.7733 28.3094 28.4574 27.9987C27.1416 27.688 25.823 28.5028 25.5123 29.8186C25.2016 31.1345 26.0164 32.453 27.3322 32.7638C28.6481 33.0745 29.9667 32.2596 30.2774 30.9438Z" fill="#FF7C08"/>
<path d="M10.69 30.95C11.0047 29.6351 10.194 28.314 8.87908 27.9992C7.56419 27.6844 6.24309 28.4952 5.92833 29.8101C5.61356 31.125 6.42433 32.4461 7.73922 32.7608C9.05412 33.0756 10.3752 32.2648 10.69 30.95Z" fill="#FF7C08"/>
<path d="M19.3453 25.4787H11.9854V6.00586H19.3453V25.4787Z" fill="#FF7C08"/>
</svg>
