<svg width="38" height="38" viewBox="0 0 38 38" fill="none" xmlns="http://www.w3.org/2000/svg">
<g clip-path="url(#clip0_1_7949)">
<path d="M32.6111 13.6755C31.8203 14.0034 31.0918 14.9012 30.1824 14.9012C29.273 14.9012 28.5299 14.0035 27.7391 13.6755C27.5655 13.6035 27.3867 13.5518 27.1641 13.509V21.6082L30.1699 18.6273L33.1758 21.6082V13.509C32.9531 13.5518 32.7847 13.6035 32.6111 13.6755Z" fill="#6EB356"/>
<path d="M20.8631 25.3343L27.998 25.3347C28.9964 25.3348 29.8058 24.5255 29.8058 23.5271V23.4804C29.8058 22.4423 28.9716 21.6082 27.9426 21.6082H17.6014L18.3446 20.4935C19.7856 18.332 20.3792 15.7151 20.0118 13.1433C19.9062 12.4038 19.3633 11.802 18.6387 11.6207C17.6543 11.3746 16.6568 11.9731 16.4107 12.9576C15.7517 15.5936 13.9089 17.7757 11.4204 18.8667L8.56717 20.1177" stroke="#4EB529" stroke-width="1.48438" stroke-miterlimit="10" stroke-linecap="round" stroke-linejoin="round"/>
<path d="M20.8631 25.3342H27.9426C28.9715 25.3342 29.8057 26.1684 29.8057 27.1973C29.8057 28.2262 28.9715 29.0603 27.9426 29.0603H20.8631" stroke="#4EB529" stroke-width="1.48438" stroke-miterlimit="10" stroke-linecap="round" stroke-linejoin="round"/>
<path d="M20.8631 29.0603H27.9426C28.9715 29.0603 29.8057 29.8944 29.8057 30.9233C29.8057 31.9522 28.9715 32.7864 27.9426 32.7864H21.6083" stroke="#4EB529" stroke-width="1.48438" stroke-miterlimit="10" stroke-linecap="round" stroke-linejoin="round"/>
<path d="M20.863 32.7864H26.4521C27.481 32.7864 28.3152 33.6205 28.3152 34.6494C28.3152 35.6784 27.481 36.5125 26.4521 36.5125H20.1178H12.6547C11.4688 36.5125 10.3315 36.0414 9.49294 35.2029L8.56691 34.2768" stroke="#4EB529" stroke-width="1.48438" stroke-miterlimit="10" stroke-linecap="round" stroke-linejoin="round"/>
<path d="M27.5435 8.08535L29.1243 9.66621L32.813 5.97754" stroke="#4EB529" stroke-width="1.48438" stroke-miterlimit="10" stroke-linecap="round" stroke-linejoin="round"/>
<path d="M37.2578 7.82177C37.2578 8.73117 36.3601 9.45554 36.0321 10.2463C35.6922 11.0661 35.802 12.21 35.1842 12.8278C34.5664 13.4456 33.4225 13.3358 32.6027 13.6757C31.8119 14.0036 31.0876 14.9014 30.1781 14.9014C29.2687 14.9014 28.5444 14.0037 27.7536 13.6757C26.9338 13.3358 25.7899 13.4456 25.1721 12.8278C24.5543 12.21 24.6641 11.0661 24.3242 10.2464C23.9963 9.45562 23.0985 8.73124 23.0985 7.82184C23.0985 6.91244 23.9963 6.18806 24.3242 5.39726C24.6641 4.57752 24.5543 3.43358 25.1721 2.81579C25.7899 2.19799 26.9337 2.30783 27.7535 1.96791C28.5444 1.64001 29.2688 0.742188 30.1782 0.742188C31.0876 0.742188 31.812 1.64001 32.6028 1.96791C33.4225 2.30783 34.5665 2.19799 35.1843 2.81579C35.8021 3.43358 35.6922 4.57752 36.0322 5.39719C36.3601 6.18799 37.2578 6.91236 37.2578 7.82177Z" stroke="#4EB529" stroke-width="1.48438" stroke-miterlimit="10" stroke-linecap="round" stroke-linejoin="round"/>
<path d="M9.30918 37.9999H0V17.1399H9.30918V37.9999Z" fill="#6EB356"/>
</g>
<defs>
<clipPath id="clip0_1_7949">
<rect width="38" height="38" fill="white"/>
</clipPath>
</defs>
</svg>
