<svg width="48" height="48" viewBox="0 0 48 48" fill="none" xmlns="http://www.w3.org/2000/svg">
<path d="M28.2967 19.4787L27.0568 20.3522V19.5117V18.5825C27.0568 17.0184 25.7898 15.7503 24.2256 15.7503H9.01046C8.504 14.4318 8.2467 13.0418 8.2467 11.6125C8.2467 8.49219 9.47018 5.56673 11.6914 3.37591C13.9136 1.18418 16.8556 0.00401961 19.9778 0.0445912C26.3481 0.1322 31.4645 5.38967 31.3824 11.7628C31.3456 14.6259 30.2329 17.3879 28.2967 19.4787Z" fill="#FF7C08" stroke="#4EB529" stroke-width="0.0871579"/>
<path d="M4.75061 33.4071V21.4135H23.2492V33.4071H4.75061Z" fill="#FF7C08" stroke="#4EB529" stroke-width="0.0871579"/>
<path d="M39.4596 23.2285H30.7383V30.6628H45.7499" stroke="#4EB529" stroke-width="1.74316" stroke-miterlimit="10" stroke-linecap="round" stroke-linejoin="round"/>
<path d="M30.7383 34.3799H32.5968" stroke="#4EB529" stroke-width="1.74316" stroke-miterlimit="10" stroke-linecap="round" stroke-linejoin="round"/>
<path d="M27.0234 41.8143H33.6455" stroke="#4EB529" stroke-width="1.74316" stroke-miterlimit="10" stroke-linecap="round" stroke-linejoin="round"/>
<path d="M40.8455 41.8143H43.7505C45.2902 41.8143 46.5384 40.5661 46.5384 39.0265V32.6134C46.5384 31.954 46.3047 31.3159 45.8787 30.8127L37.1515 20.4986C36.6218 19.8726 35.8433 19.5115 35.0233 19.5115H27.0234" stroke="#4EB529" stroke-width="1.74316" stroke-miterlimit="10" stroke-linecap="round" stroke-linejoin="round"/>
<path d="M40.8587 43.6016C41.3305 41.6037 40.0933 39.6016 38.0954 39.1299C36.0975 38.6581 34.0955 39.8953 33.6237 41.8932C33.152 43.8911 34.3891 45.8931 36.387 46.3649C38.3849 46.8366 40.387 45.5995 40.8587 43.6016Z" stroke="#4EB529" stroke-width="1.74316" stroke-miterlimit="10" stroke-linecap="round" stroke-linejoin="round"/>
<path d="M19.8203 11.6124V8.35986" stroke="#4EB529" stroke-width="1.74316" stroke-miterlimit="10" stroke-linecap="round" stroke-linejoin="round"/>
<path d="M22.1435 11.6124H19.8203" stroke="#4EB529" stroke-width="1.74316" stroke-miterlimit="10" stroke-linecap="round" stroke-linejoin="round"/>
<path d="M19.8263 4.6427H19.8164" stroke="#4EB529" stroke-width="1.74316" stroke-miterlimit="10" stroke-linecap="round" stroke-linejoin="round"/>
<path d="M14.895 6.68066L14.8867 6.6889" stroke="#4EB529" stroke-width="1.74316" stroke-miterlimit="10" stroke-linecap="round" stroke-linejoin="round"/>
<path d="M12.8516 11.6074V11.6173" stroke="#4EB529" stroke-width="1.74316" stroke-miterlimit="10" stroke-linecap="round" stroke-linejoin="round"/>
<path d="M26.793 11.6173V11.6074" stroke="#4EB529" stroke-width="1.74316" stroke-miterlimit="10" stroke-linecap="round" stroke-linejoin="round"/>
<path d="M24.7543 6.6889L24.7461 6.68066" stroke="#4EB529" stroke-width="1.74316" stroke-miterlimit="10" stroke-linecap="round" stroke-linejoin="round"/>
<path d="M12.9203 45.3716C14.3719 43.92 14.3719 41.5665 12.9203 40.1148C11.4687 38.6632 9.11515 38.6632 7.66353 40.1148C6.21192 41.5665 6.21192 43.92 7.66353 45.3716C9.11515 46.8232 11.4687 46.8232 12.9203 45.3716Z" stroke="#4EB529" stroke-width="1.74316" stroke-miterlimit="10" stroke-linecap="round" stroke-linejoin="round"/>
<path d="M13.893 41.8143H27.0201V18.5821C27.0201 17.0425 25.772 15.7943 24.2322 15.7943H3.78791C2.24823 15.7942 1 17.0424 1 18.582V39.0264C1 40.566 2.24814 41.8142 3.78782 41.8142H6.69281" stroke="#4EB529" stroke-width="1.74316" stroke-miterlimit="10" stroke-linecap="round" stroke-linejoin="round"/>
</svg>
