<svg width="140" height="7" viewBox="0 0 140 7" fill="none" xmlns="http://www.w3.org/2000/svg">
<path d="M129.461 3.56034C132.852 4.0956 136.213 5.07087 139.484 6.45218L139.484 6.45589C136.159 6.89627 132.799 6.95459 129.44 6.67077C127.979 6.54722 126.523 6.34105 125.067 6.11805C124.045 5.96196 123.024 5.79276 122.001 5.62926C121.403 5.53354 120.805 5.41914 120.206 5.34037C118.535 5.14168 116.864 4.93358 115.193 4.73106C114.116 4.60038 113.04 4.45461 111.961 4.35769C110.003 4.18015 108.044 4.00459 106.086 3.82705C104.652 3.69742 103.22 3.58078 101.787 3.43803C101.472 3.40738 101.157 3.39739 100.843 3.37614C100.011 3.32132 99.1789 3.26835 98.3471 3.21353C96.1445 3.07034 93.9421 2.92901 91.7407 2.78384C90.5141 2.7035 89.2883 2.61563 88.0625 2.54457C86.9764 2.48193 85.8911 2.46036 84.8052 2.41639C81.0275 2.26615 77.2521 2.12692 73.4754 1.97099C72.7413 1.94131 72.0063 1.95098 71.2716 1.94753C69.1947 1.93362 67.1177 1.9197 65.0407 1.90393C62.6867 1.88605 60.332 1.87572 57.9777 1.85412C57.2322 1.89274 56.4839 1.89982 55.7384 1.92162C54.0336 1.97257 52.3289 2.02537 50.6227 2.07645C48.0888 2.15458 45.5531 2.24596 43.0178 2.3074C41.9006 2.36897 40.7851 2.45095 39.6688 2.52366C37.4749 2.66385 35.2796 2.80415 33.0858 2.9462C31.8643 3.02431 30.6423 3.11368 29.4199 3.18252C29.0509 3.20338 28.6821 3.24291 28.3124 3.27316C27.3818 3.34843 26.4527 3.42543 25.5223 3.50255C22.5508 3.74582 19.579 3.98539 16.6067 4.23621C15.5181 4.32708 14.4317 4.42709 13.341 4.47702C12.3555 4.52153 11.369 4.53809 10.3816 4.5267C9.11 4.51197 7.83739 4.46928 6.56538 4.36672C5.73686 4.30039 4.90768 4.20982 4.082 4.09278C3.48816 4.02662 2.89558 3.94166 2.30236 3.8661C1.76651 3.80051 1.2305 3.74989 0.697418 3.74949C0.635599 3.75486 0.573779 3.76023 0.512122 3.76746C0.453984 3.78186 0.397284 3.79613 0.339146 3.81053C0.292846 3.84446 0.245269 3.88037 0.198968 3.91431C0.191001 3.9393 0.182872 3.96244 0.174904 3.98743C0.175065 3.98928 0.173466 3.98755 0.173466 3.98755C0.170242 3.95045 0.168616 3.91507 0.171626 3.88303C0.179231 3.80386 0.209852 3.73952 0.276253 3.67019C0.457102 3.48437 0.404742 3.53191 0.605745 3.37799C0.704889 3.30208 0.885335 3.21162 0.992003 3.15562C1.45572 2.90783 1.93322 2.71866 2.41841 2.55126C3.30878 2.24583 4.22718 2.04639 5.14048 1.85486C6.58614 1.55539 8.04242 1.34471 9.50448 1.18401C11.3913 0.977047 13.286 0.877816 15.1864 0.877164C16.2495 0.876369 17.3122 0.886831 18.3737 0.867484C25.0063 0.74907 31.6394 0.619399 38.2714 0.478597C40.6165 0.428083 42.9616 0.37757 45.3085 0.364286C49.2567 0.342693 53.2048 0.319245 57.1525 0.292086C57.7793 0.28808 58.4043 0.295457 59.031 0.306419C60.9361 0.342747 62.8394 0.37549 64.7444 0.411819C66.8482 0.451439 68.9518 0.489204 71.0556 0.528825C71.8304 0.543741 72.6041 0.54567 73.3787 0.575554C79.4116 0.806475 85.4431 1.02255 91.4766 1.32818C98.2492 1.67053 105.021 2.01672 111.793 2.37032C114.591 2.51597 117.39 2.65221 120.188 2.78289C121.794 2.85832 123.401 2.96355 125.006 3.05209" fill="#FF7C08"/>
</svg>
