<svg width="94" height="68" viewBox="0 0 94 68" fill="none" xmlns="http://www.w3.org/2000/svg">
<g clip-path="url(#clip0_419_13255)">
<path d="M51.7528 24.4037C53.6891 21.972 54.9213 18.8456 54.9213 15.3718C54.9213 7.29515 48.3202 0.781738 40.1348 0.781738C33.6217 0.781738 28.0767 4.95032 26.1404 10.769C23.588 8.42414 20.0674 6.94777 16.1947 6.94777C8.00933 6.94777 1.4082 13.4612 1.4082 21.5378C1.4082 27.0091 4.40071 31.6987 8.88948 34.2172C7.65727 36.3015 6.95315 38.7332 6.95315 41.4254C6.95315 49.502 13.5543 56.0154 21.7397 56.0154C27.5487 56.0154 32.4775 52.7153 34.9419 48.0257C37.5824 50.4573 41.103 52.0206 45.0636 52.0206C53.249 52.0206 59.8502 45.5072 59.8502 37.4305C59.6741 31.6987 56.4176 26.8354 51.7528 24.4037ZM44.9756 48.2862C42.1591 48.2862 39.4307 47.2441 37.4063 45.3335L33.8857 42.0333L31.6854 46.3756C29.749 50.11 25.9644 52.4548 21.7397 52.4548C15.5786 52.4548 10.6498 47.5046 10.6498 41.5123C10.6498 39.6017 11.1779 37.6911 12.146 36.041L13.9943 32.9146L10.7378 31.004C7.21719 29.0934 5.10483 25.359 5.10483 21.451C5.10483 15.3718 10.1217 10.5084 16.1947 10.5084C19.0112 10.5084 21.6516 11.5506 23.676 13.4612L27.8127 17.1955L29.573 11.898C31.0693 7.38199 35.294 4.42925 40.1348 4.42925C46.2958 4.42925 51.2247 9.37944 51.2247 15.3718C51.2247 17.8903 50.3445 20.2351 48.8483 22.1457L46.1198 25.6195L50.0805 27.617C53.7771 29.5276 56.0655 33.2619 56.0655 37.3437C56.0655 43.4229 51.0487 48.2862 44.9756 48.2862Z" fill="#FF5601"/>
<path d="M35.03 47.852C38.1105 50.7179 42.4233 52.1074 46.56 51.6732C50.6967 51.239 54.6574 48.981 57.0338 45.594C59.4982 42.207 60.2903 37.8648 59.3221 33.8699C58.266 29.9618 55.4495 26.4012 51.7529 24.5774L51.6648 24.4906L51.7529 24.3169C54.3933 21.0167 55.5375 16.5876 54.6574 12.419C53.7772 8.33731 51.0487 4.6898 47.2641 2.69235C43.5675 0.608061 38.9027 0.347524 34.942 1.91074C30.8933 3.47396 27.7248 6.77409 26.4045 10.769H26.2285C27.3727 6.68724 30.5412 3.03973 34.5899 1.21598C38.7266 -0.52093 43.6555 -0.347239 47.7922 1.65021C51.9289 3.64765 54.9214 7.72939 55.8896 12.1585C56.8577 16.5876 55.7135 21.5378 52.809 25.1853L52.457 23.2747C56.5057 25.359 59.4982 29.2671 60.5544 33.6093C61.6105 37.9516 60.7304 42.815 57.9139 46.2888C55.2735 49.8494 51.0487 52.1943 46.648 52.4548C42.2472 52.7153 37.8465 50.9784 34.942 48.0257L35.03 47.852Z" fill="#E02401"/>
<path d="M26.2285 10.8558C23.236 8.07673 19.0112 6.6872 14.8745 7.12143C10.7378 7.46881 6.86517 9.72679 4.48876 13.0269C2.02434 16.2402 1.14419 20.4956 2.02434 24.4905C2.90449 28.4854 5.54494 31.9592 9.15356 33.9567L9.32959 34.0435L9.24157 34.2172C7.21723 37.5173 6.68914 41.5991 7.74532 45.3334C8.8015 49.0678 11.4419 52.2811 14.8745 54.1048C18.3071 55.9286 22.4438 56.3628 26.2285 55.2338C29.9251 54.018 33.1816 51.3258 34.9419 47.9388L35.118 48.0256C33.6217 51.6732 30.3652 54.7127 26.4925 56.1023C22.5318 57.4918 18.0431 57.2313 14.1704 55.3207C10.2978 53.4969 7.30524 49.8494 6.16105 45.7677C4.92884 41.5991 5.45693 37.0831 7.6573 33.2619L8.18539 35.6067C4.1367 33.3488 1.23221 29.3539 0.35206 24.8379C0.088015 23.7958 0 22.4931 0 21.5378C0 20.3219 0.17603 19.2798 0.35206 18.1508C0.88015 15.9797 1.84831 13.8085 3.25655 12.0716C6.07303 8.51096 10.3858 6.33982 14.7865 6.07928C19.1873 5.90559 23.588 7.6425 26.4045 10.6821L26.2285 10.8558Z" fill="#FF692B"/>
<path d="M21.8276 52.5416C19.5393 52.5416 17.2509 51.8468 15.4025 50.631C13.4662 49.4151 11.97 47.5914 11.0018 45.4202C10.0336 43.2491 9.8576 40.9043 10.2977 38.4726C10.4737 37.3436 11.0018 36.2146 11.5299 35.1725L13.1142 32.2197L13.5542 33.783L10.9138 32.4803L10.2097 32.1329L9.59356 31.6987C9.06547 31.4381 8.62539 31.0907 8.18532 30.7434C6.51303 29.3538 5.19281 27.5301 4.48869 25.5326C2.99243 21.4509 4.04861 16.5876 7.04112 13.4611C9.94562 10.3347 14.6104 8.94515 18.6591 9.9873C20.6834 10.5084 22.5318 11.4637 24.028 12.8532L28.2527 16.8481L27.5486 17.0218L29.4849 11.29C30.1891 9.29253 31.5093 7.55563 33.1816 6.1661C36.5261 3.38704 41.455 2.69228 45.5037 4.51603C49.6404 6.25294 52.6329 10.4215 52.8089 15.0243C52.9849 17.2823 52.3688 19.5403 51.2246 21.5377C50.9606 22.0588 50.6085 22.493 50.2565 22.9273L49.2883 24.1431L47.44 26.5748L46.9119 24.23L49.5524 25.5326C50.4325 25.9669 51.2246 26.3142 52.3688 27.009C54.2172 28.3117 55.7134 30.0486 56.6816 32.1329C57.6497 34.1303 58.0018 36.4752 57.7378 38.6463C57.4737 40.8174 56.5936 42.9886 55.2733 44.8123C52.6329 48.373 47.7921 50.2836 43.4793 49.502C41.279 49.1546 39.2546 48.1125 37.6703 46.8098C36.7902 46.0282 36.1741 45.3334 35.47 44.6386L33.4456 42.5544L34.5898 42.3807L32.3894 46.0282C31.7733 47.244 30.8052 48.5467 29.749 49.502C27.6366 51.4126 24.7321 52.5416 21.8276 52.5416ZM21.8276 52.1942C23.2359 52.1942 24.6441 51.9337 25.9643 51.3257C27.2846 50.8047 28.4288 49.9362 29.3969 48.9809C30.3651 48.0256 31.0692 46.8098 31.5973 45.5071L33.3576 41.599L33.7097 40.8174L34.5018 41.4254L36.7022 43.4228C37.4063 44.0307 38.1984 44.7255 38.9025 45.1597C40.3988 46.2019 42.0711 46.7229 43.8314 46.8966C45.5917 47.0703 47.264 46.7229 48.8482 46.0282C50.3445 45.3334 51.7527 44.2044 52.7209 42.9017C54.7452 40.2095 55.0093 36.4752 53.6891 33.4356C52.9849 31.9592 51.9288 30.6565 50.5205 29.6144C49.9924 29.1801 49.0243 28.7459 48.1441 28.2248L45.5037 26.9222L43.8314 26.0537L44.9756 24.6642L46.9119 22.3194L47.8801 21.1904C48.1441 20.843 48.4082 20.4956 48.6722 20.0614C49.5524 18.585 50.0805 16.8481 50.0805 15.0243C50.0805 11.4637 47.8801 7.98985 44.6235 6.33979C41.367 4.60288 36.9662 4.95026 33.8857 7.20824C32.3014 8.33723 31.0692 9.90045 30.3651 11.6374C29.749 13.548 29.0449 15.4586 28.4288 17.3692L28.2527 18.0639L27.6366 17.5429C26.2284 16.2402 24.7321 14.9375 23.3239 13.7217C21.9157 12.5058 20.1554 11.7242 18.3951 11.4637C14.7864 10.8558 11.0018 12.3321 8.80142 15.0243C6.60105 17.7165 5.98494 21.4509 7.12914 24.5773C7.74524 26.1406 8.62539 27.6169 9.94562 28.7459C10.2977 29.0065 10.6497 29.267 10.9138 29.5275L11.5299 29.8749L12.146 30.2223L14.6104 31.6987L15.6666 32.3066L15.0505 33.3487L13.2022 36.1278C12.5861 36.9962 12.146 37.8647 11.7939 38.9068C11.1778 40.8174 11.1778 43.0754 11.7939 45.0729C12.41 47.0703 13.7303 48.9809 15.5786 50.1968C17.3389 51.4994 19.6273 52.1942 21.8276 52.1942Z" fill="#DE3B01"/>
<path d="M90.3031 34.825C87.2226 30.5695 81.8536 28.9195 77.1008 30.3958C77.4529 27.5299 76.8368 24.5772 75.0765 22.0587C71.2038 16.7611 63.8106 15.5453 58.4417 19.2796C54.833 21.7981 53.0727 25.9667 53.5128 30.0485C51.4885 30.2221 49.4641 30.9169 47.7038 32.1327C42.3349 35.8671 41.1027 43.249 44.8873 48.5465C47.6158 52.2809 52.1046 54.0178 56.4173 53.323C55.9772 56.1889 56.5933 59.1417 58.4417 61.6602C62.2263 66.9578 69.6196 68.1736 74.9885 64.4393C78.7731 61.8339 80.4454 57.4916 79.9173 53.2362C82.4697 53.4099 85.1982 52.7151 87.3986 51.0651C92.7675 47.4176 94.0877 40.1225 90.3031 34.825ZM85.7263 48.8071C84.054 49.9361 82.1177 50.544 80.0933 50.3703L76.4847 50.1966L77.0128 53.6704C77.4529 56.9706 76.0447 60.1838 73.3162 62.0944C69.2675 64.9603 63.7226 64.005 60.8181 60.0101C59.4978 58.1864 58.9697 55.9284 59.3218 53.6704L59.8499 49.8492L55.9772 50.4571C52.5447 50.9782 49.2881 49.5887 47.2638 46.8096C44.4473 42.8147 45.4154 37.3435 49.4641 34.4776C50.6963 33.6091 52.2806 33.0012 53.8649 32.9144L56.7694 32.6538L56.4173 29.7879C56.1533 26.5746 57.5615 23.4482 60.202 21.6244C64.2506 18.8454 69.7956 19.7138 72.7001 23.7087C73.9323 25.5325 74.4604 27.7905 74.1963 29.9616L73.5802 34.4776L77.981 33.1749C81.6776 32.0459 85.6383 33.3486 87.8387 36.475C90.7431 40.4699 89.775 45.9412 85.7263 48.8071Z" fill="#F9B212"/>
<path d="M56.5934 53.3232C56.1533 56.6233 57.2095 60.0103 59.4099 62.5288C61.6102 65.0473 64.9548 66.5237 68.2994 66.5237C71.6439 66.5237 74.9005 65.0473 77.1009 62.5288C79.3013 60.0103 80.3574 56.6233 79.8293 53.3232V53.0626H80.0934C83.526 53.2363 86.9586 51.9336 89.2469 49.4151C91.6234 46.9835 92.7675 43.5096 92.3275 40.1227C91.9754 36.7357 89.9511 33.6093 87.1346 31.7855C84.2301 29.9617 80.5335 29.4407 77.2769 30.4828L77.1889 30.2223C80.4454 28.8328 84.4061 29.1801 87.6627 31.0039C90.9192 32.8276 93.2076 36.2146 93.8237 40.0358C94.5278 43.7702 93.1196 47.8519 90.4792 50.7178C87.8387 53.5837 83.878 55.2338 79.9174 55.0601L81.6777 53.1495C82.2057 56.797 80.9735 60.7919 78.4211 63.5709C75.9567 66.35 72.084 68.1738 68.2994 67.9132C64.5147 67.8264 60.9061 66.0026 58.6177 63.1367C56.4174 60.3577 55.5372 56.5365 56.4174 53.2363L56.5934 53.3232Z" fill="#EF9506"/>
<path d="M77.1888 30.3092C77.6289 27.0959 76.5727 23.709 74.3723 21.1904C72.1719 18.7588 68.9154 17.2824 65.6588 17.2824C62.3142 17.1955 59.0577 18.6719 56.8573 21.0167C54.5689 23.4484 53.5127 26.7485 53.8648 30.0487V30.2224H53.6888C50.5202 30.4829 47.5277 32.0461 45.5914 34.3909C43.5671 36.8226 42.6869 39.9491 43.039 43.0755C43.391 46.1151 45.0633 49.0678 47.6157 50.8916C50.0802 52.8022 53.4247 53.5838 56.5053 53.1496V53.3233C53.3367 54.1917 49.8161 53.4969 46.9996 51.6732C44.1832 49.7626 42.1588 46.723 41.6307 43.2492C41.0146 39.7754 42.0708 36.1279 44.2712 33.3488C46.4716 30.4829 49.9041 28.746 53.5127 28.3118L51.9285 30.2224C51.5764 26.488 52.8966 22.58 55.5371 19.8878C56.1532 19.193 57.0333 18.4982 57.6495 18.064C58.5296 17.4561 59.3217 17.0219 60.2019 16.6745C61.9622 15.9797 63.8105 15.6323 65.6588 15.7192C69.3554 15.8929 72.9641 17.7166 75.1644 20.4957C77.2768 23.3616 78.1569 27.0959 77.3648 30.3961L77.1888 30.3092Z" fill="#F9D912"/>
<path d="M47.2641 46.897C46.2079 45.4206 45.5918 43.5969 45.5918 41.7731C45.5918 39.9494 46.1199 38.1256 47.1761 36.6492C48.2322 35.086 49.7285 33.957 51.4888 33.2623C53.2491 32.5675 55.0974 32.6544 56.8577 32.3938L56.6817 32.6544L56.4176 30.3964C56.3296 29.6148 56.2416 28.8331 56.3296 27.9647C56.5057 26.4015 57.0337 24.8383 58.0019 23.5356C59.8502 20.9302 63.1948 19.4538 66.3633 19.8012C69.6199 20.0618 72.6124 22.2329 73.9326 25.1856C74.5487 26.662 74.8128 28.3121 74.6367 29.8753L74.0206 34.4781L73.6686 34.1307L78.3334 32.7412C80.0057 32.307 81.766 32.307 83.3502 32.828C86.6068 33.7833 89.2472 36.6492 89.7753 39.9494C90.3914 43.2495 88.9832 46.8102 86.2547 48.8076C84.9345 49.8498 83.2622 50.4577 81.5899 50.6314C80.7098 50.7182 79.9176 50.6314 79.1255 50.6314L76.6611 50.4577L76.9251 50.1971C77.1012 51.6735 77.3652 53.2367 77.4532 54.7999C77.4532 56.45 77.0131 58.0132 76.221 59.4028C74.6367 62.2687 71.3802 64.0056 68.1236 63.9187C64.8671 63.9187 61.6985 62.0081 60.2023 59.1422C59.4102 57.6658 59.0581 56.1026 59.1461 54.4526C59.3221 52.8893 59.5862 51.3261 59.7622 49.7629L59.9382 49.9366L56.5937 50.5445C55.4495 50.7182 54.2173 50.8051 53.0731 50.5445C50.7847 50.1103 48.6723 48.8076 47.2641 46.897ZM47.5281 46.7233C48.8484 48.5471 50.8727 49.7629 53.0731 50.1971C54.3053 50.3708 55.3615 50.284 56.5057 50.1103L59.9382 49.5024L60.3783 49.4155L60.2903 49.9366C60.2023 51.413 59.9382 53.063 59.8502 54.5394C59.8502 56.0158 60.2903 57.4922 60.9944 58.708C62.4907 61.2265 65.3952 62.616 68.1236 62.5292C70.8521 62.4423 73.4045 60.7923 74.5487 58.5343C75.0768 57.3185 75.3409 56.1026 75.2528 54.8868C75.2528 54.4526 75.0768 53.5841 74.9008 52.8025L74.4607 50.4577L73.9326 47.9392H76.7491H79.2135H80.4457C80.7098 47.9392 81.0618 47.9392 81.3259 47.8523C82.4701 47.7655 83.6143 47.3312 84.4944 46.5496C86.2547 45.0733 87.2229 42.7284 86.7828 40.4704C86.3427 38.2993 84.6705 36.3887 82.4701 35.7808C81.4139 35.3466 80.2697 35.3466 79.1255 35.6071L78.8615 35.6939C79.0375 35.6071 78.9495 35.6939 78.9495 35.6939H78.8615H78.6854L78.0693 35.8676L76.8371 36.215L74.4607 36.8229L70.5881 37.8651L71.2042 34.1307L71.9963 29.5279C72.1723 28.3989 72.0843 27.2699 71.6442 26.1409C70.8521 23.883 68.7397 22.0592 66.1873 21.7118C63.6349 21.1907 60.8184 22.2329 59.1461 24.404C58.266 25.4462 57.7379 26.7489 57.4738 28.1384C57.3858 28.8331 57.3858 29.4411 57.3858 30.3095L57.4738 32.6544V33.3491H56.8577C55.9776 33.3491 55.0094 33.436 54.1293 33.436C53.3371 33.436 52.545 33.6097 51.6648 33.8702C50.0806 34.3913 48.5843 35.5203 47.5281 36.9098C46.56 38.2993 46.0319 40.0362 46.0319 41.7731C46.0319 43.51 46.56 45.2469 47.5281 46.7233Z" fill="#E29700"/>
</g>
<defs>
<clipPath id="clip0_419_13255">
<rect width="94" height="68" fill="white"/>
</clipPath>
</defs>
</svg>
