<svg width="76" height="57" viewBox="0 0 76 57" fill="none" xmlns="http://www.w3.org/2000/svg">
<path d="M56.7575 34.6083C67.2436 21.9774 68.8457 8.20264 66.8169 5.63984C65.4396 3.97296 45.168 -1.07553 22.615 21.2978C12.9421 30.8579 7.3419 50.2082 9.09414 52.0984C13.6249 56.998 42.2957 52.0664 56.7575 34.6083Z" fill="url(#paint0_linear_419_13551)"/>
<g opacity="0.4">
<g opacity="0.9">
<path d="M57.2111 12.528C57.2111 12.528 56.7871 12.5294 55.9389 12.5321C55.5149 12.5335 55.0908 12.5348 54.5671 12.5615C54.0433 12.5881 53.4198 12.64 52.6714 12.6175C49.8532 12.8011 46.163 13.3119 42.3998 14.3717C41.5025 14.5991 40.5055 14.8518 39.6335 15.1788C38.7362 15.4062 37.7645 15.7586 36.8924 16.0857C36.0204 16.4128 35.1484 16.7399 34.3761 17.0417C33.6038 17.3435 32.8314 17.6453 32.1841 18.0216C31.5115 18.2982 30.8641 18.6744 30.3909 18.9004C29.8179 19.1517 29.37 19.4775 28.9965 19.6782C28.2494 20.0797 27.8014 20.4055 27.8014 20.4055C27.8014 20.4055 28.2494 20.0797 28.9712 19.5785C29.3194 19.2781 29.7927 19.052 30.3403 18.701C30.888 18.35 31.5353 17.9738 32.208 17.6972C32.8301 17.2213 33.6024 16.9195 34.3494 16.5179C35.0965 16.1164 35.9685 15.7893 36.8405 15.4622C37.7126 15.1351 38.5846 14.808 39.5816 14.5554C40.5533 14.203 41.4506 13.9756 42.4476 13.723C43.3448 13.4956 44.3418 13.2429 45.2644 13.1152C46.1869 12.9875 47.0842 12.7601 48.0068 12.6325C49.7522 12.4023 51.4231 12.2972 52.795 12.2678C53.4437 12.3156 54.0672 12.2637 54.6162 12.3368C55.1652 12.4099 55.689 12.3832 56.0134 12.4071C56.7618 12.4297 57.2111 12.528 57.2111 12.528Z" fill="url(#paint1_linear_419_13551)"/>
<path d="M43.8272 22.9217C43.8272 22.9217 43.5028 22.8978 42.9538 22.8247C42.3051 22.7769 41.5567 22.7543 40.4839 22.7079C39.9601 22.7345 39.4364 22.7612 38.7876 22.7134C38.1642 22.7653 37.5407 22.8172 36.9173 22.8691C35.6704 22.9729 34.2241 23.1272 32.8283 23.4809C31.4072 23.7349 30.0367 24.1883 28.7406 24.5168C28.0428 24.6936 27.4698 24.9449 26.8969 25.1962C26.324 25.4475 25.7258 25.5991 25.2526 25.8251C24.2064 26.3025 23.3344 26.6296 22.7867 26.9805C22.0144 27.2824 21.7406 27.4579 21.7406 27.4579C21.7406 27.4579 22.1141 27.2571 22.6618 26.9061C23.2094 26.5551 24.0562 26.1283 25.1023 25.651C26.1485 25.1737 27.394 24.6459 28.7645 24.1924C30.1351 23.739 31.5308 23.3853 32.9266 23.0316C34.3477 22.7775 35.794 22.6232 37.1406 22.4942C38.4872 22.3651 39.6849 22.486 40.658 22.5577C41.6311 22.6294 42.4301 22.8513 42.9791 22.9244C43.5028 22.8978 43.8272 22.9217 43.8272 22.9217Z" fill="url(#paint2_linear_419_13551)"/>
<path d="M32.8836 32.9123C32.8836 32.9123 31.8614 33.0653 30.2901 33.1452C29.442 33.1479 28.6191 33.2503 27.6713 33.2783C26.7235 33.3063 25.676 33.3596 24.6537 33.5125C22.5348 33.9434 20.5169 34.7731 18.9231 35.6014C17.4037 36.3048 16.3576 36.7821 16.3576 36.7821C16.3576 36.7821 17.3532 36.1054 18.8473 35.3023C19.5944 34.9008 20.5155 34.3491 21.4873 33.9967C21.9605 33.7707 22.5587 33.6191 23.0319 33.393C23.5304 33.2667 24.1286 33.1151 24.6271 32.9888C25.749 32.8106 26.7965 32.7573 27.7444 32.7293C28.6922 32.7013 29.5656 32.7983 30.4137 32.7955C31.9105 32.8406 32.8836 32.9123 32.8836 32.9123Z" fill="url(#paint3_linear_419_13551)"/>
<path d="M23.1047 41.2231C23.1047 41.2231 22.4321 41.4997 21.4604 41.8521C20.4887 42.2044 19.1182 42.6578 17.8726 43.1857C16.6018 43.6138 15.2566 44.167 14.2596 44.4196C13.2878 44.772 12.59 44.9488 12.59 44.9488C12.59 44.9488 13.2626 44.6723 14.209 44.2202C15.1555 43.7682 16.5007 43.215 17.7463 42.6872C18.4442 42.5103 19.0171 42.259 19.715 42.0822C20.3132 41.9306 20.9114 41.779 21.4099 41.6527C22.4068 41.4 23.1047 41.2231 23.1047 41.2231Z" fill="url(#paint4_linear_419_13551)"/>
<path d="M28.1272 36.3447C28.1272 36.3447 28.1777 36.5441 28.1791 36.9682C28.1805 37.3922 28.2071 37.916 28.1846 38.6644C28.1142 40.0616 27.8458 41.9333 27.2784 43.8808C26.982 44.8047 26.6112 45.8536 26.0902 46.7284C25.5944 47.7028 24.9232 48.4034 24.4513 49.0535C23.3826 50.2793 22.6369 51.1049 22.6369 51.1049C22.6369 51.1049 23.2576 50.2048 24.2014 48.9047C24.6732 48.2546 25.2195 47.4795 25.6409 46.63C26.0622 45.7806 26.4582 44.8314 26.7546 43.9075C27.3473 42.0596 27.7154 40.1626 27.9852 38.7149C28.1327 38.041 28.1805 37.3922 28.2044 37.0679C28.203 36.6438 28.1272 36.3447 28.1272 36.3447Z" fill="url(#paint5_linear_419_13551)"/>
<path d="M37.9318 28.5551C37.9318 28.5551 38.1073 28.8289 38.2336 29.3274C38.3599 29.8259 38.5621 30.6234 38.6153 31.671C38.642 32.1947 38.6686 32.7185 38.5955 33.2675C38.6474 33.891 38.5744 34.44 38.4269 35.114C38.2316 36.4367 38.0362 37.7594 37.5418 39.1579C37.3943 39.8319 37.0474 40.5564 36.8999 41.2304C36.6527 41.9297 36.3803 42.5292 36.0334 43.2537C35.7609 43.8533 35.3888 44.4781 35.1163 45.0777C34.8438 45.6772 34.5461 46.1771 34.2484 46.6769C33.9506 47.1768 33.7526 47.6514 33.4296 48.0515C33.2063 48.4264 32.983 48.8013 32.7344 49.0765C32.337 49.6016 32.1137 49.9765 32.1137 49.9765C32.1137 49.9765 32.337 49.6016 32.6095 49.0021C32.7583 48.7522 32.9816 48.3773 33.2049 48.0024C33.4282 47.6275 33.6263 47.1529 33.924 46.653C34.2709 45.9285 34.5686 45.4287 34.8411 44.8291C35.1136 44.2295 35.386 43.63 35.6585 43.0304C35.931 42.4309 36.1782 41.7316 36.4254 41.0324C36.6726 40.3331 36.9198 39.6339 37.0925 39.0596C37.4872 37.6863 37.7822 36.3384 38.0028 35.1153C38.0506 34.4666 38.2234 33.8923 38.1715 33.2689C38.2445 32.7199 38.2179 32.1961 38.1913 31.6723C38.1633 30.7245 38.1606 29.8764 38.0342 29.3779C38.0076 28.8541 37.9318 28.5551 37.9318 28.5551Z" fill="url(#paint6_linear_419_13551)"/>
<path d="M46.7889 20.793C46.7889 20.793 46.8142 20.8927 46.8395 20.9924C46.8647 21.0921 46.9153 21.2915 46.9911 21.5906C47.1174 22.089 47.2943 22.7869 47.422 23.7095C47.5496 24.632 47.6029 25.6796 47.6814 26.8268C47.76 27.974 47.764 29.2462 47.7681 30.5183C47.7722 31.7905 47.6766 33.088 47.5558 34.2857C47.4349 35.4835 47.1891 36.6068 47.0177 37.6051C46.9193 38.0544 46.821 38.5038 46.7227 38.9531C46.6243 39.4024 46.5007 39.7521 46.3519 40.002C46.0794 40.6015 45.9305 40.8515 45.9305 40.8515C45.9305 40.8515 46.0541 40.5018 46.2269 39.9276C46.3758 39.6776 46.3997 39.3533 46.498 38.9039C46.6216 38.5543 46.6202 38.1302 46.6933 37.5812C46.7916 37.1319 46.8647 36.5829 46.9378 36.0338C47.0108 35.4848 46.9842 34.9611 47.032 34.3123C47.1529 33.1146 47.1488 31.8424 47.17 30.6699C47.2615 28.1003 47.1788 25.6809 47.1229 23.7853C47.0949 22.8375 47.0177 22.1143 46.9911 21.5906C46.9644 21.0668 46.7889 20.793 46.7889 20.793Z" fill="url(#paint7_linear_419_13551)"/>
<path d="M55.2726 14.5034C55.2726 14.5034 55.2726 14.5034 55.4228 14.6775C55.5478 14.752 55.6728 14.8264 55.7485 15.1255C55.8988 15.2996 55.9746 15.5987 56.0504 15.8978C56.1262 16.1969 56.2272 16.5957 56.3283 16.9945C56.4307 17.8174 56.5837 18.8396 56.6369 19.8871C56.6902 20.9346 56.6943 22.2068 56.5734 23.4046C56.4526 24.6023 56.3317 25.8001 56.2108 26.9978C56.0647 28.0959 55.8188 29.2192 55.6222 30.1178C55.1291 31.9404 54.7092 33.2139 54.7092 33.2139C54.7092 33.2139 54.7331 32.8896 54.9058 32.3153C55.0786 31.741 55.1011 30.9926 55.2978 30.0939C55.4945 29.1953 55.6406 28.0972 55.6871 27.0244C55.8332 25.9264 55.9541 24.7286 55.9752 23.5562C56.0961 22.3584 56.1173 21.1859 56.064 20.1384C56.1105 19.0656 56.0572 18.0181 55.9548 17.1953C56.0278 16.6462 55.9268 16.2474 55.9507 15.9231C55.8749 15.624 55.7991 15.3249 55.7485 15.1255C55.698 14.9261 55.5478 14.752 55.5225 14.6523C55.3723 14.4781 55.2726 14.5034 55.2726 14.5034Z" fill="url(#paint8_linear_419_13551)"/>
<path d="M62.166 9.04748C62.166 9.04748 62.291 9.12192 62.4665 9.39575C62.642 9.66958 62.7177 9.96866 62.8441 10.4672C63.0715 11.3644 63.3002 12.6858 63.404 13.9327C63.5078 15.1796 63.5372 16.5515 63.4655 17.5246C63.3938 18.4977 63.3712 19.2461 63.3712 19.2461C63.3712 19.2461 63.3193 18.6226 63.1664 17.6004C63.0387 16.6778 62.9096 15.3312 62.8058 14.0843C62.6768 12.7377 62.573 11.4908 62.4453 10.5682C62.319 10.0697 62.3176 9.64568 62.2671 9.44628C62.2418 9.34658 62.2165 9.24687 62.166 9.04748C62.1913 9.14718 62.166 9.04748 62.166 9.04748Z" fill="url(#paint9_linear_419_13551)"/>
<path d="M64.0802 7.393C64.0802 7.393 63.2321 7.39572 61.9094 7.20041C60.6864 6.97984 58.9396 6.78591 57.1437 6.81663C55.4474 6.82209 53.5771 6.97778 52.281 7.30623C51.5831 7.48309 51.0846 7.60942 50.5861 7.73575C50.1873 7.83682 49.9879 7.88735 49.9879 7.88735C49.9879 7.88735 50.1873 7.83681 50.5609 7.63605C50.9344 7.43529 51.5073 7.18399 52.2052 7.00713C52.9031 6.83027 53.7007 6.62815 54.598 6.40076C55.4208 6.29833 56.3434 6.17064 57.2912 6.14265C59.0871 6.11193 60.8339 6.30586 62.0822 6.62613C62.6565 6.7989 63.1058 6.89723 63.5804 7.09526C63.8303 7.24413 64.0802 7.393 64.0802 7.393Z" fill="url(#paint10_linear_419_13551)"/>
</g>
<path d="M13.7275 50.2851C13.7275 50.2851 14.3482 49.3851 15.5911 48.0092C16.8339 46.6332 18.6735 44.6816 20.9611 42.4042C23.274 40.2266 26.0096 37.6235 29.2941 35.0935C30.8866 33.8411 32.604 32.6632 34.1712 31.3111C35.7384 29.959 37.3055 28.607 38.8222 27.0555C40.3641 25.6037 41.8555 23.9526 43.5476 22.6749C45.2145 21.2976 47.0569 20.1941 48.6999 19.1411C50.3429 18.0882 51.8609 16.9607 53.2539 15.7589C54.647 14.5571 55.8153 13.3061 57.134 12.2292C58.3529 11.1776 59.722 10.3001 60.7177 9.62337C61.813 8.92139 62.6836 8.17023 63.4054 7.66901C64.2016 7.04283 64.8729 6.34222 65.7197 5.91543C66.8402 5.31315 66.7938 6.38592 66.0973 6.98684C66.0228 7.1118 65.9231 7.13707 65.749 7.2873C65.3755 7.48806 65.0272 7.78853 64.7534 7.96403C64.3799 8.16479 64.0063 8.36554 63.6328 8.5663C62.8113 9.09279 61.9154 9.74424 61.1192 10.3704C60.0491 11.1721 58.8541 11.8994 57.6352 12.951C56.4163 14.0026 55.2226 15.1539 53.8548 16.4554C52.487 17.757 50.8693 18.9096 49.1267 19.9879C47.4837 21.0409 45.6666 22.2441 44.0741 23.4964C42.382 24.7741 40.9398 26.2006 39.4231 27.752C37.9065 29.3035 36.2649 30.7805 34.6977 32.1326C33.0308 33.5099 31.3134 34.6879 29.7209 35.9402C26.6358 38.4197 23.7752 40.9484 21.4623 43.126C20.2434 44.1776 19.2239 45.1787 18.3041 46.1545C17.359 47.0306 16.4883 47.7818 15.8171 48.4824C15.1206 49.0833 14.6234 49.6337 14.1755 49.9594C13.8764 50.0352 13.7275 50.2851 13.7275 50.2851Z" fill="url(#paint11_linear_419_13551)"/>
</g>
<path opacity="0.2" d="M56.7519 24.1068C56.7054 25.1796 56.5593 26.2776 56.3893 27.7C56.2684 28.8978 55.9229 30.0464 55.7262 30.945C55.2584 32.8673 54.7388 34.1661 54.7388 34.1661C54.4663 34.7656 53.8442 35.2416 53.2952 35.1685C52.9708 35.1446 52.7462 35.0955 52.5959 34.9213C52.4457 34.7472 52.3699 34.4481 52.3938 34.1237L52.5905 33.2251C52.7141 32.8755 52.7127 32.4514 52.811 32.0021L53.0077 31.1034C53.1047 30.23 53.2761 29.2317 53.4222 28.1336C53.6175 26.8109 53.664 25.7382 53.7104 24.6654C53.7568 23.5926 53.8777 22.3949 53.7992 21.2476L53.8231 20.9233C53.7951 19.9755 53.7924 19.1273 53.7152 18.4042C53.6647 18.2048 53.6141 18.0054 53.6633 17.7807C53.5636 17.806 53.4892 17.931 53.3895 17.9562C52.0961 19.1328 50.5781 20.2602 48.4872 21.6389L47.3174 22.4658C47.2164 22.067 47.1406 21.768 47.0648 21.4689C47.0395 21.3692 47.0142 21.2695 47.0142 21.2695C47.7613 20.8679 48.4831 20.3667 49.1052 19.8908C50.8478 18.8125 52.4655 17.6598 53.8333 16.3583C54.4302 15.7827 54.9526 15.332 55.5494 14.7563C55.5746 14.856 55.5999 14.9557 55.6252 15.0554C55.7754 15.2295 55.7515 15.5539 55.8273 15.853C55.9031 16.1521 55.9045 16.5762 56.0055 16.975C56.108 17.7978 56.1612 18.8453 56.1148 19.9181C56.168 20.9656 56.0472 22.1634 56.026 23.3358C56.0048 24.5083 55.884 25.7061 55.7378 26.8041C55.5917 27.9022 55.4455 29.0002 55.3486 29.8736C55.1519 30.7723 55.1294 31.5207 54.9566 32.095C54.8835 32.644 54.7599 32.9936 54.7599 32.9936C54.7599 32.9936 55.2052 31.8198 55.6729 29.8975C55.8696 28.9989 56.1407 27.9752 56.2616 26.7775C56.4077 25.6794 56.5286 24.4817 56.6242 23.1843C56.7451 21.9865 56.6665 20.8393 56.6877 19.6668C56.6863 19.2428 56.5853 18.844 56.6092 18.5196C56.6611 19.143 56.713 19.7665 56.7396 20.2903C56.7942 21.7618 56.7731 22.9343 56.7519 24.1068ZM63.5655 17.4994C63.4938 18.4725 63.4713 19.2209 63.4713 19.2209C63.4713 19.2209 63.4194 18.5975 63.2664 17.5752C63.1387 16.6527 63.0097 15.306 62.9059 14.0591C62.7768 12.7125 62.673 11.4656 62.5453 10.5431C62.419 10.0446 62.4177 9.62051 62.3671 9.42112C62.0189 9.72158 61.5709 10.0473 61.1974 10.2481C60.1273 11.0497 58.9323 11.777 57.7134 12.8286C57.0169 13.4295 56.3203 14.0304 55.6491 14.7311C55.6743 14.8308 55.7993 14.9052 55.8246 15.0049C55.9748 15.179 56.0253 15.3784 56.0759 15.5778C56.4986 15.1524 56.8468 14.8519 57.1951 14.5515C57.9913 13.9253 58.7875 13.2991 59.5093 12.7979C59.6835 12.6476 59.9573 12.4721 60.1314 12.3219L60.3909 15.4392C60.52 16.7858 60.6237 18.0327 60.7514 18.9553C60.8791 19.8778 60.9563 20.601 60.9563 20.601C61.0068 20.8004 61.0321 20.9001 61.1571 20.9745C61.3326 21.2483 61.7819 21.3467 62.1807 21.2456C62.7789 21.094 63.276 20.5436 63.3491 19.9946C63.3491 19.9946 63.4713 19.2209 63.5177 18.1481C63.5403 17.3997 63.5109 16.0278 63.431 14.4566C63.4058 14.3569 63.3805 14.2572 63.3805 14.2572C63.5587 15.3791 63.5628 16.6513 63.5655 17.4994ZM46.5519 40.3788C46.6263 40.2538 46.601 40.1541 46.6755 40.0292C46.7738 39.5798 46.9718 39.1052 47.0702 38.6559L47.0449 38.5562C47.2907 37.4329 47.5113 36.2099 47.6574 35.1118C47.7783 33.9141 47.8739 32.6166 47.8446 31.2448C47.8896 29.7479 47.8111 28.6007 47.7578 27.5532C47.7804 26.8048 47.7032 26.0816 47.6513 25.4582C47.678 25.9819 47.6793 26.406 47.706 26.9297C47.7845 28.077 47.7886 29.3491 47.7927 30.6213C47.7968 31.8935 47.7012 33.1909 47.5803 34.3887C47.4594 35.5864 47.2136 36.7097 47.0422 37.7081C46.9438 38.1574 46.8455 38.6067 46.7472 39.0561C46.6488 39.5054 46.5252 39.855 46.3764 40.105C46.1039 40.7045 45.955 40.9544 45.955 40.9544C45.955 40.9544 46.0786 40.6048 46.2514 40.0305C46.4003 39.7806 46.4242 39.4562 46.5225 39.0069C46.6461 38.6573 46.6447 38.2332 46.7178 37.6842C46.8161 37.2349 46.8892 36.6858 46.9623 36.1368C47.0354 35.5878 47.0087 35.064 47.0565 34.4153C47.1774 33.2176 47.1733 31.9454 47.1945 30.7729C47.286 28.2033 47.2034 25.7839 47.1474 23.8883C47.1194 22.9404 47.0422 22.2173 47.0156 21.6935C46.9903 21.5938 46.9651 21.4941 46.9398 21.3944C45.9442 22.0712 45.0483 22.7226 44.0526 23.3993C42.3605 24.6769 40.9183 26.1035 39.4016 27.6549C38.9789 28.0803 38.4565 28.531 38.0591 29.0562C38.0844 29.1559 38.1096 29.2555 38.1349 29.3552C38.1854 29.5546 38.2612 29.8537 38.3118 30.0531C38.5603 29.7779 38.8342 29.6025 39.0827 29.3273C40.5249 27.9008 41.9671 26.4742 43.4599 25.2471C43.8082 24.9467 44.2561 24.621 44.6297 24.4202C44.6549 24.5199 44.6324 25.2683 44.6324 25.2683C44.7403 27.7874 44.7724 30.0074 44.7539 32.028C44.758 33.3002 44.6371 34.4979 44.616 35.6704C44.5921 35.9948 44.5429 36.2194 44.519 36.5438C44.4951 36.8682 44.4459 37.0928 44.422 37.4172L44.3237 37.8665C44.2998 38.1909 44.2759 38.5152 44.1523 38.8649L44.0539 39.3142C44.03 39.6385 43.9809 39.8632 43.9317 40.0879C43.8573 40.2128 43.9078 40.4122 43.8334 40.5372C43.7589 40.6622 43.8095 40.8615 43.735 40.9865L43.4387 41.9104C43.3151 42.2601 43.3909 42.5591 43.5664 42.833C43.7166 43.0071 43.9413 43.0563 44.1659 43.1055C44.715 43.1785 45.462 42.777 45.7345 42.1774L46.3047 41.078C46.3538 40.8534 46.5027 40.6034 46.5519 40.3788ZM63.5075 7.22229C63.6325 7.29672 63.7322 7.27146 63.7574 7.37116C64.3543 6.79551 64.9764 6.31955 65.7234 5.91803C65.9228 5.86749 65.9973 5.74253 66.1222 5.81696C65.7221 5.49397 65.0733 5.44616 64.1521 5.99791C63.6045 6.3489 63.0568 6.69989 62.6341 7.12531C63.0329 7.02425 63.2576 7.07342 63.5075 7.22229ZM25.4138 21.8628C25.4391 21.9625 25.4391 21.9625 25.5641 22.0369C25.8645 22.3852 26.4135 22.4583 26.9612 22.1073L28.2559 21.3548C28.6294 21.154 29.1027 20.928 29.5506 20.6023C30.1236 20.351 30.6712 20 31.3438 19.7234C31.9168 19.4721 32.5894 19.1956 33.5358 18.7435C34.0343 18.6172 34.4079 18.4164 34.8811 18.1904C35.2799 18.0893 35.6534 17.8886 35.8528 17.838L36.6251 17.5362C37.198 17.2849 37.8959 17.1081 38.5938 16.9312C39.4911 16.7038 40.3631 16.3767 41.3601 16.1241C44.5505 15.3156 48.1901 14.6054 51.3327 14.4456C51.657 14.4695 51.9561 14.3937 52.1808 14.4429C52.3802 14.3923 52.6049 14.4415 52.904 14.3657C52.904 14.3657 52.904 14.3657 52.8043 14.391C52.3816 14.8164 51.8592 15.2671 51.4112 15.5928C50.292 16.6192 48.9481 17.5963 47.0313 18.8248L45.936 19.5268C44.6665 20.379 43.3971 21.2312 42.1529 22.1831C41.58 22.4344 40.8063 22.3122 39.8332 22.2405C38.7352 22.0943 37.463 22.0984 36.0911 22.1278C34.7445 22.2569 33.1985 22.4365 31.6777 22.7157C30.1823 23.0947 28.7865 23.4484 27.3163 23.9271C26.0455 24.3553 24.7002 24.9084 23.5796 25.5107C22.4338 26.0133 21.6123 26.5397 20.9649 26.916L20.0437 27.4677C19.4961 27.8187 19.1492 28.5433 19.3752 29.0165C19.4005 29.1162 19.4258 29.2159 19.5255 29.1906C19.8259 29.5389 20.2752 29.6372 20.8482 29.3859L21.7946 28.9339C22.3675 28.6826 23.2143 28.2558 24.2857 27.8782C24.7589 27.6521 25.3571 27.5005 25.9301 27.2493C26.2291 27.1735 26.6027 26.9727 26.9018 26.8969C27.2009 26.8211 27.4747 26.6456 27.6741 26.5951C28.9449 26.1669 30.241 25.8385 31.662 25.5844C32.9834 25.3557 34.4044 25.1017 35.5516 25.0231C35.876 25.047 36.0754 24.9965 36.3745 24.9207C36.6988 24.9446 36.9979 24.8688 37.422 24.8674C37.9458 24.8408 38.4695 24.8142 39.0185 24.8873C39.1182 24.862 39.2432 24.9364 39.3429 24.9112C38.3978 25.7873 37.5524 26.6381 36.9064 27.4384C35.3898 28.9899 34.022 30.2914 32.4296 31.5438C31.9816 31.8695 31.4592 32.3202 31.0112 32.6459C30.5872 32.6473 30.1631 32.6487 29.6141 32.5756L26.8451 32.5346C25.7723 32.4882 24.6251 32.5667 23.5284 32.8446C23.0299 32.971 22.4317 33.1226 21.7338 33.2994C21.1356 33.451 20.5627 33.7023 19.9898 33.9536C18.9436 34.4309 17.9972 34.883 17.1757 35.4095C15.6071 36.3375 14.6115 37.0142 14.6115 37.0142C14.0639 37.3652 13.8167 38.0645 13.943 38.5629C13.9683 38.6626 13.9683 38.6626 14.0932 38.7371C14.3937 39.0853 14.9427 39.1584 15.4159 38.9324L17.9562 37.652C19.5753 36.9234 21.4934 36.119 23.3133 35.7639C24.2358 35.6362 25.0587 35.5338 26.0065 35.5058L27.4781 35.4512C24.8408 37.6049 22.403 39.7081 20.4384 41.5853L19.8402 41.7369C19.4414 41.838 19.0426 41.939 18.6438 42.0401C17.9459 42.217 17.2733 42.4935 16.6007 42.7701C14.9564 43.399 13.6111 43.9521 12.864 44.3536C11.8179 44.8309 11.1705 45.2072 11.1705 45.2072C10.6229 45.5582 10.2507 46.183 10.3771 46.6815C10.4023 46.7812 10.4276 46.8809 10.5525 46.9553C10.8277 47.2039 11.1774 47.3275 11.6759 47.2012C11.6759 47.2012 12.3737 47.0243 13.3455 46.672C14.1178 46.3701 15.0895 46.0178 16.1609 45.6402C15.2411 46.616 14.3213 47.5918 13.5756 48.4174C12.2583 49.9183 11.6376 50.8183 11.6376 50.8183C11.3399 51.3182 11.3665 51.8419 11.542 52.1158C11.542 52.1158 11.667 52.1902 11.6922 52.2899C12.0924 52.6129 12.7903 52.436 13.3127 51.9853L13.9095 51.4097C14.0836 51.2595 14.2578 51.1092 14.4319 50.959C14.7802 50.6585 15.1284 50.3581 15.5511 49.9326L18.0381 47.6048L21.0967 44.6015C22.39 43.425 23.7578 42.1234 25.325 40.7714C25.1536 41.7697 24.8094 43.3424 24.3403 44.8406C24.0439 45.7645 23.7223 46.5887 23.3501 47.2135C22.9035 47.9633 22.4569 48.7131 22.0848 49.3379L20.5203 51.5381C20.2226 52.0379 20.1243 52.4873 20.4247 52.8355C20.4247 52.8355 20.45 52.9352 20.5749 53.0097C20.9751 53.3326 21.673 53.1558 22.1954 52.7051C22.1954 52.7051 23.0408 51.8543 24.1839 50.5036C24.7555 49.8282 25.4015 49.0279 25.9969 48.0282C26.5179 47.1534 26.8887 46.1046 27.334 44.9307C27.8762 42.8835 28.1937 40.7871 28.264 39.3899C28.2627 38.9659 28.2613 38.5418 28.2852 38.2175C28.5338 37.9423 28.9073 37.7415 29.1559 37.4663L30.4001 36.5144C31.6442 35.5625 32.9137 34.7103 34.2323 33.6334C34.7547 33.1827 35.2771 32.732 35.8992 32.2561C35.9497 32.4555 35.9006 32.6801 35.9511 32.8795C35.878 33.4285 35.9046 33.9523 35.8316 34.5013C35.8077 34.8257 35.7838 35.15 35.6602 35.4997C35.611 35.7243 35.5618 35.949 35.6124 36.1484C35.3426 37.5961 35.1221 38.8191 34.6768 39.9929C34.5785 40.4422 34.4549 40.7919 34.2316 41.1668C34.1824 41.3914 34.0336 41.6414 33.9844 41.866C33.8861 42.3153 33.6628 42.6902 33.5392 43.0399C33.3903 43.2898 33.3411 43.5144 33.292 43.7391C33.1684 44.0887 33.0448 44.4384 32.7962 44.7136C32.6473 44.9635 32.4985 45.2134 32.4746 45.5378C32.351 45.8874 32.1277 46.2623 31.9788 46.5122C31.9044 46.6372 31.7555 46.8871 31.6811 47.0121C31.6319 47.2367 31.4831 47.4867 31.4086 47.6116C31.2598 47.8616 31.2106 48.0862 31.0617 48.3362L30.4663 49.3359L29.9452 50.2106C29.7472 50.6852 29.7486 51.1093 29.9241 51.3831C30.049 51.4575 30.174 51.532 30.299 51.6064C30.7735 51.8044 31.5459 51.5026 31.9433 50.9775L32.7143 50.2516L33.4094 49.2266C33.658 48.9514 33.856 48.4768 34.0793 48.1019C34.0793 48.1019 34.4262 47.3774 34.5006 47.2525C34.7239 46.8776 34.922 46.403 35.1453 46.0281L35.443 45.5282C35.6663 45.1533 35.8643 44.6787 36.0624 44.2042C36.1115 43.9795 36.2604 43.7296 36.3348 43.6046C36.5329 43.13 36.7309 42.6554 36.9289 42.1808C36.9781 41.9562 37.127 41.7062 37.1761 41.4816C37.3742 41.007 37.5722 40.5324 37.6705 40.0831C38.0905 38.8095 38.3602 37.3619 38.6047 35.8145C38.6525 35.1658 38.7003 34.517 38.7481 33.8683C38.7215 33.3446 38.7945 32.7955 38.7426 32.1721C38.7174 32.0724 38.6668 31.873 38.7413 31.748C38.7426 32.1721 38.7693 32.6958 38.7959 33.2196C38.8478 33.8431 38.7747 34.3921 38.6272 35.0661C38.4319 36.3888 38.2366 37.7115 37.7422 39.11C37.5947 39.784 37.2478 40.5085 37.1003 41.1825C36.8531 41.8817 36.5807 42.4813 36.2338 43.2058C35.9613 43.8054 35.5891 44.4302 35.3167 45.0297C35.0442 45.6293 34.7465 46.1292 34.4487 46.629C34.151 47.1289 33.953 47.6034 33.63 48.0036C33.4067 48.3785 33.1834 48.7534 32.9348 49.0286C32.5374 49.5537 32.3141 49.9286 32.3141 49.9286C32.3141 49.9286 32.5374 49.5537 32.8099 48.9542C32.9587 48.7042 33.182 48.3293 33.4053 47.9544C33.6286 47.5795 33.8267 47.105 34.1244 46.6051C34.2719 45.9311 34.5696 45.4313 34.8421 44.8317C35.1145 44.2322 35.387 43.6326 35.6595 43.033C35.9319 42.4335 36.1791 41.7342 36.4263 41.035C36.6735 40.3357 36.9207 39.6365 37.0935 39.0622C37.4882 37.6889 37.7832 36.341 38.0038 35.118C38.0516 34.4692 38.2243 33.8949 38.1724 33.2715C38.2455 32.7225 38.2189 32.1987 38.1923 31.675C38.1643 30.7271 38.1615 29.879 38.0352 29.3805C38.0099 29.2808 37.9847 29.1811 37.9594 29.0814C36.8402 30.1078 35.8207 31.1088 34.6762 32.0355C33.0093 33.4128 31.2919 34.5908 29.6994 35.8431C29.1518 36.1941 28.6294 36.6448 28.2067 37.0702C28.2081 37.4943 28.2347 38.018 28.2122 38.7665C28.1418 40.1636 27.8734 42.0354 27.306 43.9829C27.0096 44.9068 26.6388 45.9557 26.1178 46.8304C25.5968 47.7052 24.9255 48.4058 24.4536 49.0559C23.3849 50.2816 22.6393 51.1072 22.6393 51.1072C22.6393 51.1072 23.26 50.2072 24.2037 48.907C24.6756 48.2569 25.2219 47.4819 25.6432 46.6324C26.0645 45.7829 26.4606 44.8337 26.757 43.9098C27.3497 42.062 27.7178 40.165 27.9875 38.7173C28.135 38.0433 28.1084 37.5196 28.232 37.1699C25.7689 39.1735 23.5304 41.2261 21.6402 42.9784C20.4213 44.03 19.4018 45.0311 18.482 46.0069C17.5369 46.883 16.6662 47.6341 15.995 48.3347C15.2985 48.9357 14.8013 49.4861 14.3534 49.8118C14.0051 50.1122 13.7313 50.2877 13.7313 50.2877C13.7313 50.2877 14.352 49.3877 15.5948 48.0118C16.8376 46.6358 18.6773 44.6842 20.9649 42.4068C21.139 42.2566 21.3132 42.1064 21.4873 41.9561C20.5156 42.3085 19.145 42.7619 17.8995 43.2897C16.6287 43.7179 15.2834 44.271 14.2865 44.5237C13.3147 44.876 12.6169 45.0529 12.6169 45.0529C12.6169 45.0529 13.2642 44.6766 14.2107 44.2246C15.1571 43.7725 16.5024 43.2194 17.7479 42.6916C18.4458 42.5147 19.0187 42.2634 19.7166 42.0865C20.3148 41.9349 20.913 41.7834 21.4115 41.657C21.6109 41.6065 21.7106 41.5812 21.91 41.5307C24.0487 39.5033 26.4613 37.3004 29.1982 35.1213C30.0941 34.4699 31.0645 33.6935 31.9604 33.042C31.5364 33.0434 30.9129 33.0953 30.1897 33.1724C29.3416 33.1752 28.5188 33.2776 27.571 33.3056C26.6231 33.3336 25.5756 33.3868 24.5534 33.5398C22.4344 33.9707 20.4166 34.8004 18.8228 35.6287C17.3034 36.332 16.2572 36.8093 16.2572 36.8093C16.2572 36.8093 17.2528 36.1326 18.747 35.3296C19.494 34.9281 20.4152 34.3763 21.3869 34.024C21.8602 33.7979 22.4583 33.6463 22.9316 33.4203C23.4301 33.294 24.0283 33.1424 24.5267 33.0161C25.6487 32.8378 26.6962 32.7846 27.644 32.7566C28.5918 32.7286 29.4652 32.8255 30.3133 32.8228C31.0618 32.8453 31.7105 32.8932 32.1346 32.8918C32.7566 32.4158 33.4784 31.9146 34.0753 31.339C35.6424 29.9869 37.2096 28.6348 38.7263 27.0834C40.0688 25.6821 41.6107 24.2304 43.1779 22.8783C43.0782 22.9036 42.9785 22.9288 42.8535 22.8544C42.3045 22.7813 41.5561 22.7588 40.4833 22.7123C39.9595 22.739 39.4358 22.7656 38.7871 22.7178C38.1636 22.7697 37.5401 22.8216 36.9167 22.8735C35.6698 22.9773 34.2235 23.1316 32.8277 23.4853C31.4066 23.7393 30.0361 24.1928 28.7401 24.5212C28.0422 24.6981 27.4692 24.9494 26.8963 25.2007C26.3234 25.452 25.7252 25.6036 25.252 25.8296C24.2058 26.3069 23.3338 26.634 22.7861 26.985C22.0138 27.2868 21.74 27.4623 21.74 27.4623C21.74 27.4623 22.1135 27.2615 22.6612 26.9105C23.2088 26.5595 24.0556 26.1328 25.1017 25.6554C26.1479 25.1781 27.3934 24.6503 28.764 24.1969C30.1345 23.7434 31.5302 23.3897 32.926 23.036C34.3471 22.782 35.7934 22.6276 37.14 22.4986C38.4866 22.3695 39.6843 22.4904 40.6574 22.5621C41.6305 22.6338 42.4295 22.8557 42.9785 22.9288C43.0782 22.9036 43.2031 22.978 43.3028 22.9527C43.3773 22.8278 43.477 22.8025 43.5767 22.7772C45.2436 21.3999 47.0859 20.2964 48.7289 19.2434C50.3719 18.1904 51.8899 17.063 53.2829 15.8612C54.5019 14.8096 55.6955 13.6583 56.8147 12.6319C56.6153 12.6825 56.3907 12.6333 55.9666 12.6347C55.5426 12.636 55.1185 12.6374 54.5947 12.664C54.071 12.6906 53.4475 12.7425 52.6991 12.72C49.8809 12.9037 46.1907 13.4145 42.4274 14.4743C41.5302 14.7017 40.5332 14.9543 39.6611 15.2814C38.7639 15.5088 37.7921 15.8611 36.9201 16.1882C36.0481 16.5153 35.1761 16.8424 34.4038 17.1442C33.6314 17.4461 32.8591 17.7479 32.2118 18.1242C31.5391 18.4007 30.8918 18.777 30.4186 19.003C29.8456 19.2543 29.3977 19.58 29.0241 19.7808C28.2771 20.1823 27.8291 20.508 27.8291 20.508C27.8291 20.508 28.2771 20.1823 28.9989 19.6811C29.3471 19.3806 29.8204 19.1546 30.368 18.8036C30.9157 18.4526 31.563 18.0763 32.2357 17.7998C32.8325 17.2241 33.6048 16.9223 34.3519 16.5208C35.0989 16.1193 35.9709 15.7922 36.843 15.4651C37.715 15.138 38.587 14.8109 39.584 14.5582C40.5557 14.2059 41.453 13.9785 42.45 13.7258C43.3473 13.4985 44.3442 13.2458 45.2668 13.1181C46.1893 12.9904 47.0866 12.763 48.0092 12.6353C49.7546 12.4052 51.4256 12.3 52.7974 12.2707C53.4462 12.3185 54.0696 12.2666 54.6186 12.3397C55.1677 12.4127 55.6914 12.3861 56.0158 12.41C56.3401 12.4339 56.5648 12.4831 56.7895 12.5322C56.8892 12.507 56.9636 12.382 57.038 12.257C58.257 11.2054 59.6261 10.3279 60.6217 9.65123C61.717 8.94925 62.5877 8.19809 63.3095 7.69687C63.4092 7.6716 63.4836 7.54665 63.6578 7.39642C63.3334 7.37252 62.6847 7.32471 61.8113 7.22774C60.688 6.9819 58.9412 6.78797 57.1453 6.81869C55.449 6.82415 53.5787 6.97984 52.2826 7.30829C51.5847 7.48515 51.0862 7.61148 50.5877 7.73781C50.1889 7.83887 49.9895 7.88941 49.9895 7.88941C49.9895 7.88941 50.1889 7.83887 50.5624 7.63811C50.936 7.43735 51.5089 7.18605 52.2068 7.00919C52.9047 6.83233 53.7023 6.63021 54.5995 6.40281C55.4224 6.30039 56.3449 6.1727 57.2928 6.14471C59.0887 6.11398 60.8355 6.30792 62.0837 6.62819C62.3084 6.67736 62.4334 6.7518 62.5583 6.82623C62.234 6.80233 61.8843 6.67872 61.5347 6.55512C60.0618 6.18568 58.315 5.99174 56.5191 6.02247C55.4716 6.07573 54.5237 6.10373 53.7009 6.20616C52.878 6.30858 51.9808 6.53597 51.0835 6.76337C50.2859 6.96549 49.6385 7.34175 49.14 7.46808L48.5179 7.94402C47.945 8.19532 47.5981 8.91985 47.6247 9.4436C47.65 9.5433 47.6753 9.64299 47.8255 9.81712C48.1007 10.0657 48.4756 10.289 48.9488 10.063L49.6214 9.78641C50.0202 9.68534 50.5187 9.55901 51.1169 9.40742C52.2136 9.1295 53.8846 9.02434 55.6805 8.99361C57.1521 8.93899 58.6742 9.08377 59.6725 9.25517C59.3987 9.43067 59.1249 9.60615 58.9507 9.75638C58.6769 9.93188 58.3287 10.2323 58.0548 10.4078C57.2333 10.9343 56.4371 11.5605 55.5665 12.3117L55.3418 12.2625C55.1171 12.2133 54.7928 12.1894 54.3687 12.1908L53.845 12.2174C53.4209 12.2188 52.8719 12.1457 52.3481 12.1724L51.8244 12.199C50.4525 12.2283 48.7815 12.3335 46.9364 12.5889C46.1136 12.6913 45.191 12.819 44.2937 13.0464L43.9946 13.1222C43.0973 13.3496 42.1748 13.4773 41.2775 13.7047C40.2805 13.9573 39.3088 14.3097 38.4115 14.5371C37.7136 14.7139 37.041 14.9905 36.3684 15.2671L35.596 15.5689L35.0231 15.8202C34.3505 16.0967 33.6779 16.3733 33.0053 16.6498C32.0588 17.1019 31.2865 17.4037 30.7388 17.7547C29.8921 18.1815 29.2447 18.5578 28.7715 18.7838C28.1986 19.0351 27.6509 19.3861 27.3026 19.6865L26.1076 20.4138C25.435 20.6903 25.1878 21.3896 25.4138 21.8628ZM66.0758 6.88975C66.0013 7.01471 65.9016 7.03996 65.7275 7.19019C65.354 7.39095 65.0057 7.69142 64.7319 7.86692C64.3584 8.06768 63.9848 8.26843 63.6113 8.46919C63.1381 8.69522 62.7898 8.99569 62.3419 9.32141C62.5174 9.59524 62.5932 9.89435 62.7195 10.3928L62.8192 10.3676C62.9189 10.3423 63.093 10.1921 63.1927 10.1668C63.4665 9.99131 63.6659 9.94078 63.9398 9.76528C64.2136 9.58979 64.4874 9.41428 64.736 9.13909L64.9846 8.86391C65.1587 8.71368 65.3581 8.66314 65.4325 8.53818C66.2035 7.81229 66.5743 6.7634 66.2977 6.09078C66.4732 6.36461 66.3243 6.61455 66.0758 6.88975Z" fill="url(#paint12_linear_419_13551)"/>
<g opacity="0.7">
<path opacity="0.1111" d="M52.0946 35.0497C63.6631 25.4336 69.3357 13.0676 64.5775 7.27075C59.8193 1.47389 46.4836 4.53512 34.7902 14.0768C23.2217 23.6928 17.6741 36.1333 22.4576 42.0298C27.3155 47.8014 40.5262 44.6658 52.0946 35.0497Z" fill="#5B9B10"/>
<path opacity="0.2222" d="M51.1176 33.7048C61.9151 24.8146 67.4416 13.5467 63.1846 8.47162C58.9023 3.29685 46.6394 6.40453 35.8419 15.2947C25.0444 24.1849 19.7932 35.7014 23.9504 40.8018C28.2074 45.8768 40.3201 42.595 51.1176 33.7048Z" fill="#68A81E"/>
<path opacity="0.3333" d="M50.116 32.2619C60.1173 23.9979 65.5229 13.9277 61.8416 9.44948C58.1602 4.97124 46.9196 7.92595 36.9183 16.19C26.917 24.454 21.9116 34.8472 25.5929 39.3254C29.1998 43.9286 40.1147 40.5259 50.116 32.2619Z" fill="#75B42B"/>
<path opacity="0.4444" d="M49.1384 30.9172C58.3435 23.2794 63.6282 14.4069 60.4481 10.6505C57.2427 6.79431 47.0748 9.79548 37.8698 17.4333C28.6647 25.0711 23.9051 34.341 27.0108 38.2224C30.1909 41.9789 39.8337 38.5803 49.1384 30.9172Z" fill="#82C138"/>
<path opacity="0.5556" d="M48.0373 29.5005C56.4714 22.5886 61.6353 14.9138 59.0308 11.7542C56.4264 8.59459 47.306 11.5425 38.8972 18.5541C30.4631 25.4661 25.9999 33.812 28.6043 36.9717C31.0838 40.0569 39.6285 36.5121 48.0373 29.5005Z" fill="#90CD46"/>
<path opacity="0.6667" d="M47.0586 28.1552C54.6964 21.8694 59.7394 15.3924 57.6109 12.8549C55.6074 10.3918 47.4349 13.3117 39.8967 19.5722C32.2588 25.858 28.0414 33.0806 30.0449 35.5437C32.0737 38.1065 39.4207 34.4409 47.0586 28.1552Z" fill="#9DDA53"/>
<path opacity="0.7778" d="M46.0537 26.7101C52.8954 21.0505 57.7178 15.7965 56.1902 13.9555C54.6627 12.1145 47.6626 15.0556 40.8209 20.7152C33.9793 26.3747 30.0077 32.4741 31.4356 34.3404C33.0629 36.1561 39.2121 32.3696 46.0537 26.7101Z" fill="#AAE660"/>
<path opacity="0.8889" d="M45.0762 25.3672C51.1469 20.4335 55.8232 16.2775 54.8966 15.1331C53.9699 13.9886 47.9177 16.9017 41.9467 21.8101C35.9757 26.7185 32.2008 31.9192 33.1274 33.0637C33.9544 34.2334 39.0056 30.3008 45.0762 25.3672Z" fill="#B7F36E"/>
<path d="M43.9742 23.952C49.2486 19.6445 53.804 16.6863 53.3534 16.1639C52.9027 15.6415 48.0229 18.5758 42.8481 22.858C37.6734 27.1402 34.1443 31.2176 34.4953 31.7653C34.946 32.2877 38.8247 28.3339 43.9742 23.952Z" fill="#C4FF7B"/>
</g>
<defs>
<linearGradient id="paint0_linear_419_13551" x1="61.0543" y1="9.64085" x2="10.1328" y2="53.9523" gradientUnits="userSpaceOnUse">
<stop stop-color="#478300"/>
<stop offset="0.4874" stop-color="#66A400"/>
<stop offset="1" stop-color="#83C200"/>
</linearGradient>
<linearGradient id="paint1_linear_419_13551" x1="31.7466" y1="25.2364" x2="53.3729" y2="7.38677" gradientUnits="userSpaceOnUse">
<stop stop-color="#BDCA7B"/>
<stop offset="0.3727" stop-color="#B5C672"/>
<stop offset="0.9768" stop-color="#9EBA5A"/>
<stop offset="1" stop-color="#9DB959"/>
</linearGradient>
<linearGradient id="paint2_linear_419_13551" x1="25.0237" y1="31.5973" x2="40.6824" y2="18.6731" gradientUnits="userSpaceOnUse">
<stop stop-color="#BDCA7B"/>
<stop offset="0.3727" stop-color="#B5C672"/>
<stop offset="0.9768" stop-color="#9EBA5A"/>
<stop offset="1" stop-color="#9DB959"/>
</linearGradient>
<linearGradient id="paint3_linear_419_13551" x1="18.5817" y1="39.8216" x2="30.6724" y2="29.8424" gradientUnits="userSpaceOnUse">
<stop stop-color="#BDCA7B"/>
<stop offset="0.3727" stop-color="#B5C672"/>
<stop offset="0.9768" stop-color="#9EBA5A"/>
<stop offset="1" stop-color="#9DB959"/>
</linearGradient>
<linearGradient id="paint4_linear_419_13551" x1="13.7579" y1="46.5635" x2="22.0612" y2="39.7102" gradientUnits="userSpaceOnUse">
<stop stop-color="#BDCA7B"/>
<stop offset="0.3727" stop-color="#B5C672"/>
<stop offset="0.9768" stop-color="#9EBA5A"/>
<stop offset="1" stop-color="#9DB959"/>
</linearGradient>
<linearGradient id="paint5_linear_419_13551" x1="20.0486" y1="48.1381" x2="30.8805" y2="39.1979" gradientUnits="userSpaceOnUse">
<stop stop-color="#BDCA7B"/>
<stop offset="0.3727" stop-color="#B5C672"/>
<stop offset="0.9768" stop-color="#9EBA5A"/>
<stop offset="1" stop-color="#9DB959"/>
</linearGradient>
<linearGradient id="paint6_linear_419_13551" x1="28.1042" y1="44.8894" x2="42.2023" y2="33.2533" gradientUnits="userSpaceOnUse">
<stop stop-color="#BDCA7B"/>
<stop offset="0.3727" stop-color="#B5C672"/>
<stop offset="0.9768" stop-color="#9EBA5A"/>
<stop offset="1" stop-color="#9DB959"/>
</linearGradient>
<linearGradient id="paint7_linear_419_13551" x1="41.089" y1="35.2235" x2="51.8212" y2="26.3655" gradientUnits="userSpaceOnUse">
<stop stop-color="#BDCA7B"/>
<stop offset="0.3727" stop-color="#B5C672"/>
<stop offset="0.9768" stop-color="#9EBA5A"/>
<stop offset="1" stop-color="#9DB959"/>
</linearGradient>
<linearGradient id="paint8_linear_419_13551" x1="50.1656" y1="27.8007" x2="60.0559" y2="19.6376" gradientUnits="userSpaceOnUse">
<stop stop-color="#BDCA7B"/>
<stop offset="0.3727" stop-color="#B5C672"/>
<stop offset="0.9768" stop-color="#9EBA5A"/>
<stop offset="1" stop-color="#9DB959"/>
</linearGradient>
<linearGradient id="paint9_linear_419_13551" x1="60.4601" y1="16.0856" x2="65.1927" y2="12.1794" gradientUnits="userSpaceOnUse">
<stop stop-color="#BDCA7B"/>
<stop offset="0.3727" stop-color="#B5C672"/>
<stop offset="0.9768" stop-color="#9EBA5A"/>
<stop offset="1" stop-color="#9DB959"/>
</linearGradient>
<linearGradient id="paint10_linear_419_13551" x1="52.6495" y1="11.279" x2="61.5662" y2="3.9194" gradientUnits="userSpaceOnUse">
<stop stop-color="#BDCA7B"/>
<stop offset="0.3727" stop-color="#B5C672"/>
<stop offset="0.9768" stop-color="#9EBA5A"/>
<stop offset="1" stop-color="#9DB959"/>
</linearGradient>
<linearGradient id="paint11_linear_419_13551" x1="12.8738" y1="49.4257" x2="66.247" y2="5.37317" gradientUnits="userSpaceOnUse">
<stop stop-color="#BDCA7B"/>
<stop offset="0.1952" stop-color="#B5C672"/>
<stop offset="0.5124" stop-color="#9EB95A"/>
<stop offset="0.9102" stop-color="#7AA633"/>
<stop offset="1" stop-color="#71A129"/>
</linearGradient>
<linearGradient id="paint12_linear_419_13551" x1="63.4048" y1="32.0922" x2="14.0083" y2="25.6627" gradientUnits="userSpaceOnUse">
<stop stop-color="white"/>
<stop offset="0.0166" stop-color="#F6F9F2"/>
<stop offset="0.117" stop-color="#C4DAAB"/>
<stop offset="0.2116" stop-color="#9ABF6F"/>
<stop offset="0.2977" stop-color="#79AA40"/>
<stop offset="0.3735" stop-color="#629B1F"/>
<stop offset="0.4362" stop-color="#53920A"/>
<stop offset="0.4781" stop-color="#4E8F03"/>
<stop offset="0.5238" stop-color="#53920A"/>
<stop offset="0.5922" stop-color="#619B1F"/>
<stop offset="0.6746" stop-color="#79AA40"/>
<stop offset="0.7681" stop-color="#99BF6E"/>
<stop offset="0.8708" stop-color="#C3D9AA"/>
<stop offset="0.9797" stop-color="#F5F9F1"/>
<stop offset="1" stop-color="white"/>
</linearGradient>
</defs>
</svg>
