<svg width="74" height="74" viewBox="0 0 74 74" fill="none" xmlns="http://www.w3.org/2000/svg">
<path d="M36.7138 36.5775C35.5926 33.2588 34.5777 29.764 33.5978 26.4103C32.5661 22.5451 31.7288 18.5568 30.9795 14.6216C31.993 18.7161 33.2357 22.8288 34.6728 26.8185C35.724 29.8548 36.8633 32.9443 38.1438 35.9988C38.4598 36.6698 38.7226 37.4288 39.0385 38.0998C39.5823 39.3887 40.0912 40.5364 40.6881 41.7373C41.3549 43.2205 42.0217 44.7037 42.8297 46.1519C43.3917 47.2116 43.8656 48.2181 44.4275 49.2777C46.3063 52.9333 48.4144 56.6071 50.5938 59.9635L48.1851 64.1559C46.1302 60.3941 43.6573 54.3382 42.0259 50.4715C41.552 49.465 41.1312 48.3704 40.7104 47.2759C40.0967 45.7046 39.4299 44.2214 38.8694 42.562C38.4136 41.3263 37.923 39.9493 37.4672 38.7135C37.1513 38.0425 36.9766 37.3366 36.7138 36.5775Z" fill="#488C1C"/>
<path d="M39.3675 47.9043C31.7921 59.0695 20.6827 57.7736 22.4721 54.4088C22.4721 54.4088 11.9918 55.6543 9.9718 52.0337C8.07482 48.6074 12.3441 48.2998 12.7677 48.195C12.2393 47.8762 6.86561 45.2356 6.89218 41.408C6.93692 37.3512 16.2597 40.8125 16.2597 40.8125C16.2597 40.8125 12.0156 30.3252 23.8393 35.4151C26.2158 37.4491 29.8266 39.6271 34.9025 41.3675L39.3675 47.9043Z" fill="#488C1C"/>
<path d="M44.6865 36.1018C46.0145 33.9001 47.3607 31.4691 47.9828 29.4421L48.0359 29.354C52.6323 17.3528 54.7376 29.793 54.7376 29.793C54.7376 29.793 63.8311 18.1021 65.1773 23.2381C66.5767 28.286 61.7482 33.9015 61.7482 33.9015C61.7482 33.9015 66.7975 31.9025 67.3902 34.9024C67.983 37.9024 60.2496 41.1652 60.2496 41.1652C66.3124 43.2607 53.7548 50.3398 44.4348 45.679L44.6865 36.1018Z" fill="#488C1C"/>
<path d="M23.8575 28.222C23.8575 28.222 19.9908 22.2864 19.8594 18.1234L21.5355 17.9333C26.8798 25.6009 33.5983 26.4103 33.5983 26.4103C34.5251 29.852 35.505 33.2057 36.7142 36.5775C36.977 37.3366 37.2049 37.9544 37.4677 38.7135C37.9234 39.9493 38.4141 41.3263 38.8698 42.562C37.4244 42.1706 36.067 41.8323 34.9039 41.371C29.9161 39.6837 26.2521 37.5938 23.8407 35.4186C18.5593 31.0319 19.0807 26.7822 23.8575 28.222Z" fill="#63AA35"/>
<path d="M38.144 35.9959C36.8635 32.9415 35.7592 29.9932 34.673 26.8157C33.2359 22.826 31.9932 18.7133 30.9797 14.6188C31.729 18.5539 32.5663 22.5422 33.598 26.4075C33.598 26.4075 26.7383 25.633 21.5353 17.9304L19.8591 18.1206C19.7934 16.039 20.6084 14.4887 23.3959 14.2483C23.3959 14.2483 23.9705 2.34353 28.4173 1.54252C33.1088 1.72985 35.7508 10.8905 35.7508 10.8905C46.4981 1.0379 42.774 24.7356 42.774 24.7356C48.5279 23.1616 49.2981 25.668 48.1434 29.1754L48.0903 29.2635C47.4151 31.3786 46.0689 33.8096 44.794 35.9233C42.8816 39.0938 40.8295 41.6995 40.8295 41.6995C40.2325 40.4987 39.6887 39.2098 39.1799 38.0621C38.7228 37.426 38.46 36.6669 38.144 35.9959Z" fill="#63AA35"/>
<path d="M6.88966 41.4135C6.92601 40.9549 6.96236 40.4964 7.31604 40.1092C7.6166 39.81 8.09328 39.6171 8.51686 39.5123C9.364 39.3026 10.2811 39.3753 11.1981 39.448C12.9791 39.6814 14.6538 40.091 16.3634 40.6418L16.1691 40.7648C15.7484 39.6703 15.4688 38.5407 15.3835 37.2882C15.3332 36.1768 15.7246 34.7314 16.8723 34.2225C18.02 33.7137 19.2544 33.8577 20.3825 34.1778C21.5638 34.4099 22.6388 34.8181 23.7487 35.3674L23.6956 35.4555C22.5143 35.2235 21.3331 34.9914 20.1868 34.9005C19.0405 34.8097 17.9291 34.86 17.3462 35.229C16.6752 35.545 16.5675 36.3208 16.5829 37.291C16.5983 38.2612 16.8779 39.3907 17.2637 40.3441L17.999 42.7094L15.7078 41.9279C14.1393 41.3422 12.5177 40.8445 10.843 40.4349C9.9791 40.2742 9.20324 40.1665 8.46234 40.2001C7.72144 40.2336 7.05043 40.5496 6.83654 41.5015L6.88966 41.4135Z" fill="#5CB523"/>
<path d="M39.5087 47.8764C37.4733 50.8526 34.7683 53.545 31.5013 55.1778C29.9119 56.0207 28.1113 56.6162 26.3471 56.7532C25.465 56.8217 24.4949 56.8371 23.596 56.5351C23.1906 56.4107 22.7503 56.1451 22.5042 55.7565C22.1701 55.3147 22.2596 54.7681 22.5252 54.3278L22.5601 54.469C20.9371 54.571 19.3142 54.6731 17.6562 54.6339C15.9983 54.5948 14.3934 54.4676 12.8599 54.023C12.0491 53.7742 11.2914 53.4373 10.64 52.9242C9.98856 52.4112 9.58456 51.6871 9.37487 50.8399C9.16518 49.9928 9.69639 49.1121 10.4205 48.7081C11.1447 48.3041 11.9387 48.1825 12.8208 48.114L12.7677 48.202C11.3935 47.4933 9.98437 46.6434 8.87582 45.4943C7.71414 44.4332 6.76495 43.0199 6.80409 41.362L6.89216 41.4151C6.99421 43.0381 7.96158 44.2221 9.12325 45.2832C10.3381 46.2561 11.6591 47.0529 12.9452 47.7086L14.6367 48.4886L12.7313 48.6606C12.0785 48.7472 11.2313 48.9569 10.7015 49.2379C10.1186 49.607 9.99415 50.0124 10.1339 50.5771C10.2038 50.8595 10.2737 51.1419 10.5198 51.5305C10.6428 51.7248 10.8539 51.9723 11.153 52.2728C11.6283 52.6796 12.386 53.0165 13.0207 53.1591C14.5542 53.6037 16.159 53.7309 17.7289 53.7169C19.2988 53.7029 20.8686 53.6889 22.4036 53.5338L23.7973 53.4136L23.1417 54.6996C22.9823 54.9639 23.0173 55.1051 23.0522 55.2462C23.1752 55.4406 23.4394 55.5999 23.8448 55.7243C24.5144 56.0081 25.4315 56.0808 26.2255 55.9592C27.9016 55.7691 29.5959 55.3497 31.2203 54.6479C34.4342 53.1032 37.2091 50.6932 39.5087 47.8764Z" fill="#36661C"/>
<path d="M34.9014 41.373C36.4838 43.5287 37.9782 45.6311 39.4726 47.7336L39.4195 47.8217C38.803 47.4499 38.3277 47.0431 37.7643 46.5831C37.289 46.1763 36.92 45.5934 36.4978 45.0985C36.1287 44.5156 35.7597 43.9327 35.4787 43.4028C35.2509 42.785 34.9349 42.114 34.9014 41.373Z" fill="#5CB523"/>
<path d="M33.9839 26.7677C35.4 24.6191 36.605 22.2231 37.6339 19.7208C38.6628 17.2185 39.4624 14.698 39.7686 12C39.6917 14.7162 39.0682 17.3429 38.2686 19.8634C37.4158 22.4719 36.3869 24.9742 35.1819 27.3702L34.037 26.6797L33.9839 26.7677Z" fill="#488C1C"/>
<path d="M34.0517 27.0445C32.6412 26.7942 31.4782 26.3329 30.2801 25.7304C29.0821 25.1279 28.0253 24.4904 26.9866 23.6237C24.9442 22.0315 23.2555 20.052 21.9023 17.9146C23.4498 19.929 25.2448 21.7323 27.3053 23.0953C28.3622 23.7327 29.419 24.3702 30.5821 24.8315C31.7452 25.2929 32.9614 25.6661 34.1077 25.757L34.0517 27.0445Z" fill="#488C1C"/>
<path d="M37.6652 35.5946C38.3013 35.1375 39.0436 34.5042 39.6447 33.9059C40.2458 33.3076 40.8119 32.5681 41.3781 31.8286C42.4573 30.4376 43.5016 28.9055 44.2816 27.214C43.6428 28.8706 42.8627 30.5621 41.9065 32.1473C41.4284 32.9399 40.9503 33.7326 40.3842 34.4721C39.818 35.2116 39.2518 35.9511 38.5095 36.5843L37.6652 35.5946Z" fill="#488C1C"/>
<path d="M36.9407 37.1973C34.437 36.7681 32.0927 36.0747 29.8197 35.064C27.5997 33.9653 25.5923 32.5142 24.1329 30.5529C25.6454 32.4261 27.8122 33.613 30.0503 34.4825C32.2884 35.352 34.6509 35.8161 36.9966 35.9098L36.9407 37.1973Z" fill="#488C1C"/>
<path d="M44.5774 45.6445C46.2339 46.2834 48.0498 46.658 49.7959 46.7503C51.5419 46.8426 53.3061 46.7056 55.0003 46.2862C56.6946 45.8668 58.4071 45.2182 59.7673 44.3571C60.4033 43.8999 61.1457 43.2667 61.182 42.8082C61.2002 42.5789 61.2533 42.4908 60.9891 42.3315C60.813 42.2252 60.4607 42.0127 60.0553 41.8883L58.2575 41.2844L60.0762 40.4596C61.2771 39.8627 62.4779 39.2658 63.5906 38.6158C64.7034 37.9657 65.8343 37.0864 66.5067 36.1708C66.8255 35.6424 66.9848 35.3782 66.845 34.8134C66.6871 34.4779 66.3879 34.1774 65.8413 34.0879C64.7481 33.9089 63.3894 34.1704 62.2067 34.538L60.1238 35.2034L61.5916 33.5664C62.812 32.1406 63.8563 30.6084 64.6014 28.7757C65.3814 27.0842 65.8092 25.1803 65.408 23.2567L65.5492 23.2218C66.0916 25.1104 65.6987 27.1555 65.0948 28.9533C64.3497 30.786 63.3404 32.4593 62.2081 33.9383L62.12 33.8852C63.3558 33.4295 64.7677 33.08 66.1782 33.3302C66.8129 33.4728 67.5174 33.8978 67.7803 34.6568C68.0962 35.3278 67.8473 36.1386 67.3874 36.702C66.5557 37.8819 65.4779 38.6731 64.312 39.4112C63.1461 40.1493 61.9453 40.7462 60.6564 41.29L60.6214 41.1488C61.0268 41.2732 61.4672 41.5388 61.7663 41.8394C62.1536 42.1931 62.3465 42.6698 62.1689 43.1632C61.867 44.0621 61.0366 44.6422 60.3474 45.1874C58.7929 46.1716 57.0455 46.679 55.2632 47.0453C51.5754 47.5835 47.8192 47.2396 44.5774 45.6445Z" fill="#36661C"/>
<path d="M65.2295 23.1518C64.9485 22.622 64.4732 22.2152 64.1027 22.232C63.6442 22.1956 63.2025 22.5297 62.7607 22.8638C61.8423 23.3908 61.0287 24.3414 60.3213 25.1159C59.5609 25.9784 58.7123 26.7878 57.9518 27.6503C57.1914 28.5128 56.4658 29.5166 55.7054 30.3791L53.9719 32.4564L53.6252 29.8451C53.5218 28.8218 53.1891 27.7803 52.9445 26.792C52.6998 25.8037 51.9435 24.867 51.8904 24.9551C51.8023 24.902 51.3788 25.0068 51.0251 25.3941C50.6714 25.7813 50.3177 26.1685 50.0521 26.6089C49.3797 27.5245 48.8485 28.4052 48.211 29.462L48.123 29.4089C48.5312 28.3339 48.9394 27.2589 49.5237 26.2901C49.7893 25.8498 50.1081 25.3214 50.4617 24.9341C50.8154 24.5469 51.3103 24.1247 51.9631 24.0381C52.5628 24.0395 53.0731 24.5875 53.4072 25.0292C53.7413 25.4709 54.0223 26.0008 54.162 26.5655C54.5828 27.6601 54.9155 28.7016 55.107 29.778L54.8778 29.7598C56.3638 27.8936 58.0259 26.1336 59.723 24.5148C60.5716 23.7054 61.5082 22.9491 62.5678 22.3871C63.0976 22.1061 63.7155 21.8783 64.3502 22.0209C64.8618 21.9692 65.2309 22.5521 65.2295 23.1518Z" fill="#5CB523"/>
<path d="M44.8809 35.98C45.2317 36.7922 45.3534 37.5862 45.3338 38.4152C45.4554 39.2092 45.4358 40.0382 45.4163 40.8671C45.3086 41.643 45.289 42.472 45.1814 43.2478C45.0738 44.0237 44.8249 44.8345 44.5761 45.6453L44.488 45.5921C44.5132 42.3643 44.6264 39.1896 44.8809 35.98Z" fill="#5CB523"/>
<path d="M50.7351 59.9291L49.6014 62.0078L48.3796 64.0334L48.2034 63.9272C47.8875 63.2562 47.8358 62.7445 47.7309 62.321C47.7673 61.8624 47.8917 61.4571 48.0161 61.0517C48.2286 60.6994 48.5291 60.4002 48.9178 60.1542C49.3064 59.9081 49.7831 59.7152 50.524 59.6817L50.7882 59.8411L50.7351 59.9291Z" fill="#36661C"/>
<path d="M42.7598 45.2722C43.5539 45.1506 44.7016 44.6417 45.62 44.1147C46.5385 43.5877 47.51 42.9726 48.3935 42.3044C50.1605 40.968 51.8045 39.4373 53.4135 37.7653C56.5784 34.5096 59.3561 30.9001 61.9577 27.1844C59.6203 31.0595 57.0537 34.9164 54.0999 38.4196C52.5789 40.1446 51.058 41.8697 49.2379 43.2942C48.3012 44.0504 47.4177 44.7187 46.3931 45.4218C45.4215 46.0369 44.4499 46.652 43.038 47.0015L42.7598 45.2722Z" fill="#36661C"/>
<path d="M41.1137 48.0014C38.9063 49.0722 36.7186 49.314 34.4959 49.4147C32.2731 49.5153 30.1217 49.2987 27.9885 48.8527C23.722 47.9608 19.6512 46.3462 15.7929 44.3793C19.7575 46.1701 23.8995 47.4674 28.1492 47.9888C30.2475 48.2935 32.364 48.369 34.4637 48.0741C36.5103 47.8672 38.7162 47.3961 40.3588 46.4651L41.1137 48.0014Z" fill="#36661C"/>
<path d="M30.6493 49.0142C29.12 46.7705 27.3083 44.5967 25.3903 42.5991C23.4724 40.6015 21.3601 38.7268 19.1416 37.0283C21.4664 38.5507 23.6317 40.3372 25.6909 42.2999C27.75 44.2626 29.668 46.2603 31.2854 48.5571L30.6493 49.0142Z" fill="#36661C"/>
<path d="M25.0985 48.0692C23.1205 49.1582 21.1256 49.8768 19.0427 50.5422C16.9248 51.0664 14.684 51.3963 12.6038 50.8623C14.7902 51.2202 16.9081 50.6959 18.9379 50.1186C20.9327 49.4001 22.9457 48.4523 24.6945 47.3451L25.0985 48.0692Z" fill="#36661C"/>
<path d="M35.0785 49.0455C33.6288 50.4532 32.0562 51.6666 30.2724 52.6326C28.5418 53.5104 26.6532 54.0528 24.6597 54.1717C26.6182 53.9116 28.4719 53.2281 30.0795 52.1559C31.7752 51.1368 33.2598 49.8702 34.4802 48.4443L35.0785 49.0455Z" fill="#36661C"/>
<path d="M51.573 40.0196C51.5422 38.0793 51.5995 36.1921 51.7449 34.358C51.8903 32.5239 52.0008 30.5486 52.5166 28.6978C52.23 30.5668 52.1727 32.454 52.2035 34.3943C52.2342 36.3346 52.3181 38.1869 52.49 40.0923L51.573 40.0196Z" fill="#36661C"/>
<path d="M54.1883 37.2731C57.5923 37.4045 61.1206 37.1305 64.3862 36.0975C62.7618 36.7992 61.0675 37.2186 59.3732 37.638C57.644 37.9162 55.9147 38.1943 54.1156 38.1902L54.1883 37.2731Z" fill="#36661C"/>
<path d="M49.3275 42.1438C50.7548 42.7645 52.3764 43.2622 54.0161 43.5306C55.6559 43.799 57.3138 43.8381 58.8669 43.4537C57.2957 44.0674 55.5846 44.1163 53.9798 43.9891C52.375 43.8619 50.6471 43.5404 49.0786 42.9546L49.3275 42.1438Z" fill="#36661C"/>
<path d="M18.7794 34.0509C20.3968 36.3477 22.4042 37.7988 24.4298 39.0206C26.7196 40.4018 29.0989 41.2363 31.4963 41.8416C32.8537 42.1799 34.2642 42.4302 35.7279 42.5923L34.2852 41.0015C31.3244 39.9363 28.5229 38.6068 25.899 36.7839C25.3706 36.4652 24.9834 36.1115 24.5081 35.7047L18.7794 34.0509Z" fill="#A9C994"/>
<path d="M28.4485 1.6882C27.2658 2.05585 26.6815 3.02463 26.1852 4.04651C25.6889 5.0684 25.4569 6.24965 25.2779 7.34283C24.8669 9.61726 24.7202 12.0511 24.6796 14.3087L24.695 15.2789L23.5305 15.4173C22.9657 15.5571 22.401 15.6968 22.0655 15.8548C21.7649 16.154 21.5175 16.3651 21.3931 16.7705C21.1442 17.5813 21.3176 18.8869 21.6852 20.0696C22.0529 21.2522 22.5967 22.5411 23.1936 23.7419C23.7905 24.9428 24.5286 26.1086 25.1787 27.2214L27.2518 30.754L23.427 29.528C22.9336 29.3505 22.4751 29.3141 22.1577 29.2428C21.7873 29.2596 21.593 29.3826 21.6461 29.2945C21.6461 29.2945 21.5398 29.4707 21.5566 29.8411C21.5734 30.2116 21.7663 30.6883 22.0123 31.0769C22.9783 32.8606 24.6502 34.4697 26.4284 35.9026C28.2066 37.3354 30.2853 38.4692 32.4171 39.5148C34.4427 40.7366 36.6808 41.6061 38.9189 42.4756L38.8126 42.6518C34.1939 41.5474 29.5765 39.8433 25.5966 37.0824C23.7653 35.7376 21.8642 34.1104 20.6522 31.938C20.3712 31.4082 20.0902 30.8784 20.0035 30.2255C19.9168 29.5727 19.9714 28.8849 20.3782 28.4096C20.785 27.9343 21.4909 27.7596 22.1437 27.6729C22.7435 27.6743 23.3781 27.8169 24.0128 27.9595L23.8534 28.2237C22.2891 25.8388 21.0604 23.296 20.2202 20.5071C19.8176 19.1833 19.5212 17.6833 20.0007 16.291C20.1964 15.5682 20.7976 14.9699 21.3805 14.6009C22.0515 14.2849 22.7575 14.1102 23.4984 14.0767L23.3921 14.2528C23.5389 11.819 23.8618 9.49145 24.5552 7.14712C24.8753 6.01899 25.2486 4.80279 25.8329 3.83403C26.4173 2.86526 27.3371 1.73853 28.5547 1.51207L28.4485 1.6882Z" fill="#7DC435"/>
<path d="M44.5893 38.4484C44.8898 38.1493 45.1904 37.8501 45.544 37.4629C46.9588 35.914 48.2504 34.1708 49.366 32.3213C49.9503 31.3525 50.4466 30.3307 50.8199 29.1145C51.5118 27.3698 51.7299 24.6187 50.9191 24.3699C50.6018 24.2986 49.9643 25.3554 49.6456 25.8838C49.2206 26.5884 47.8562 29.2487 47.8562 29.2487C47.6605 29.9714 47.3767 30.641 47.0398 31.3987C46.3129 33.0021 45.463 34.4112 44.5599 35.9084L44.5893 38.4484Z" fill="#C3DAB4"/>
<path d="M40.7368 41.6487C41.7993 39.8873 42.8617 38.1259 43.871 36.4526C44.8454 34.6381 45.7666 32.9116 46.5117 31.0789C46.9549 30.1451 47.2568 29.2463 47.4707 28.2943C47.6315 27.4303 47.7573 26.4252 47.4232 25.9835C47.2303 25.5068 46.6487 25.2761 45.7666 25.3446C44.9377 25.3251 43.9493 25.5697 43.1022 25.7794L41.4959 26.2519L41.6763 24.559C41.9097 22.778 42.1083 20.8559 42.1656 18.9687C42.311 17.1346 42.3683 15.2474 42.1432 13.4301C42.0747 12.548 41.865 11.7008 41.6022 10.9417C41.3394 10.1827 40.9172 9.6878 40.4238 9.51026C40.0184 9.38585 39.1712 9.59553 38.5002 9.91146C37.7761 10.3155 36.9988 10.8075 36.3446 11.4939L35.3017 12.4263L34.9872 11.1556C34.4979 9.17894 33.7263 7.27216 32.7603 5.4884C32.3214 4.62308 31.7412 3.79272 31.0199 2.99729C30.3335 2.34306 29.4179 1.67065 28.4128 1.54484L28.3778 1.40365C29.436 1.44139 30.4579 1.93765 31.2324 2.64501C32.0068 3.35236 32.675 4.23586 33.2552 5.06623C34.3623 6.81504 35.2221 8.77495 35.7994 10.8047L35.6233 10.6985C36.3656 10.0652 37.1079 9.43197 37.8851 8.9399C38.6624 8.44783 39.7038 8.11512 40.6558 8.32901C41.6959 8.59602 42.2229 9.51446 42.6087 10.4678C42.9946 11.4212 43.1511 12.3565 43.2196 13.2386C43.7047 17.0144 43.3077 20.8587 42.7345 24.5967L42.5584 24.4905C43.5467 24.2459 44.5351 24.0012 45.5933 24.039C46.5635 24.0236 47.8328 24.3088 48.2535 25.4034C48.7274 26.4099 48.4604 27.4499 48.1934 28.49C47.9264 29.53 47.5364 30.3758 47.0933 31.3096C45.3207 35.0449 43.0728 38.3733 40.5956 41.6836L40.7368 41.6487Z" fill="#488C1C"/>
<path d="M41.5529 40.6976C41.1321 39.603 40.6582 38.5965 40.2374 37.5019C38.5529 33.7233 37.0096 29.9098 35.5544 26.1493C34.7827 24.2425 34.0642 22.2477 33.3806 20.394C32.6089 18.4873 31.9785 16.5455 31.2599 14.5507L31.1188 14.5856C33.1108 22.6335 35.8619 30.4186 39.0897 38.0108C39.6335 39.2997 40.2654 40.6417 40.8092 41.9306L41.5529 40.6976Z" fill="#A9C994"/>
<path d="M31.1719 14.4976C33.217 22.4574 36.0031 30.3837 39.284 37.8878C40.9154 41.7544 42.653 45.445 44.5318 49.1006C46.4106 52.7562 48.4306 56.3768 50.645 59.8744L50.5918 59.9625C49.3435 58.2486 48.1832 56.5879 47.0761 54.8391C45.9689 53.0903 44.9149 51.2534 43.9489 49.4696C41.9289 45.849 40.1032 42.1053 38.4187 38.3267C36.8754 34.5131 35.3852 30.6115 34.0362 26.6749C33.4589 24.6451 32.8284 22.7034 32.3391 20.7267C31.8149 18.6089 31.4668 16.5973 31.1719 14.4976Z" fill="#4D9E35"/>
<path d="M48.1851 64.1559C46.0952 60.2529 44.482 56.1569 42.6745 52.184C40.9201 48.123 39.2538 44.1151 37.7818 39.9843C34.8377 31.7225 32.5116 23.2328 30.9795 14.6216L31.0676 14.6747C31.5918 16.7926 32.116 18.9104 32.7283 21.0814C33.2525 23.1993 33.9179 25.2822 34.5302 27.4532C35.861 31.619 37.0507 35.8198 38.6639 39.9157C40.1359 44.0466 41.661 48.0895 43.4154 52.1505L45.8352 58.2944C46.5719 60.0599 47.3785 62.1079 48.1851 64.1559Z" fill="#7DC435"/>
</svg>
