<svg width="24" height="23" viewBox="0 0 24 23" fill="none" xmlns="http://www.w3.org/2000/svg">
<path d="M11.8691 10.6942C12.9126 9.60997 13.9561 8.56916 15.0865 7.52834C16.3474 6.35742 17.6517 5.27324 18.9996 4.23242C17.6517 5.44671 16.3909 6.70436 15.13 8.00538C14.1735 9.00283 13.3039 10.0436 12.3909 11.0845C12.1735 11.3447 11.9561 11.6049 11.7822 11.8217C11.4344 12.2554 11.0865 12.7324 10.7387 13.1661C10.3039 13.7299 9.91262 14.2503 9.47784 14.8141C9.17349 15.2044 8.91262 15.5947 8.60827 16.0283C7.65175 17.4595 6.69523 18.9773 5.86914 20.4518L3.86914 20.3651C4.86914 18.8472 6.65175 16.7656 7.78218 15.3778C8.04305 14.9875 8.3474 14.6406 8.69523 14.2503C9.13001 13.7299 9.56479 13.1661 10.0431 12.6457C10.4344 12.212 10.8257 11.7783 11.217 11.3447C11.4344 11.1278 11.6517 10.911 11.8691 10.6942Z" fill="#488C1C"/>
<path d="M8.21726 13.8594C2.52161 13.2089 0.82596 8.82881 2.43466 8.82881C2.43466 8.82881 -0.130561 5.18596 0.82596 3.71147C1.739 2.32371 2.69553 3.84157 2.78248 4.01504C2.78248 3.75483 2.69553 1.23953 4.13031 0.502282C5.65205 -0.27833 6.21726 3.88493 6.21726 3.88493C6.21726 3.88493 9.30422 0.242078 9.739 5.663C9.43466 6.96402 9.3477 8.74208 9.69553 10.9538L8.21726 13.8594Z" fill="#488C1C"/>
<path d="M13.6951 13.5561C14.7821 13.6428 15.956 13.6428 16.8691 13.4694H16.9125C22.3038 12.8189 18.0864 16.028 18.0864 16.028C18.0864 16.028 24.2169 17.1556 22.5647 18.6734C20.8691 20.1913 17.8691 19.4974 17.8691 19.4974C17.8691 19.4974 19.6082 20.9719 18.6082 21.7959C17.6082 22.5765 14.8691 20.3648 14.8691 20.3648C15.3038 23.0102 10.1734 19.7576 10.043 15.3775L13.6951 13.5561Z" fill="#488C1C"/>
<path d="M12.4781 4.23208C12.4781 4.23208 13.9564 1.58667 15.4346 0.762695L15.8259 1.36984C13.9999 4.83923 15.0433 7.528 15.0433 7.528C13.9564 8.52545 12.8694 9.60963 11.8259 10.6938C11.6085 10.9107 11.3912 11.1709 11.1738 11.3877C10.7825 11.8214 10.3912 12.255 9.99985 12.6887C9.82594 12.0816 9.73898 11.5178 9.65203 10.954C9.34768 8.69892 9.43463 6.92086 9.73898 5.61984C10.3912 2.80096 12.0868 2.15045 12.4781 4.23208Z" fill="#63AA35"/>
<path d="M12.3914 11.0841C13.261 10.0433 14.174 9.00252 15.1306 8.00507C16.348 6.70405 17.6523 5.40303 19.0001 4.23211C17.6523 5.27292 16.348 6.40047 15.0871 7.52803C15.0871 7.52803 14.0436 4.83925 15.8697 1.36986L15.4784 0.762719C16.2175 0.329046 17.0001 0.329046 17.6088 1.3265C17.6088 1.3265 22.174 -0.841872 23.348 0.675985C24.2175 2.45405 21.3045 5.27292 21.3045 5.27292C27.0871 7.31119 17.5219 10.5637 17.5219 10.5637C19.2175 12.4285 18.4349 13.1658 16.9132 13.4694H16.8697C15.9132 13.6428 14.7393 13.6428 13.6958 13.5561C12.0871 13.426 10.7393 13.2091 10.7393 13.2091C11.0871 12.7755 11.4349 12.2984 11.7827 11.8648C12.0001 11.6046 12.2175 11.3444 12.3914 11.0841Z" fill="#63AA35"/>
<path d="M4.17383 0.502754C4.34774 0.41602 4.56513 0.372652 4.73905 0.459387C4.95644 0.502755 5.08687 0.632856 5.21731 0.762958C5.47818 1.06653 5.65209 1.3701 5.78252 1.71704C6.04339 2.41092 6.21731 3.14816 6.34774 3.88541L6.21731 3.84204C6.56513 3.4951 6.95644 3.14816 7.39122 2.88796C7.826 2.62775 8.4347 2.49765 8.86948 2.84459C9.30426 3.19153 9.47818 3.66857 9.60861 4.14561C9.69557 4.66602 9.78252 5.14306 9.78252 5.66347H9.73905C9.60861 5.18643 9.47818 4.70939 9.26079 4.27571C9.08687 3.84204 8.826 3.40837 8.56513 3.27826C8.34774 3.06143 8.04339 3.14816 7.65209 3.365C7.30426 3.58184 6.95644 3.88541 6.65209 4.18898L5.91296 4.96959L5.78252 3.97214C5.69557 3.27826 5.56513 2.54102 5.39122 1.89051C5.30426 1.54357 5.17383 1.19663 5.04339 0.936428C4.86948 0.632857 4.60861 0.459387 4.21731 0.589489L4.17383 0.502754Z" fill="#5CB523"/>
<path d="M8.2603 13.9463C6.73856 13.7728 5.21682 13.2958 3.95595 12.3851C3.30378 11.9514 2.73856 11.431 2.30378 10.7805C2.08639 10.4336 1.91248 10.0866 1.869 9.69632C1.869 9.52285 1.869 9.30601 1.95595 9.13254C2.04291 8.95907 2.2603 8.87234 2.47769 8.87234H2.43421C2.04291 8.35193 1.69508 7.74479 1.39074 7.13765C1.08639 6.5305 0.825519 5.87999 0.695084 5.22948C0.608127 4.88254 0.608128 4.5356 0.651606 4.18867C0.738562 3.84173 0.912475 3.53816 1.17334 3.32132C1.47769 3.10448 1.91248 3.10448 2.17334 3.32132C2.47769 3.49479 2.69508 3.79836 2.869 4.05856H2.82552C2.82552 3.40805 2.869 2.71418 3.04291 2.06367C3.21682 1.45652 3.56465 0.806013 4.17334 0.502441V0.545809C3.60813 0.892747 3.30378 1.54326 3.17334 2.1504C3.08639 2.75754 3.04291 3.45142 3.04291 4.05856L3.08639 4.88254L2.65161 4.18867C2.47769 3.92846 2.2603 3.66826 2.04291 3.53816C1.78204 3.40805 1.56465 3.40805 1.39074 3.58152C1.30378 3.66826 1.21682 3.75499 1.12987 3.88509C1.04291 4.0152 0.999432 4.1453 0.999432 4.2754C0.955954 4.5356 0.955954 4.83918 1.04291 5.14275C1.17334 5.74989 1.43421 6.4004 1.73856 6.96418C2.04291 7.57132 2.39074 8.13509 2.73856 8.69887L3.04291 9.17591H2.43421C2.30378 9.17591 2.2603 9.21928 2.21682 9.26265C2.21682 9.34938 2.21682 9.47948 2.21682 9.65295C2.2603 9.95652 2.39074 10.3035 2.60813 10.607C2.99943 11.2142 3.47769 11.7346 4.08639 12.1683C5.30378 13.079 6.73856 13.6427 8.2603 13.9463Z" fill="#36661C"/>
<path d="M9.78201 10.9541C9.30375 11.9516 8.78201 12.949 8.26028 13.9031H8.2168C8.2168 13.5995 8.30375 13.3393 8.39071 13.0357C8.47767 12.7755 8.6081 12.5153 8.69506 12.2551C8.82549 12.0383 8.95593 11.7781 9.12984 11.5612C9.30375 11.3444 9.47767 11.1276 9.78201 10.9541Z" fill="#5CB523"/>
<path d="M15.0432 7.7016C16.1302 7.78834 17.3041 7.78834 18.3911 7.7016C19.5215 7.5715 20.6519 7.39803 21.6954 6.96436C20.6519 7.4414 19.565 7.74497 18.4345 7.9618C17.3041 8.13527 16.1737 8.26538 14.9998 8.26538L15.0432 7.7016Z" fill="#488C1C"/>
<path d="M14.9129 7.83172C14.739 7.26795 14.6956 6.70417 14.6956 6.1404C14.6956 5.57662 14.739 5.05621 14.826 4.5358C15.0434 3.45162 15.4347 2.45417 15.9564 1.54346C15.5216 2.49754 15.2173 3.53835 15.0869 4.57917C15.0434 5.09958 15.0434 5.61999 15.0869 6.1404C15.1303 6.6608 15.2608 7.18121 15.4347 7.61488L14.9129 7.83172Z" fill="#488C1C"/>
<path d="M12.4781 10.8672C12.7825 10.9973 13.1738 11.1274 13.5216 11.2141C13.8694 11.3009 14.2607 11.3876 14.652 11.4743C15.3912 11.6478 16.1303 11.6912 16.9129 11.6912C16.1738 11.7779 15.3912 11.8213 14.6086 11.7779C14.2173 11.7345 13.826 11.6912 13.4347 11.6478C13.0434 11.5611 12.652 11.5177 12.2607 11.3442L12.4781 10.8672Z" fill="#488C1C"/>
<path d="M11.7391 10.8673C11.3912 9.86988 11.2173 8.82906 11.1739 7.78825C11.1304 6.7908 11.2608 5.70661 11.7391 4.7959C11.3478 5.74998 11.3043 6.7908 11.4347 7.78825C11.5652 8.78569 11.8695 9.73978 12.2608 10.6505L11.7391 10.8673Z" fill="#488C1C"/>
<path d="M10.0869 15.3774C10.1739 16.1147 10.3913 16.8519 10.6956 17.5458C11 18.1963 11.4347 18.8468 11.913 19.4106C12.3913 19.931 12.9565 20.4081 13.5652 20.755C13.8695 20.9285 14.2173 21.0586 14.4347 21.0152C14.5217 20.9718 14.5652 20.9718 14.5652 20.8417C14.6087 20.755 14.6087 20.5815 14.5652 20.4081L14.4347 19.6274L15.0869 20.1479C15.5217 20.4514 16.0434 20.755 16.5217 21.0586C17 21.3188 17.5217 21.579 18 21.6657C18.2608 21.6657 18.3913 21.6657 18.5652 21.4922C18.6521 21.4055 18.6956 21.232 18.6521 20.9718C18.5217 20.5382 18.1304 20.0611 17.7391 19.6708L17.0869 19.0637L17.9565 19.2805C18.6956 19.454 19.5217 19.5407 20.3043 19.454C21.0869 19.4106 21.913 19.1938 22.5217 18.6734L22.5652 18.7167C21.9565 19.2805 21.1304 19.5407 20.3478 19.6708C19.5217 19.7575 18.6956 19.7142 17.913 19.5407L17.9565 19.4973C18.3478 19.8876 18.7391 20.3213 18.9565 20.9285C19.0434 21.1887 19 21.5356 18.7826 21.7524C18.5652 21.9693 18.2173 22.056 17.9565 22.0126C17.3478 21.9259 16.826 21.6657 16.3043 21.3621C15.826 21.1019 15.3478 20.755 14.8695 20.4081L14.913 20.3647C14.9565 20.5382 14.9565 20.755 14.913 20.9285C14.8695 21.1453 14.6956 21.3188 14.5217 21.3188C14.0869 21.4055 13.7391 21.232 13.3913 21.0586C12.7391 20.6683 12.1739 20.1479 11.6956 19.5407C10.7391 18.3698 10.0869 16.8953 10.0869 15.3774Z" fill="#36661C"/>
<path d="M22.5648 18.6736C22.6952 18.4568 22.7822 18.24 22.6952 18.0665C22.5648 17.9364 22.3909 17.8063 22.1735 17.7195C21.7822 17.5027 21.3039 17.3292 20.8257 17.1991C20.3474 17.1124 19.9126 16.9389 19.4344 16.8522C18.9561 16.7221 18.4344 16.6354 17.9996 16.5486L16.8691 16.3318L17.7822 15.6813C18.13 15.4211 18.4778 15.1175 18.7822 14.8139C19.0865 14.5104 19.3039 14.0767 19.2604 14.0333C19.2604 13.99 19.13 13.8599 18.9126 13.8165C18.7387 13.7298 18.5213 13.6864 18.3039 13.6864C17.8257 13.5996 17.3474 13.5996 16.8691 13.5563V13.5129C17.3474 13.4262 17.8257 13.3828 18.3039 13.3828C18.5213 13.3828 18.7822 13.3828 18.9996 13.4695C19.217 13.5129 19.4778 13.5997 19.6083 13.8165C19.7387 14.0767 19.6517 14.3369 19.5648 14.5537C19.4344 14.7706 19.3039 14.944 19.13 15.1175C18.8257 15.5078 18.4778 15.8114 18.0865 16.115V16.0282C19.0865 16.2017 20.0431 16.4619 20.9996 16.8088C21.4778 16.9823 21.9561 17.1991 22.3474 17.4593C22.5648 17.5894 22.7387 17.8063 22.8257 18.0231C22.9561 18.2833 22.7822 18.5435 22.5648 18.6736Z" fill="#5CB523"/>
<path d="M13.7391 13.5996C13.4782 13.8598 13.2173 14.0333 12.913 14.2501C12.6521 14.467 12.3043 14.5971 12.0434 14.7705C11.7391 14.9006 11.4347 15.0307 11.0869 15.1608C10.7826 15.2476 10.4347 15.3343 10.0869 15.3777V15.3343C11.2608 14.7272 12.4782 14.12 13.7391 13.5996Z" fill="#5CB523"/>
<path d="M5.91262 20.4951H4.91262L3.86914 20.4517V20.365C4.08653 20.1048 4.26044 19.9746 4.39088 19.8879C4.56479 19.8012 4.73871 19.7578 4.91262 19.7578C5.08653 19.7578 5.26044 19.8012 5.43436 19.9313C5.60827 20.018 5.78218 20.1915 5.91262 20.4517V20.4951Z" fill="#36661C"/>
<path d="M9.82549 14.6406C10.0429 14.9008 10.4342 15.2478 10.8255 15.4646C11.2168 15.7682 11.6516 15.985 12.0429 16.1585C12.9124 16.5488 13.782 16.8957 14.6951 17.1559C16.5211 17.6763 18.4342 18.0233 20.3472 18.2401C18.4342 18.1534 16.5211 17.9365 14.6516 17.5029C13.6951 17.286 12.7385 17.0258 11.8255 16.6789C11.3907 16.5054 10.9124 16.2886 10.4777 16.0284C10.0429 15.8115 9.65158 15.5513 9.2168 15.1177L9.82549 14.6406Z" fill="#36661C"/>
<path d="M8.52131 14.5966C7.69523 13.9461 7.17349 13.2088 6.69523 12.3849C6.21697 11.5609 5.86914 10.6935 5.60827 9.82619C5.08653 8.04813 4.86914 6.2267 4.86914 4.40527C4.99958 6.2267 5.30392 8.04813 5.9561 9.69609C6.26044 10.5201 6.65175 11.344 7.13001 12.0813C7.65175 12.8185 8.26044 13.5124 8.91262 13.9461L8.52131 14.5966Z" fill="#36661C"/>
<path d="M6.08691 10.8671C6.65213 9.86969 7.08691 8.74214 7.47822 7.65795C7.82604 6.5304 8.13039 5.40285 8.30431 4.23193C8.17387 5.40285 7.95648 6.57377 7.65213 7.70132C7.30431 8.82887 6.913 9.95642 6.39126 11.0406L6.08691 10.8671Z" fill="#36661C"/>
<path d="M5.30397 8.61208C4.52136 8.09168 3.8257 7.5279 3.17353 6.83402C2.56484 6.14015 1.99962 5.35953 1.78223 4.49219C2.08657 5.35953 2.65179 6.09678 3.30397 6.70392C3.95614 7.31106 4.69527 7.87484 5.47788 8.30851L5.30397 8.61208Z" fill="#36661C"/>
<path d="M6.95605 12.5156C6.12997 12.2987 5.34736 11.9084 4.65171 11.4314C3.99953 10.9543 3.39084 10.3472 2.95605 9.65332C3.43432 10.3038 4.08649 10.8676 4.78214 11.3013C5.47779 11.6916 6.2604 11.9952 7.04301 12.1686L6.95605 12.5156Z" fill="#36661C"/>
<path d="M13.5654 16.8951C14.2611 16.5048 15.0002 16.1578 15.7393 15.8543C16.4785 15.5507 17.2176 15.2037 18.0002 15.0303C17.2176 15.2471 16.522 15.6374 15.8263 15.9844C15.1306 16.3747 14.435 16.8083 13.7828 17.1986L13.5654 16.8951Z" fill="#36661C"/>
<path d="M15.1301 17.3291C15.6953 18.6301 16.5214 19.8878 17.5648 20.9286C16.9996 20.4516 16.4779 19.8878 16.0431 19.324C15.5648 18.7602 15.1301 18.1531 14.7822 17.5026L15.1301 17.3291Z" fill="#36661C"/>
<path d="M12.3041 16.4619C12.3476 17.1124 12.4781 17.8063 12.6955 18.4568C12.9128 19.1073 13.2172 19.7578 13.6955 20.2349C13.1737 19.7578 12.8259 19.1507 12.5215 18.5002C12.2607 17.8497 12.0433 17.1992 11.9128 16.4619H12.3041Z" fill="#36661C"/>
<path d="M9.30419 3.49463C8.73897 4.53545 8.60853 5.53289 8.56506 6.53034C8.52158 7.65789 8.69549 8.74208 8.91288 9.73953C9.04332 10.3467 9.26071 10.9104 9.4781 11.4742L9.78245 10.6069C9.60853 9.30585 9.56506 8.00483 9.69549 6.70381C9.73897 6.44361 9.78245 6.22677 9.82593 5.96657L9.30419 3.49463Z" fill="#A9C994"/>
<path d="M23.3042 0.719537C22.9564 0.372598 22.4781 0.329231 21.9999 0.372599C21.5216 0.415966 21.0433 0.502701 20.5651 0.67617C19.652 0.979741 18.6955 1.37005 17.8694 1.80372L17.4781 2.02056L17.2172 1.58688C17.0433 1.41341 16.8694 1.23995 16.739 1.15321C16.5651 1.10984 16.4346 1.06648 16.2607 1.10984C15.9129 1.15321 15.4781 1.50015 15.0868 1.84709C14.6955 2.23739 14.3477 2.67107 14.0433 3.14811C13.6955 3.58178 13.3912 4.10219 13.1303 4.57923L12.2172 6.05372L11.9129 4.36239C11.8694 4.18892 11.7825 3.97209 11.739 3.84199C11.652 3.71188 11.6085 3.66852 11.6085 3.66852C11.6085 3.66852 11.5216 3.66852 11.4346 3.75525C11.2607 3.84199 11.1303 3.97209 10.9999 4.14556C10.5216 4.83944 10.2607 5.79352 10.0868 6.7476C9.91289 7.70168 9.9129 8.65576 9.9129 9.65321C9.9129 10.6507 10.0433 11.6481 10.1303 12.6456H10.0433C9.56507 10.7374 9.3042 8.69913 9.52159 6.66086C9.65203 5.66342 9.86942 4.66597 10.4346 3.79862C10.5651 3.58178 10.739 3.36495 10.9564 3.23484C11.1738 3.06137 11.4781 2.93127 11.739 3.01801C11.9999 3.06137 12.2172 3.32158 12.3477 3.53842C12.4781 3.75525 12.5651 3.97209 12.6085 4.23229H12.4781C13.0868 3.19148 13.7825 2.23739 14.6085 1.37005C15.0433 0.979741 15.5216 0.589435 16.1738 0.459333C16.4781 0.415966 16.7825 0.459333 17.0433 0.632803C17.3042 0.806272 17.5216 1.06648 17.6955 1.32668H17.6085C18.5216 0.893007 19.4781 0.546068 20.4781 0.329231C20.9564 0.199129 21.4781 0.155762 21.9999 0.155762C22.4781 0.155762 23.0433 0.285864 23.3912 0.719537H23.3042Z" fill="#7DC435"/>
<path d="M12.7822 13.99C12.9561 14.0333 13.1301 14.0767 13.304 14.1201C14.1735 14.3369 15.0431 14.467 15.9996 14.5537C16.4779 14.5537 16.9561 14.5537 17.4779 14.467C18.2605 14.3803 19.3474 13.9032 19.304 13.5563C19.2605 13.4695 18.7387 13.4262 18.4779 13.3828C18.1301 13.3828 16.8692 13.3828 16.8692 13.3828C16.5648 13.4695 16.217 13.4695 15.9127 13.5129C15.1735 13.5563 14.4779 13.5563 13.7387 13.5129L12.7822 13.99Z" fill="#C3DAB4"/>
<path d="M10.7827 13.2089C11.6523 13.2523 12.5219 13.339 13.348 13.339C14.2175 13.339 15.0436 13.3824 15.9132 13.2957C16.348 13.2523 16.7393 13.2089 17.1306 13.0788C17.5219 12.9921 17.8697 12.8186 18.0001 12.6018C18.1306 12.4283 18.0871 12.2115 17.9132 11.8646C17.7393 11.5176 17.4784 11.214 17.174 10.9105L16.6958 10.4334L17.3914 10.1732C18.1306 9.91303 18.8697 9.56609 19.5653 9.26252C20.261 8.91558 20.9566 8.56864 21.6088 8.17833C21.9132 7.9615 22.2175 7.74466 22.4349 7.48445C22.6523 7.22425 22.7827 6.96405 22.7393 6.79058C22.6958 6.57374 22.4784 6.31354 22.174 6.14007C21.9132 5.92323 21.5653 5.74976 21.2175 5.61966L20.6523 5.40282L21.0436 5.05588C21.6523 4.49211 22.2175 3.79823 22.7393 3.10435C23.0001 2.75741 23.174 2.36711 23.3045 1.9768C23.4349 1.5865 23.4784 1.15282 23.3045 0.719149L23.348 0.675781C23.5653 1.06609 23.5653 1.54313 23.4349 1.9768C23.348 2.41048 23.1306 2.80078 22.9132 3.19109C22.4784 3.9717 21.9132 4.62221 21.261 5.27272V5.18599C21.6523 5.31609 22.0001 5.48956 22.348 5.70639C22.6958 5.92323 23.0436 6.18343 23.1306 6.61711C23.2175 7.05078 23.0001 7.44109 22.7393 7.74466C22.5653 8.0916 22.2175 8.3518 21.9132 8.56864C20.5653 9.47935 19.0871 10.0865 17.5653 10.6503L17.6088 10.5635C17.8697 10.9105 18.1306 11.214 18.348 11.6044C18.5653 11.9947 18.6523 12.5151 18.348 12.862C18.0871 13.2523 17.6523 13.3824 17.2175 13.4691C16.7827 13.5559 16.348 13.5993 15.9132 13.6426C14.174 13.7294 12.4784 13.5125 10.7393 13.2523L10.7827 13.2089Z" fill="#488C1C"/>
<path d="M11.3043 13.2957C11.6086 12.9054 11.9129 12.5585 12.2173 12.1682C13.3043 10.7804 14.4347 9.47938 15.5651 8.17836C16.1303 7.52785 16.6956 6.87734 17.3043 6.22683C17.8695 5.57632 18.4782 4.92581 19.0434 4.2753L18.9999 4.23193C16.3912 6.57377 13.9999 9.13244 11.7825 11.8212C11.4347 12.2983 11.0869 12.7753 10.6956 13.209L11.3043 13.2957Z" fill="#A9C994"/>
<path d="M19.0433 4.23193C16.4346 6.57377 14.0868 9.13244 11.8694 11.8646C10.7824 13.209 9.69545 14.5967 8.73893 16.0279C7.73893 17.5023 6.78241 18.9335 5.95632 20.4947H5.91284C6.30415 19.7141 6.69545 18.9335 7.13023 18.1529C7.56502 17.4156 8.04328 16.635 8.52154 15.8978C9.43458 14.4233 10.5215 13.0355 11.6085 11.6478C12.7389 10.3034 13.8694 8.95898 15.1302 7.74469C15.7389 7.13755 16.3911 6.5304 17.0433 5.92326C17.652 5.31612 18.3476 4.75234 19.0433 4.23193Z" fill="#4D9E35"/>
<path d="M3.86914 20.4084C4.91262 18.8472 6.13001 17.4595 7.26044 15.985C8.43436 14.5539 9.60827 13.1227 10.8691 11.7783C13.3909 9.0462 16.0865 6.48752 18.9996 4.23242L19.0431 4.27579C18.3474 4.88293 17.6517 5.49008 16.9996 6.14059C16.3039 6.74773 15.6517 7.39824 14.9996 8.04875C13.6952 9.34977 12.3909 10.6508 11.13 12.0385C9.86914 13.3396 8.69523 14.7707 7.52131 16.2018L5.69523 18.2834C5.08653 18.9773 4.47784 19.6712 3.86914 20.4084Z" fill="#7DC435"/>
</svg>
