<svg width="104" height="104" viewBox="0 0 104 104" fill="none" xmlns="http://www.w3.org/2000/svg">
<path d="M87.6248 59.6947C87.0321 64.2617 85.5755 68.668 83.0256 72.8954C72.9325 89.6286 50.3084 94.4794 32.4303 83.6957C14.6403 72.9651 8.2895 50.6374 18.3826 33.9042C20.7731 29.941 23.903 26.5441 27.5251 23.9244C25.3862 25.8773 23.4934 28.2188 21.8998 30.8609C12.2317 46.8895 18.2847 68.317 35.3702 78.6226C52.4556 88.9282 74.2326 84.2871 83.9007 68.2584C85.6356 65.5814 86.7888 62.6737 87.6248 59.6947Z" fill="#8C2E1A"/>
<path d="M87.6255 59.693C86.8776 62.7251 85.6894 65.4916 83.9895 68.3098C74.3214 84.3384 52.6325 89.0327 35.4589 78.674C18.3734 68.3684 12.3204 46.9409 21.9886 30.9122C23.5822 28.2702 25.4219 26.0167 27.6138 23.9757C38.6267 13.6828 56.2169 11.8012 70.5723 20.46C84.8395 29.0657 91.3105 45.2202 87.6255 59.693ZM76.1988 58.3258C81.7025 58.1622 82.8768 46.2588 78.6103 45.367C74.3438 44.4751 71.9687 49.4084 71.8569 51.9833C71.78 54.6995 73.1472 58.4068 76.1988 58.3258ZM60.2009 65.732C60.5658 68.114 69.739 67.6416 69.1994 64.5535C68.5717 61.4124 59.5579 61.6207 60.2009 65.732ZM51.0221 76.1703C50.4168 78.5678 59.2489 80.6521 60.4749 76.8274C61.789 73.0557 52.0552 71.8689 51.0221 76.1703ZM65.8933 45.1432C67.7568 47.8287 79.6602 41.436 78.662 38.3116C77.629 35.046 73.1388 39.3041 68.6025 40.6517C64.1194 41.9112 64.1711 42.4229 65.8933 45.1432ZM55.845 57.8197C55.5598 59.089 58.5905 60.4366 59.2657 58.3215C59.9759 56.3477 56.077 56.6384 55.845 57.8197ZM43.3852 75.8879C43.3614 78.516 46.0077 78.3105 46.6633 77.0244C47.3539 75.8795 43.3349 74.7765 43.3852 75.8879ZM46.9779 70.7282C51.1577 70.9672 53.2294 67.5325 52.4592 65.026C51.777 62.5726 40.4188 62.0875 38.259 65.4691C36.931 67.6709 42.7981 70.4891 46.9779 70.7282ZM66.7391 37.9663C68.1999 39.3279 70.5415 33.6537 69.5014 33.3867C66.4875 32.4095 65.1902 36.5516 66.7391 37.9663ZM47.6978 56.9893C51.7686 58.6039 55.5696 54.891 57.8217 49.7634C60.0738 44.6358 58.7191 43.0981 54.4023 41.0948C50.0855 39.0916 47.1079 45.2229 46.1266 50.036C45.2515 54.6729 46.7109 56.6342 47.6978 56.9893ZM68.3635 29.6975C70.1123 28.5904 68.9576 24.5308 66.3281 25.1067C63.3282 25.6994 66.6147 30.8047 68.3635 29.6975ZM55.7891 36.4062C55.6801 37.7817 63.2065 40.0394 62.7732 36.7752C62.3929 33.423 56.0575 34.7664 55.7891 36.4062ZM55.8213 30.1798C60.3198 29.8904 60.837 27.4399 60.5589 25.7106C60.3338 23.8933 49.2259 21.9977 46.9933 26.2963C46.1252 27.9347 51.3227 30.4691 55.8213 30.1798ZM36.9324 59.5042C40.7264 58.7898 38.6896 54.7987 38.0633 51.0579C37.4371 47.317 34.247 46.2336 29.3053 47.4568C24.3986 48.8211 27.8444 61.2292 36.9324 59.5042ZM46.3265 39.9471C48.5115 40.9047 52.1391 35.8861 52.1783 34.2282C52.1293 32.5171 45.5884 31.2142 44.6686 32.341C43.8019 33.3796 43.9654 38.8833 46.3265 39.9471ZM32.0928 39.6493C31.7517 42.2061 41.9538 46.7984 42.3969 45.8646C42.84 44.9307 42.8526 39.5333 39.8737 38.6973C36.8947 37.8614 32.4702 36.634 32.0928 39.6493ZM34.8733 27.2735C35.3094 29.3382 42.0628 30.2888 42.211 27.2553C42.3061 24.3099 34.3672 24.9263 34.8733 27.2735Z" fill="#C24121"/>
<g style="mix-blend-mode:soft-light">
<path d="M76.196 58.3265C75.2258 58.3419 74.4681 58.005 73.8698 57.4039C66.834 56.5232 59.6557 56.2771 52.441 56.4896C50.9396 57.3857 49.3515 57.6289 47.6069 56.9369C47.5188 56.8838 47.3427 56.7776 47.2546 56.7244C44.4671 56.9649 41.6797 57.2053 38.9272 57.5869C38.7133 58.5389 38.1471 59.2784 36.7883 59.5399C34.7236 59.976 32.9608 59.5133 31.4986 58.7514C27.7046 59.4657 23.9455 60.3213 20.1683 61.4061C23.1333 68.2391 28.2693 74.46 35.3149 78.7097C52.4004 89.0153 74.1773 84.3742 83.8454 68.3455C85.4922 65.6153 86.5924 62.7957 87.4283 59.8167C84.167 59.0507 80.7994 58.4607 77.5198 57.9239C77.2724 58.135 76.7957 58.3279 76.196 58.3265ZM38.2561 65.4699C40.4159 62.0883 51.6861 62.5203 52.4563 65.0268C53.1385 67.4801 51.0668 70.9148 46.975 70.7289C42.7952 70.4899 36.9281 67.6716 38.2561 65.4699ZM43.3823 75.8887C43.332 74.7773 47.4042 75.7922 46.6605 77.0252C46.0048 78.3113 43.3586 78.5168 43.3823 75.8887ZM55.8421 57.8204C56.0392 56.498 59.8849 56.2953 59.2629 58.3223C58.5876 60.4374 55.645 59.1429 55.8421 57.8204ZM51.0192 76.1711C52.0523 71.8696 61.7861 73.0565 60.472 76.8281C59.158 80.5997 50.4139 78.5685 51.0192 76.1711ZM60.1981 65.7327C59.555 61.6214 68.5689 61.4131 69.1965 64.5543C69.7361 67.6423 60.5629 68.1148 60.1981 65.7327Z" fill="#DE9988"/>
</g>
<path d="M27.6138 23.9757C25.475 25.9286 23.5822 28.2702 21.9886 30.9122C19.545 34.9634 18.0883 39.3697 17.5487 43.8487C27.9926 35.4947 39.239 30.9878 50.7076 29.4976C48.1872 28.698 46.409 27.2651 46.9053 26.2432C49.1378 21.9446 60.1577 23.7871 60.4708 25.6575C60.6623 26.7339 60.5533 28.1095 59.4223 28.9888C61.8212 28.9944 64.1669 29.088 66.5476 29.3229C65.1566 28.2437 63.946 25.4716 66.152 25.0005C68.6403 24.4595 69.8131 28.2898 68.3817 29.4683C73.266 30.1323 78.0791 31.1136 82.9439 32.6066C79.9565 27.802 75.7684 23.5942 70.4842 20.4069C56.2169 11.8012 38.6267 13.6828 27.6138 23.9757ZM34.8733 27.2735C34.3672 24.9263 42.3061 24.3099 42.211 27.2553C42.0628 30.2888 35.3094 29.3382 34.8733 27.2735Z" fill="#8A301A"/>
<path d="M78.6635 45.2806C82.9299 46.1725 81.6145 58.1108 76.252 58.2394C73.2003 58.3205 71.8331 54.6132 71.91 51.897C72.0219 49.322 74.397 44.3887 78.6635 45.2806Z" fill="#F9C299"/>
<path d="M69.1986 64.5581C69.8262 67.6992 60.653 68.1717 60.2001 65.7365C59.5571 61.6252 68.5709 61.4169 69.1986 64.5581Z" fill="#F9C299"/>
<path d="M60.4741 76.8276C59.1601 80.5992 50.416 78.568 51.0213 76.1706C52.0544 71.8691 61.7882 73.056 60.4741 76.8276Z" fill="#F9C299"/>
<path d="M78.7491 38.366C79.6592 41.4373 67.7558 47.83 65.9804 45.1977C64.2582 42.4773 64.0652 42.0006 68.6896 40.7061C73.2259 39.3585 77.6811 34.9593 78.7491 38.366Z" fill="#F9C299"/>
<path d="M59.2108 58.4122C58.5356 60.5273 55.6461 59.1447 55.79 57.9104C56.0752 56.641 59.974 56.3503 59.2108 58.4122Z" fill="#F9C299"/>
<path d="M46.6619 77.0259C46.0062 78.312 43.3599 78.5175 43.3837 75.8894C43.3334 74.778 47.3524 75.881 46.6619 77.0259Z" fill="#F9C299"/>
<path d="M52.4614 65.0283C53.1436 67.4817 51.0719 70.9164 46.9801 70.7305C42.8003 70.4914 36.9332 67.6732 38.2613 65.4714C40.456 62.231 51.7793 62.575 52.4614 65.0283Z" fill="#F9C299"/>
<path d="M69.4983 33.3896C70.4852 33.7447 68.1968 39.3309 66.736 37.9693C65.1871 36.5546 66.4844 32.4125 69.4983 33.3896Z" fill="#F9C299"/>
<path d="M57.8212 49.766C55.5691 54.8936 51.7682 58.6065 47.6974 56.9919C46.7104 56.6368 45.251 54.6755 46.1792 49.9505C47.1075 45.2255 50.1382 39.0061 54.455 41.0093C58.7187 43.1006 60.0733 44.6384 57.8212 49.766Z" fill="#F9C299"/>
<path d="M66.3292 25.1076C68.9587 24.5316 70.1134 28.5912 68.3645 29.6984C66.6157 30.8055 63.3292 25.7003 66.3292 25.1076Z" fill="#F9C299"/>
<path d="M62.8272 36.6902C63.2606 39.9543 55.7341 37.6966 55.8432 36.3211C56.0585 34.7694 62.3939 33.426 62.8272 36.6902Z" fill="#F9C299"/>
<path d="M60.6135 25.6248C60.8386 27.4422 60.4625 29.8578 55.8759 30.094C51.3774 30.3834 46.1799 27.8489 47.048 26.2106C49.2274 22 60.3353 23.8956 60.6135 25.6248Z" fill="#F9C299"/>
<path d="M38.0064 51.1483C38.6327 54.8892 40.7226 58.7922 36.8755 59.5946C27.8407 61.2316 24.3417 48.9116 29.2484 47.5472C34.1901 46.324 37.3802 47.4074 38.0064 51.1483Z" fill="#F9C299"/>
<path d="M52.1764 34.2297C52.2253 35.9408 48.5977 40.9594 46.3246 39.9486C43.9635 38.8848 43.8 33.3812 44.6667 32.3425C45.5866 31.2158 52.1275 32.5187 52.1764 34.2297Z" fill="#F9C299"/>
<path d="M42.3944 45.8659C41.9513 46.7998 31.7492 42.2075 32.0903 39.6507C32.4677 36.6354 36.8922 37.8628 39.8712 38.6987C42.7621 39.4816 42.7495 44.879 42.3944 45.8659Z" fill="#F9C299"/>
<path d="M42.1562 27.3466C42.0612 30.2921 35.2547 29.4295 34.8185 27.3648C34.3656 24.9296 42.3044 24.3131 42.1562 27.3466Z" fill="#F9C299"/>
<path d="M87.8535 59.7152C86.9239 65.0399 84.4426 70.1493 80.9226 74.392C77.3145 78.5816 72.5797 81.8514 67.3011 83.8322C56.832 87.8471 44.4883 86.4072 34.8356 80.705C25.236 74.9147 17.957 64.879 16.5367 53.6927C15.7735 48.1877 16.369 42.4212 18.3037 37.2223C20.3266 32.0766 23.6005 27.4452 27.7887 24.086L27.9118 24.2803C24.0227 27.9401 21.0661 32.6427 19.3787 37.6305C17.6383 42.7064 17.3433 48.1737 18.266 53.4146C20.0581 63.9843 26.8269 73.4721 36.0043 78.7675C45.1635 84.2921 56.6782 85.7124 66.8286 82.226C71.8598 80.4562 76.5233 77.5038 80.1481 73.6847C83.8261 69.7775 86.3773 64.9504 87.7124 59.7501L87.8535 59.7152Z" fill="#701D10"/>
<path d="M87.9941 59.6766C86.659 64.8769 84.0547 69.792 80.4117 73.8404C76.7686 77.8888 72.1052 80.8412 66.9328 82.646C56.6762 86.3085 44.879 84.9581 35.5437 79.3272C26.2433 73.8375 19.3515 64.1554 17.6656 53.4095C16.7961 48.0806 17.1442 42.5252 18.9377 37.3613C20.6782 32.2854 23.6879 27.4947 27.665 23.888L28.0523 24.2417C24.8496 28.5557 22.5808 33.3129 21.5463 38.214C20.4237 43.0621 20.6236 48.1072 21.6888 52.7134C22.8421 57.3727 24.8425 61.8223 27.7796 65.5156C30.5754 69.2439 34.1486 72.4801 38.2529 74.8356C42.3041 77.2792 46.8334 78.9302 51.4885 79.5761C56.1785 80.3631 61.0126 79.9158 65.6719 78.7625C74.9555 76.3147 83.2089 69.402 87.5887 59.5522L87.9941 59.6766Z" fill="#DD5136"/>
<path d="M27.6992 24.0299C33.2853 18.7513 40.8244 15.6115 48.4809 15.065C56.1904 14.4303 63.9294 16.3357 70.5346 20.3198C77.1398 24.3039 82.5763 30.2256 85.7175 37.1649C88.9467 44.1574 89.7393 52.2025 87.8521 59.7121L87.6759 59.6059C88.3022 55.7798 88.4169 52.0054 87.7906 48.2645C87.2524 44.5768 86.2026 40.9407 84.4817 37.6206C81.2693 30.9986 76.0438 25.3244 69.5966 21.6758C63.3087 17.763 55.8871 15.9289 48.478 16.2644C44.7735 16.4321 41.1207 17.1115 37.6427 18.4969C34.1297 19.741 30.7914 21.6911 27.7873 24.083L27.6992 24.0299Z" fill="#B52900"/>
<path d="M87.7674 59.6603C87.0657 65.6029 84.7241 71.2771 81.1146 76.0664C77.5052 80.8557 72.646 84.5309 67.1549 86.864C56.1727 91.5303 42.9819 90.3001 32.7658 84.138C22.4435 78.152 15.0079 67.181 13.8365 55.184C13.1976 49.2735 14.1468 43.1199 16.5583 37.728C19.0228 32.2482 22.8616 27.477 27.7026 24.0311L27.7376 24.1723C23.0195 27.8125 19.445 32.743 17.316 38.0649C15.0457 43.4218 14.3439 49.3644 15.1421 55.0107C15.9403 60.6569 17.9911 66.2179 21.1197 70.9876C24.2482 75.7574 28.5958 79.7009 33.5808 82.5877C38.5127 85.5625 43.994 87.4273 49.7255 87.8817C55.4039 88.4241 61.2444 87.5029 66.5761 85.4339C71.9078 83.365 76.802 79.831 80.3933 75.271C84.0727 70.7641 86.6253 65.3373 87.5564 59.4129L87.7674 59.6603Z" fill="#A83D3B"/>
</svg>
