<svg width="99" height="96" viewBox="0 0 99 96" fill="none" xmlns="http://www.w3.org/2000/svg">
<path d="M89.1963 36.769C93.5801 55.388 77.174 79.0033 56.6915 80.7017C32.7337 82.5861 13.0649 68.1999 10.7653 40.7488C10.7653 40.7488 16.508 74.2404 51.343 74.8332C81.6627 75.3449 89.9497 46.472 89.1963 36.769Z" fill="#DE3B01"/>
<path d="M89.1967 36.7694C89.9501 46.4725 81.6631 75.3453 51.2554 74.7805C16.4203 74.1877 10.6777 40.6961 10.6777 40.6961C11.7373 32.5671 19.9642 37.0489 41.7677 36.1473C63.5712 35.2456 84.8016 30.5151 88.3565 33.9806C88.7074 34.7928 88.952 35.7811 89.1967 36.7694ZM50.6389 66.8416C73.7271 67.1954 86.3211 44.5238 74.2332 39.2745C62.1453 34.0252 69.36 48.9468 54.486 50.9052C39.612 52.8637 39.8525 40.5172 29.7776 41.8872C18.8388 43.0963 24.0405 66.5327 50.6389 66.8416Z" fill="#FF6924"/>
<path d="M75.9126 44.8531C74.6 48.025 69.3382 42.8093 69.3382 42.8093C69.3382 42.8093 77.2784 41.5931 75.9126 44.8531Z" fill="#FF9E03"/>
<path d="M66.5895 50.1568C66.5895 50.1568 74.5284 49.5403 72.2987 52.6395C70.1221 55.6507 66.5895 50.1568 66.5895 50.1568Z" fill="#FF9E03"/>
<path d="M74.2335 39.2734C86.2683 44.6107 73.7274 67.1943 50.6392 66.8405C24.0939 66.4435 18.8391 43.0952 29.743 41.7449C39.906 40.428 39.5774 52.7214 54.4514 50.763C69.2723 48.8926 62.1456 34.0241 74.2335 39.2734ZM69.3925 42.7193C69.3925 42.7193 74.6012 48.023 75.967 44.7631C77.2796 41.5912 69.3925 42.7193 69.3925 42.7193ZM72.2974 52.639C74.5271 49.5398 66.5882 50.1563 66.5882 50.1563C66.5882 50.1563 70.1208 55.6501 72.2974 52.639ZM63.9028 59.5867C68.4055 57.4982 59.7188 53.5798 59.7188 53.5798C59.7188 53.5798 59.4001 61.6752 63.9028 59.5867ZM51.8359 60.4758C55.3097 60.8896 51.903 54.3906 51.903 54.3906C51.903 54.3906 48.4151 59.9739 51.8359 60.4758ZM41.6212 61.281C47.3135 63.3932 44.0019 53.9488 44.0019 53.9488C44.0019 53.9488 35.9288 59.1687 41.6212 61.281ZM36.0448 54.7945C38.9316 57.3765 39.1776 50.1982 39.1776 50.1982C39.1776 50.1982 33.0701 52.1594 36.0448 54.7945ZM28.3311 49.6613C29.4005 52.4684 34.7056 46.66 34.7056 46.66C34.7056 46.66 27.1736 46.8012 28.3311 49.6613Z" fill="#DE3B01"/>
<path d="M59.7739 53.4923C59.7739 53.4923 68.4075 57.4988 63.9579 59.4992C59.4021 61.6758 59.7739 53.4923 59.7739 53.4923Z" fill="#FF9E03"/>
<path d="M51.9544 54.3034C51.9544 54.3034 55.22 60.8374 51.8873 60.3886C48.4135 59.9748 51.9544 54.3034 51.9544 54.3034Z" fill="#FF9E03"/>
<path d="M44.0024 53.9523C44.0024 53.9523 47.3141 63.3967 41.6217 61.2844C35.9294 59.1721 44.0024 53.9523 44.0024 53.9523Z" fill="#FF9E03"/>
<path d="M39.0904 50.1448C39.0904 50.1448 38.9855 57.2882 35.9576 54.7412C33.0709 52.1592 39.0904 50.1448 39.0904 50.1448Z" fill="#FF9E03"/>
<path d="M34.6552 46.748C34.6552 46.748 29.3501 52.5564 28.2807 49.7494C27.1763 46.8011 34.6552 46.748 34.6552 46.748Z" fill="#FF9E03"/>
<path d="M88.5511 33.857C89.4835 34.8998 89.5156 36.2404 89.689 37.5461C89.7743 38.7986 89.7183 40.0861 89.6624 41.3736C89.4625 43.8955 88.9802 46.4873 88.2337 48.9197C86.7407 53.7845 84.4719 58.5416 81.2874 62.6264C78.191 66.7642 74.0027 70.1234 69.3406 72.4761C64.6785 74.8289 59.4195 75.9807 54.2332 76.2156C49.1 76.3624 43.8801 75.8563 38.9273 74.3102C33.9213 72.8521 29.1292 70.4421 25.2919 67.0465C21.3134 63.6859 18.1303 59.6039 15.6713 55.118C13.3536 50.597 11.6187 45.7071 10.766 40.7486L10.9072 40.7137C13.0894 50.4377 18.2533 59.7982 26.0174 66.0428C33.8164 72.4286 44.129 75.0455 54.1312 74.5926C59.1763 74.3927 64.1529 73.3107 68.6207 71.081C73.1766 68.9044 77.1705 65.6682 80.2487 61.7596C83.415 57.9042 85.8069 53.3413 87.3349 48.6177C88.1694 46.2384 88.6867 43.7879 88.9746 41.3191C89.1186 40.0847 89.2626 38.8504 89.1773 37.5978C89.0921 36.3453 89.0599 35.0047 88.3036 34.068L88.5511 33.857Z" fill="#C42901"/>
<path d="M88.4983 33.9434C89.3427 34.9331 89.3217 36.3618 89.4601 37.5263C89.5454 38.7788 89.4014 40.0132 89.2574 41.2476C88.9694 43.7163 88.311 46.2018 87.5645 48.6342C85.9834 53.4459 83.6447 57.9207 80.4252 61.8642C77.347 65.7728 73.3 69.0971 68.7441 71.2737C64.1883 73.4503 59.1585 74.6203 54.1134 74.8202C44.1112 75.2731 33.7106 72.6031 25.9115 66.2173C18.1125 59.8315 12.8954 50.559 10.7664 40.747C11.9015 45.6355 13.8838 50.3144 16.3609 54.5711C18.9261 58.881 22.1273 62.7336 26.124 65.865C33.835 72.1977 44.2006 74.7265 54.1148 74.2205C59.0187 74.0556 63.9953 72.9736 68.5512 70.797C73.0539 68.7085 77.0478 65.4723 80.1261 61.5637C83.2924 57.7082 85.6312 53.2334 87.2122 48.4217C88.0468 46.0425 88.6521 43.645 88.9932 41.0882C89.1372 39.8538 89.2812 38.6195 89.1959 37.3669C89.2337 36.3087 89.2015 34.9681 88.4983 33.9434Z" fill="#FCA669"/>
<path d="M10.7679 40.7491C10.9482 39.0562 11.6402 37.3116 13.3177 36.5218C14.854 35.7669 16.6182 35.6299 18.2762 35.669C21.6452 35.6592 24.996 35.8787 28.4 36.0101C35.0667 36.3079 41.911 36.1122 48.5973 35.581C55.3717 35.1029 61.9349 34.3774 68.7275 33.6701C72.0797 33.2898 75.3788 32.9977 78.766 32.7586C80.389 32.6566 82.1001 32.6077 83.8461 32.6999C85.4509 32.8272 87.3381 32.8845 88.7291 33.9637L88.6228 34.1398C87.9714 33.6268 87.1955 33.5191 86.3666 33.4996C85.5907 33.3919 84.7086 33.4604 83.8797 33.4408C82.2567 33.5429 80.5805 33.733 78.9044 33.9231C75.6402 34.3565 72.323 34.8779 68.9176 35.3462C62.283 36.389 55.5785 37.1495 48.8391 37.7688C42.0298 38.1057 35.1855 38.3014 28.4489 37.7212C25.0631 37.3605 21.6773 36.9999 18.4146 36.8335C16.8097 36.7063 15.1518 36.6671 13.7748 37.1578C12.1686 37.6303 11.4067 39.0925 10.9971 40.7673L10.7679 40.7491Z" fill="#FF966E"/>
<path d="M10.9951 40.7669C11.8995 46.237 13.2807 51.5142 15.6152 56.4056C17.8617 61.2438 21.0615 65.6962 25.075 69.198C29.0884 72.6999 33.7212 75.3741 38.7621 76.9734C43.803 78.5726 49.111 79.1318 54.3854 78.9501C59.6947 78.9095 64.7426 77.5102 69.2468 74.822C73.839 72.1869 77.728 68.5271 81.0537 64.4074C84.2913 60.2346 86.8426 55.4076 88.1776 50.2073C89.6888 45.1132 89.8076 39.5397 88.3384 34.2094L88.5327 34.0863C90.4255 39.3118 90.5709 45.0447 89.3588 50.4393C88.1468 55.8339 85.6655 60.9434 82.4978 65.3986C79.1889 69.8887 75.1404 73.8127 70.3539 76.5708C65.6024 79.4701 60.0777 81.0623 54.486 81.1728C48.9824 81.3363 43.3571 80.7058 38.052 78.9472C32.7468 77.1886 27.8499 74.355 23.9077 70.5359C19.8244 66.7517 16.6427 62.07 14.5556 56.9675C12.4335 51.7239 11.1586 46.2706 10.7658 40.7487L10.9951 40.7669Z" fill="#FF2B01"/>
<path d="M77.9324 42.7027C76.8588 41.6948 75.7488 41.1454 74.6207 40.8253C74.3034 40.754 73.986 40.6827 73.7568 40.6645C73.4394 40.5932 73.034 40.4688 72.8048 40.4506C72.1701 40.308 71.5704 40.3066 71.0588 40.3583C70.4591 40.3569 70.0355 40.4618 69.8412 40.5848C69.5937 40.7959 69.5406 40.884 69.5224 41.1132C69.2568 41.5536 68.7955 42.7166 68.3691 44.0209C67.6045 46.6826 65.5677 50.2585 62.3175 52.2617C59.1554 54.318 55.6088 54.8213 52.5921 55.0436C49.3992 55.1596 45.7143 54.4984 42.6318 52.6391C39.6375 50.833 37.5266 48.3586 35.9078 46.6615C34.2009 44.9113 32.898 43.8852 30.4643 43.7385L30.235 43.7203C30.235 43.7203 30.0938 43.7552 30.235 43.7203L30.0938 43.7552L29.6353 43.7189C29.406 43.7007 29.1768 43.6825 28.8944 43.7524C28.3827 43.8042 27.906 43.9971 27.4294 44.19C26.4228 44.6639 25.5561 45.7025 24.9536 46.9006L24.442 46.9523C24.6922 45.5418 25.2598 44.2026 26.3557 43.1821C27.4517 42.1616 28.8287 41.6709 30.2224 41.5507C31.6162 41.4305 33.1329 41.5046 34.3841 42.019C35.7764 42.4985 36.9562 43.3303 37.9949 44.197C40.1603 45.9836 42.0783 47.9812 44.4743 49.1862C46.8172 50.4793 49.5502 50.9266 52.2845 50.7743C54.9658 50.71 57.6833 50.1872 60.05 48.8521C62.4167 47.5171 63.9391 45.1924 65.056 42.7432C65.6586 41.5452 66.2261 40.2059 67.234 39.1323C68.3831 38.0238 70.0061 37.9217 71.3635 38.26C72.7209 38.5983 74.0252 39.0247 75.2582 39.7684C76.4911 40.5121 77.5647 41.52 78.2497 42.774L77.9324 42.7027Z" fill="#C42901"/>
<path d="M77.9301 42.7046C76.6482 40.2498 73.8817 39.0616 71.343 38.4912C70.0737 38.2061 68.5388 38.3612 67.7252 39.3118C66.7704 40.2974 66.256 41.5485 65.6535 42.7465C64.5365 45.1957 62.9429 47.8378 60.435 49.2078C57.962 50.7189 55.1564 51.1886 52.334 51.2879C49.5115 51.3871 46.6905 50.8866 44.1714 49.4873C41.6524 48.088 39.7344 46.0903 37.6571 44.3569C36.6184 43.4902 35.5267 42.7115 34.2224 42.2852C32.9181 41.8588 31.5957 41.6617 30.29 41.835C28.8963 41.9552 27.6605 42.411 26.6176 43.3434C25.5748 44.2758 25.0603 45.5269 24.8632 46.8494L24.5459 46.7781C24.4788 45.2963 24.8353 43.7096 25.8963 42.548C26.4094 41.8965 27.0985 41.3513 27.8227 40.9473C28.1582 40.7894 28.5468 40.5433 28.9704 40.4385L29.5351 40.2987L29.6763 40.2637L29.8175 40.2288L30.0999 40.1589C31.5999 39.8625 33.3109 39.8136 34.9857 40.2232C36.6604 40.6328 38.1576 41.5359 39.3374 42.3676C41.8733 44.1374 43.5801 45.8876 45.677 46.7921C47.6327 47.7315 49.8191 48.0894 52.183 47.9538C54.635 47.8713 56.929 47.4533 58.7127 46.4874C60.5846 45.5745 61.8231 43.9194 63.1162 41.5765C63.8068 40.4316 64.4275 39.0043 65.9652 37.6497C66.7075 37.0164 67.8552 36.5076 68.8785 36.4041C69.9018 36.3007 70.7657 36.4614 71.5765 36.7103C73.145 37.296 74.2899 37.9866 75.5578 38.8715C76.8257 39.7564 77.6868 41.1166 78.1775 42.4935L77.9301 42.7046Z" fill="#FF4A24"/>
<path d="M24.8108 46.9382C25.0149 50.1842 26.4016 53.0626 28.4775 55.3957C30.4654 57.6757 32.9481 59.5336 35.5734 60.7568C38.2868 62.0331 41.1246 62.904 44.0868 63.3695C45.6385 63.5848 47.1021 63.747 48.6189 63.8211C49.3067 63.8756 50.1888 63.8071 50.8766 63.8616C51.7055 63.8812 52.5876 63.8127 53.2405 63.726C59.1677 63.4576 65.011 61.337 69.9052 57.803C72.3082 56.0095 74.5533 53.8804 76.0938 51.3264C77.7224 48.8255 78.7527 45.7235 77.8958 42.5642L78.2313 42.4062C79.8823 45.4439 79.133 49.0758 77.6973 52.0534C76.2616 55.0309 74.0682 57.6716 71.5939 59.7825C66.504 64.0392 60.0246 66.6169 53.4446 66.972C46.8645 67.3271 40.0761 66.2353 34.2985 62.8705C31.4803 61.1706 28.8396 58.9772 27.0293 56.2037C25.219 53.4302 24.0098 50.0584 24.5466 46.7789L24.8108 46.9382Z" fill="#C42901"/>
<path d="M24.7219 46.8816C24.1851 50.1612 25.4475 53.4449 27.2228 56.0772C29.0863 58.7626 31.5858 60.9909 34.4571 62.6028C40.1467 65.9145 46.847 66.9531 53.427 66.5981C59.919 66.1899 66.3802 63.8414 71.3821 59.5316C73.8564 57.4207 75.9966 54.8681 77.5204 51.9436C78.9029 49.0541 79.5991 45.5103 78.1243 42.5789L78.2655 42.5439C79.2147 43.9572 79.5809 45.7396 79.4537 47.3444C79.3615 49.0904 78.9519 50.7652 78.3661 52.3336C76.9654 55.4524 74.807 58.2343 72.3145 60.5744C67.1533 65.1484 60.4446 67.708 53.6171 68.2742C50.2831 68.4252 46.7561 68.0994 43.4416 67.4214C40.1271 66.7434 36.849 65.6069 33.9077 63.7127C31.0545 61.8716 28.432 59.449 26.5868 56.5343C24.8827 53.5847 23.7797 50.0367 24.6339 46.8285L24.7219 46.8816Z" fill="#FC8F5C"/>
<path d="M30.3117 47.971C29.8895 47.4761 28.4944 48.196 28.6691 48.902C28.6677 49.5017 30.4347 48.1653 30.3117 47.971Z" fill="white"/>
<path d="M51.3682 57.6695C50.5742 57.7911 50.412 59.2548 51.0816 59.5385C51.8924 59.7874 51.7387 57.6527 51.3682 57.6695Z" fill="white"/>
<path d="M36.9507 52.0975C36.105 51.7075 35.2201 52.9754 35.8184 53.5765C36.3287 54.1245 37.215 52.2569 36.9507 52.0975Z" fill="white"/>
<path d="M60.789 56.389C60.0467 57.0222 61.2055 59.2827 62.0876 59.2142C62.9697 59.1457 61.0364 56.1779 60.789 56.389Z" fill="white"/>
<path d="M41.9682 56.9266C41.1224 56.5366 39.6532 58.7732 40.1984 59.4624C40.7436 60.1516 42.3736 57.051 41.9682 56.9266Z" fill="white"/>
<path d="M69.5672 50.9915C69.6035 50.533 68.2461 50.1946 67.9456 50.4938C67.68 50.9341 69.6021 51.1327 69.5672 50.9915Z" fill="white"/>
<path d="M71.3144 42.916C71.3661 43.4276 72.7948 43.4486 73.0604 43.0083C73.2379 42.5148 71.3326 42.6867 71.3144 42.916Z" fill="white"/>
<path d="M29.9414 54.9575C30.0673 53.9524 30.3692 53.0536 31.0234 52.3672C31.3771 51.98 31.7658 51.7339 32.1544 51.4879C32.4549 51.1887 32.8086 50.8015 33.0211 50.4492C33.5873 49.7097 34.3827 48.9884 35.248 48.5495C36.1133 48.1105 37.1366 48.0071 38.1767 48.2741L38.2116 48.4153L33.4433 50.9441C33.0546 51.1901 32.666 51.4362 32.3655 51.7353C32.153 52.0876 31.8874 52.5279 31.763 52.9333C31.338 53.6379 30.7718 54.3774 29.9414 54.9575Z" fill="#FCA669"/>
<path d="M31.7715 56.9018C32.2663 56.4796 32.9723 56.3049 33.572 56.3063C34.1717 56.3077 34.8064 56.4503 35.441 56.5928C36.6041 57.0542 37.5016 57.9558 38.5235 58.4521L38.2411 58.522C38.4018 57.6581 38.5626 56.7942 38.9526 55.9484C39.3427 55.1027 39.8207 54.31 40.3338 53.6586C40.988 52.9722 41.8184 52.3921 42.7536 52.2355C43.6539 51.9378 44.659 52.0636 45.4167 52.4005L45.3635 52.4885C44.4815 52.557 43.6343 52.7667 42.9633 53.0827C42.2923 53.3986 41.6562 53.8557 41.1432 54.5071C40.5952 55.0174 40.0822 55.6688 39.6572 56.3734C39.2322 57.0779 38.8072 57.7825 38.5584 58.5933L38.4871 58.9106L38.2229 58.7513C37.3073 58.0789 36.126 57.8468 34.9979 57.5267C34.5044 57.3491 34.0109 57.1716 33.4644 57.0821C32.9178 56.9926 32.3712 56.9032 31.7715 56.9018Z" fill="#FCA669"/>
<path d="M48.939 54.5252C48.7069 55.7065 48.4399 56.7466 48.261 57.8397C48.1715 58.3863 48.082 58.9329 47.9925 59.4795C47.9031 60.0261 47.9017 60.6258 47.9003 61.2255C47.144 60.2889 46.9357 58.842 47.1678 57.6608C47.3998 56.4795 47.9143 55.2284 48.939 54.5252Z" fill="#FCA669"/>
<path d="M54.1455 53.4604C54.6544 54.6082 54.9871 55.6496 55.3547 56.8323C55.4945 57.397 55.6343 57.9618 55.9153 58.4916C56.1963 59.0214 56.6716 59.4282 57.0588 59.7819C58.9781 61.1798 60.9702 61.6607 63.4026 62.4072L63.4375 62.5484C62.2549 62.9161 60.9143 62.9482 59.6981 62.575C58.4819 62.2017 57.3551 61.2819 56.652 60.2572L55.6678 58.7027C55.3337 58.2609 54.9116 57.7661 54.5425 57.1831C53.9456 55.9823 53.7723 54.6766 54.1455 53.4604Z" fill="#FCA669"/>
<path d="M65.1521 53.1361C64.625 52.2176 64.5216 51.1944 64.8767 50.2074C65.0542 49.7139 65.4079 49.3267 65.6735 48.8864C65.9391 48.446 66.1516 48.0937 66.5584 47.6185C67.1777 46.7909 68.2723 46.3701 69.2955 46.2667C70.3188 46.1632 71.3589 46.4302 72.1515 46.9083L72.0984 46.9964C71.1632 47.1529 70.2811 47.2214 69.3459 47.378C68.4638 47.4465 67.6166 47.6562 66.8925 48.0602C66.5039 48.3062 66.1152 48.5523 65.9377 49.0457C65.7252 49.398 65.7769 49.9097 65.7406 50.3682C65.6148 51.3733 65.454 52.2372 65.1521 53.1361Z" fill="#FCA669"/>
<path d="M68.6668 44.3253C68.246 43.2307 68.7255 41.8384 69.6622 41.0821C70.6519 40.2378 71.9576 40.0644 73.0326 40.4726C71.9729 41.0346 71.0727 41.3323 70.3304 41.9656C69.6412 42.5108 69.1631 43.3034 68.6668 44.3253Z" fill="#FCA669"/>
<path d="M22.6103 38.0399C30.9015 37.6359 39.1213 37.5493 47.4124 37.1453C51.5755 37.0139 55.7035 36.7413 59.7436 36.4156C63.8717 36.143 67.9648 35.7292 72.0943 34.8569C68.1577 36.2059 64.0114 36.7078 59.8652 37.2096C55.7189 37.7115 51.5908 37.9841 47.5159 38.1686C43.3528 38.3 39.1898 38.4314 35.133 38.3866C30.8819 38.4649 26.737 38.367 22.6103 38.0399Z" fill="#FFD8D2"/>
<path d="M13.4504 38.8844C12.7794 39.2004 12.6368 39.835 12.5823 40.5228C12.5809 41.1225 12.6676 41.7753 12.8423 42.4813C13.1569 43.752 13.6126 44.9878 14.1564 46.2767C15.209 48.7133 16.4028 51.1149 17.791 53.3936C19.126 55.7603 20.5672 57.9508 22.2028 60.0184C23.8384 62.0859 25.6152 64.1185 27.7987 65.6758C25.2964 64.6469 23.043 62.8072 21.2131 60.8627C19.2951 58.8651 17.6777 56.5683 16.3427 54.2016C14.9196 51.7817 13.7789 49.292 12.9206 46.7324C12.518 45.4086 12.1685 43.9967 11.9952 42.691C11.9616 41.9501 11.875 41.2973 12.0707 40.5745C12.3195 39.7637 12.7976 38.9711 13.4504 38.8844Z" fill="#FFD8D2"/>
<path d="M53.4254 67.7997C55.6663 67.4698 57.9253 66.9106 60.0082 66.2452C62.1443 65.4917 64.1922 64.6851 66.0822 63.543C69.9853 61.4531 73.2732 58.3916 76.2802 54.8003C75.3757 56.8972 74.0658 58.8697 72.4918 60.6828C70.8828 62.3547 69.0095 63.8673 66.9783 65.0444C62.8279 67.3453 58.0805 68.4455 53.4254 67.7997Z" fill="#FFD8D2"/>
</svg>
