<svg width="53" height="53" viewBox="0 0 53 53" fill="none" xmlns="http://www.w3.org/2000/svg">
<g clip-path="url(#clip0_419_13162)">
<path d="M52.7634 26.5C52.7634 26.9829 52.8225 27.4658 52.8225 28.0091C52.8225 41.7722 40.9922 52.8793 26.3817 52.8793C11.7712 52.8793 0 41.7722 0 28.0091C0 27.5262 0 26.9829 0.0591518 26.5C0.887277 39.5387 12.3627 49.861 26.4408 49.861C28.5112 49.861 30.5815 49.6196 32.4743 49.197C43.654 46.7825 52.1127 37.6071 52.7634 26.5Z" fill="#BC2C00"/>
<path d="M40.5186 31.1478C44.4226 32.838 48.1491 32.838 48.3266 30.0612C48.504 26.7412 48.9773 24.2663 48.9773 21.9724C48.9773 19.6786 46.1971 11.9519 43.2987 13.3403C42.4114 13.7628 40.9326 14.5476 39.3947 15.5738C35.9047 17.6865 31.8824 21.0066 31.35 23.9644C30.8768 26.4394 33.8344 27.2845 38.3299 30.0009C39.0989 30.4234 39.8087 30.7856 40.5186 31.1478ZM52.8221 24.9906C52.8221 25.4735 52.8221 26.0168 52.763 26.4997C52.1123 37.6068 43.6536 46.7822 32.4739 49.1968L32.0007 46.7822C32.5331 46.6615 33.0063 46.4804 33.4795 46.2993C36.2596 45.0316 41.8199 42.6774 42.7663 40.9269C43.8311 38.6934 41.7016 36.3995 37.2652 32.7173C33.302 29.518 31.0543 28.4918 29.3389 28.9143L29.1023 27.4656C29.1614 27.4656 29.2206 27.4052 29.3389 27.4052C30.7585 27.3448 30.8768 26.8619 30.167 25.8357C29.5163 24.7492 30.7585 23.2401 29.8712 22.6364C29.2797 22.2139 28.4516 21.7913 27.8601 21.7913L27.6826 20.5237C29.6938 19.256 32.2373 16.3585 33.8936 14.4268C34.3076 13.9439 34.7217 13.5214 35.0766 13.0988C37.4427 10.5032 39.2172 8.5715 38.5665 6.76056C38.1525 5.674 36.0822 4.88926 33.2429 4.46671L34.071 1.20703C44.9549 4.28562 52.8221 13.7628 52.8221 24.9906Z" fill="#FF6924"/>
<path d="M48.9185 21.9122C48.9185 24.2061 48.4453 26.681 48.2679 30.0011C48.2087 32.8382 44.423 32.8382 40.519 31.148C45.5469 29.7596 44.4821 26.681 43.3583 24.9908C42.2344 23.361 43.1808 21.8519 43.3583 19.9806C43.4766 18.1093 43.1808 15.3929 39.3359 15.4532C40.8739 14.427 42.3527 13.6423 43.24 13.2197C46.1384 11.8917 48.9185 19.6184 48.9185 21.9122Z" fill="#BC2C00"/>
<path d="M32.1193 24.4474C32.1785 24.6285 34.0122 27.8882 35.4318 26.4998C36.7923 25.1115 32.4151 24.5078 32.1193 24.4474ZM43.3582 24.9907C44.4821 26.6809 45.5468 29.7595 40.5189 31.1479C39.8091 30.7857 39.0993 30.4235 38.3303 30.001C33.8347 27.2846 30.8772 26.4395 31.3504 23.9645C31.8827 20.9463 35.9051 17.6866 39.3359 15.4531C43.1807 15.3928 43.4765 18.1092 43.3582 19.9805C43.1807 21.8518 42.2343 23.3609 43.3582 24.9907ZM33.8939 23.8438C33.8939 23.8438 37.5022 24.9304 37.0881 23.3005C36.674 21.6707 33.8939 23.8438 33.8939 23.8438ZM33.6573 21.7914C33.6573 21.7914 38.0345 21.4292 36.8515 19.6786C35.7868 17.8677 33.6573 21.7914 33.6573 21.7914Z" fill="#DE3B01"/>
<path d="M37.2068 32.7178C41.6432 36.4 43.7726 38.6939 42.7079 40.9273C41.8206 42.7383 36.2604 45.0321 33.4211 46.2998C33.007 46.4809 32.5338 46.662 32.0014 46.7827C29.2213 47.3863 25.613 46.662 25.7314 41.2895C25.7905 39.9011 25.7905 38.6335 25.9088 37.4262C25.7905 40.867 28.5706 44.3077 31.2916 43.3419C34.0718 42.3761 36.0238 43.6437 36.7927 41.4103C37.5617 39.2371 39.218 38.6939 39.0405 36.8226C38.9222 35.072 37.3843 32.9592 37.2068 32.7178Z" fill="#BC2C00"/>
<path d="M39.0406 36.8222C39.2181 38.6935 37.5618 39.2368 36.7928 41.4703C36.0239 43.7038 34.0719 42.3757 31.2917 43.3416C28.5707 44.3074 25.7906 40.8666 25.9089 37.4259C25.9089 37.4259 25.9089 37.4259 25.9089 37.3655C26.1455 33.14 26.6779 30.2425 28.6299 29.2163C28.8665 29.0956 29.1031 28.9748 29.3397 28.9145C31.0551 28.4919 33.3029 29.4577 37.2069 32.6571C37.3844 32.9589 38.9223 35.0716 39.0406 36.8222ZM33.2437 33.3211C35.3732 32.0534 30.5819 30.1821 30.5819 30.1821C30.5819 30.1821 31.1734 34.5887 33.2437 33.3211ZM32.179 37.5466C33.9536 36.8826 31.2917 34.7698 31.2917 34.7698C31.2917 34.7698 30.4045 38.1502 32.179 37.5466ZM28.8665 36.1582C31.1143 36.3393 28.8665 31.7516 28.8665 31.7516C28.8665 31.7516 26.6187 35.9771 28.8665 36.1582Z" fill="#DE3B01"/>
<path d="M38.5671 6.7606C39.2177 8.57153 37.4432 10.5032 35.0771 13.0989C33.8941 10.2014 31.7646 11.0465 30.8182 11.2879C29.9309 11.469 27.4465 12.5556 25.7311 10.3825C24.0157 8.20935 21.1173 8.08862 19.1061 9.77882C18.8104 9.05445 18.5738 8.20935 18.5146 7.12279C18.3371 3.13873 24.7255 3.86311 28.9253 4.0442C30.4633 4.10456 31.9421 4.22529 33.2434 4.46675C36.1418 4.8893 38.2122 5.61368 38.5671 6.7606Z" fill="#BC2C00"/>
<path d="M37.0878 23.3005C37.4427 24.9303 33.8936 23.8438 33.8936 23.8438C33.8936 23.8438 36.6737 21.6706 37.0878 23.3005Z" fill="#FF9E03"/>
<path d="M36.911 19.6787C38.0349 21.4896 33.7168 21.7914 33.7168 21.7914C33.7168 21.7914 35.7871 17.8677 36.911 19.6787Z" fill="#FF9E03"/>
<path d="M32.1191 24.4473C32.4149 24.4473 36.8513 25.1113 35.4316 26.4997C34.012 27.888 32.1783 24.6284 32.1191 24.4473Z" fill="#FF9E03"/>
<path d="M35.1366 13.0989C34.7225 13.5214 34.3085 14.0043 33.8944 14.4269C32.2381 16.3586 29.6946 19.256 27.6835 20.5237C27.2102 20.8255 26.7962 21.0066 26.4413 21.1273C24.371 21.6103 21.9457 17.6262 21.5317 14.6683C21.2359 12.5556 19.8754 11.6501 19.1064 9.77882C21.1768 8.08862 24.016 8.20935 25.7314 10.3825C27.4468 12.5556 29.9312 11.469 30.8776 11.2879C31.8241 11.0465 33.9535 10.141 35.1366 13.0989ZM28.9848 17.9884C28.9848 17.9884 31.1734 15.8756 29.8129 15.4531C28.4524 15.0909 28.9848 17.9884 28.9848 17.9884ZM26.4413 19.6786C26.4413 19.6786 29.3989 16.7207 27.1511 16.3586C24.8442 15.9964 26.4413 19.6786 26.4413 19.6786ZM24.785 17.6866C24.785 17.6866 26.5596 14.0043 24.371 14.1251C22.1823 14.2458 24.785 17.6866 24.785 17.6866Z" fill="#DE3B01"/>
<path d="M34.0714 1.20717L33.2433 4.46685C31.942 4.22539 30.4632 4.10466 28.9252 4.0443C24.7254 3.8632 18.3371 3.13883 18.5145 7.12288C18.5737 8.20944 18.8103 9.05455 19.106 9.77892C19.875 11.5899 21.2946 12.5557 21.5313 14.6684C21.9453 17.6263 24.3705 21.6104 26.4408 21.1274C26.7958 21.0067 27.2098 20.8256 27.683 20.5238L27.8013 21.7914C27.5056 21.7914 27.2098 21.9122 27.0324 22.214C26.5 23.1195 26.0268 22.5158 25.1987 22.6366C23.2467 22.9384 23.5424 22.0329 22.8917 23.2402C22.2411 24.4475 20.4074 25.353 21.5904 26.3791C22.7734 27.345 23.2467 28.5523 24.3114 27.9486C25.3761 27.2846 26.0859 27.5261 26.3817 28.1901C26.7366 28.8541 27.8013 27.5864 29.1027 27.4657L29.2801 28.9748C29.1027 29.0352 28.8661 29.0956 28.6295 29.2163C26.6775 30.2425 26.0859 33.14 25.9085 37.3655C25.9085 37.3655 25.9085 37.3655 25.9085 37.4258C25.7902 38.6331 25.7902 39.9008 25.731 41.2892C25.6127 46.6616 29.1618 47.4463 32.0011 46.7823L32.4743 49.1969C30.5223 49.6798 28.5112 49.9213 26.4408 49.9213C12.4219 49.9213 0.887277 39.599 0.0591518 26.5602C0 26.017 0 25.534 0 24.9908C0 11.2277 11.8304 0.120605 26.4408 0.120605C29.1027 0.120605 31.6462 0.482792 34.0714 1.20717ZM23.2467 36.3393C24.0748 31.5705 24.3705 30.4236 22.3594 28.8541C19.7567 26.8621 16.2076 28.4315 11.7121 30.7858C10.8248 31.2687 9.99665 31.6912 9.34598 32.1138C6.56585 33.804 5.73772 35.4338 8.99107 39.2971C13.0134 44.1263 15.7344 43.8848 18.5145 45.394C21.2355 46.9031 22.2411 41.8928 23.1875 36.7015C23.1875 36.6411 23.2467 36.46 23.2467 36.3393ZM21.058 23.2402C22.1228 21.55 20.9397 20.5238 19.0469 16.4794C18.4554 15.1514 17.8047 13.763 17.154 12.4953C15.8527 9.96001 14.4922 7.96799 12.9542 8.57163C10.7065 9.41673 7.68973 12.1331 5.91518 15.8757C4.08147 19.6183 4.55469 24.5682 5.32366 26.4999C5.91518 28.0694 7.51228 28.8541 10.5882 28.0694C11.4163 27.8883 12.3036 27.5864 13.3683 27.1639C18.3371 25.2322 20.4665 24.2664 21.058 23.2402Z" fill="#FF6924"/>
<path d="M30.5811 30.1821C30.5811 30.1821 35.3723 32.1138 33.2429 33.3814C31.1726 34.5887 30.5811 30.1821 30.5811 30.1821Z" fill="#FF9E03"/>
<path d="M31.2914 34.7095C31.2914 34.7095 34.0124 36.8826 32.1787 37.4862C30.4041 38.1502 31.2914 34.7095 31.2914 34.7095Z" fill="#FF9E03"/>
<path d="M30.1677 25.8359C30.8775 26.9225 30.7592 27.345 29.3395 27.4658C29.2804 27.4658 29.2212 27.4658 29.1029 27.5261C27.8016 27.5865 26.7369 28.8541 26.382 28.1901C26.0862 27.4658 25.3764 27.2847 24.3116 27.8883C23.2469 28.492 22.8329 27.345 21.5907 26.3188C20.4076 25.353 22.1822 24.3872 22.892 23.1799C23.5427 21.9726 23.2469 22.8781 25.1989 22.5762C26.027 22.5159 26.5003 23.1195 27.0326 22.2141C27.2101 21.9122 27.5058 21.7915 27.8016 21.7915C28.4523 21.7915 29.2212 22.2141 29.8128 22.6366C30.7592 23.2403 29.517 24.7494 30.1677 25.8359Z" fill="#FF9E03"/>
<path d="M29.8126 15.4532C31.1731 15.8758 28.9844 17.9885 28.9844 17.9885C28.9844 17.9885 28.4521 15.091 29.8126 15.4532Z" fill="#FF9E03"/>
<path d="M28.866 31.7515C28.866 31.7515 31.1137 36.3392 28.866 36.1581C26.6182 35.977 28.866 31.7515 28.866 31.7515Z" fill="#FF9E03"/>
<path d="M27.0914 16.3586C29.3392 16.7208 26.3816 19.6786 26.3816 19.6786C26.3816 19.6786 24.8436 15.9964 27.0914 16.3586Z" fill="#FF9E03"/>
<path d="M24.371 14.125C26.5596 14.0042 24.785 17.6865 24.785 17.6865C24.785 17.6865 22.1824 14.2457 24.371 14.125Z" fill="#FF9E03"/>
<path d="M22.4188 28.8541C24.43 30.3632 24.1342 31.5101 23.3061 36.3393C19.5795 41.4702 17.1543 40.6251 17.1543 40.6251C15.853 42.7983 12.7179 39.8404 11.0025 38.0898C9.2871 36.3393 7.63085 33.4418 9.2871 32.1137C9.99692 31.6912 10.7659 31.2686 11.6532 30.7857C16.2079 28.4315 19.757 26.862 22.4188 28.8541ZM21.4724 33.804C23.3652 33.6832 21.2358 30.6046 21.2358 30.6046C21.2358 30.6046 19.5795 33.9247 21.4724 33.804ZM17.1543 35.6149C19.1063 36.8825 19.0471 31.7516 19.0471 31.7516C19.0471 31.7516 15.2023 34.3472 17.1543 35.6149ZM14.1375 32.2948C15.7346 34.5283 18.0416 29.8803 18.0416 29.8803C18.0416 29.8803 12.5405 30.0614 14.1375 32.2948Z" fill="#DE3B01"/>
<path d="M23.2466 36.3393C23.2466 36.46 23.1874 36.6411 23.1874 36.7618C22.241 41.9532 21.2354 46.9634 18.5144 45.394C15.7935 43.8848 13.0725 44.1263 8.991 39.2971C5.73765 35.4338 6.56578 33.804 9.28676 32.1138C7.57136 33.4418 9.28676 36.3393 11.0022 38.0899C12.7176 39.8404 15.8526 42.7983 17.1539 40.6252C17.1539 40.6252 19.5792 41.4703 23.2466 36.3393Z" fill="#BC2C00"/>
<path d="M21.2352 30.6045C21.2352 30.6045 23.3646 33.6831 21.4718 33.8038C19.5789 33.9245 21.2352 30.6045 21.2352 30.6045Z" fill="#FF9E03"/>
<path d="M19.0472 16.4792C20.94 20.5236 22.123 21.5498 21.0583 23.24C20.4668 24.2662 18.3373 25.232 13.3686 27.2241C12.363 27.6466 11.4166 27.9484 10.5884 28.1295C7.80831 26.3186 9.81948 22.1534 9.81948 22.1534C9.81948 22.1534 8.04492 20.3425 8.04492 18.4712C8.04492 16.5999 10.4701 15.3322 11.7123 13.8231C12.9545 12.314 15.084 10.9256 17.1543 12.4951C17.805 13.7628 18.4556 15.1512 19.0472 16.4792ZM12.6588 19.9803C12.0672 21.6705 17.5684 21.1272 17.5684 21.1272C17.5684 21.1272 13.1911 18.2297 12.6588 19.9803ZM17.5684 24.0247C17.5684 24.0247 13.6643 23.1796 13.9601 24.9906C14.2559 26.8619 17.5684 24.0247 17.5684 24.0247ZM17.5684 18.4108C17.5684 18.4108 15.6164 13.7024 14.3742 15.453C13.132 17.2639 17.5684 18.4108 17.5684 18.4108Z" fill="#DE3B01"/>
<path d="M19.106 31.7515C19.106 31.7515 19.1652 36.8824 17.2132 35.6148C15.202 34.3471 19.106 31.7515 19.106 31.7515Z" fill="#FF9E03"/>
<path d="M17.5685 21.1275C17.5685 21.1275 12.0082 21.6707 12.5997 19.9805C13.1912 18.23 17.5685 21.1275 17.5685 21.1275Z" fill="#FF9E03"/>
<path d="M13.9594 24.9909C13.6636 23.18 17.5676 24.0251 17.5676 24.0251C17.5676 24.0251 14.2551 26.8622 13.9594 24.9909Z" fill="#FF9E03"/>
<path d="M17.1537 12.4953C15.0834 10.9259 12.9539 12.3142 11.7117 13.8234C10.4695 15.3325 8.10346 16.5398 8.10346 18.4111C8.10346 20.2824 9.87802 22.0933 9.87802 22.0933C9.87802 22.0933 7.80771 26.3188 10.5878 28.1297C7.51195 28.8541 5.974 28.0694 5.32333 26.4999C4.55436 24.5682 4.08114 19.6183 5.91485 15.8758C7.6894 12.1332 10.7653 9.47712 13.0131 8.57165C14.4919 7.968 15.8523 9.96003 17.1537 12.4953Z" fill="#BC2C00"/>
<path d="M18.0415 29.8198C18.0415 29.8198 15.7346 34.4679 14.1375 32.2344C12.5404 30.0613 18.0415 29.8198 18.0415 29.8198Z" fill="#FF9E03"/>
<path d="M14.374 15.4531C15.6162 13.7025 17.5682 18.411 17.5682 18.411C17.5682 18.411 13.1318 17.264 14.374 15.4531Z" fill="#FF9E03"/>
<path d="M39.4543 15.3931C40.2825 15.0309 41.288 14.9102 42.3528 15.2724C42.8851 15.4535 43.3584 15.8157 43.7724 16.2382C44.1865 16.6608 44.4231 17.2644 44.6006 17.7473C44.9555 18.8339 44.9555 19.8601 44.8372 20.8863C44.7189 21.8521 44.4822 22.6972 44.4822 23.1801C44.4822 23.4216 44.4822 23.6027 44.5414 23.7838C44.6006 23.9045 44.6006 23.9649 44.7189 24.0856C44.8372 24.2667 45.0146 24.5685 45.0738 24.7496C45.4878 25.7155 45.9019 26.9227 45.547 28.1904C45.3695 28.794 45.0738 29.3977 44.6597 29.8202C44.3048 30.3032 43.8907 30.605 43.4175 30.8464C42.4711 31.2086 41.5247 31.3293 40.6374 31.2086L40.5782 31.0275C41.4064 30.7861 42.1753 30.4842 42.8851 30.0013C43.5358 29.5788 44.1273 28.8544 44.2456 28.0093C44.3639 27.1642 44.0682 26.3795 43.6541 25.5947C43.4767 25.2929 43.1809 24.9307 43.0035 24.5082C42.7668 24.0856 42.7077 23.6027 42.7077 23.1801C42.7077 22.2747 43.0035 21.4296 43.1809 20.5845C43.3584 19.7394 43.3584 18.8943 43.1809 18.0492C43.0035 17.2644 42.5302 16.4797 41.8204 16.0571C41.1106 15.6949 40.2825 15.5742 39.4543 15.5742V15.3931Z" fill="#991D00"/>
<path d="M26.0269 37.3655C26.0269 39.4782 26.9733 41.591 28.6887 42.7983C29.5168 43.4019 30.5816 43.5226 31.528 43.1605C32.5336 42.7983 33.5983 42.7379 34.663 42.6775C35.1363 42.6775 35.6686 42.6172 36.0827 42.3757C36.4967 42.1343 36.6742 41.6514 36.8517 41.1684C37.2657 40.1422 38.0347 39.3575 38.5671 38.5124C39.1586 37.6673 39.0403 36.5204 38.6854 35.5545C38.3304 34.5283 37.7981 33.6229 37.2066 32.7174L37.3249 32.5967C38.2121 33.2607 38.9811 34.1058 39.5726 35.132C39.7501 35.3734 39.8684 35.6753 39.9867 35.9771C40.0459 36.0978 40.105 36.2789 40.1642 36.46C40.1642 36.5807 40.2233 36.8222 40.2233 37.0033C40.3416 37.7277 40.105 38.6331 39.8092 39.2368C39.4543 39.8404 39.1586 40.263 38.922 40.6252C38.6854 41.0477 38.5671 41.4099 38.4488 41.7721L38.3896 41.9532C38.3896 41.9532 38.3304 42.0739 38.3896 42.0135L38.3304 42.1343C38.2713 42.3154 38.2121 42.4965 38.0938 42.7379C37.8572 43.1001 37.5023 43.5226 37.0883 43.8245C36.201 44.4885 35.3137 44.4885 34.7813 44.5488C33.6575 44.5488 32.8293 44.6092 32.0604 44.7903L31.5871 44.911C31.4097 44.9714 31.1731 44.9714 30.9956 44.9714C30.5816 45.0318 30.2267 44.9714 29.8126 44.911C29.0436 44.7903 28.3929 44.4281 27.8606 44.0056C25.7903 42.255 25.1988 39.5386 25.8494 37.3655H26.0269Z" fill="#991D00"/>
<path d="M9.46428 32.1744C8.99106 32.5366 8.75445 33.1403 8.81361 33.6836C8.87276 34.2872 9.05021 34.8305 9.34597 35.3738C9.81919 36.4603 10.5882 37.4261 11.4754 38.2109C12.3036 39.056 13.1908 39.9011 14.1964 40.5047C14.6696 40.8066 15.202 41.1084 15.7344 41.1687C16.3259 41.2895 16.8582 41.048 17.154 40.5651V40.4444H17.2723C17.8047 40.5651 18.4553 40.384 19.0469 40.1426C19.6384 39.9011 20.1707 39.4785 20.644 39.1164C21.6495 38.2713 22.4777 37.3054 23.2466 36.2189L23.4241 36.3396C23.01 37.6676 22.3594 38.9353 21.4129 40.0218C20.9397 40.6255 20.4074 41.1084 19.6975 41.5309C19.3426 41.7724 18.9286 41.9535 18.5145 42.0742C18.2779 42.1346 18.0413 42.1949 17.8047 42.1949C17.6864 42.1949 17.5089 42.1949 17.3906 42.1949C17.2132 42.1949 17.154 42.1949 16.7991 42.0742L18.5737 41.4102C18.2779 41.8931 17.8638 42.4364 17.2723 42.6779C16.6808 42.9797 16.0301 43.04 15.4978 42.9797C14.4922 42.859 13.8415 42.4968 13.25 42.0742C12.067 41.2895 11.1797 40.384 10.3516 39.4182C9.93749 38.9353 9.46427 38.392 9.16852 37.7883C8.81361 37.1847 8.51785 36.581 8.34039 35.917C8.10378 35.253 7.98548 34.5287 8.10378 33.7439C8.16294 32.9592 8.75445 32.2348 9.34597 32.0537L9.46428 32.1744Z" fill="#991D00"/>
<path d="M39.4543 15.3931C40.2825 15.3931 41.1697 15.4534 41.9387 15.876C42.7077 16.2985 43.2401 17.1436 43.4175 17.9887C43.595 18.8338 43.595 19.7393 43.4175 20.5844C43.2992 21.4899 43.0035 22.335 43.0035 23.1801C43.0035 23.6026 43.0626 24.0252 43.2401 24.3874C43.3584 24.7496 43.6541 25.1117 43.8907 25.4739C44.3048 26.2587 44.6006 27.1038 44.4822 28.0092C44.3048 28.9751 43.7133 29.6994 43.0035 30.1824C42.2345 30.6653 41.4064 30.9671 40.5782 31.1482V31.0275C41.3472 30.6049 42.057 30.1824 42.6485 29.6391C43.2401 29.0958 43.5358 28.4922 43.5358 27.9489C43.5358 27.3452 43.2992 26.7416 42.8851 26.1379L42.5894 25.5947C42.4119 25.4136 42.2936 25.1721 42.1753 24.8703C41.9387 24.327 41.8204 23.7234 41.8204 23.1801C41.8796 22.0332 42.1753 21.1881 42.3528 20.4637C42.5302 19.7393 42.5894 18.9546 42.5302 18.2906C42.4119 17.5662 42.1753 16.9625 41.643 16.4796C41.0514 15.9967 40.2825 15.7553 39.4543 15.5138V15.3931Z" fill="#F53B01"/>
<path d="M26.0272 37.3657C26.2046 38.4522 26.5595 39.418 27.1511 40.2028C27.6834 41.0479 28.3341 41.7119 29.1031 42.1344C29.458 42.3759 29.8129 42.4363 30.1678 42.4966C30.3452 42.4966 30.5227 42.4966 30.7002 42.4363C30.7593 42.4363 30.8776 42.3759 30.9368 42.3759L31.2325 42.2552C32.3564 41.8326 33.5986 41.8326 34.6042 41.7723C35.0774 41.7723 35.4323 41.7119 35.5506 41.5912C35.6098 41.5308 35.6689 41.4704 35.7872 41.3497C35.8464 41.2893 35.8464 41.229 35.9055 41.1083L36.083 40.7461C36.6153 39.5388 37.5026 38.6333 38.035 38.0297C38.2124 37.7278 38.3899 37.426 38.449 37.0035C38.449 36.5809 38.3899 36.1584 38.2716 35.6754C38.0941 34.6493 37.6209 33.6834 37.2069 32.7176L37.3252 32.6572C37.9758 33.5023 38.5082 34.4078 38.8631 35.434C39.0406 35.9169 39.218 36.4602 39.218 37.0035C39.218 37.5467 39.0406 38.09 38.7448 38.5729C38.1533 39.4784 37.4435 40.2028 37.0294 41.229C36.9111 41.7119 36.6745 42.2552 36.2013 42.557C35.7281 42.9192 35.1957 42.9795 34.6633 42.9795C33.5986 43.0399 32.593 43.1003 31.5874 43.4021C30.5819 43.8247 29.3988 43.5832 28.5707 42.9795C26.7961 41.7119 25.8497 39.5388 25.9089 37.3657H26.0272Z" fill="#F53B01"/>
<path d="M9.46429 32.1744C8.63616 33.2006 9.22768 34.2872 9.8192 35.1927C10.4699 36.0981 11.2388 36.9432 12.067 37.6676C12.9542 38.4523 13.7824 39.2371 14.6696 39.7804C15.0837 40.0822 15.5569 40.2633 15.8527 40.3236C16.0301 40.3236 16.0893 40.3236 16.1484 40.3236C16.2076 40.3236 16.2667 40.2633 16.385 40.1425L16.7991 39.5389L17.5681 39.6596C17.4498 39.6596 17.6272 39.6596 17.6864 39.6596C17.8047 39.6596 17.8638 39.6596 17.9821 39.6596C18.2188 39.5993 18.4554 39.5389 18.7511 39.4785C19.2835 39.2974 19.8158 38.9956 20.2891 38.6938C20.8214 38.3316 21.2946 37.9694 21.827 37.5469C22.3594 37.1243 22.7734 36.7018 23.3058 36.2792L23.4241 36.3396C22.596 37.4261 21.7679 38.4523 20.8214 39.2974C20.2891 39.72 19.7567 40.0822 19.1652 40.384C18.5737 40.6858 17.923 40.8669 17.2132 40.7462L17.3315 40.6858C17.0357 41.2895 16.3259 41.5913 15.7344 41.4706C15.1429 41.4102 14.5513 41.1084 14.019 40.7462C13.0134 40.1425 12.1261 39.2974 11.298 38.392C10.4107 37.5469 9.70089 36.581 9.16853 35.4341C8.87277 34.9512 8.63616 34.3476 8.63616 33.7439C8.57701 33.0799 8.87277 32.4159 9.34598 32.0537L9.46429 32.1744Z" fill="#F53B01"/>
<path d="M19.1064 9.7189C20.2895 8.69271 21.9457 8.20979 23.4837 8.63234C24.2527 8.81344 24.9625 9.23599 25.4948 9.77927C25.7906 10.0207 26.0272 10.3829 26.2638 10.6244C26.5596 10.8658 26.8553 11.0469 27.1511 11.228C27.8609 11.5298 28.6299 11.5902 29.3397 11.4695C30.0495 11.3487 30.8185 11.1073 31.5283 10.9262C32.2973 10.7451 33.1254 10.6847 33.8352 11.1676C34.5451 11.5902 34.9591 12.3146 35.2549 13.0389L35.0774 13.0993C34.5451 12.556 33.9535 12.0731 33.4212 12.0128C32.8888 11.9524 32.4747 12.1335 31.8832 12.3749L31.41 12.6164L30.8776 12.7975C30.5227 12.9182 30.1087 13.0993 29.6355 13.22C28.689 13.4011 27.5652 13.4011 26.5004 12.9786C25.9681 12.7371 25.4948 12.3749 25.0808 12.0128C25.0216 11.892 24.9033 11.7713 24.785 11.6506L24.6076 11.4091L24.3118 11.1073C24.016 10.6244 23.602 10.3225 23.1288 10.0811C22.1232 9.53781 20.8218 9.41708 19.2247 9.83963L19.1064 9.7189Z" fill="#F54501"/>
<path d="M17.2128 12.5555C15.7932 12.0726 14.7876 12.5555 13.9595 13.2799C13.6046 13.7024 13.1905 14.125 12.8947 14.6079C12.4807 15.2719 11.83 15.8152 11.4159 16.3585C10.9427 16.8414 10.4695 17.2639 10.1738 17.6865C9.81885 18.0487 9.81885 18.3505 9.7597 18.4109V18.6523C9.7597 18.7127 9.7597 18.7127 9.7597 18.7731C9.7597 18.7731 9.81885 18.9542 9.81885 19.0145C9.878 19.256 9.9963 19.4371 10.0555 19.6785C10.2921 20.1614 10.647 20.7651 10.9427 21.1273L11.6526 22.0931L11.1793 22.7571C10.9427 23.0589 10.7061 23.5419 10.5878 23.9644C10.4104 24.387 10.2329 24.8699 10.1146 25.2924C10.0555 25.715 9.9963 26.1979 10.1146 26.6808C10.1738 27.1637 10.4104 27.5863 10.7653 28.0692L10.647 28.1899C10.1738 27.8881 9.7597 27.4655 9.52309 26.9826C9.22733 26.4393 9.10903 25.8961 9.10903 25.3528C9.04987 24.2059 9.34563 23.1193 9.81885 22.0931L9.878 22.2742C8.93157 21.248 8.10345 19.9803 7.98514 18.5316C7.92599 17.6865 8.34005 17.0225 8.81327 16.4792C9.28648 15.9359 9.81885 15.5134 10.2921 15.0305C10.8244 14.6079 11.2976 14.125 11.7709 13.6421C12.2441 13.0988 12.7764 12.6159 13.368 12.2537C13.9595 11.8915 14.6693 11.6501 15.3791 11.7104C16.0889 11.7104 16.7396 12.0122 17.3311 12.4348L17.2128 12.5555Z" fill="#F54501"/>
<path d="M52.9414 26.4998C53.178 30.001 52.5864 33.5625 51.2851 36.8825C49.9838 40.1422 47.9135 43.1 45.4291 45.5146C40.342 50.4041 33.4213 53.0602 26.5005 52.9998C19.5798 52.9998 12.659 50.4041 7.63109 45.5146C5.08757 43.1 3.07641 40.1422 1.77507 36.8825C0.414575 33.6228 -0.176943 30.0613 0.0596644 26.4998H0.177968C0.118816 33.5625 3.25386 40.3233 8.22261 44.7903C13.1914 49.3176 19.8164 51.8529 26.5005 51.7322C29.813 51.7322 33.1255 51.1889 36.2606 49.9816C39.3956 48.8347 42.2349 46.9634 44.7784 44.7299C49.8063 40.2629 52.8822 33.5021 52.8231 26.4395L52.9414 26.4998Z" fill="#FF2B01"/>
<path d="M0.000807685 24.9909C-0.0583441 18.1697 3.13585 11.4692 8.16375 7.00228C13.1325 2.41458 19.8167 0 26.5008 0C33.185 0 39.8691 2.41458 44.8379 7.00228C49.8658 11.4692 53.06 18.1697 53.0008 24.9909H52.8825C52.6459 21.6105 51.7586 18.3508 50.2207 15.3929C48.801 12.4351 46.7307 9.83941 44.2463 7.72665C41.762 5.61389 38.9818 3.92369 35.9651 2.83713C32.8892 1.75057 29.695 1.20729 26.5008 1.26765C23.3066 1.26765 20.1124 1.75057 17.0957 2.89749C14.0198 3.92369 11.2396 5.61389 8.75527 7.72665C6.2709 9.83941 4.20058 12.4351 2.78094 15.3929C1.243 18.3508 0.41487 21.6105 0.178263 24.9909H0.000807685Z" fill="#FF966E"/>
<path d="M52.9409 24.9907C53.0592 28.3711 52.4677 31.8723 51.1072 35.0112C49.7467 38.1502 47.6764 41.0477 45.192 43.4019C40.2232 48.1707 33.3616 50.706 26.5 50.706C19.6976 50.706 12.7768 48.1707 7.74892 43.4019C5.26454 41.0477 3.19423 38.2105 1.83374 35.0112C0.532399 31.8119 -0.118271 28.3711 3.28682e-05 24.9907H0.118336C0.0591847 31.8119 3.25338 38.452 8.22213 42.919C13.1909 47.4463 19.875 49.8609 26.5 49.8005C33.125 49.8005 39.8092 47.3859 44.7779 42.919C49.8058 38.452 52.9409 31.8119 52.8817 25.0511L52.9409 24.9907Z" fill="#9C2901"/>
<path d="M52.9408 24.9907C53 31.8119 49.865 38.452 44.8371 42.9793C39.8683 47.5067 33.1842 49.9213 26.5 49.9213C19.875 49.9213 13.1909 47.5067 8.16295 42.9793C3.1942 38.5124 5.55813e-06 31.8119 0.0591573 24.9907H0.118309C0.177461 31.8119 3.37166 38.3916 8.34041 42.7982C13.3092 47.2652 19.9342 49.6194 26.5 49.6194C33.0659 49.6798 39.6909 47.3256 44.6596 42.7982C49.6284 38.3916 52.8225 31.8119 52.9408 24.9907Z" fill="#FCA669"/>
<path d="M38.5671 6.76072C37.9756 6.15707 37.1475 6.15707 36.3193 6.03634C35.5504 5.91561 34.7222 5.91561 33.8941 5.85525L28.8662 5.67416C27.1508 5.55343 25.4354 5.37233 23.8383 5.19124C23.0102 5.13088 22.1821 5.01015 21.4131 5.07051C20.585 5.07051 19.8751 5.13088 19.1062 5.55343L18.9287 5.4327C19.4611 4.64796 20.3484 4.28577 21.1765 4.04432C22.0046 3.80286 22.8919 3.74249 23.7792 3.68213C25.4946 3.68213 27.2691 3.80286 28.9845 3.86322C30.6999 3.98395 32.4745 4.10468 34.1899 4.46687C35.018 4.5876 35.8461 4.76869 36.6742 5.07051C37.4432 5.4327 38.3897 5.79489 38.7446 6.70035L38.5671 6.76072Z" fill="#A81C01"/>
<path d="M19.0472 5.55335C18.5739 6.15699 18.5739 7.00209 18.6922 7.78683C18.8105 8.57157 18.988 9.35631 19.3429 10.0807C20.0527 11.4691 21.2949 12.616 21.5907 14.3062C21.8273 15.8757 22.4188 17.3848 23.2469 18.7128C23.661 19.3768 24.1934 20.0408 24.7849 20.5237C25.3764 21.0066 26.2045 21.2481 26.9143 20.8859C28.334 20.2219 29.517 19.1354 30.6409 18.0488C31.7056 16.9019 32.7704 15.6946 33.8351 14.5477C34.8407 13.3404 35.9646 12.1934 36.9701 10.9861C37.5025 10.3825 37.9757 9.71849 38.3306 9.05449C38.6855 8.39048 38.9222 7.54537 38.6264 6.76064H38.6855C39.0405 7.48501 38.9222 8.45084 38.5672 9.23558C38.2715 9.89959 37.7983 10.624 37.3251 11.288C36.3786 12.5556 35.3139 13.7629 34.3675 14.9702C33.3619 16.2982 32.2972 17.4451 31.1733 18.6524C30.0494 19.739 28.9255 20.9463 27.2101 21.731C27.0918 21.7914 26.9735 21.8518 26.8552 21.8518L26.7369 21.9121C26.6186 21.9121 26.5594 21.9121 26.5003 21.9725C26.2045 21.9725 25.9088 21.9725 25.613 21.9121C25.0806 21.7914 24.6074 21.4896 24.2525 21.1877C23.5427 20.6445 23.0103 19.9201 22.5371 19.1957C22.123 18.4713 21.7681 17.6866 21.4724 16.9019C21.2949 16.4793 21.1766 16.0568 21.1175 15.6342C21.0583 15.2117 20.9992 14.7287 20.94 14.4269C20.7626 13.0385 19.6387 11.8916 18.9289 10.3221C18.5739 9.5374 18.4556 8.6923 18.3965 7.8472C18.3965 7.42464 18.3965 7.00209 18.4556 6.57954C18.5148 6.15699 18.7514 5.73444 18.988 5.43262L19.0472 5.55335Z" fill="#FC8F5C"/>
<path d="M31.4687 23.9645C31.2912 24.7493 31.6461 25.5944 32.1785 26.1377C32.77 26.6809 33.4207 27.1035 34.1305 27.526C35.5502 28.3108 36.9698 29.0352 38.3303 29.8803C39.7499 30.7254 41.2287 31.3894 42.7667 31.8119C43.5356 31.993 44.3046 32.1741 45.1327 32.1741C45.9017 32.1741 46.7298 32.1137 47.3805 31.6912C48.0903 31.2686 48.3269 30.4839 48.3269 29.6388C48.3861 28.8541 48.4452 28.009 48.5044 27.2242C48.6818 25.5944 48.9185 23.9645 48.9776 22.3347C49.0368 21.4896 48.8593 20.7049 48.6818 19.9201C48.4452 19.1354 48.1495 18.3506 47.8537 17.6263C47.2031 16.1775 46.4932 14.608 45.251 13.5818L45.3102 13.5215C46.02 13.944 46.5524 14.608 47.0256 15.2721C47.4988 15.9361 47.9129 16.6604 48.2678 17.4452C48.6227 18.2299 48.9185 18.9543 49.1551 19.7994C49.2734 20.2219 49.3917 20.5841 49.51 21.067C49.5691 21.2481 49.6283 21.4292 49.6283 21.7311C49.6283 21.9121 49.6283 22.1536 49.6283 22.3951C49.6874 24.0249 49.4508 25.6547 49.3325 27.2846C49.2734 28.0693 49.2142 28.9144 49.1551 29.6992C49.1551 30.0613 49.1551 30.665 48.9185 31.2083C48.6819 31.7516 48.3269 32.2345 47.8537 32.4759C46.9073 33.0192 45.9609 33.0796 45.0736 33.0796C44.1863 33.0192 43.3582 32.8381 42.5301 32.5967C40.933 32.1137 39.395 31.4497 38.0345 30.4839C36.674 29.6388 35.3135 28.8541 33.9531 27.9486C33.2432 27.4657 32.5926 26.9828 32.001 26.3791C31.7053 26.0169 31.4687 25.6547 31.3504 25.2322C31.2321 24.8096 31.2912 24.3267 31.4095 23.9645H31.4687Z" fill="#FC8F5C"/>
<path d="M45.1921 13.6426C44.778 13.5219 44.4231 13.5219 44.1274 13.6426C44.0091 13.6426 43.8908 13.7633 43.8316 13.8237C43.7133 13.8841 43.6542 14.0048 43.4767 14.1255C42.8852 14.6084 42.2937 15.0913 41.7021 15.5743C41.1106 16.0572 40.5191 16.4797 39.9276 16.9626C39.3361 17.3852 38.7446 17.8077 38.153 18.2907C36.97 19.1358 35.787 20.0412 34.6631 20.8863C33.5984 21.8522 32.4745 22.6369 31.528 23.9649H31.3506C31.6463 22.3351 32.6519 21.0674 33.6575 19.9205C34.7222 18.7736 35.9053 17.7474 37.1475 16.8419C38.3896 15.9365 39.691 15.0913 41.0515 14.3066C41.7021 13.9444 42.412 13.5822 43.1218 13.2201C43.4767 13.039 43.8908 12.9182 44.3048 12.9786C44.6597 13.039 45.0146 13.2804 45.3104 13.4615L45.1921 13.6426Z" fill="#A81C01"/>
<path d="M43.0035 38.9956C43.4175 39.7803 43.2992 40.8669 42.7077 41.6516C42.1162 42.376 41.4064 42.9193 40.6966 43.4626C39.2769 44.4284 37.739 45.1528 36.2602 45.9375L34.0124 46.9034C33.1843 47.2655 32.297 47.507 31.4097 47.5674C30.4633 47.5674 29.576 47.507 28.7479 47.1448C27.9198 46.7826 27.21 46.1186 26.7959 45.3339L26.855 45.2735C27.8606 46.6619 29.6943 47.0844 31.2914 46.843C32.9477 46.6619 34.4265 45.7564 35.9053 45.0924C37.4432 44.4284 38.9812 43.704 40.4008 42.8589C41.1106 42.4364 41.8205 41.9535 42.412 41.3498C43.0035 40.7462 43.1809 39.8407 42.9443 39.056L43.0035 38.9956Z" fill="#FC8F5C"/>
<path d="M26.7366 45.3941C25.8493 44.1265 25.6719 42.557 25.731 41.0479C25.731 39.5388 25.7902 38.09 25.9085 36.5809C26.0268 35.0718 26.1451 33.6231 26.5591 32.114C26.7366 31.3896 26.9732 30.6652 27.4464 30.0616C27.9196 29.4579 28.5703 28.975 29.3393 28.7335C30.8772 28.3714 32.356 29.0957 33.5982 29.8201C34.8995 30.6048 36.0234 31.5103 37.2065 32.4158C38.3303 33.3816 39.4542 34.2871 40.519 35.3736C41.5245 36.3998 42.6484 37.4864 43.0625 38.9955L42.885 39.0559C42.1161 37.7882 40.9922 36.8827 39.8091 36.098C38.6261 35.2529 37.4431 34.4682 36.26 33.6231C35.077 32.8383 33.894 31.9932 32.7109 31.3896C31.587 30.7256 30.3449 30.3634 29.7533 30.6048H29.5759L29.4576 30.6652H29.3984C29.4576 30.6048 29.3984 30.6652 29.3984 30.6652C29.3393 30.6652 29.3393 30.7256 29.2801 30.7256C29.1618 30.8463 28.9844 30.967 28.8661 31.1481C28.5703 31.5103 28.3337 32.0536 28.1562 32.6572C27.7422 33.8645 27.5647 35.3133 27.3281 36.7017L26.6774 41.1083C26.3817 42.4966 26.3225 43.885 26.914 45.2734L26.7366 45.3941Z" fill="#A81C01"/>
<path d="M22.4776 28.7939C23.1283 29.1561 23.779 29.6994 24.0747 30.4842C24.3705 31.2689 24.3705 32.0536 24.3113 32.8384C24.2522 34.4078 23.9564 35.8566 23.779 37.3657C23.6015 38.8748 23.3057 40.3236 22.9508 41.8327C22.7734 42.557 22.5368 43.3418 22.241 44.0662C21.8861 44.7905 21.5312 45.6356 20.5848 46.2393C20.0524 46.5411 19.4017 46.5411 18.9285 46.4204C18.6919 46.36 18.4553 46.2393 18.2187 46.1185L17.7455 45.8771C17.154 45.5753 16.5033 45.3338 15.7935 45.032C14.433 44.4887 12.9542 43.8247 11.7711 42.7985C10.5881 41.8327 9.58253 40.6254 8.6361 39.4181C8.22204 38.8144 7.80798 38.1504 7.45307 37.4864C7.15731 36.8224 6.86155 36.0377 6.9207 35.2529H6.97985C7.09815 36.7621 8.10374 37.9693 9.05016 39.1163C9.99659 40.2632 11.0613 41.3498 12.1852 42.1949C13.3682 43.1003 14.7287 43.704 16.0892 44.2472C16.799 44.4887 17.4497 44.7302 18.1595 45.0923C18.5145 45.2734 18.8102 45.4545 19.106 45.5149C19.4609 45.5753 19.8158 45.5753 20.1115 45.3942C20.7031 45.032 21.1171 44.368 21.4129 43.704C21.7086 43.04 21.9453 42.3156 22.1227 41.5912C22.5368 40.1425 22.7734 38.6937 23.0691 37.1846C23.3649 35.7359 23.6607 34.2871 23.8381 32.778C23.8973 32.0536 23.9564 31.2689 23.779 30.5445C23.6015 29.8805 23.01 29.3372 22.4185 28.8543L22.4776 28.7939Z" fill="#FC8F5C"/>
<path d="M6.86133 35.2526C6.86133 34.4679 7.27539 33.6228 7.86691 33.1398C8.45843 32.5966 9.1091 32.174 9.75977 31.7515C11.0611 30.9667 12.4216 30.3027 13.7821 29.5783C15.1426 28.9143 16.5622 28.3107 18.1002 28.0089C19.579 27.6467 21.2944 27.7674 22.5366 28.7936L22.4182 28.9143C20.8211 28.5521 19.6381 28.9143 18.3959 29.3972C17.1537 29.9405 15.8524 30.6045 14.5511 31.2685L12.5399 32.2344C11.8301 32.4758 11.1794 32.838 10.4696 33.0795C9.75977 33.3209 9.1091 33.5624 8.51758 33.8642C7.92606 34.166 7.39369 34.4679 7.09794 35.2526H6.86133Z" fill="#A81C01"/>
<path d="M21.2942 21.1879C20.4069 19.8598 19.4014 18.5318 18.5141 17.1434L16.0297 13.0387C15.6748 12.3746 15.2016 11.7106 14.7875 11.1674C14.3735 10.6241 13.8411 10.1412 13.6045 10.0808C13.4862 10.0808 13.6045 10.0808 13.6045 10.0808L13.4862 10.1412L13.2496 10.2619L12.8355 10.443C12.244 10.8052 11.7116 11.2277 11.1793 11.6503C10.0554 12.5557 9.10894 13.7027 8.28082 14.91C7.86675 15.5136 7.45269 16.1172 7.15693 16.7813C6.86117 17.3849 6.56542 18.0489 6.38796 18.7733C5.9739 20.1617 5.67814 21.6708 5.61899 23.1799C5.55984 23.9646 5.55984 24.7494 5.61899 25.5341C5.73729 26.3188 5.85559 27.0432 6.32881 27.6469L6.26966 27.828C5.61899 27.2847 5.26408 26.4999 5.08662 25.7152C4.85001 24.9305 4.73171 24.0854 4.67256 23.3006C4.55425 21.6708 4.61341 20.0409 4.96832 18.4111C5.26408 16.7813 5.9739 15.2721 6.86117 13.9441C7.74845 12.5557 8.81318 11.2881 9.99622 10.2619C10.5877 9.71861 11.2976 9.2357 11.9482 8.87351C12.3031 8.69242 12.658 8.51132 13.0721 8.39059C13.5453 8.2095 14.0185 8.26986 14.3735 8.45096C15.1424 8.87351 15.6156 9.53752 16.0889 10.2015C16.5621 10.8655 16.917 11.5899 17.2719 12.3143C17.9817 13.763 18.6324 15.2721 19.283 16.7209C19.9929 18.23 20.8801 19.558 21.4717 21.1275L21.2942 21.1879Z" fill="#A81C01"/>
<path d="M38.5671 6.76058C38.2713 5.97584 37.3841 5.61366 36.6151 5.31183C35.787 5.01001 34.9588 4.82892 34.0716 4.70819C32.4153 4.40637 30.6999 4.28564 28.9845 4.22527C27.21 4.10454 25.4946 3.98382 23.7792 4.04418C22.951 4.04418 22.0638 4.16491 21.2356 4.346C20.4075 4.5271 19.5794 4.88928 19.1062 5.55329L18.9287 5.43256C19.1653 4.46673 20.1117 3.80272 20.999 3.31981C21.8863 2.95762 22.8327 2.71616 23.72 2.53507C25.5537 2.23325 27.3283 2.29361 29.0437 2.35397C30.8182 2.4747 32.5928 2.6558 34.3673 3.25944C35.2546 3.5009 36.0827 3.92345 36.9109 4.40637C37.3249 4.70819 37.739 4.94965 38.0939 5.31183C38.4488 5.67402 38.7446 6.15694 38.7446 6.70022L38.5671 6.76058Z" fill="#FF4A24"/>
<path d="M45.1916 13.6423C44.6001 13.1594 43.772 13.0387 43.1213 13.4613C42.4706 13.7631 41.82 14.1856 41.1693 14.5478C39.868 15.3326 38.5666 16.1777 37.3836 17.1435C36.1414 18.049 34.9584 19.0148 33.8936 20.1013C32.8289 21.1879 31.8825 22.4556 31.5276 23.9647H31.3501C31.1726 23.1196 31.3501 22.2141 31.6459 21.369C31.9416 20.5239 32.3557 19.7995 32.8289 19.0752C33.7753 17.6868 35.0175 16.6002 36.2597 15.574C37.6202 14.6685 38.9807 13.8838 40.4595 13.2802C41.2284 12.9783 41.9383 12.7369 42.7664 12.5558C42.9438 12.5558 43.2396 12.4351 43.5354 12.4351C43.8311 12.4351 44.0677 12.4351 44.3043 12.5558C44.7775 12.7369 45.1325 13.0991 45.3099 13.4613L45.1916 13.6423Z" fill="#FF4A24"/>
<path d="M26.7364 45.394C25.5533 44.3678 25.1393 42.5569 24.9618 41.0478C24.8435 39.5387 24.7252 38.0296 24.7252 36.5205C24.6661 34.951 24.7844 33.3815 25.1984 31.7517C25.3759 30.9066 25.7308 30.0615 26.3223 29.2164C26.6181 28.7334 27.0321 28.3712 27.4462 28.0091C27.5645 27.9487 27.6828 27.8883 27.8011 27.828L27.9786 27.7072L28.0969 27.6469C28.3926 27.5261 28.6292 27.4054 28.925 27.3451C30.0489 27.0432 31.1136 27.2243 31.9417 27.5261C32.8882 27.7676 33.598 28.1902 34.3078 28.6127C35.6683 29.5182 36.8513 30.484 37.9161 31.5102C38.9808 32.5364 40.0455 33.623 40.992 34.8302C41.4652 35.4339 41.8792 36.0979 42.2933 36.7619C42.7074 37.4259 43.0031 38.2107 43.0623 38.9954L42.8848 39.0558C42.4708 37.6674 41.3469 36.5808 40.3413 35.5546C39.2766 34.5284 38.1527 33.5626 37.0288 32.6571C35.9049 31.7517 34.7219 30.8462 33.4797 30.1218C32.1783 29.3974 30.7587 28.7334 29.3982 29.0956C28.0377 29.4578 27.2096 30.8462 26.7955 32.2346C26.3815 33.623 26.2632 35.1321 26.1449 36.5808C26.0266 38.0899 25.9674 39.599 25.9674 41.0478C25.9083 42.4965 26.0266 44.066 26.9138 45.2733L26.7364 45.394Z" fill="#FF4A24"/>
<path d="M6.86169 35.253C6.68423 34.8908 6.68423 34.3475 6.74339 33.8646C6.86169 33.3817 7.0983 32.9592 7.3349 32.597C7.86727 31.8122 8.51794 31.269 9.16861 30.7257C10.4108 29.6995 11.7121 28.9751 13.1318 28.2507C14.5514 27.5867 16.0894 26.9831 17.8048 26.8623C18.692 26.802 19.5793 26.8623 20.4666 27.1642C21.2947 27.466 22.0637 28.0696 22.4778 28.794L22.4186 28.9147C21.2356 27.9489 19.5793 27.8885 18.1597 28.2507C16.6809 28.6129 15.3204 29.2769 13.9599 29.9409C12.5403 30.6049 11.1798 31.269 9.87843 31.9933C9.16861 32.3555 8.57709 32.7781 7.98557 33.3213C7.45321 33.8043 7.03914 34.4683 7.03914 35.253H6.86169Z" fill="#FF4A24"/>
<path d="M21.2949 21.188C20.7034 19.6789 19.8161 18.2905 19.1655 16.8418C18.4556 15.3931 17.805 13.8839 17.0951 12.4956C16.7402 11.7712 16.3262 11.1072 15.9121 10.4432C15.4389 9.77916 14.9065 9.11515 14.2559 8.75296C13.9009 8.63223 13.546 8.57187 13.1911 8.6926C12.8954 8.81333 12.4813 8.99442 12.1855 9.17551C11.4757 9.5377 10.8251 10.0206 10.2335 10.5639C9.0505 11.5901 7.98577 12.7974 7.15765 14.1254C6.27037 15.4534 5.56055 16.9022 5.20564 18.4716C4.90988 20.0411 4.79157 21.671 4.90988 23.2404C4.96903 24.0252 5.08733 24.8703 5.26479 25.5946C5.44224 26.4397 5.738 27.1641 6.38867 27.647L6.27037 27.8281C5.91546 27.647 5.56055 27.3452 5.26479 26.9227L5.08733 26.6812L4.96903 26.3794C4.85073 26.1983 4.79157 25.9568 4.67327 25.7757C4.37751 24.991 4.1409 24.1459 3.96345 23.3612C3.66769 21.671 3.54939 19.9204 3.84514 18.1698C3.96345 17.2644 4.20006 16.4192 4.55497 15.5138C4.90988 14.729 5.26479 13.8839 5.738 13.1596C6.62528 11.6505 7.80831 10.3224 9.10965 9.11515C9.81948 8.57187 10.5293 8.02859 11.3574 7.60604C11.5349 7.48531 11.7715 7.36458 12.0081 7.24385L12.3039 7.12312L12.4222 7.06276C12.5405 7.00239 12.5996 7.00239 12.7179 6.94203C13.4869 6.70057 14.4333 6.8213 15.0248 7.18349C16.2079 7.84749 16.7402 8.6926 17.2134 9.47733C17.6867 10.2621 18.0416 10.9864 18.3373 11.7712C18.988 13.2803 19.5204 14.8498 19.9936 16.3589C20.2893 17.204 20.5259 17.9284 20.7626 18.7131C21.0583 19.4978 21.2949 20.2826 21.4132 21.1277L21.2949 21.188Z" fill="#FF4A24"/>
<path d="M6.32966 27.7074C7.57185 28.6128 9.28725 28.3714 10.7069 28.0695C12.1857 27.7074 13.6053 27.0433 15.025 26.5001C16.4446 25.8964 17.8643 25.3531 19.2247 24.6891C19.8754 24.3269 20.5852 23.9648 21.0585 23.3611C21.5317 22.7575 21.65 21.9124 21.3542 21.188H21.4134C21.8866 21.852 21.8274 22.8782 21.4134 23.6629C20.9401 24.3873 20.2303 24.8702 19.5205 25.2928C18.2192 26.1379 16.7404 26.6812 15.3799 27.3452C13.9011 27.8281 12.4814 28.4921 10.8843 28.7335C10.0562 28.8543 9.28725 28.9146 8.45912 28.8543C7.631 28.6732 6.80287 28.4317 6.27051 27.7677L6.32966 27.7074Z" fill="#FC8F5C"/>
<path d="M28.9252 33.8643C28.3928 33.8643 28.1562 35.313 28.5702 35.5545C28.9843 35.8563 29.1026 33.8643 28.9252 33.8643Z" fill="white"/>
<path d="M33.4208 25.534C33.1842 26.0169 34.308 26.862 34.7812 26.6206C35.1953 26.3791 33.4799 25.3529 33.4208 25.534Z" fill="white"/>
<path d="M18.0409 33.2606C17.5677 33.0191 16.7396 34.166 16.9762 34.5886C17.272 35.0112 18.2184 33.3209 18.0409 33.2606Z" fill="white"/>
<path d="M15.0243 32.6573C15.3792 33.0195 16.5623 32.2347 16.444 31.7518C16.3848 31.2689 14.906 32.5365 15.0243 32.6573Z" fill="white"/>
<path d="M21.1173 31.9326C20.7033 31.993 20.585 33.0795 20.9399 33.2606C21.2948 33.3814 21.2356 31.9326 21.1173 31.9326Z" fill="white"/>
<path d="M15.6161 24.2666C15.4387 23.9044 14.4331 24.1458 14.3739 24.508C14.3148 24.8702 15.6753 24.3873 15.6161 24.2666Z" fill="white"/>
<path d="M14.5515 20.0411C14.5515 19.6789 13.5459 19.4374 13.3093 19.7393C13.1318 20.0411 14.5515 20.1618 14.5515 20.0411Z" fill="white"/>
<path d="M26.4412 16.4795C26.0271 16.4795 25.7905 17.5057 26.0862 17.7471C26.4412 17.9886 26.6186 16.4795 26.4412 16.4795Z" fill="white"/>
<path d="M29.339 15.8154C29.1024 15.8154 28.9249 16.4794 29.1615 16.6002C29.339 16.7209 29.3981 15.8154 29.339 15.8154Z" fill="white"/>
<path d="M24.1336 14.367C23.7787 14.2463 23.4238 14.9707 23.7196 15.1517C24.0153 15.3932 24.2519 14.4274 24.1336 14.367Z" fill="white"/>
<path d="M15.0841 15.4531C14.7883 15.272 14.2559 15.8153 14.4926 16.1171C14.67 16.419 15.2024 15.5738 15.0841 15.4531Z" fill="white"/>
<path d="M31.4093 35.8563C31.0544 35.9771 31.1136 37.0636 31.4685 37.124C31.7643 37.2447 31.5276 35.796 31.4093 35.8563Z" fill="white"/>
<path d="M36.4963 23.059C36.378 22.8176 35.8456 22.9383 35.7864 23.1194C35.7273 23.3609 36.4963 23.1194 36.4963 23.059Z" fill="white"/>
<path d="M35.5499 21.2483C35.7274 21.4294 36.6738 20.8861 36.6738 20.6446C36.7329 20.4032 35.4907 21.1879 35.5499 21.2483Z" fill="white"/>
<path d="M31.7058 31.9329C31.3509 32.1743 31.8241 33.1401 32.2382 33.1401C32.5931 33.0798 31.765 31.8725 31.7058 31.9329Z" fill="white"/>
<path d="M19.1064 45.8773C19.698 46.0584 20.2895 45.8773 20.7035 45.4548C21.1176 45.0322 21.4134 44.5493 21.65 44.006C22.1232 42.9195 22.4189 41.7122 22.833 40.5049C22.8922 41.1689 22.833 41.7725 22.7147 42.4365C22.5964 43.0402 22.4189 43.7042 22.1823 44.3078C21.9457 44.9115 21.5317 45.5151 20.9993 45.8773C20.7035 46.0584 20.3486 46.1791 19.9937 46.1791C19.6388 46.1791 19.3431 46.0584 19.1064 45.8773Z" fill="#FFD8D2"/>
<path d="M32.4746 46.9633C34.1309 45.9975 35.7871 45.1524 37.5025 44.3073L40.046 43.1C40.8742 42.6774 41.7614 42.3153 42.5304 41.772C41.8797 42.4963 41.0516 42.9793 40.2235 43.5225C39.4545 44.0055 38.5672 44.428 37.7391 44.8506C36.0237 45.6957 34.3083 46.42 32.4746 46.9633Z" fill="#FFD8D2"/>
<path d="M45.8428 32.7177C46.4934 32.5969 47.085 32.4762 47.5582 32.114C47.9722 31.7518 48.268 31.2085 48.3863 30.6049C48.7412 29.3976 48.8004 28.13 49.037 26.8623C49.1553 27.5263 49.2144 28.13 49.2144 28.794C49.2144 29.458 49.1553 30.122 48.9778 30.786C48.8004 31.45 48.4455 32.114 47.7948 32.4762C47.1441 32.8988 46.4343 32.778 45.8428 32.7177Z" fill="#FFD8D2"/>
<path d="M9.28711 28.8539C10.9434 28.1899 12.5405 27.6466 14.1376 26.9826C15.7938 26.379 17.3909 25.715 18.988 25.1113C17.6275 26.1375 15.9713 26.9223 14.3742 27.5863C12.7179 28.1899 11.0025 28.6728 9.28711 28.8539Z" fill="#FFD8D2"/>
<path d="M25.4355 21.2483C25.8496 21.4294 26.3228 21.3087 26.7369 21.1276C27.1509 20.9465 27.565 20.705 27.9199 20.4032C28.6889 19.8599 29.3396 19.2563 30.0494 18.5923C31.4099 17.3246 32.7112 15.8759 34.0717 14.5479C33.5985 15.4533 33.007 16.1777 32.4155 16.9624C31.8239 17.6868 31.1733 18.4112 30.4634 19.0752C29.7536 19.7392 29.0438 20.3428 28.2157 20.8258C27.8016 21.0672 27.3876 21.3087 26.8552 21.4294C26.382 21.5501 25.7905 21.5501 25.4355 21.2483Z" fill="#FFD8D2"/>
<path d="M9.28711 6.70036C10.8251 5.13089 12.7771 3.98396 14.7291 3.01813C16.7402 2.0523 18.8697 1.38829 20.9992 0.905375C23.1878 0.482823 25.3764 0.30173 27.6242 0.422459C29.8128 0.543188 32.0014 1.0261 34.0717 1.75048C31.9422 1.26756 29.7536 0.965739 27.565 0.905375C25.4355 0.84501 23.2469 1.0261 21.1766 1.50902C18.988 1.87121 16.9177 2.59558 14.9065 3.44068C12.9545 4.28578 11.0025 5.31198 9.28711 6.70036Z" fill="#FFD8D2"/>
<path d="M19.9346 29.8804C19.1656 30.7255 18.2783 31.3291 17.5093 31.9931C17.0953 32.295 16.6812 32.7175 16.4446 33.2004C16.208 33.6833 16.0897 34.2266 15.9714 34.7699V35.0114L15.6756 34.8906C14.8475 34.5284 13.9602 34.3473 13.073 34.2266C12.1857 34.1059 11.2984 34.1662 10.4111 34.3473V34.287C11.1801 33.7437 12.1857 33.5626 13.1913 33.5626C14.1377 33.623 15.0841 33.9248 15.9122 34.4681L15.5573 34.6492C15.7939 34.1059 16.0306 33.623 16.2672 33.1401C16.5629 32.5968 16.7995 32.1139 17.1544 31.6913C17.5093 31.2084 17.9826 30.9066 18.4558 30.6047C18.929 30.3029 19.4022 30.0615 19.9346 29.8804Z" fill="#FCA669"/>
<path d="M19.5795 37.0638C19.4021 36.3394 19.3429 35.615 19.4021 34.8907C19.4612 34.5285 19.5795 34.1663 19.6387 33.8041C19.6978 33.4419 19.6978 33.0797 19.6978 32.7175C19.6978 31.9932 19.8161 31.2084 20.171 30.4841C20.4076 30.1822 20.7034 29.82 21.1175 29.639C21.5315 29.4579 22.0047 29.5786 22.3005 29.82V29.8804C21.4724 29.7597 21.0583 30.1822 20.8217 30.7859C20.5259 31.3895 20.2893 32.0535 20.0527 32.7779C19.9344 33.1401 19.8753 33.4419 19.8753 33.8041C19.8753 34.1663 19.9344 34.5285 19.9344 34.8907C19.9344 35.615 19.8753 36.3394 19.6978 37.0638H19.5795Z" fill="#FCA669"/>
<path d="M14.1377 36.7617C14.5518 36.3391 15.1433 36.0977 15.7348 36.0977C16.0306 36.158 16.3263 36.2184 16.5629 36.2184C16.8587 36.2184 17.1544 36.2184 17.4502 36.2184C18.5741 36.158 19.7571 36.5202 20.5852 37.4257V37.486C19.4022 37.2446 18.4558 36.8824 17.391 36.5202C17.1544 36.4598 16.8587 36.3995 16.5629 36.4598C16.2672 36.4598 16.0306 36.5806 15.7939 36.6409C15.2616 36.7617 14.7292 36.822 14.1377 36.7617Z" fill="#FCA669"/>
<path d="M29.8126 38.4522C29.576 37.7278 29.4576 37.0035 29.576 36.2791C29.6351 35.9169 29.7534 35.5547 29.8717 35.2529C29.9309 34.8907 30.0492 34.5285 30.1675 34.1663C30.3449 33.8042 30.6998 33.442 31.1139 33.442C31.528 33.3816 31.942 33.5023 32.2969 33.6834C32.9476 34.0456 33.48 34.5889 33.8349 35.2529H33.7757C33.1251 34.8907 32.5927 34.5285 32.0012 34.2267C31.4097 33.9249 30.8773 33.8042 30.4632 34.3474C30.2266 34.5889 30.1083 34.9511 30.0492 35.2529C29.99 35.6151 30.0492 35.9773 30.0492 36.2791C30.0492 36.9431 29.99 37.6675 29.8717 38.3919L29.8126 38.4522Z" fill="#FCA669"/>
<path d="M27.8606 38.9956C28.2155 38.6334 28.6887 38.3919 29.2211 38.2108C29.7535 38.0901 30.2858 38.0901 30.759 38.2108C31.2322 38.3919 31.7055 38.5127 32.1787 38.7541C32.6519 38.9352 33.1251 39.1767 33.5983 39.4785L33.1251 39.6596C33.3026 38.9352 33.5983 38.2108 34.1898 37.7279C34.7222 37.245 35.432 36.8828 36.1418 36.8828V36.9432C35.5503 37.3054 35.018 37.6676 34.6039 38.1505C34.1898 38.6334 33.8349 39.1767 33.6575 39.7803L33.5392 40.2029L33.2434 39.901C32.8885 39.5992 32.5336 39.237 32.1195 38.9956C31.7055 38.7541 31.1731 38.6334 30.6999 38.6334C29.7535 38.6937 28.8662 38.7541 27.8606 38.9956Z" fill="#FCA669"/>
<path d="M11.8892 23.844C11.7709 23.4818 11.9484 23.0592 12.185 22.8178C12.4216 22.5763 12.7765 22.3952 13.0723 22.2745C13.4272 22.2141 13.7229 22.2141 14.0778 22.2141C14.3736 22.2141 14.7285 22.1538 15.0243 22.0934C15.6749 21.9727 16.3256 21.9727 16.9763 22.1538C17.5678 22.3349 18.1593 22.6367 18.5734 23.18V23.2403C17.9819 23.0592 17.3903 22.9385 16.7988 22.8178C16.2073 22.6971 15.6158 22.5763 15.0243 22.4556C14.7285 22.3952 14.3736 22.3952 14.0778 22.4556C13.7821 22.516 13.4863 22.6971 13.2497 22.8178C12.7173 23.0592 12.185 23.2403 11.9484 23.844H11.8892Z" fill="#FCA669"/>
<path d="M18.9881 20.524C18.3375 20.2826 17.746 19.9808 17.2136 19.5582C16.9178 19.3771 16.6812 19.1357 16.3855 18.9546C16.0897 18.8338 15.7348 18.7131 15.3799 18.6527C14.0785 18.4716 12.8364 18.4716 11.7125 19.2564L11.6533 19.196C11.9491 18.532 12.6589 18.0491 13.4279 17.9284C14.1968 17.8076 14.9067 17.9887 15.5573 18.3509C15.8531 18.532 16.1489 18.6527 16.5038 18.7735C16.7995 18.8942 17.1544 18.9546 17.5093 19.1357C18.0417 19.4375 18.6332 19.9204 18.9881 20.524Z" fill="#FCA669"/>
<path d="M15.853 13.5818C15.2615 13.7026 14.7882 13.8837 14.2559 14.0044C13.9601 14.1251 13.7235 14.1855 13.4869 14.3062C13.2503 14.4873 13.0728 14.7288 12.9545 14.9702C12.4813 16.0568 12.7771 17.0226 13.0728 18.2299H13.0137C12.5405 17.8677 12.1856 17.2641 12.0673 16.6604C11.949 15.9964 12.1856 15.272 12.6588 14.7891C12.8954 14.5477 13.132 14.3666 13.3686 14.1855C13.6052 14.0044 13.8418 13.7629 14.0784 13.5818C14.6108 13.28 15.3206 13.28 15.9121 13.5818H15.853Z" fill="#FCA669"/>
<path d="M21.6496 15.0308C21.5904 14.4875 21.7087 13.8839 22.0045 13.3406C22.3002 12.7973 22.8917 12.3748 23.4833 12.3748C24.0748 12.3144 24.6663 12.5559 25.1395 12.7973C25.6127 13.0991 26.0859 13.4613 26.4408 13.9442H25.9676C26.2042 13.5217 26.4408 13.1595 26.7958 12.8577C27.1507 12.5559 27.5056 12.3144 27.9788 12.1333C28.8661 11.8315 29.8125 11.9522 30.5815 12.4351V12.4955C29.7533 12.3748 28.9252 12.3748 28.2154 12.7369C27.5647 13.0388 26.9141 13.582 26.4408 14.1857L26.2042 14.6082L26.0268 14.2461C25.7902 13.8235 25.4944 13.3406 25.0804 13.0388C24.6663 12.6766 24.0748 12.6162 23.6016 12.7973C23.1283 12.9784 22.7734 13.2802 22.4185 13.6424C22.1228 14.065 21.8862 14.5479 21.7087 15.0308H21.6496Z" fill="#FCA669"/>
<path d="M33.7754 22.8781C34.1303 22.3952 34.6035 22.0934 35.1359 21.9123C35.4316 21.8519 35.6682 21.8519 35.964 21.7916C36.2598 21.7312 36.4964 21.6708 36.7921 21.5501C37.3245 21.369 38.0343 21.369 38.5667 21.7312C39.0991 22.1537 39.2174 22.8781 39.0991 23.4214H39.0399C38.7441 22.9385 38.5075 22.5159 38.1526 22.2745C37.7977 22.033 37.3245 21.9123 36.7921 21.9123C36.5555 21.9123 36.2598 21.9123 36.0232 22.033C35.7866 22.0934 35.5499 22.2745 35.3725 22.3952C34.8993 22.6367 34.3669 22.8178 33.7754 22.8781Z" fill="#FCA669"/>
<path d="M35.7871 24.9909C36.2012 24.8702 36.6152 24.9305 36.911 25.2324C37.0293 25.3531 37.1476 25.5946 37.2068 25.7153L37.5025 26.1982C37.7391 26.5604 37.7391 26.9829 37.68 27.4055C37.5617 27.7677 37.3842 28.1299 37.0884 28.4317H37.0293C36.9701 27.5866 37.1476 27.0433 37.2068 26.3189C37.2068 26.1378 37.1476 25.9567 37.0293 25.836C36.911 25.7153 36.7335 25.6549 36.6152 25.5946C36.3195 25.4738 36.0829 25.2927 35.7871 25.0513V24.9909Z" fill="#FCA669"/>
</g>
<defs>
<clipPath id="clip0_419_13162">
<rect width="53" height="53" fill="white"/>
</clipPath>
</defs>
</svg>
